<?xml version="1.0" encoding="UTF-8"?>
<svg width="49px" height="56px" viewBox="0 0 49 56" version="1.1" xmlns="http://www.w3.org/2000/svg" xmlns:xlink="http://www.w3.org/1999/xlink">
    <!-- Generator: Sketch 59.1 (86144) - https://sketch.com -->
    <title>• Icons / Github / Dark Aqua</title>
    <desc>Created with Sketch.</desc>
    <g id="•-Icons-/-Github-/-Dark-Aqua" stroke="none" stroke-width="1" fill="none" fill-rule="evenodd">
        <g>
            <rect id="bg" stroke="#1768E5" x="0.5" y="0.5" width="48" height="55" rx="4"></rect>
            <text id="Github" font-family="SFProText-Medium, SF Pro Text" font-size="11" font-weight="400" letter-spacing="0.0700000003" fill="#FFFFFF" fill-opacity="0.85">
                <tspan x="6.51973633" y="50">Github</tspan>
            </text>
            <rect id="icon-posn" x="9" y="5" width="32" height="32"></rect>
            <g id="logo-github" transform="translate(9.000000, 5.000000)">
                <rect id="bg" x="0" y="0" width="31.4754098" height="31.4754098"></rect>
                <path d="M15.689579,0 C7.0266177,0 -0.000160213571,7.22255738 -0.000160213571,16.127061 C-0.0303164308,22.9809892 4.24435278,29.1165552 10.6843279,31.4626098 C10.9338601,31.5356694 11.2032255,31.4870556 11.4114762,31.3313775 C11.619727,31.1756994 11.7425867,30.9311049 11.7431344,30.6710977 L11.7431344,27.9008052 C7.41165639,28.8901823 6.44910689,25.7241495 6.44910689,25.7241495 C5.77532328,23.8443069 4.71651672,23.3496131 4.71651672,23.3496131 C3.27268721,22.3602361 4.81276852,22.3602361 4.81276852,22.3602361 C6.35284984,22.4591738 7.21914754,24.042198 7.21914754,24.042198 C8.6629718,26.5156774 10.876842,25.823103 11.7431344,25.4273469 C11.7986234,24.6113221 12.1393544,23.84081 12.7056839,23.2506859 C9.24050361,22.8549298 5.58279869,21.4697862 5.58279869,15.2366269 C5.54568997,13.6286721 6.13205674,12.0687012 7.21913705,10.8833102 C6.73848951,9.49251318 6.80735968,7.97063062 7.41166164,6.62893115 C7.41166164,6.62893115 8.7592341,6.23317508 11.7431397,8.31089311 C13.0257992,7.9461855 14.356607,7.77936884 15.6896,7.81620459 C17.0197521,7.82848135 18.3440266,7.99447929 19.6360551,8.31089311 C22.6199659,6.23317508 23.9675331,6.62893115 23.9675331,6.62893115 C24.5189614,7.98273892 24.586954,9.48523 24.1600577,10.8833102 C25.223864,12.0828645 25.8066621,13.6333462 25.7963908,15.2366269 C25.7963908,21.4698072 22.1387016,22.7559921 18.6735056,23.1517482 C19.2510374,23.6464367 19.7323121,24.6358138 19.7323121,26.1199161 L19.7323121,30.5721757 C19.732866,30.8321723 19.8557223,31.0767551 20.0639635,31.2324284 C20.2722047,31.3881016 20.5415571,31.4367193 20.791082,31.3636721 C27.2560871,29.0502446 31.5450043,22.8942281 31.4754098,16.0281233 C31.3791528,7.22255738 24.3525246,0 15.689579,0 Z" id="Path" fill="#FFFFFF"></path>
            </g>
        </g>
    </g>
</svg>