<?xml version="1.0" encoding="UTF-8"?>
<svg width="32px" height="32px" viewBox="0 0 32 32" version="1.1" xmlns="http://www.w3.org/2000/svg" xmlns:xlink="http://www.w3.org/1999/xlink">
    <!-- Generator: Sketch 59.1 (86144) - https://sketch.com -->
    <title>• Prefs / Toolbar Icon / Heart</title>
    <desc>Created with Sketch.</desc>
    <g id="•-Prefs-/-Toolbar-Icon-/-Heart" stroke="none" stroke-width="1" fill="none" fill-rule="evenodd">
        <g>
            <rect id="posn" x="0" y="0" width="32" height="32" rx="4"></rect>
            <g id="toolbar-heart" fill-rule="nonzero">
                <path d="M23.112,0 C20.8415298,0.0409021554 18.6962332,1.04803281 17.21435,2.76871 C16.9175013,3.13488253 16.4712825,3.34756991 15.9999,3.34756991 C15.5285175,3.34756991 15.0822987,3.13488253 14.78545,2.76871 C13.3035538,1.04816217 11.1583779,0.0410539972 8.888,0 C8.31642191,0.000875313539 7.74675068,0.0659499293 7.1897,0.194 C2.86616,1.2758 -0.1755,6.01825 0.00786,11.3916 C0.36524,21.51322 10.33054,28.91746 14.34637,31.49819 C15.3472742,32.1672701 16.6527358,32.1672701 17.65364,31.49819 C21.66946,28.91746 31.63464,21.51319 31.99214,11.3916 C32.1755,6.01825 29.13384,1.27579 24.81032,0.194 C24.2532578,0.0659776656 23.6835831,0.000903417547 23.112,0 Z" id="Path" fill="#979797"></path>
                <path d="M23.112,2.16644 C23.5736416,2.16747674 24.0337175,2.22016792 24.48364,2.32353 C27.93121,3.21886 30.35029,7.00653 30.21572,11.29847 C29.89128,20.48662 19.88365,27.6158 16.82416,29.582 C16.3259391,29.9175106 15.6740609,29.9175106 15.17584,29.582 C12.11636,27.61582 2.10872,20.48664 1.78426,11.29846 C1.64969,7.00646 4.0688,3.21882 7.51639,2.32351 C7.9663036,2.22015737 8.42636926,2.16747292 8.888,2.16644 C10.7004203,2.20263405 12.4121174,3.00715018 13.59653,4.3795 C14.1878834,5.09783584 15.0695422,5.51400933 15.999975,5.51400933 C16.9304078,5.51400933 17.8120666,5.09783584 18.40342,4.3795 C19.5878528,3.00714869 21.2995654,2.20263381 23.112,2.16644 Z" id="Path" fill="#CC0000"></path>
            </g>
        </g>
    </g>
</svg>