<?xml version="1.0" encoding="UTF-8"?>
<svg width="49px" height="56px" viewBox="0 0 49 56" version="1.1" xmlns="http://www.w3.org/2000/svg" xmlns:xlink="http://www.w3.org/1999/xlink">
    <!-- Generator: Sketch 59.1 (86144) - https://sketch.com -->
    <title>• Icons / Patreon / Dark Aqua</title>
    <desc>Created with Sketch.</desc>
    <g id="•-Icons-/-Patreon-/-Dark-Aqua" stroke="none" stroke-width="1" fill="none" fill-rule="evenodd">
        <g>
            <rect id="bg" stroke="#1768E5" x="0.5" y="0.5" width="48" height="55" rx="4"></rect>
            <text id="Patreon" font-family="SFProText-Medium, SF Pro Text" font-size="11" font-weight="400" letter-spacing="0.0700000003" fill="#FFFFFF" fill-opacity="0.85">
                <tspan x="3.65954101" y="50">Patreon</tspan>
            </text>
            <rect id="icon-posn" x="9" y="5" width="32" height="32"></rect>
            <g id="logo-patreon" transform="translate(9.000000, 5.000000)">
                <rect id="bg" x="0" y="0" width="32" height="32"></rect>
                <path d="M19.5842027,0.0448426667 C18.1474457,0.154920897 16.7460017,0.544452882 15.4585173,1.19157867 C12.6682765,2.5641097 10.5484417,5.00261192 9.577488,7.95668267 C9.32670236,8.73429694 9.15289041,9.53466077 9.05855467,10.3462507 C8.98092365,11.3068539 9.00238969,12.2728972 9.12261333,13.229104 C9.13541333,13.2803573 9.161056,13.4277013 9.180272,13.549424 C9.30304554,14.2490405 9.49181582,14.935454 9.74405333,15.5994667 C11.1056862,19.1157778 14.0847027,21.7558228 17.7392,22.6848747 C18.0445829,22.7664592 18.3548518,22.8285119 18.6681227,22.870656 C18.8474987,22.896256 19.0589067,22.9283147 19.1485973,22.947536 C20.0764044,23.0167047 21.0082275,23.0124247 21.93536,22.934736 C22.6736373,22.8361892 23.4022717,22.6754597 24.1134933,22.4542613 C24.183968,22.4222293 24.414592,22.3389493 24.6260267,22.2620693 C25.664072,21.8594331 26.6408502,21.3139054 27.5281013,20.6412693 C29.7119754,18.936146 31.2249583,16.5158262 31.8011307,13.8057013 C31.9992973,12.6098618 32.0487895,11.3941022 31.94848,10.186112 C31.7156004,8.37338446 31.0713644,6.63789328 30.0650133,5.112288 C28.531017,2.83276843 26.2383209,1.17113085 23.594576,0.422821333 C22.2874104,0.0785879319 20.932666,-0.0490952608 19.5842027,0.044848 L19.5842027,0.0448426667 Z M5.63093333,32 L0,32 L0,0 L5.63093333,0 L5.63093333,32 Z" id="Shape" fill="#FFFFFF" fill-rule="nonzero"></path>
            </g>
        </g>
    </g>
</svg>