<?xml version="1.0" encoding="UTF-8"?>
<svg width="32px" height="32px" viewBox="0 0 32 32" version="1.1" xmlns="http://www.w3.org/2000/svg" xmlns:xlink="http://www.w3.org/1999/xlink">
    <!-- Generator: Sketch 59.1 (86144) - https://sketch.com -->
    <title>• Prefs / Toolbar Icon / Schedule</title>
    <desc>Created with Sketch.</desc>
    <g id="•-Prefs-/-Toolbar-Icon-/-Schedule" stroke="none" stroke-width="1" fill="none" fill-rule="evenodd">
        <g>
            <rect id="posn" x="0" y="0" width="32" height="32" rx="4"></rect>
            <g id="toolbar-schedule" fill-rule="nonzero">
                <path d="M7.5804,3.07954 L1.29329,9.36491 C-0.434175389,7.62737486 -0.42990126,4.81962627 1.30284608,3.08735848 C3.03559342,1.35509069 5.84334308,1.35159374 7.5804,3.07954 Z" id="Path" fill="#CC0000"></path>
                <ellipse id="Oval" fill="#979797" cx="15.9956" cy="17.77778" rx="14.22616" ry="14.22222"></ellipse>
                <path d="M28.4434905,17.77778 C28.4448855,12.7427647 25.4129394,8.20275363 20.7615923,6.27496969 C16.1102452,4.34718575 10.75562,5.41132264 7.19483306,8.97112273 C3.63404608,12.5309228 2.56842497,17.8852528 4.49491951,22.5371341 C6.42141405,27.1890153 10.9605846,30.22222 15.9956,30.22222 C22.869426,30.22317 28.4425346,24.651606 28.4434905,17.77778 Z" id="Path" fill="#FEFFD4"></path>
                <path d="M30.6979,3.07954 C28.9615643,1.34389054 26.1471357,1.34389054 24.4108,3.07954 L30.6979,9.36491 C31.5316021,8.53152971 31.9999982,7.4010303 31.9999982,6.222225 C31.9999982,5.0434197 31.5316021,3.91292029 30.6979,3.07954 L30.6979,3.07954 Z" id="Path" fill="#CC0000"></path>
                <path d="M11.99889,1.77778 L20.00111,1.77778 C20.4920304,1.77778 20.89,1.37981039 20.89,0.88889 C20.89,0.397969609 20.4920304,0 20.00111,0 L11.99889,0 C11.5079696,0 11.11,0.397969609 11.11,0.88889 C11.11,1.37981039 11.5079696,1.77778 11.99889,1.77778 Z" id="Path" fill="#979797"></path>
                <path d="M21.7307,20.53993 L16.929,18.11979 L16.929,9.77779 C16.9273571,9.28789837 16.5297594,8.89163184 16.039865,8.89163184 C15.5499706,8.89163184 15.1523729,9.28789837 15.15073,9.77779 L15.15073,19.21356 L20.93011,22.12675 C21.2135663,22.2697598 21.5517856,22.2506842 21.8173639,22.0767088 C22.0829422,21.9027334 22.2355319,21.6002891 22.2176539,21.2833038 C22.1997759,20.9663185 22.0141463,20.6829498 21.73069,20.53994 L21.7307,20.53993 Z" id="Path" fill="#000000"></path>
            </g>
        </g>
    </g>
</svg>