<?xml version="1.0" encoding="UTF-8"?>
<svg width="32px" height="32px" viewBox="0 0 32 32" version="1.1" xmlns="http://www.w3.org/2000/svg" xmlns:xlink="http://www.w3.org/1999/xlink">
    <!-- Generator: Sketch 59.1 (86144) - https://sketch.com -->
    <title>• Prefs / Toolbar Icon / Settings</title>
    <desc>Created with Sketch.</desc>
    <defs>
        <polygon id="path-1" points="0 0 32 0 32 32 0 32"></polygon>
    </defs>
    <g id="•-Prefs-/-Toolbar-Icon-/-Settings" stroke="none" stroke-width="1" fill="none" fill-rule="evenodd">
        <g>
            <rect id="posn" x="0" y="0" width="32" height="32" rx="4"></rect>
            <g id="toolbar-settings-4">
                <g id="Layer_1">
                    <polygon id="Path" fill-rule="nonzero" points="0 32 32 32 32 0 0 0"></polygon>
                    <g id="Clipped">
                        <mask id="mask-2" fill="white">
                            <use xlink:href="#path-1"></use>
                        </mask>
                        <g id="Path"></g>
                        <g id="Group" mask="url(#mask-2)" fill-rule="nonzero">
                            <g transform="translate(-1.000000, 0.000000)" id="Shape">
                                <path d="M17,10.783 C19.949,10.783 22.324,13.111 22.324,16 C22.324,18.89 19.949,21.218 17,21.218 C14.051,21.218 11.676,18.89 11.676,16 C11.676,13.111 14.051,10.783 17,10.783 L17,10.783 Z M17,9.392 C13.284,9.392 10.256,12.359 10.256,16 C10.256,19.642 13.284,22.609 17,22.609 C20.716,22.609 23.744,19.642 23.744,16 C23.744,12.359 20.716,9.392 17,9.392 L17,9.392 Z M14.16,1.392 L19.839,1.392 L19.839,4.697 C19.84,5 20.042,5.269 20.338,5.359 C21.992,5.857 23.48,6.721 24.72,7.848 C24.95,8.056 25.293,8.092 25.563,7.935 L28.491,6.283 L31.331,11.109 L28.413,12.762 C28.148,12.914 28.014,13.217 28.081,13.512 C28.267,14.309 28.358,15.143 28.358,16 C28.358,16.858 28.267,17.691 28.081,18.49 C28.014,18.783 28.148,19.087 28.413,19.24 L31.331,20.891 L28.491,25.718 L25.563,24.065 C25.293,23.909 24.95,23.944 24.72,24.153 C23.48,25.28 21.992,26.144 20.338,26.641 C20.042,26.732 19.84,27 19.839,27.304 L19.839,30.609 L14.16,30.609 L14.16,27.304 C14.16,27 13.958,26.732 13.661,26.641 C12.007,26.144 10.519,25.28 9.28,24.153 C9.049,23.944 8.707,23.909 8.437,24.065 L5.509,25.718 L2.669,20.891 L5.586,19.24 C5.852,19.087 5.986,18.783 5.919,18.49 C5.733,17.691 5.642,16.858 5.642,16 C5.642,15.143 5.733,14.309 5.919,13.512 C5.986,13.217 5.852,12.914 5.586,12.762 L2.669,11.109 L5.509,6.283 L8.437,7.935 C8.707,8.092 9.049,8.056 9.28,7.848 C10.519,6.721 12.007,5.857 13.661,5.359 C13.958,5.269 14.16,5 14.16,4.697 L14.16,1.392 Z M13.384,0.001 C13.018,0.034 12.739,0.336 12.741,0.697 L12.741,4.251 C11.258,4.767 9.908,5.532 8.736,6.512 L5.608,4.74 C5.271,4.55 4.841,4.661 4.644,4.99 L1.094,11.012 C0.9,11.342 1.014,11.763 1.349,11.957 L4.488,13.729 C4.349,14.472 4.222,15.22 4.222,16 C4.222,16.781 4.349,17.529 4.488,18.272 L1.349,20.044 C1.014,20.238 0.9,20.659 1.094,20.99 L4.644,27.011 C4.841,27.339 5.271,27.451 5.608,27.261 L8.736,25.49 C9.908,26.469 11.258,27.233 12.741,27.75 L12.741,31.304 C12.741,31.689 13.059,32 13.451,32 L20.549,32 C20.941,32 21.259,31.689 21.259,31.304 L21.259,27.75 C22.741,27.233 24.092,26.469 25.263,25.49 L28.391,27.261 C28.729,27.451 29.159,27.339 29.356,27.011 L32.905,20.99 C33.099,20.659 32.985,20.238 32.65,20.044 L29.511,18.272 C29.651,17.529 29.777,16.781 29.777,16 C29.777,15.22 29.651,14.472 29.511,13.729 L32.65,11.957 C32.985,11.763 33.099,11.342 32.905,11.012 L29.356,4.99 C29.159,4.661 28.729,4.55 28.391,4.74 L25.263,6.512 C24.092,5.532 22.741,4.767 21.259,4.251 L21.259,0.697 C21.259,0.312 20.941,0.001 20.549,0.001 L13.451,0.001 C13.428,0.00025 13.406,0.00025 13.384,0.001 L13.384,0.001 Z" fill="#979797"></path>
                                <path d="M17,9.392 C13.284,9.392 10.256,12.359 10.256,16 C10.256,19.642 13.284,22.609 17,22.609 C20.716,22.609 23.744,19.642 23.744,16 C23.744,12.359 20.716,9.392 17,9.392 L17,9.392 Z M14.16,1.392 L19.839,1.392 L19.839,4.697 C19.84,5 20.042,5.269 20.338,5.359 C21.992,5.857 23.48,6.721 24.72,7.849 C24.95,8.057 25.293,8.092 25.563,7.935 L28.491,6.284 L31.331,11.109 L28.413,12.762 C28.148,12.914 28.014,13.217 28.081,13.512 C28.267,14.309 28.358,15.143 28.358,16 C28.358,16.858 28.267,17.691 28.081,18.49 C28.014,18.784 28.148,19.087 28.413,19.24 L31.331,20.892 L28.491,25.718 L25.563,24.065 C25.293,23.909 24.95,23.944 24.72,24.153 C23.48,25.28 21.992,26.144 20.338,26.642 C20.042,26.732 19.84,27 19.839,27.305 L19.839,30.609 L14.16,30.609 L14.16,27.305 C14.16,27 13.958,26.732 13.661,26.642 C12.007,26.144 10.519,25.28 9.28,24.153 C9.049,23.944 8.707,23.909 8.437,24.065 L5.509,25.718 L2.669,20.892 L5.586,19.24 C5.852,19.087 5.986,18.784 5.919,18.49 C5.733,17.691 5.642,16.858 5.642,16 C5.642,15.143 5.733,14.309 5.919,13.512 C5.986,13.217 5.852,12.914 5.586,12.762 L2.669,11.109 L5.509,6.284 L8.437,7.935 C8.707,8.092 9.049,8.057 9.28,7.849 C10.519,6.721 12.007,5.857 13.661,5.359 C13.958,5.269 14.16,5 14.16,4.697 L14.16,1.392 Z" fill="#F7F7F7"></path>
                            </g>
                        </g>
                    </g>
                </g>
            </g>
        </g>
    </g>
</svg>