<?xml version="1.0" encoding="UTF-8"?>
<svg width="32px" height="32px" viewBox="0 0 32 32" version="1.1" xmlns="http://www.w3.org/2000/svg" xmlns:xlink="http://www.w3.org/1999/xlink">
    <!-- Generator: Sketch 59.1 (86144) - https://sketch.com -->
    <title>• Prefs / Toolbar Icon / Theme</title>
    <desc>Created with Sketch.</desc>
    <g id="•-Prefs-/-Toolbar-Icon-/-Theme" stroke="none" stroke-width="1" fill="none" fill-rule="evenodd">
        <g>
            <rect id="posn" x="0" y="0" width="32" height="32" rx="4"></rect>
            <g id="toolbar-theme" fill-rule="nonzero">
                <path d="M16.00045,0 C24.2749589,0.00225888708 31.1834133,6.31174991 31.9340351,14.5521425 C32.684657,22.7925351 27.0299155,30.2464144 18.892,31.74369 C17.9375323,31.9134856 16.9700127,31.9992508 16.00056,32 C14.1134954,32.0016732 12.2412965,31.6663359 10.47213,31.00978 C9.56326019,30.6776437 8.88615075,29.905454 8.67560172,28.9609817 C8.46505268,28.0165094 8.75006294,27.0298366 9.4318,26.34311 C10.4764245,25.3054664 10.4820836,23.6174545 9.44443997,22.57283 C8.40679635,21.5282055 6.71878452,21.5225464 5.67416,22.56019 L5.66252,22.57184 C5.13881803,23.1023257 4.42413793,23.4004615 3.6787,23.39941 C2.48134589,23.4017741 1.41029066,22.655208 0.9982,21.531 C-0.656586956,17.0649901 -0.233502785,12.0936713 2.1521793,7.97152555 C4.53786139,3.84937983 8.63757314,1.00590053 13.33431,0.21582 C14.2158223,0.0727012561 15.1073953,0.00052976784 16.00045,0 Z" id="Path" fill="#979797"></path>
                <path d="M16.00045,1.77778 C15.2023071,1.77859757 14.4055053,1.84318305 13.61765,1.97092 C9.44692173,2.67776897 5.80791705,5.20596286 3.69027035,8.86795443 C1.57262365,12.529946 1.19650845,16.9449949 2.66421,20.91242 C2.81914714,21.3390244 3.22494246,21.6226772 3.67881,21.62163 C3.95285556,21.6222391 4.21538917,21.511484 4.40619,21.31477 C5.52487378,20.1866323 7.16077585,19.7416316 8.69677967,20.1476369 C10.2327835,20.5536421 11.4351322,21.7488654 11.85026,23.2824289 C12.2653879,24.8159924 11.8301185,26.4545105 10.70865,27.57988 L10.68827,27.60026 C10.4324304,27.8485548 10.3255825,28.2128528 10.40678,28.56 C10.483972,28.9216657 10.742509,29.2177994 11.09045,29.34309 C12.6616835,29.9264067 14.3245441,30.2241333 16.00056,30.2222292 C16.8662574,30.2211416 17.7302067,30.1444569 18.58256,29.99304 C25.8109089,28.65412 30.8287779,22.0285786 30.158825,14.7078616 C29.488872,7.38714453 23.3517569,1.78244772 16.00045,1.77778" id="Path" fill="#F6F6F6"></path>
                <circle id="Oval" fill="#CC00CC" cx="6.6718" cy="15.55555" r="1.333"></circle>
                <circle id="Oval" fill="#0055CC" cx="9.78135" cy="9.77778" r="1.77733"></circle>
                <circle id="Oval" fill="#00CC00" cx="17.33292" cy="7.55555" r="2.22167"></circle>
                <path d="M23.99645,9.77777966 C22.91776,9.77723796 21.9449835,10.4266086 21.531812,11.423033 C21.1186405,12.4194575 21.3464604,13.5666603 22.1090193,14.3295997 C22.8715781,15.0925391 24.0186671,15.3209313 25.0152976,14.9082569 C26.0119281,14.4955825 26.6617801,13.5231302 26.6617801,12.44444 C26.6621446,10.9720527 25.4688373,9.77814998 23.99645,9.77777966 L23.99645,9.77777966 L23.99645,9.77777966 Z" id="Path" fill="#FFC255"></path>
                <path d="M21.77534,17.7778796 C20.5168726,17.777249 19.381971,18.5348453 18.8999381,19.6973361 C18.4179052,20.8598269 18.6836916,22.1982258 19.5733379,23.0883213 C20.4629842,23.9784168 21.8012487,24.2448787 22.9639827,23.7634327 C24.1267167,23.2819866 24.8848901,22.1474676 24.8848901,20.889 L24.8848901,20.889 C24.8850995,20.0640875 24.5576046,19.2728781 23.9744505,18.6894296 C23.3912965,18.1059811 22.6002525,17.7780868 21.77534,17.7778796 Z" id="Path" fill="#CC0000"></path>
            </g>
        </g>
    </g>
</svg>