<?xml version="1.0" encoding="UTF-8" standalone="no"?>
<svg
   xmlns:dc="http://purl.org/dc/elements/1.1/"
   xmlns:cc="http://creativecommons.org/ns#"
   xmlns:rdf="http://www.w3.org/1999/02/22-rdf-syntax-ns#"
   xmlns:svg="http://www.w3.org/2000/svg"
   xmlns="http://www.w3.org/2000/svg"
   xmlns:sodipodi="http://sodipodi.sourceforge.net/DTD/sodipodi-0.dtd"
   xmlns:inkscape="http://www.inkscape.org/namespaces/inkscape"
   version="1.1"
   x="0"
   y="0"
   width="300"
   height="300"
   viewBox="0, 0, 300, 300"
   id="svg11"
   sodipodi:docname="appicon-mono-light-mode.svg"
   inkscape:version="0.92.4 (5da689c313, 2019-01-14)">
  <metadata
     id="metadata17">
    <rdf:RDF>
      <cc:Work
         rdf:about="">
        <dc:format>image/svg+xml</dc:format>
        <dc:type
           rdf:resource="http://purl.org/dc/dcmitype/StillImage" />
      </cc:Work>
    </rdf:RDF>
  </metadata>
  <defs
     id="defs15" />
  <sodipodi:namedview
     pagecolor="#ffffff"
     bordercolor="#666666"
     borderopacity="1"
     objecttolerance="10"
     gridtolerance="10"
     guidetolerance="10"
     inkscape:pageopacity="0"
     inkscape:pageshadow="2"
     inkscape:window-width="1894"
     inkscape:window-height="1092"
     id="namedview13"
     showgrid="false"
     inkscape:zoom="0.78666667"
     inkscape:cx="-99.152542"
     inkscape:cy="150"
     inkscape:window-x="26"
     inkscape:window-y="31"
     inkscape:window-maximized="1"
     inkscape:current-layer="svg11" />
  <g
     id="g8">
    <path
       style="fill:#000000"
       inkscape:connector-curvature="0"
       id="path4"
       d="m 215.192,213.915 c 0,-89.565 -86.338,-72.014 -86.338,-119.758 0,-19.866 7.385,-40.824 42.491,-40.824 59.345,0 108.55,55.051 108.55,121.441 0,66.401 -48.79,120.226 -108.131,120.226 26.206,-15.189 43.428,-45.804 43.428,-81.085" />
    <path
       style="fill:#000000"
       inkscape:connector-curvature="0"
       id="path6"
       d="m 128.233,5 c -26.206,15.188 -43.424,45.799 -43.424,81.091 0,89.564 86.336,72.003 86.336,119.746 0,19.875 -7.384,40.83 -42.5,40.83 C 69.308,246.667 20.104,191.613 20.104,125.224 20.104,58.831 68.893,5 128.233,5" />
  </g>
</svg>
