<?xml version="1.0" encoding="UTF-8"?>
<!DOCTYPE svg PUBLIC "-//W3C//DTD SVG 1.1//EN" "http://www.w3.org/Graphics/SVG/1.1/DTD/svg11.dtd">
<svg version="1.1" xmlns="http://www.w3.org/2000/svg" xmlns:xlink="http://www.w3.org/1999/xlink" x="0" y="0" width="300" height="300" viewBox="0, 0, 300, 300">
  <defs>
    <clipPath id="Clip_1">
      <path d="M20.104,5 L171.146,5 L171.146,246.667 L20.104,246.667 z"/>
    </clipPath>
  </defs>
  <g id="Layer_1">
    <g>
      <g opacity="0.75">
        <path d="M215.192,213.915 C215.192,124.35 128.854,141.901 128.854,94.157 C128.854,74.291 136.239,53.333 171.345,53.333 C230.69,53.333 279.895,108.384 279.895,174.774 C279.895,241.175 231.105,295 171.764,295 C197.97,279.811 215.192,249.196 215.192,213.915" fill="#8C8C8C"/>
      </g>
      <g clip-path="url(#Clip_1)" opacity="0.75">
        <path d="M128.233,5 C102.027,20.188 84.809,50.799 84.809,86.091 C84.809,175.655 171.145,158.094 171.145,205.837 C171.145,225.712 163.761,246.667 128.645,246.667 C69.308,246.667 20.104,191.613 20.104,125.224 C20.104,58.831 68.893,5 128.233,5" fill="#D81E00"/>
      </g>
      <path d="M207,270 L173,270 C168.6,270 165,266.4 165,262 L165,38 C165,33.6 168.6,30 173,30 L207,30 C211.4,30 215,33.6 215,38 L215,262 C215,266.4 211.4,270 207,270" fill="#D6D6D6"/>
      <path d="M127,270 L93,270 C88.6,270 85,266.4 85,262 L85,38 C85,33.6 88.6,30 93,30 L127,30 C131.4,30 135,33.6 135,38 L135,262 C135,266.4 131.4,270 127,270" fill="#D6D6D6"/>
    </g>
  </g>
</svg>
