<?xml version="1.0" encoding="UTF-8"?>
<svg width="499px" height="499px" viewBox="0 0 499 499" version="1.1" xmlns="http://www.w3.org/2000/svg" xmlns:xlink="http://www.w3.org/1999/xlink">
    <!-- Generator: Sketch 51.3 (57544) - http://www.bohemiancoding.com/sketch -->
    <title>Slice 1</title>
    <desc>Created with Sketch.</desc>
    <defs></defs>
    <g id="Page-1" stroke="none" stroke-width="1" fill="none" fill-rule="evenodd">
        <g id="stretchly-monochrome-paused">
            <g id="svg_28" transform="translate(0.555020, 0.936571)" fill="#000000" fill-rule="nonzero">
                <path d="M275.564871,435.79329 C285.92978,456.346331 302.087823,473.484957 321.889225,485.059399 L321.638288,485.137793 L320.91175,485.362422 L320.182869,485.585884 L319.45399,485.807003 L318.723942,486.024614 L317.993891,486.241056 L317.261503,486.455157 L316.529114,486.668088 L315.795553,486.87751 L315.060823,487.084591 L314.326093,487.290503 L313.589025,487.492904 L312.851957,487.694134 L312.113717,487.893028 L311.374308,488.089578 L310.634899,488.28379 L309.893149,488.475662 L309.151402,488.666364 L308.408482,488.853556 L307.665563,489.038409 L306.921475,489.222091 L306.176215,489.402263 L305.429785,489.581265 L304.682187,489.757929 L303.934588,489.931081 L303.185821,490.103063 L302.435881,490.272707 L301.684773,490.44001 L300.933664,490.604972 L300.181384,490.767596 L299.429106,490.927879 L298.674487,491.086992 L297.919869,491.242596 L297.164081,491.395861 L296.408293,491.546785 L295.650164,491.696538 L294.893207,491.842783 L294.133907,491.986687 L293.374609,492.129419 L292.614141,492.268644 L291.852503,492.406697 L291.089694,492.541242 L290.326886,492.673447 L289.564078,492.804482 L288.798929,492.932005 L288.033783,493.058361 L287.267465,493.181207 L286.501146,493.302881 L285.733659,493.421045 L284.965,493.53804 L284.196343,493.651525 L283.425346,493.762672 L282.655518,493.872646 L281.883348,493.979114 L281.111182,494.083237 L280.339013,494.186194 L279.564505,494.285639 L278.791169,494.382745 L278.01549,494.477513 L277.239813,494.569937 L276.462965,494.660025 L275.686119,494.74777 L274.908101,494.833177 L274.128914,494.916242 L273.349725,494.99697 L272.569369,495.075356 L271.787841,495.150235 L271.006313,495.223939 L270.224785,495.294136 L269.440919,495.363164 L268.657051,495.428682 L267.873184,495.491859 L267.088146,495.553866 L266.301939,495.612364 L265.515732,495.668523 L264.728356,495.722341 L263.940977,495.772646 L263.152432,495.821785 L262.363884,495.868583 L261.574167,495.911871 L260.78328,495.95399 L259.992394,495.992598 L259.200336,496.028866 L258.40828,496.062795 L257.615053,496.094384 L256.821826,496.123634 L256.027429,496.149371 L255.233033,496.173942 L254.437465,496.195 L253.640727,496.21372 L252.843992,496.230098 L252.047255,496.244139 L251.249348,496.255838 L250.450272,496.264028 L249.651195,496.271048 L248.852118,496.274556 L248.051872,496.275727 L247.250455,496.274556 L246.451379,496.271048 L245.652302,496.264028 L244.853226,496.255838 L244.055319,496.244139 L243.258582,496.230098 L242.461845,496.21372 L241.665109,496.195 L240.869542,496.173942 L240.075145,496.149371 L239.280748,496.123634 L238.487521,496.094384 L237.694294,496.062795 L236.902237,496.028866 L236.110181,495.992598 L235.319294,495.95399 L234.528407,495.911871 L233.73869,495.868583 L232.950142,495.821785 L232.161595,495.772646 L231.374218,495.722341 L230.586841,495.668523 L229.800634,495.612364 L229.014427,495.553866 L228.22939,495.491859 L227.445522,495.428682 L226.661655,495.363164 L225.877788,495.294136 L225.096261,495.223939 L224.314733,495.150235 L223.533206,495.075356 L222.752848,494.99697 L221.973661,494.916242 L221.195643,494.833177 L220.416456,494.74777 L219.639608,494.660025 L218.862761,494.569937 L218.087083,494.477513 L217.312576,494.382745 L216.538068,494.285639 L215.76356,494.186194 L214.991392,494.083237 L214.219225,493.979114 L213.447057,493.872646 L212.677229,493.762672 L211.906231,493.651525 L211.137573,493.53804 L210.368915,493.421045 L209.601428,493.302881 L208.83511,493.181207 L208.068791,493.058361 L207.303643,492.932005 L206.538495,492.804482 L205.775687,492.673447 L205.012879,492.541242 L204.250071,492.406697 L203.489603,492.268644 L202.727965,492.129419 L201.968666,491.986687 L201.210538,491.842783 L200.45241,491.696538 L199.694281,491.546785 L198.938493,491.395861 L198.182704,491.242596 L197.428086,491.086992 L196.673467,490.927879 L195.921189,490.767596 L195.16891,490.604972 L194.417802,490.44001 L193.666693,490.272707 L192.916754,490.103063 L192.167986,489.931081 L191.420387,489.757929 L190.672788,489.581265 L189.927529,489.402263 L189.1811,489.222091 L188.437011,489.038409 L187.694092,488.853556 L186.951173,488.666364 L186.209424,488.475662 L185.467675,488.28379 L184.728266,488.089578 L183.988857,487.893028 L183.250618,487.694134 L182.513549,487.492904 L181.777649,487.290503 L181.04175,487.084591 L180.307021,486.87751 L179.573461,486.668088 L178.841072,486.455157 L178.108683,486.241056 L177.378633,486.024614 L176.648584,485.807003 L175.919704,485.585884 L175.190824,485.362422 L174.464285,485.137793 L173.737745,484.910821 L173.012376,484.680341 L172.288176,484.449861 L171.565146,484.215871 L170.843286,483.97954 L170.121426,483.74204 L169.401906,483.50103 L168.682386,483.258851 L167.964036,483.014331 L167.246856,482.76747 L166.530846,482.519442 L165.814836,482.267902 L165.099996,482.015192 L164.387495,481.760144 L163.674995,481.502753 L162.963665,481.243025 L162.253505,480.980955 L161.543344,480.717717 L160.835524,480.452136 L160.128873,480.18422 L159.422223,479.91396 L158.716742,479.64253 L158.012432,479.367593 L157.309291,479.091485 L156.60732,478.813035 L155.90652,478.533417 L155.206889,478.25029 L154.507258,477.965992 L153.809967,477.679354 L153.112676,477.390376 L152.417725,477.100227 L151.722774,476.80774 L151.028993,476.512912 L150.336382,476.215745 L149.644941,475.917407 L148.95467,475.615561 L148.265569,475.312543 L147.577637,475.008354 L146.890876,474.700657 L146.204115,474.39179 L145.519693,474.080583 L144.836442,473.767035 L144.15319,473.452321 L143.472279,473.135263 L142.791367,472.815866 L142.112796,472.495301 L141.434224,472.172394 L140.756822,471.847146 L140.081761,471.519561 L139.406699,471.190803 L138.732807,470.859707 L138.061255,470.526273 L137.389703,470.191667 L136.719321,469.85472 L136.050109,469.515434 L135.383237,469.174977 L134.716365,468.831013 L134.050662,468.487048 L133.38613,468.139571 L132.723938,467.790927 L132.061745,467.439942 L131.400723,467.087785 L130.74087,466.73329 L130.083358,466.376455 L129.425845,466.018449 L128.769503,465.658106 L128.1155,465.295419 L127.461497,464.931566 L126.809835,464.565371 L126.158172,464.196836 L125.508849,463.827131 L124.859526,463.455088 L124.212543,463.081874 L123.56673,462.706318 L122.920917,462.328424 L122.277444,461.949361 L121.635141,461.567957 L120.994008,461.184212 L120.354044,460.799298 L119.715251,460.412045 L119.077628,460.023621 L118.442344,459.632856 L117.807061,459.240924 L117.172947,458.846649 L116.541173,458.450035 L115.9094,458.052253 L115.279966,457.652129 L114.651703,457.249667 L114.024609,456.846033 L113.398685,456.44123 L112.773931,456.034086 L112.150347,455.624604 L111.527933,455.213952 L110.907859,454.80096 L110.287785,454.386795 L109.670051,453.970293 L109.053486,453.551449 L108.438092,453.131439 L107.823867,452.710255 L107.210813,452.286732 L106.600099,451.860871 L105.989384,451.433838 L105.38101,451.004467 L104.773805,450.573924 L104.16777,450.142212 L103.562906,449.706992 L102.959211,449.27177 L102.356686,448.833038 L101.756501,448.394306 L101.157486,447.953235 L100.559641,447.509823 L99.9629657,447.065242 L99.3674606,446.618321 L98.7742955,446.17023 L98.1811301,445.719798 L97.5903048,445.268197 L97.0006495,444.814255 L96.4133341,444.359144 L95.8260184,443.901694 L95.2410429,443.443073 L94.6572374,442.983283 L94.0746018,442.521152 L93.4931359,442.056682 L92.9128402,441.59104 L92.3348843,441.12423 L91.7580985,440.655078 L91.1824823,440.18476 L90.6092063,439.712098 L90.0359303,439.238268 L89.4649942,438.762098 L88.895228,438.284758 L88.3278015,437.806247 L87.7603753,437.325399 L87.1952889,436.843379 L86.6313725,436.359018 L86.069796,435.87349 L85.5082194,435.385619 L84.9489828,434.896581 L84.3909159,434.406371 L83.8351891,433.913821 L83.2794624,433.420101 L82.7260755,432.924043 L82.1750285,432.426813 L81.6239816,431.928414 L81.0752745,431.427674 L80.5277374,430.925765 L79.9813702,430.422687 L79.4373429,429.917268 L78.8944856,429.409508 L78.3527982,428.90175 L77.8134508,428.391652 L77.2752732,427.879212 L76.7382657,427.366775 L76.202428,426.850826 L75.6689303,426.334876 L75.1366025,425.816588 L74.6066146,425.297131 L74.0777967,424.775333 L73.5501487,424.253535 L73.0236707,423.728227 L72.4995326,423.202919 L71.9765644,422.67527 L71.4559361,422.146452 L70.9353078,421.615295 L70.4181894,421.082967 L69.9010712,420.54947 L69.3862927,420.014801 L68.8726841,419.477793 L68.3614154,418.939616 L67.8513167,418.399098 L67.3423879,417.858581 L66.835799,417.315725 L66.3303803,416.770528 L65.8261313,416.225328 L65.3242222,415.677793 L64.824653,415.129086 L64.3250838,414.578038 L63.8278548,414.025821 L63.3329654,413.472434 L62.838076,412.917876 L62.3466965,412.36098 L61.8553172,411.804083 L61.3662775,411.243677 L60.8795778,410.68327 L60.394048,410.120525 L59.9096884,409.556609 L59.4264985,408.99152 L58.9468184,408.425265 L58.4671386,407.856669 L57.9897985,407.286902 L57.5147982,406.715967 L57.0397982,406.143861 L56.5683078,405.569414 L56.0968174,404.994967 L55.6288371,404.417013 L55.1608566,403.839056 L54.6952162,403.259932 L54.2319154,402.678465 L53.7697846,402.095828 L53.308824,401.512023 L52.850203,400.927048 L52.3939222,400.339732 L51.9376412,399.751247 L51.4848702,399.161591 L51.0332689,398.570768 L50.5828379,397.97877 L50.1347465,397.384437 L49.6878253,396.790101 L49.2432437,396.193427 L48.7998323,395.595581 L48.3587606,394.996566 L47.9188591,394.395212 L47.4812972,393.793856 L47.0449056,393.190162 L46.6108535,392.585295 L46.1779717,391.979263 L45.7474298,391.372058 L45.3192275,390.763682 L44.8910255,390.152967 L44.4663331,389.541083 L44.0428109,388.929199 L43.6204586,388.314975 L43.200446,387.699581 L42.7827735,387.081846 L42.366271,386.464111 L41.9521081,385.845207 L41.5391154,385.223965 L41.1284626,384.60272 L40.7189795,383.979136 L40.3118366,383.354381 L39.9058636,382.728457 L39.5022306,382.101364 L39.1009371,381.471932 L38.7008139,380.842497 L38.3030306,380.211894 L37.9064172,379.578949 L37.5121437,378.946005 L37.1202098,378.310722 L36.7294462,377.67427 L36.3398525,377.036646 L35.9537687,376.397854 L35.5676848,375.757889 L35.1851109,375.116755 L34.8037066,374.474452 L34.4246424,373.83098 L34.0467482,373.186336 L33.6711939,372.540523 L33.2968096,371.892371 L32.9259351,371.244217 L32.5550606,370.593725 L32.187696,369.943232 L31.8215013,369.290399 L31.4576465,368.637566 L31.0949616,367.982394 L30.7346167,367.327222 L30.3754417,366.66971 L30.0197765,366.011025 L29.6652813,365.351174 L29.3119561,364.691321 L28.9609707,364.029129 L28.6123253,363.365768 L28.2660197,362.701235 L27.9208841,362.036702 L27.5780884,361.369831 L27.2376326,360.701788 L26.8983467,360.032576 L26.5614008,359.363364 L26.225625,358.691811 L25.8933588,358.019091 L25.5622626,357.345197 L25.2335063,356.671306 L24.90592,355.995073 L24.5806736,355.318843 L24.257767,354.64027 L23.9360305,353.96053 L23.6178038,353.280788 L23.2995771,352.598707 L22.9848602,351.916624 L22.6724833,351.233374 L22.3612762,350.547783 L22.0512392,349.862189 L21.744712,349.175429 L21.4393547,348.486328 L21.1363374,347.797227 L20.8356599,347.106955 L20.5373224,346.415515 L20.2401548,345.722904 L19.9453271,345.030293 L19.6528393,344.335341 L19.3615215,343.63922 L19.0725436,342.943098 L18.7859055,342.244639 L18.5016074,341.546177 L18.2196492,340.846548 L17.9388609,340.144576 L17.6604126,339.442606 L17.3843041,338.739465 L17.1105355,338.035154 L16.8379369,337.330843 L16.5688481,336.624194 L16.3009293,335.917543 L16.0353504,335.208553 L15.7709414,334.499563 L15.5100423,333.789402 L15.2503132,333.078071 L14.9929239,332.365571 L14.7378746,331.651902 L14.4851651,330.93823 L14.2336256,330.22222 L13.984426,329.50621 L13.7387363,328.78903 L13.4942165,328.070679 L13.2508667,327.351162 L13.0110267,326.63047 L12.7735266,325.90978 L12.5371965,325.18675 L12.3032062,324.463722 L12.0715559,323.73952 L11.8422455,323.014152 L11.615275,322.288783 L11.3894744,321.561073 L11.1671837,320.833364 L10.9460629,320.104482 L10.727282,319.374434 L10.5108411,318.643215 L10.29674,317.911995 L10.0849789,317.179606 L9.87555763,316.446045 L9.66730631,315.711316 L9.46256487,314.975417 L9.25899336,314.239518 L9.05776177,313.501278 L8.85887008,312.76304 L8.66348823,312.024801 L8.46810639,311.284222 L8.27623439,310.543641 L8.08670232,309.801894 L7.89951013,309.058975 L7.7134879,308.314886 L7.53097553,307.570795 L7.34963311,306.825538 L7.17180053,306.079109 L6.9951379,305.332679 L6.82081518,304.583912 L6.64883235,303.835141 L6.47918944,303.086374 L6.31188644,302.335265 L6.14692331,301.584157 L5.9843001,300.831879 L5.82401679,300.078429 L5.66607341,299.32498 L5.5104699,298.570361 L5.35720629,297.814573 L5.20511265,297.057616 L5.05652884,296.300657 L4.91028495,295.542528 L4.76521101,294.78323 L4.62364692,294.023932 L4.48325278,293.263465 L4.34636851,292.501826 L4.21182412,291.740187 L4.0784497,290.977379 L3.94858513,290.213402 L3.81989048,289.449424 L3.69470571,288.684275 L3.57069088,287.917957 L3.45018593,287.15047 L3.33202086,286.382982 L3.21502576,285.615492 L3.10154048,284.845667 L2.98922518,284.075838 L2.88041972,283.304841 L2.77395417,282.533841 L2.66865856,281.761674 L2.5668728,280.988336 L2.46742696,280.215 L2.37032102,279.440492 L2.27555498,278.665982 L2.18195889,277.889136 L2.09187265,277.11346 L2.00412631,276.335442 L1.91871988,275.557424 L1.8368233,274.778235 L1.75609667,273.999048 L1.67770994,273.218692 L1.60166312,272.438333 L1.52912615,271.656806 L1.45775913,270.874109 L1.38990196,270.091412 L1.32321474,269.307545 L1.26003738,268.523677 L1.19919992,267.738639 L1.14070237,266.952432 L1.08454471,266.166225 L1.03072696,265.378848 L0.979249109,264.591472 L0.930111162,263.802924 L0.884483066,263.013207 L0.840024922,262.22349 L0.799076631,261.433773 L0.760468245,260.642886 L0.72419976,259.850828 L0.690271177,259.058773 L0.658682495,258.265545 L0.629433717,257.472318 L0.602524841,256.677922 L0.579125818,255.882356 L0.558066697,255.086788 L0.538177528,254.291222 L0.521798212,253.494485 L0.507758798,252.696578 L0.497229237,251.898671 L0.487869629,251.100765 L0.482019871,250.301688 L0.477340068,249.501441 L0.476170116,248.701195 L0.477340068,247.900948 L0.482019871,247.100702 L0.487869629,246.301625 L0.497229237,245.503718 L0.507758798,244.705812 L0.521798212,243.907905 L0.538177528,243.111168 L0.558066697,242.315602 L0.579125818,241.520035 L0.602524841,240.725638 L0.629433717,239.931241 L0.658682495,239.136844 L0.690271177,238.344787 L0.72419976,237.55156 L0.760468245,236.760673 L0.799076631,235.968616 L0.840024922,235.178899 L0.884483066,234.389182 L0.930111162,233.599465 L0.979249109,232.812088 L1.03072696,232.023541 L1.08454471,231.236164 L1.14070237,230.449957 L1.19919992,229.66492 L1.26003738,228.879883 L1.32321474,228.094845 L1.38990196,227.310978 L1.45775913,226.528281 L1.52912615,225.745583 L1.60166312,224.964056 L1.67770994,224.183698 L1.75609667,223.403341 L1.8368233,222.624154 L1.91871988,221.844966 L2.00412631,221.066949 L2.09187265,220.290101 L2.18195889,219.513254 L2.27555498,218.737576 L2.37032102,217.961898 L2.46742696,217.187391 L2.5668728,216.414053 L2.66865856,215.640715 L2.77395417,214.868547 L2.88041972,214.09755 L2.98922518,213.326552 L3.10154048,212.556724 L3.21502576,211.788066 L3.33202086,211.019408 L3.45018593,210.25192 L3.57069088,209.484432 L3.69470571,208.719284 L3.81989048,207.952966 L3.94858513,207.188988 L4.0784497,206.42501 L4.21182412,205.662202 L4.34636851,204.900564 L4.48325278,204.138926 L4.62364692,203.378457 L4.76521101,202.619159 L4.91028495,201.859861 L5.05652884,201.101732 L5.20511265,200.344774 L5.35720629,199.587816 L5.5104699,198.833197 L5.66607341,198.077409 L5.82401679,197.32396 L5.9843001,196.570512 L6.14692331,195.818233 L6.31188644,195.067124 L6.47918944,194.317186 L6.64883235,193.567247 L6.82081518,192.818478 L6.9951379,192.07088 L7.17180053,191.323281 L7.34963311,190.576852 L7.53097553,189.831593 L7.7134879,189.087504 L7.89951013,188.343415 L8.08670232,187.600496 L8.27623439,186.858747 L8.46810639,186.118168 L8.66348823,185.377589 L8.85887008,184.63935 L9.05776177,183.901111 L9.25899336,183.164041 L9.46256487,182.426972 L9.66730631,181.691073 L9.87555763,180.957514 L10.0849789,180.223954 L10.29674,179.490395 L10.5108411,178.759176 L10.727282,178.027956 L10.9460629,177.297906 L11.1671837,176.569027 L11.3894744,175.841317 L11.615275,175.113608 L11.8422455,174.388238 L12.0715559,173.662868 L12.3032062,172.938668 L12.5371965,172.215639 L12.7735266,171.493779 L13.0110267,170.771919 L13.2508667,170.051229 L13.4942165,169.332879 L13.7387363,168.614529 L13.984426,167.896179 L14.2336256,167.180169 L14.4851651,166.465329 L14.7378746,165.750489 L14.9929239,165.036818 L15.2503132,164.324318 L15.5100423,163.612988 L15.7709414,162.902828 L16.0353504,162.193837 L16.3009293,161.486017 L16.5688481,160.778196 L16.8379369,160.071546 L17.1105355,159.367235 L17.3843041,158.662924 L17.6604126,157.959784 L17.9388609,157.257813 L18.2196492,156.557013 L18.5016074,155.856212 L18.7859055,155.157751 L19.0725436,154.45929 L19.3615215,153.763169 L19.6528393,153.067048 L19.9453271,152.372097 L20.2401548,151.679486 L20.5373224,150.986875 L20.8356599,150.295434 L21.1363374,149.605163 L21.4393547,148.916062 L21.744712,148.22813 L22.0512392,147.540199 L22.3612762,146.854608 L22.6724833,146.170186 L22.9848602,145.485765 L23.2995771,144.803683 L23.6178038,144.121602 L23.9360305,143.44186 L24.257767,142.762119 L24.5806736,142.084717 L24.90592,141.407315 L25.2335063,140.731083 L25.5622626,140.057191 L25.8933588,139.3833 L26.225625,138.710578 L26.5614008,138.040196 L26.8983467,137.369814 L27.2376326,136.700602 L27.5780884,136.03256 L27.9208841,135.365687 L28.2660197,134.701155 L28.6123253,134.036623 L28.9609707,133.373261 L29.3119561,132.711068 L29.6652813,132.051216 L30.0197765,131.391363 L30.3754417,130.732681 L30.7346167,130.076338 L31.0949616,129.419996 L31.4576465,128.764823 L31.8215013,128.11199 L32.187696,127.459158 L32.5550606,126.808665 L32.9259351,126.158172 L33.2968096,125.510019 L33.6711939,124.863036 L34.0467482,124.216053 L34.4246424,123.57141 L34.8037066,122.927937 L35.1851109,122.285634 L35.5676848,121.644501 L35.9537687,121.004537 L36.3398525,120.365744 L36.7294462,119.72812 L37.1202098,119.091667 L37.5121437,118.456384 L37.9064172,117.82344 L38.3030306,117.190496 L38.7008139,116.559893 L39.1009371,115.930459 L39.5022306,115.301025 L39.9058636,114.673932 L40.3118366,114.048008 L40.7189795,113.423254 L41.1284626,112.80084 L41.5391154,112.178426 L41.9521081,111.557182 L42.366271,110.938278 L42.7827735,110.320543 L43.200446,109.702809 L43.6204586,109.087415 L44.0428109,108.47436 L44.4663331,107.861306 L44.8910255,107.249421 L45.3192275,106.639877 L45.7474298,106.030332 L46.1779717,105.423128 L46.6108535,104.817093 L47.0449056,104.212228 L47.4812972,103.608534 L47.9188591,103.007179 L48.3587606,102.406994 L48.7998323,101.806809 L49.2432437,101.208964 L49.6878253,100.612289 L50.1347465,100.017954 L50.5828379,99.4236182 L51.0332689,98.831623 L51.4848702,98.2407977 L51.9376412,97.6511424 L52.3939222,97.0626568 L52.850203,96.4765114 L53.308824,95.8903659 L53.7697846,95.3065601 L54.2319154,94.7239245 L54.6952162,94.1424588 L55.1608566,93.5633331 L55.6288371,92.985377 L56.0968174,92.4085912 L56.5683078,91.8329753 L57.0397982,91.2585293 L57.5147982,90.6864232 L57.9897985,90.1154869 L58.4671386,89.5457207 L58.9468184,88.9771245 L59.4264985,88.4108682 L59.9096884,87.8457818 L60.394048,87.2818654 L60.8795778,86.7191187 L61.3662775,86.1587121 L61.8553172,85.5994755 L62.3466965,85.0414088 L62.838076,84.4845121 L63.3329654,83.9299553 L63.8278548,83.3765684 L64.3250838,82.8243515 L64.824653,82.2744745 L65.3242222,81.7245975 L65.8261313,81.1770601 L66.3303803,80.6318629 L66.835799,80.0878356 L67.3423879,79.5449783 L67.8513167,79.0032909 L68.3614154,78.4627735 L68.8726841,77.924596 L69.3862927,77.3875884 L69.9010712,76.8529207 L70.4181894,76.319423 L70.9353078,75.7870952 L71.4559361,75.2559374 L71.9765644,74.7271194 L72.4995326,74.1994717 L73.0236707,73.6741636 L73.5501487,73.1500255 L74.0777967,72.6270573 L74.6066146,72.1052591 L75.1366025,71.5858008 L75.6689303,71.0675124 L76.202428,70.5515639 L76.7382657,70.0367854 L77.2752732,69.5231768 L77.8134508,69.0107384 L78.3527982,68.5006396 L78.8944856,67.9928808 L79.4373429,67.485122 L79.9813702,66.980873 L80.5277374,66.476624 L81.0752745,65.9747152 L81.6239816,65.473976 L82.1750285,64.9755768 L82.7260755,64.4783475 L83.2794624,63.9822881 L83.8351891,63.4885689 L84.3909159,62.9960194 L84.9489828,62.5058098 L85.5082194,62.0167702 L86.069796,61.5289008 L86.6313725,61.043371 L87.1952889,60.5590111 L87.7603753,60.0769914 L88.3278015,59.5961414 L88.895228,59.1176313 L89.4649942,58.6402914 L90.0359303,58.1641212 L90.6092063,57.6902909 L91.1824823,57.2176308 L91.7580985,56.7473104 L92.3348843,56.2781598 L92.9128402,55.8113495 L93.4931359,55.3457088 L94.0746018,54.8812384 L94.6572374,54.4191076 L95.2410429,53.9593167 L95.8260184,53.500696 L96.4133341,53.0432449 L97.0006495,52.5881341 L97.5903048,52.1341929 L98.1811301,51.6825919 L98.7742955,51.2333306 L99.3674606,50.7840694 L99.9629657,50.3383179 L100.559641,49.8925667 L101.157486,49.450325 L101.756501,49.0080836 L102.356686,48.5693518 L102.959211,48.1306202 L103.562906,47.6953982 L104.16777,47.2613465 L104.773805,46.8284646 L105.38101,46.3979225 L105.989384,45.9685505 L106.600099,45.5415182 L107.210813,45.1156561 L107.823867,44.6921338 L108.438092,44.2709513 L109.053486,43.8509389 L109.670051,43.4320965 L110.287785,43.0167636 L110.907859,42.6014311 L111.527933,42.1884384 L112.150347,41.7777854 L112.773931,41.3694725 L113.398685,40.9611596 L114.024609,40.5563566 L114.651703,40.1527232 L115.279966,39.7502601 L115.9094,39.3513068 L116.541173,38.9523535 L117.172947,38.5569098 L117.807061,38.1626364 L118.442344,37.7695328 L119.077628,37.3787692 L119.715251,36.9903455 L120.354044,36.6030914 L120.994008,36.2181775 L121.635141,35.8344336 L122.277444,35.4541995 L122.920917,35.0739654 L123.56673,34.6972412 L124.212543,34.3205169 L124.859526,33.9473025 L125.508849,33.5752581 L126.158172,33.2055535 L126.809835,32.8370187 L127.461497,32.470824 L128.1155,32.1069692 L128.769503,31.7442843 L129.425845,31.3839394 L130.083358,31.0259343 L130.74087,30.6690992 L131.400723,30.314604 L132.061745,29.9624487 L132.723938,29.6114634 L133.38613,29.2628179 L134.050662,28.9165126 L134.716365,28.571377 L135.383237,28.2285813 L136.050109,27.8869556 L136.719321,27.5476697 L137.389703,27.2107237 L138.061255,26.8761177 L138.732807,26.5426816 L139.406699,26.2115854 L140.081761,25.8828293 L140.756822,25.5552429 L141.434224,25.2311664 L142.112796,24.9070899 L142.791367,24.5865233 L143.472279,24.2671267 L144.15319,23.9500699 L144.836442,23.635353 L145.519693,23.3218061 L146.204115,23.0105991 L146.890876,22.701732 L147.577637,22.3952048 L148.265569,22.0898476 L148.95467,21.7868302 L149.644941,21.4861528 L150.336382,21.1866453 L151.028993,20.8894777 L151.722774,20.59465 L152.417725,20.3021622 L153.112676,20.0120143 L153.809967,19.7230364 L154.507258,19.4363984 L155.206889,19.1521003 L155.90652,18.8689721 L156.60732,18.5893537 L157.309291,18.3109054 L158.012432,18.0347969 L158.716742,17.7598584 L159.422223,17.4884297 L160.128873,17.218171 L160.835524,16.9502522 L161.543344,16.6846733 L162.253505,16.4214343 L162.963665,16.1593652 L163.674995,15.900806 L164.387495,15.6434168 L165.099996,15.3871975 L165.814836,15.134488 L166.530846,14.8841185 L167.246856,14.6349189 L167.964036,14.3880592 L168.682386,14.1435394 L169.401906,13.9013595 L170.121426,13.6615195 L170.843286,13.4228495 L171.565146,13.1865194 L172.288176,12.9536991 L173.012376,12.7220488 L173.737745,12.4927383 L174.464285,12.2645979 L175.190824,12.0399672 L175.919704,11.8165066 L176.648584,11.5965558 L177.378633,11.3777749 L178.108683,11.1613339 L178.841072,10.9472329 L179.573461,10.7354717 L180.307021,10.5248805 L181.04175,10.3177991 L181.777649,10.1118878 L182.513549,9.90948621 L183.250618,9.7082546 L183.988857,9.5093629 L184.728266,9.31281111 L185.467675,9.11859922 L186.209424,8.92672725 L186.951173,8.73719515 L187.694092,8.54883303 L188.437011,8.36398073 L189.1811,8.18029841 L189.927529,8.00012593 L190.672788,7.82112341 L191.420387,7.64446078 L192.167986,7.47130801 L192.916754,7.2993252 L193.666693,7.12968227 L194.417802,6.96237927 L195.16891,6.79741616 L195.921189,6.63479295 L196.673467,6.47450965 L197.428086,6.31656624 L198.182704,6.15979278 L198.938493,6.00652919 L199.694281,5.85560548 L200.45241,5.70702169 L201.210538,5.55960785 L201.968666,5.41570386 L202.727965,5.27296982 L203.489603,5.13374563 L204.250071,4.99686134 L205.012879,4.86114702 L205.775687,4.72894253 L206.538495,4.59790801 L207.303643,4.47038333 L208.068791,4.34402861 L208.83511,4.22118374 L209.601428,4.09950881 L210.368915,3.98134374 L211.137573,3.86551859 L211.906231,3.75086338 L212.677229,3.63971801 L213.447057,3.53091255 L214.219225,3.42327705 L214.991392,3.31915139 L215.76356,3.21736566 L216.538068,3.11674985 L217.312576,3.01964391 L218.087083,2.92487785 L218.862761,2.83245172 L219.639608,2.74236548 L220.416456,2.65461914 L221.195643,2.56921273 L221.973661,2.48614618 L222.752848,2.40541956 L223.533206,2.32820278 L224.314733,2.25215595 L225.096261,2.17844903 L225.877788,2.10825196 L226.661655,2.03922485 L227.445522,1.97370758 L228.22939,1.91053022 L229.014427,1.84852281 L229.800634,1.79002525 L230.586841,1.7338676 L231.374218,1.68004985 L232.161595,1.62974194 L232.950142,1.580604 L233.73869,1.53380595 L234.528407,1.49051776 L235.319294,1.44956947 L236.110181,1.40979113 L236.902237,1.37352264 L237.694294,1.33959406 L238.487521,1.30800538 L239.280748,1.27992655 L240.075145,1.25301768 L240.869542,1.2284487 L241.665109,1.20738958 L242.461845,1.18867036 L243.258582,1.17229105 L244.055319,1.15825163 L244.853226,1.14655212 L245.652302,1.13836246 L246.451379,1.13134276 L247.250455,1.1278329 L248.051872,1.12666295 L248.852118,1.1278329 L249.651195,1.13134276 L250.450272,1.13836246 L251.249348,1.14655212 L252.047255,1.15825163 L252.843992,1.17229105 L253.640727,1.18867036 L254.437465,1.20738958 L255.233033,1.2284487 L256.027429,1.25301768 L256.821826,1.27992655 L257.615053,1.30800538 L258.40828,1.33959406 L259.200336,1.37352264 L259.992394,1.40979113 L260.78328,1.44956947 L261.574167,1.49051776 L262.363884,1.53380595 L263.152432,1.580604 L263.940977,1.62974194 L264.728356,1.68004985 L265.515732,1.7338676 L266.301939,1.79002525 L267.088146,1.84852281 L267.873184,1.91053022 L268.657051,1.97370758 L269.440919,2.03922485 L270.224785,2.10825196 L271.006313,2.17844903 L271.787841,2.25215595 L272.569369,2.32820278 L273.349725,2.40541956 L274.128914,2.48614618 L274.908101,2.56921273 L275.686119,2.65461914 L276.462965,2.74236548 L277.239813,2.83245172 L278.01549,2.92487785 L278.791169,3.01964391 L279.564505,3.11674985 L280.339013,3.21736566 L281.111182,3.31915139 L281.883348,3.42327705 L282.655518,3.53091255 L283.425346,3.63971801 L284.196343,3.75086338 L284.965,3.86551859 L285.733659,3.98134374 L286.501146,4.09950881 L287.267465,4.22118374 L288.033783,4.34402861 L288.798929,4.47038333 L289.564078,4.59790801 L290.326886,4.72894253 L291.089694,4.86114702 L291.852503,4.99686134 L292.614141,5.13374563 L293.374609,5.27296982 L294.133907,5.41570386 L294.893207,5.55960785 L295.650164,5.70702169 L296.408293,5.85560548 L297.164081,6.00652919 L297.919869,6.15979278 L298.674487,6.31656624 L299.429106,6.47450965 L300.181384,6.63479295 L300.933664,6.79741616 L301.684773,6.96237927 L302.435881,7.12968227 L303.185821,7.2993252 L303.934588,7.47130801 L304.682187,7.64446078 L305.429785,7.82112341 L306.176215,8.00012593 L306.921475,8.18029841 L307.665563,8.36398073 L308.408482,8.54883303 L309.151402,8.73719515 L309.893149,8.92672725 L310.634899,9.11859922 L311.374308,9.31281111 L312.113717,9.5093629 L312.851957,9.7082546 L313.589025,9.90948621 L314.326093,10.1118878 L315.060823,10.3177991 L315.795553,10.5248805 L316.529114,10.7354717 L317.261503,10.9472329 L317.993891,11.1613339 L318.723942,11.3777749 L319.45399,11.5965558 L320.182869,11.8165066 L320.91175,12.0399672 L321.638288,12.2645979 L322.364828,12.4927383 L323.090199,12.7220488 L323.814399,12.9536991 L324.537429,13.1865194 L325.259288,13.4228495 L325.981149,13.6615195 L326.700667,13.9013595 L327.420187,14.1435394 L328.138538,14.3880592 L328.855717,14.6349189 L329.572899,14.8841185 L330.287737,15.134488 L331.002578,15.3871975 L331.715078,15.6434168 L332.427578,15.900806 L333.138909,16.1593652 L333.849068,16.4214343 L334.55923,16.6846733 L335.267051,16.9502522 L335.974871,17.218171 L336.680351,17.4884297 L337.385831,17.7598584 L338.090141,18.0347969 L338.793283,18.3109054 L339.495253,18.5893537 L340.196053,18.8689721 L340.895684,19.1521003 L341.595316,19.4363984 L342.292606,19.7230364 L342.989896,20.0120143 L343.684848,20.3021622 L344.379801,20.59465 L345.073581,20.8894777 L345.766192,21.1866453 L346.457634,21.4861528 L347.147904,21.7868302 L347.837005,22.0898476 L348.524937,22.3952048 L349.211697,22.701732 L349.89846,23.0105991 L350.582881,23.3218061 L351.266131,23.635353 L351.949384,23.9500699 L352.630295,24.2671267 L353.311207,24.5865233 L353.989778,24.9070899 L354.668351,25.2311664 L355.345753,25.5552429 L356.020813,25.8828293 L356.695876,26.2115854 L357.369768,26.5426816 L358.041318,26.8761177 L358.712871,27.2107237 L359.383253,27.5476697 L360.052465,27.8869556 L360.719338,28.2285813 L361.38621,28.571377 L362.051912,28.9165126 L362.716444,29.2628179 L363.378636,29.6114634 L364.040828,29.9624487 L364.701851,30.314604 L365.361705,30.6690992 L366.019215,31.0259343 L366.676727,31.3839394 L367.333071,31.7442843 L367.987073,32.1069692 L368.641076,32.470824 L369.29274,32.8370187 L369.944402,33.2055535 L370.593725,33.5752581 L371.243048,33.9473025 L371.89003,34.3205169 L372.535843,34.6972412 L373.181657,35.0739654 L373.825129,35.4541995 L374.467432,35.8344336 L375.108566,36.2181775 L375.74853,36.6030914 L376.387323,36.9903455 L377.024947,37.3787692 L377.66023,37.7695328 L378.295513,38.1626364 L378.929626,38.5569098 L379.561402,38.9523535 L380.193174,39.3513068 L380.822609,39.7502601 L381.450871,40.1527232 L382.077965,40.5563566 L382.703889,40.9611596 L383.328644,41.3694725 L383.952227,41.7777854 L384.574641,42.1884384 L385.194715,42.6014311 L385.81479,43.0167636 L386.432523,43.4320965 L387.049088,43.8509389 L387.664482,44.2709513 L388.278707,44.6921338 L388.89176,45.1156561 L389.502475,45.5415182 L390.113189,45.9685505 L390.721563,46.3979225 L391.329939,46.8284646 L391.935975,47.2613465 L392.539669,47.6953982 L393.143364,48.1306202 L393.745889,48.5693518 L394.346073,49.0080836 L394.945088,49.450325 L395.542932,49.8925667 L396.139609,50.3383179 L396.735114,50.7840694 L397.328278,51.2333306 L397.921444,51.6825919 L398.51227,52.1341929 L399.101924,52.5881341 L399.690409,53.0432449 L400.276556,53.500696 L400.86153,53.9593167 L401.446508,54.4191076 L402.027972,54.8812384 L402.609437,55.3457088 L403.189735,55.8113495 L403.767689,56.2781598 L404.344475,56.7473104 L404.920091,57.2176308 L405.493369,57.6902909 L406.066644,58.1641212 L406.637581,58.6402914 L407.207346,59.1176313 L407.774773,59.5961414 L408.342199,60.0769914 L408.907285,60.5590111 L409.471202,61.043371 L410.032778,61.5289008 L410.594354,62.0167702 L411.153591,62.5058098 L411.711659,62.9960194 L412.267384,63.4885689 L412.823111,63.9822881 L413.376497,64.4783475 L413.928715,64.9755768 L414.478593,65.473976 L415.027301,65.9747152 L415.574836,66.476624 L416.121205,66.980873 L416.66523,67.485122 L417.208088,67.9928808 L417.749775,68.5006396 L418.289124,69.0107384 L418.827301,69.5231768 L419.364308,70.0367854 L419.900146,70.5515639 L420.433644,71.0675124 L420.965972,71.5858008 L421.49596,72.1052591 L422.024778,72.6270573 L422.552424,73.1500255 L423.078904,73.6741636 L423.60304,74.1994717 L424.12601,74.7271194 L424.646639,75.2559374 L425.167265,75.7870952 L425.684384,76.319423 L426.201503,76.8529207 L426.71628,77.3875884 L427.229889,77.924596 L427.741159,78.4627735 L428.251258,79.0032909 L428.760187,79.5449783 L429.266775,80.0878356 L429.772194,80.6318629 L430.276442,81.1770601 L430.778351,81.7245975 L431.279091,82.2744745 L431.77749,82.8243515 L432.27472,83.3765684 L432.769609,83.9299553 L433.264497,84.4845121 L433.755876,85.0414088 L434.247258,85.5994755 L434.736295,86.1587121 L435.222995,86.7191187 L435.709697,87.2818654 L436.192886,87.8457818 L436.676076,88.4108682 L437.155755,88.9771245 L437.635434,89.5457207 L438.112775,90.1154869 L438.588944,90.6864232 L439.062775,91.2585293 L439.534265,91.8329753 L440.005758,92.4085912 L440.473737,92.985377 L440.941717,93.5633331 L441.407359,94.1424588 L441.870659,94.7239245 L442.33279,95.3065601 L442.79375,95.8903659 L443.252371,96.4765114 L443.708652,97.0626568 L444.164932,97.6511424 L444.617705,98.2407977 L445.069306,98.831623 L445.519735,99.4236182 L445.967828,100.017954 L446.414747,100.612289 L446.859331,101.208964 L447.302742,101.806809 L447.743813,102.406994 L448.183715,103.007179 L448.621278,103.608534 L449.057669,104.212228 L449.49172,104.817093 L449.924601,105.423128 L450.355144,106.030332 L450.783346,106.639877 L451.211548,107.249421 L451.63624,107.861306 L452.059763,108.47436 L452.482116,109.087415 L452.902129,109.702809 L453.319801,110.320543 L453.736303,110.938278 L454.150465,111.557182 L454.56346,112.178426 L454.974111,112.80084 L455.383593,113.423254 L455.790737,114.048008 L456.19671,114.673932 L456.600343,115.301025 L457.001636,115.930459 L457.40176,116.559893 L457.799543,117.190496 L458.196157,117.82344 L458.590429,118.456384 L458.983533,119.091667 L459.373129,119.72812 L459.762722,120.365744 L460.149975,121.004537 L460.534889,121.644501 L460.917462,122.285634 L461.298866,122.927937 L461.677932,123.57141 L462.055826,124.216053 L462.431379,124.863036 L462.805765,125.510019 L463.176639,126.158172 L463.547513,126.808665 L463.914879,127.459158 L464.281073,128.11199 L464.644927,128.764823 L465.007611,129.419996 L465.367957,130.076338 L465.727131,130.732681 L466.082798,131.391363 L466.437293,132.051216 L466.790619,132.711068 L467.141604,133.373261 L467.490247,134.036623 L467.836553,134.701155 L468.181689,135.365687 L468.524485,136.03256 L468.864942,136.700602 L469.204227,137.369814 L469.541174,138.040196 L469.876949,138.710578 L470.209215,139.3833 L470.540311,140.057191 L470.870237,140.731083 L471.196654,141.407315 L471.521902,142.084717 L471.844806,142.762119 L472.166543,143.44186 L472.485939,144.121602 L472.802997,144.803683 L473.117715,145.485765 L473.43126,146.170186 L473.741298,146.854608 L474.051336,147.540199 L474.357861,148.22813 L474.66322,148.916062 L474.966237,149.605163 L475.266914,150.295434 L475.565253,150.986875 L475.862419,151.679486 L476.157247,152.372097 L476.449735,153.067048 L476.741053,153.763169 L477.03003,154.45929 L477.316669,155.157751 L477.600967,155.856212 L477.882924,156.557013 L478.163712,157.257813 L478.442162,157.959784 L478.71827,158.662924 L478.992038,159.367235 L479.264636,160.071546 L479.533725,160.778196 L479.801644,161.486017 L480.067222,162.193837 L480.331631,162.902828 L480.59253,163.612988 L480.85226,164.324318 L481.109649,165.036818 L481.364699,165.750489 L481.617409,166.465329 L481.868947,167.180169 L482.118149,167.896179 L482.363838,168.614529 L482.608359,169.332879 L482.851707,170.051229 L483.091548,170.771919 L483.329048,171.493779 L483.565376,172.215639 L483.799369,172.938668 L484.031018,173.662868 L484.260328,174.388238 L484.487298,175.113608 L484.713098,175.841317 L484.935391,176.569027 L485.15651,177.297906 L485.375293,178.027956 L485.591732,178.759176 L485.805833,179.490395 L486.017596,180.223954 L486.227015,180.957514 L486.435268,181.691073 L486.64001,182.426972 L486.843581,183.164041 L487.044813,183.901111 L487.243705,184.63935 L487.440255,185.377589 L487.634467,186.118168 L487.826338,186.858747 L488.015871,187.600496 L488.203063,188.343415 L488.389086,189.087504 L488.571598,189.831593 L488.752942,190.576852 L488.930773,191.323281 L489.107437,192.07088 L489.281758,192.818478 L489.453742,193.567247 L489.623384,194.317186 L489.790687,195.067124 L489.955652,195.818233 L490.118273,196.570512 L490.278558,197.32396 L490.4365,198.077409 L490.592104,198.833197 L490.746538,199.587816 L490.897462,200.344774 L491.046045,201.101732 L491.192288,201.859861 L491.337364,202.619159 L491.478927,203.378457 L491.619321,204.138926 L491.756205,204.900564 L491.89075,205.662202 L492.024124,206.42501 L492.15399,207.188988 L492.282684,207.952966 L492.407869,208.719284 L492.531884,209.484432 L492.652389,210.25192 L492.771722,211.019408 L492.887548,211.788066 L493.001033,212.556724 L493.113348,213.326552 L493.222154,214.09755 L493.328619,214.868547 L493.433914,215.640715 L493.535702,216.414053 L493.635146,217.187391 L493.732253,217.961898 L493.828189,218.737576 L493.920616,219.513254 L494.010702,220.290101 L494.098447,221.066949 L494.183854,221.844966 L494.26575,222.624154 L494.346477,223.403341 L494.424864,224.183698 L494.500912,224.964056 L494.573447,225.745583 L494.644816,226.528281 L494.712672,227.310978 L494.779359,228.094845 L494.842535,228.879883 L494.903374,229.66492 L494.961871,230.449957 L495.01803,231.236164 L495.071846,232.023541 L495.123326,232.812088 L495.172462,233.599465 L495.218091,234.389182 L495.262548,235.178899 L495.303497,235.968616 L495.342106,236.760673 L495.378374,237.55156 L495.412303,238.344787 L495.443891,239.136844 L495.473139,239.931241 L495.500048,240.725638 L495.523447,241.520035 L495.544508,242.315602 L495.564396,243.111168 L495.580775,243.907905 L495.594816,244.705812 L495.605343,245.503718 L495.614705,246.301625 L495.620553,247.100702 L495.625235,247.900948 L495.626404,248.701195 L495.625235,249.501441 L495.620553,250.301688 L495.614705,251.100765 L495.605343,251.898671 L495.594816,252.696578 L495.580775,253.494485 L495.564396,254.291222 L495.544508,255.086788 L495.523447,255.882356 L495.500048,256.677922 L495.473139,257.472318 L495.443891,258.265545 L495.412303,259.058773 L495.378374,259.850828 L495.342106,260.642886 L495.303497,261.433773 L495.262548,262.22349 L495.218091,263.013207 L495.172462,263.802924 L495.123326,264.591472 L495.071846,265.378848 L495.01803,266.166225 L494.961871,266.952432 L494.903374,267.738639 L494.842535,268.523677 L494.779359,269.307545 L494.712672,270.091412 L494.644816,270.874109 L494.573447,271.656806 L494.500912,272.438333 L494.424864,273.218692 L494.346477,273.999048 L494.26575,274.778235 L494.183854,275.557424 L494.098447,276.335442 L494.010702,277.11346 L493.920616,277.889136 L493.828189,278.665982 L493.732253,279.440492 L493.635146,280.215 L493.535702,280.988336 L493.433914,281.761674 L493.328619,282.533841 L493.222154,283.304841 L493.113348,284.075838 L493.001033,284.845667 L492.887548,285.615492 L492.771722,286.382982 L492.652389,287.15047 L492.531884,287.917957 L492.407869,288.684275 L492.282684,289.449424 L492.15399,290.213402 L492.024124,290.977379 L491.89075,291.740187 L491.756205,292.501826 L491.619321,293.263465 L491.478927,294.023932 L491.337364,294.78323 L491.192288,295.542528 L491.046045,296.300657 L490.897462,297.057616 L490.746538,297.814573 L490.592104,298.570361 L490.4365,299.32498 L490.278558,300.078429 L490.118273,300.831879 L489.955652,301.584157 L489.790687,302.335265 L489.623384,303.086374 L489.453742,303.835141 L489.281758,304.583912 L489.107437,305.332679 L488.930773,306.079109 L488.752942,306.825538 L488.571598,307.570795 L488.389086,308.314886 L488.203063,309.058975 L488.015871,309.801894 L487.826338,310.543641 L487.634467,311.284222 L487.440255,312.024801 L487.243705,312.76304 L487.044813,313.501278 L486.843581,314.239518 L486.64001,314.975417 L486.435268,315.711316 L486.227015,316.446045 L486.017596,317.179606 L485.805833,317.911995 L485.591732,318.643215 L485.375293,319.374434 L485.15651,320.104482 L484.935391,320.833364 L484.713098,321.561073 L484.487298,322.288783 L484.409093,322.538715 C472.834727,302.737672 455.696361,286.579899 435.143672,276.215071 L435.206616,275.776205 L435.290854,275.188889 L435.371581,274.600404 L435.451136,274.010747 L435.529523,273.418753 L435.605571,272.829098 L435.680447,272.238273 L435.752985,271.646278 L435.823182,271.05428 L435.892207,270.461116 L435.958896,269.865611 L436.024412,269.271275 L436.087591,268.676939 L436.149598,268.081434 L436.209265,267.48476 L436.266593,266.888086 L436.32275,266.291409 L436.376568,265.692396 L436.429215,265.094551 L436.479523,264.494366 L436.528662,263.894179 L436.57546,263.293995 L436.619917,262.692641 L436.663207,262.091285 L436.704154,261.48876 L436.742763,260.885066 L436.780202,260.28254 L436.815301,259.678846 L436.849227,259.072811 L436.880816,258.467947 L436.911235,257.861912 L436.939313,257.254707 L436.965053,256.647503 L436.988452,256.040298 L437.010682,255.433093 L437.03174,254.823548 L437.04929,254.214005 L437.066838,253.60329 L437.080879,252.991407 L437.093747,252.381861 L437.104278,251.769977 L437.112467,251.155752 L437.119487,250.543868 L437.124167,249.930813 L437.127677,249.316589 L437.128846,248.701195 L437.127677,248.085801 L437.124167,247.471576 L437.119487,246.858522 L437.112467,246.246637 L437.104278,245.632413 L437.093747,245.020529 L437.080879,244.410984 L437.066838,243.799099 L437.04929,243.189555 L437.03174,242.58001 L437.010682,241.969296 L436.988452,241.362091 L436.965053,240.754887 L436.939313,240.147682 L436.911235,239.540477 L436.880816,238.934443 L436.849227,238.330748 L436.815301,237.724713 L436.780202,237.119848 L436.742763,236.517323 L436.704154,235.913629 L436.663207,235.311104 L436.619917,234.709749 L436.57546,234.108394 L436.528662,233.508209 L436.479523,232.908024 L436.429215,232.309009 L436.376568,231.709994 L436.32275,231.112149 L436.266593,230.514304 L436.209265,229.918799 L436.149598,229.320954 L436.087591,228.725449 L436.024412,228.131114 L435.958896,227.536779 L435.892207,226.942443 L435.823182,226.348108 L435.752985,225.756113 L435.680447,225.164118 L435.605571,224.573292 L435.529523,223.983637 L435.451136,223.391642 L435.371581,222.801986 L435.290854,222.213501 L435.206616,221.626185 L435.122381,221.03887 L435.034634,220.451555 L434.945717,219.865409 L434.855631,219.280433 L434.763205,218.693118 L434.669609,218.110482 L434.573674,217.526677 L434.475396,216.942871 L434.375952,216.361405 L434.275336,215.778769 L434.172379,215.198474 L434.067083,214.618178 L433.960619,214.037882 L433.852982,213.458756 L433.743008,212.879631 L433.630692,212.301675 L433.517207,211.724889 L433.401381,211.148103 L433.284386,210.572487 L433.166222,209.996871 L433.045717,209.422425 L432.922871,208.849149 L432.798856,208.275873 L432.673672,207.702597 L432.546149,207.130491 L432.417452,206.559555 L432.286419,205.988618 L432.153045,205.418852 L432.0185,204.849086 L431.882785,204.28166 L431.745902,203.714233 L431.605508,203.145637 L431.463942,202.579381 L431.32121,202.013124 L431.177306,201.448038 L431.031061,200.884121 L430.882477,200.321375 L430.732725,199.757459 L430.581801,199.194712 L430.428535,198.633136 L430.274104,198.071559 L430.117328,197.512322 L429.959386,196.953086 L429.799104,196.393849 L429.637649,195.835782 L429.475025,195.278886 L429.310063,194.721989 L429.143929,194.165092 L428.975457,193.610535 L428.805813,193.055979 L428.633831,192.501421 L428.460679,191.949205 L428.286356,191.396988 L428.109692,190.844771 L427.931861,190.293724 L427.751687,189.743847 L427.570346,189.19397 L427.387833,188.646433 L427.20298,188.098895 L427.01696,187.550188 L426.828596,187.003821 L426.639066,186.458624 L426.448364,185.913427 L426.255321,185.369399 L426.059939,184.824202 L425.864558,184.282515 L425.666836,183.740827 L425.467944,183.20031 L425.266712,182.658622 L425.064311,182.119275 L424.86074,181.581097 L424.654828,181.04175 L424.446576,180.504742 L424.238326,179.968905 L424.027732,179.433067 L423.815972,178.898399 L423.601871,178.362562 L423.386601,177.829064 L423.170159,177.297906 L422.951379,176.765579 L422.731427,176.233251 L422.510308,175.703263 L422.286846,175.174445 L422.062215,174.645627 L421.835245,174.117979 L421.608275,173.591501 L421.377795,173.063853 L421.147313,172.538545 L420.915664,172.014407 L420.680503,171.490269 L420.444174,170.966131 L420.207843,170.445503 L419.969174,169.923704 L419.729333,169.403076 L419.487154,168.884788 L419.243803,168.36533 L418.998114,167.845871 L418.752424,167.328753 L418.504394,166.812804 L418.255194,166.298026 L418.003654,165.783247 L417.750944,165.268469 L417.497066,164.75603 L417.240846,164.243592 L416.983457,163.732323 L416.726068,163.223394 L416.465169,162.713295 L416.203101,162.204367 L415.94103,161.696608 L415.675452,161.188849 L415.409874,160.68343 L415.141955,160.179181 L414.872866,159.674932 L414.602606,159.170683 L414.330008,158.667604 L414.05624,158.165695 L413.781301,157.666126 L413.505192,157.166557 L413.226745,156.666988 L412.947126,156.169759 L412.666338,155.67136 L412.38321,155.1753 L412.100081,154.680411 L411.814614,154.186691 L411.527975,153.694142 L411.238997,153.200423 L410.948848,152.707873 L410.658702,152.218834 L410.366215,151.728624 L410.071386,151.238415 L409.776558,150.751715 L409.479391,150.265015 L409.181053,149.778316 L408.880376,149.292786 L408.578528,148.808426 L408.276682,148.327576 L407.972495,147.844386 L407.665967,147.362366 L407.359439,146.881517 L407.051742,146.404177 L406.741705,145.925666 L406.429328,145.447157 L406.118121,144.970986 L405.803404,144.495986 L405.488687,144.020986 L405.171631,143.548326 L404.853404,143.075665 L404.532838,142.604175 L404.21227,142.133855 L403.889364,141.663534 L403.565288,141.195554 L403.24004,140.727573 L402.914795,140.261933 L402.586038,139.796292 L402.257283,139.331822 L401.926187,138.868521 L401.593919,138.40522 L401.260485,137.94543 L400.925879,137.484469 L400.588932,137.024678 L400.251987,136.566057 L399.913871,136.109776 L399.573414,135.653495 L399.230619,135.197214 L398.887823,134.743273 L398.543859,134.290502 L398.198722,133.838901 L397.851247,133.3873 L397.50377,132.938039 L397.153955,132.488778 L396.80297,132.040686 L396.450816,131.593765 L396.09749,131.148014 L395.741826,130.703432 L395.386159,130.261191 L395.029323,129.817779 L394.66898,129.376708 L394.309806,128.936806 L393.94829,128.496904 L393.584434,128.058172 L393.220581,127.621781 L392.856725,127.185389 L392.49053,126.751337 L392.121995,126.318455 L391.75229,125.884403 L391.381417,125.452691 L391.010543,125.023319 L390.637328,124.593947 L390.262944,124.165745 L389.887389,123.738713 L389.510664,123.312851 L389.13277,122.888159 L388.753707,122.464636 L388.373472,122.042284 L387.990899,121.621101 L387.608323,121.199919 L387.224581,120.782246 L386.838497,120.363404 L386.451242,119.946901 L386.06399,119.531569 L385.674394,119.117406 L385.283631,118.704413 L384.892869,118.29259 L384.498593,117.880768 L384.104321,117.471285 L383.710048,117.062972 L383.313434,116.655829 L382.915652,116.249856 L382.515528,115.843883 L382.115404,115.440249 L381.71528,115.037786 L381.311646,114.636493 L380.908015,114.23637 L380.503212,113.837416 L380.097237,113.439633 L379.690096,113.04302 L379.281783,112.647576 L378.871129,112.253303 L378.460477,111.860199 L378.048654,111.468265 L377.635662,111.078672 L377.221497,110.689078 L376.806167,110.301824 L376.388492,109.91457 L375.970821,109.528486 L375.551977,109.144742 L375.131965,108.760998 L374.710783,108.379594 L374.288429,107.99936 L373.863737,107.619126 L373.439045,107.241232 L373.014354,106.865678 L372.587321,106.488953 L372.159119,106.115739 L371.729747,105.742524 L371.299205,105.37048 L370.867492,104.999606 L370.434611,104.629901 L370.00173,104.263706 L369.566508,103.896341 L369.130116,103.531317 L368.693725,103.167462 L368.256162,102.804777 L367.81626,102.443262 L367.376359,102.082917 L366.935288,101.723742 L366.491876,101.366907 L366.048465,101.010072 L365.603884,100.655577 L365.158131,100.302252 L364.712381,99.9500962 L364.264288,99.5991109 L363.815028,99.2492955 L363.365768,98.9006503 L362.914167,98.5543447 L362.462563,98.2092091 L362.008624,97.8640735 L361.554682,97.5212778 L361.099571,97.179652 L360.64329,96.8391962 L360.185838,96.4999104 L359.728389,96.1629644 L359.268598,95.8271884 L358.807636,95.4925823 L358.346677,95.1579765 L357.884545,94.8268803 L357.421245,94.4957841 L356.956775,94.1670278 L356.491134,93.8382715 L356.024323,93.5118551 L355.557513,93.1866088 L355.088361,92.8625323 L354.619212,92.5407957 L354.148891,92.220229 L353.677402,91.8996624 L353.20474,91.5814359 L352.730912,91.264379 L352.255912,90.9484922 L351.782081,90.6349452 L351.30474,90.3225684 L350.827399,90.0113614 L350.348891,89.7013242 L349.870381,89.3924571 L349.38953,89.0859301 L348.908679,88.7805727 L348.426662,88.4763854 L347.94347,88.1733682 L347.459111,87.8726907 L346.973581,87.5720131 L346.488051,87.2736758 L346.001351,86.9765081 L345.513482,86.6816803 L345.024442,86.3868528 L344.534232,86.0943649 L344.044023,85.803047 L343.551475,85.5128992 L343.060093,85.2250912 L342.566376,84.9384533 L342.071485,84.6529851 L341.576596,84.3686869 L341.080538,84.0867288 L340.583308,83.8059404 L340.084909,83.5263222 L339.58651,83.2478737 L339.086939,82.9717654 L338.586202,82.6968268 L338.084293,82.4218881 L337.581212,82.1504596 L337.079306,81.8802008 L336.573886,81.6111121 L336.069636,81.3431932 L335.563048,81.0764444 L335.055288,80.8120354 L334.548699,80.5487965 L334.03977,80.2878975 L333.530843,80.0269982 L333.019573,79.7684391 L332.508306,79.5110497 L331.995866,79.2560005 L331.483427,79.002121 L330.969818,78.7494116 L330.45504,78.4978722 L329.940263,78.2486725 L329.423144,78.0006429 L328.906025,77.7537831 L328.387737,77.5092634 L327.869449,77.2659136 L327.348821,77.0237336 L326.829361,76.7838937 L326.307563,76.5452237 L325.784596,76.3077235 L325.262798,76.0713934 L324.738659,75.8374033 L324.213351,75.6057528 L323.688043,75.3741025 L323.161566,75.1447922 L322.635088,74.9166518 L322.10627,74.690851 L321.578621,74.4662205 L321.048634,74.2427598 L320.518646,74.0204692 L319.987487,73.8016881 L319.455159,73.5829073 L318.922833,73.3652965 L318.389336,73.1500255 L317.854667,72.9370942 L317.32,72.7241631 L316.784162,72.5147419 L316.248323,72.3053207 L315.710146,72.0982394 L315.17197,71.892328 L314.632621,71.6887563 L314.093275,71.4863548 L313.552758,71.2851232 L313.01224,71.0862316 L312.469381,70.8885098 L311.926525,70.6919581 L311.383667,70.4977462 L310.839639,70.3047043 L310.294442,70.1140023 L309.748076,69.9244702 L309.202879,69.7361081 L308.655341,69.5500859 L308.106634,69.3652336 L307.557927,69.182721 L307.00922,69.0002086 L306.458174,68.8212061 L305.908295,68.6433735 L305.356078,68.4667109 L304.803861,68.2912184 L304.250475,68.1180657 L303.697088,67.9472528 L303.14253,67.7776098 L302.586806,67.6091369 L302.031078,67.4430038 L301.474182,67.2780407 L300.917285,67.1142475 L300.358048,66.9527942 L299.79998,66.7936808 L299.239573,66.6357374 L298.680338,66.4789639 L298.11876,66.3245306 L297.557184,66.1712669 L296.995609,66.0191732 L296.431692,65.8694194 L295.867775,65.7220056 L295.303859,65.5757616 L294.738773,65.4306879 L294.172515,65.2879538 L293.60626,65.1463896 L293.038833,65.0071654 L292.471407,64.8691111 L291.902811,64.733397 L291.334215,64.5988525 L290.763278,64.466648 L290.193513,64.3356134 L289.621407,64.2069189 L289.05047,64.0793942 L288.477194,63.9530394 L287.903917,63.8290247 L287.330641,63.7073497 L286.755025,63.5868447 L286.180581,63.4675098 L285.604965,63.3505146 L285.028177,63.2358593 L284.450222,63.1223742 L283.872265,63.0100588 L283.294311,62.9000833 L282.715184,62.791278 L282.134889,62.6848124 L281.554593,62.5806869 L280.973126,62.4777311 L280.391662,62.3759452 L279.809025,62.2764995 L279.226389,62.1793934 L278.642583,62.0834576 L278.057609,61.9886914 L277.472634,61.8974354 L276.887657,61.806179 L276.301513,61.7172629 L275.714197,61.6306864 L275.126881,61.5452801 L274.538396,61.4622134 L273.949912,61.3803169 L273.360255,61.3007601 L272.770598,61.2223735 L272.179775,61.1463268 L271.58778,61.0726197 L270.995783,61.0000828 L270.403788,60.9287157 L269.810624,60.8608586 L269.216288,60.7930015 L268.621952,60.728654 L268.027619,60.6643068 L267.430942,60.6034694 L266.835437,60.5438018 L266.238763,60.4853043 L265.640917,60.4303167 L265.043073,60.3753288 L264.444058,60.323851 L263.845043,60.2735432 L263.244859,60.2244051 L262.643503,60.1776071 L262.043318,60.133149 L261.440793,60.0898609 L260.838268,60.0489124 L260.235742,60.0091341 L259.632048,59.9716957 L259.028354,59.9365972 L258.42349,59.9026687 L257.817455,59.8710798 L257.211419,59.8418311 L256.605384,59.8137523 L255.998179,59.7880134 L255.390975,59.7634444 L254.782601,59.7412154 L254.173056,59.7213263 L253.563513,59.7026071 L252.953967,59.6862275 L252.343253,59.6721881 L251.731368,59.6593187 L251.119484,59.6487891 L250.507599,59.6394295 L249.894545,59.6335798 L249.280321,59.6277301 L248.666096,59.6253902 L248.051872,59.6242202 L247.436478,59.6253902 L246.822253,59.6277301 L246.209199,59.6335798 L245.594974,59.6394295 L244.98309,59.6487891 L244.371206,59.6593187 L243.759321,59.6721881 L243.148607,59.6862275 L242.539062,59.7026071 L241.929518,59.7213263 L241.321143,59.7412154 L240.712768,59.7634444 L240.104394,59.7880134 L239.497189,59.8137523 L238.891155,59.8418311 L238.28512,59.8710798 L237.679085,59.9026687 L237.07422,59.9365972 L236.470526,59.9716957 L235.866831,60.0091341 L235.264306,60.0489124 L234.661781,60.0898609 L234.059256,60.133149 L233.459071,60.1776071 L232.857716,60.2244051 L232.257532,60.2735432 L231.658516,60.323851 L231.059502,60.3753288 L230.461656,60.4303167 L229.863811,60.4853043 L229.267136,60.5438018 L228.671631,60.6034694 L228.076126,60.6643068 L227.480621,60.728654 L226.886286,60.7930015 L226.291951,60.8608586 L225.698785,60.9287157 L225.10679,61.0000828 L224.514795,61.0726197 L223.922799,61.1463268 L223.331974,61.2223735 L222.742319,61.3007601 L222.152663,61.3803169 L221.564178,61.4622134 L220.975692,61.5452801 L220.388377,61.6306864 L219.801062,61.7172629 L219.214916,61.806179 L218.62994,61.8974354 L218.044965,61.9886914 L217.459989,62.0834576 L216.876184,62.1793934 L216.293548,62.2764995 L215.710912,62.3759452 L215.129447,62.4777311 L214.547981,62.5806869 L213.967685,62.6848124 L213.387389,62.791278 L212.808264,62.9000833 L212.230308,63.0100588 L211.652352,63.1223742 L211.074396,63.2358593 L210.49761,63.3505146 L209.921994,63.4675098 L209.347548,63.5868447 L208.771932,63.7073497 L208.198656,63.8290247 L207.62538,63.9530394 L207.052104,64.0793942 L206.481168,64.2069189 L205.909062,64.3356134 L205.339295,64.466648 L204.769529,64.5988525 L204.199763,64.733397 L203.631167,64.8691111 L203.06374,65.0071654 L202.496314,65.1463896 L201.930058,65.2879538 L201.363802,65.4306879 L200.798715,65.5757616 L200.234799,65.7220056 L199.670882,65.8694194 L199.108136,66.0191732 L198.545389,66.1712669 L197.983813,66.3245306 L197.422236,66.4789639 L196.86183,66.6357374 L196.302593,66.7936808 L195.744526,66.9527942 L195.186459,67.1142475 L194.628393,67.2780407 L194.071496,67.4430038 L193.515769,67.6091369 L192.960042,67.7776098 L192.405486,67.9472528 L191.852099,68.1180657 L191.298712,68.2912184 L190.746495,68.4667109 L190.195448,68.6433735 L189.644401,68.8212061 L189.093354,69.0002086 L188.544647,69.181551 L187.99594,69.3652336 L187.447233,69.5500859 L186.900865,69.7361081 L186.354498,69.9244702 L185.808131,70.1140023 L185.262934,70.3047043 L184.718907,70.4977462 L184.176049,70.6919581 L183.633192,70.8885098 L183.091505,71.0850616 L182.549817,71.2851232 L182.0093,71.4863548 L181.469952,71.6887563 L180.930605,71.892328 L180.392427,72.0982394 L179.85542,72.3053207 L179.318412,72.5147419 L178.782574,72.7253331 L178.247907,72.9370942 L177.713239,73.1500255 L177.179741,73.3652965 L176.647414,73.5829073 L176.115086,73.8016881 L175.583928,74.0216391 L175.05394,74.2427598 L174.523952,74.4662205 L173.995134,74.690851 L173.467486,74.9166518 L172.941008,75.1447922 L172.41453,75.3741025 L171.889222,75.6057528 L171.363914,75.8374033 L170.840946,76.0713934 L170.316808,76.3077235 L169.79501,76.5452237 L169.274382,76.7838937 L168.753753,77.0237336 L168.234295,77.2659136 L167.714837,77.5092634 L167.196548,77.7537831 L166.67943,78.0006429 L166.163481,78.2486725 L165.647533,78.4978722 L165.132755,78.7494116 L164.619146,79.002121 L164.106707,79.2560005 L163.594269,79.5110497 L163.083,79.7684391 L162.571731,80.0269982 L162.062803,80.2867275 L161.553874,80.5487965 L161.046115,80.8120354 L160.539526,81.0764444 L160.034107,81.3431932 L159.528688,81.6111121 L159.024439,81.8802008 L158.520191,82.1504596 L158.018282,82.4218881 L157.516372,82.6956568 L157.015633,82.9717654 L156.516064,83.2478737 L156.017665,83.5263222 L155.519266,83.8059404 L155.022037,84.0867288 L154.525977,84.3686869 L154.031088,84.6529851 L153.536199,84.9384533 L153.042479,85.2250912 L152.54993,85.5128992 L152.05855,85.803047 L151.568341,86.0943649 L151.078131,86.3868528 L150.589092,86.6816803 L150.101222,86.9765081 L149.614522,87.2736758 L149.128993,87.5720131 L148.643463,87.8715207 L148.159103,88.1733682 L147.675913,88.4763854 L147.193893,88.7805727 L146.713044,89.0859301 L146.232194,89.3924571 L145.753684,89.7013242 L145.275174,90.0113614 L144.797834,90.3225684 L144.321663,90.6349452 L143.845493,90.9496621 L143.371663,91.264379 L142.897833,91.5814359 L142.425173,91.8996624 L141.953682,92.2190591 L141.483362,92.5407957 L141.014212,92.8625323 L140.545061,93.1866088 L140.078251,93.5118551 L139.61144,93.8382715 L139.145799,94.1670278 L138.681329,94.4957841 L138.218028,94.8268803 L137.755898,95.1591465 L137.294937,95.4925823 L136.833976,95.8271884 L136.374185,96.1629644 L135.916734,96.5010803 L135.459284,96.8391962 L135.003003,97.179652 L134.547892,97.5212778 L134.093951,97.8640735 L133.64001,98.2080391 L133.188408,98.5543447 L132.736807,98.9006503 L132.287546,99.2492955 L131.838285,99.5991109 L131.390193,99.9500962 L130.944442,100.302252 L130.498691,100.655577 L130.054109,101.010072 L129.610698,101.366907 L129.167286,101.723742 L128.726215,102.082917 L128.286313,102.443262 L127.846411,102.804777 L127.40885,103.167462 L126.972458,103.531317 L126.536066,103.896341 L126.100844,104.262536 L125.667962,104.631071 L125.235081,104.999606 L124.803368,105.37048 L124.372827,105.742524 L123.943454,106.115739 L123.516422,106.488953 L123.08822,106.864508 L122.663528,107.241232 L122.237666,107.620296 L121.814143,107.99936 L121.391791,108.379594 L120.970609,108.760998 L120.550596,109.144742 L120.131754,109.528486 L119.714081,109.91457 L119.297578,110.300654 L118.882246,110.689078 L118.466913,111.078672 L118.05392,111.469435 L117.642097,111.860199 L117.231445,112.253303 L116.820792,112.647576 L116.412479,113.04302 L116.005336,113.439633 L115.599363,113.837416 L115.19456,114.23637 L114.790927,114.636493 L114.388463,115.037786 L113.98717,115.440249 L113.587047,115.843883 L113.186923,116.249856 L112.78914,116.655829 L112.392527,117.062972 L111.998253,117.471285 L111.60398,117.880768 L111.210876,118.29259 L110.818942,118.704413 L110.428179,119.117406 L110.038585,119.531569 L109.651331,119.946901 L109.264077,120.363404 L108.879163,120.781077 L108.494249,121.201089 L108.111676,121.621101 L107.730271,122.042284 L107.348867,122.464636 L106.969803,122.888159 L106.591909,123.312851 L106.215185,123.738713 L105.83963,124.165745 L105.465246,124.593947 L105.092032,125.023319 L104.719987,125.453861 L104.350283,125.884403 L103.980578,126.317285 L103.613213,126.751337 L103.247019,127.185389 L102.880824,127.621781 L102.516969,128.059342 L102.154284,128.496904 L101.792769,128.935636 L101.432424,129.376708 L101.074419,129.817779 L100.716414,130.260021 L100.360749,130.703432 L100.005084,131.148014 L99.6517588,131.593765 L99.2996035,132.040686 L98.9486182,132.488778 L98.5988028,132.938039 L98.2513273,133.3873 L97.9038518,133.838901 L97.5587162,134.290502 L97.2147505,134.743273 L96.8707848,135.197214 L96.530329,135.652326 L96.1898732,136.109776 L95.8505874,136.566057 L95.5136417,137.024678 L95.1766957,137.484469 L94.8420896,137.94426 L94.5086535,138.40639 L94.1763874,138.868521 L93.8452912,139.331822 L93.5165348,139.796292 L93.1889487,140.261933 L92.8625323,140.727573 L92.5372859,141.195554 L92.2132093,141.663534 L91.8903028,142.133855 L91.5697364,142.604175 L91.2503396,143.075665 L90.9309429,143.548326 L90.6150561,144.020986 L90.2991692,144.495986 L89.9856225,144.970986 L89.6720755,145.447157 L89.3608684,145.924496 L89.0508313,146.403007 L88.7431343,146.882687 L88.4354371,147.362366 L88.1300798,147.844386 L87.8258927,148.326406 L87.5228753,148.809596 L87.2221977,149.293956 L86.9226904,149.778316 L86.6231828,150.265015 L86.3271851,150.751715 L86.0311876,151.239585 L85.7375298,151.728624 L85.443872,152.217664 L85.1537242,152.709043 L84.8635763,153.200423 L84.5745982,153.692972 L84.2879604,154.186691 L84.0024922,154.680411 L83.7193641,155.17647 L83.4362359,155.67253 L83.1554477,156.168589 L82.8758293,156.666988 L82.5973808,157.166557 L82.3212725,157.666126 L82.0463338,158.166865 L81.7725654,158.668774 L81.4999667,159.170683 L81.2297081,159.673762 L80.9606192,160.178011 L80.6927005,160.68343 L80.4271215,161.190019 L80.1627126,161.696608 L79.8983035,162.204367 L79.6374045,162.713295 L79.3776753,163.222224 L79.1179462,163.732323 L78.861727,164.243592 L78.6055076,164.75603 L78.3516283,165.269639 L78.0989187,165.783247 L77.8485492,166.298026 L77.5981798,166.812804 L77.35015,167.329923 L77.1044604,167.847041 L76.8587705,168.36533 L76.6154207,168.883618 L76.3744109,169.403076 L76.1334008,169.923704 L75.8947308,170.445503 L75.6572308,170.967301 L75.4220705,171.490269 L75.1880803,172.014407 L74.9552601,172.538545 L74.7247795,173.063853 L74.4942992,173.590331 L74.2673288,174.117979 L74.0403583,174.645627 L73.8157275,175.174445 L73.5922669,175.704433 L73.3711462,176.234421 L73.1511955,176.765579 L72.9324144,177.296736 L72.7159735,177.830234 L72.5007025,178.363732 L72.2866015,178.89723 L72.0748404,179.431897 L71.864249,179.968905 L71.6548278,180.504742 L71.4477465,181.04175 L71.2418351,181.581097 L71.0382636,182.119275 L70.8358621,182.658622 L70.6346306,183.20031 L70.4357386,183.740827 L70.2380169,184.282515 L70.0414652,184.825372 L69.8472533,185.369399 L69.6542114,185.913427 L69.4635093,186.458624 L69.2739773,187.003821 L69.0856152,187.550188 L68.8995929,188.097726 L68.7147407,188.646433 L68.5322283,189.19397 L68.3508859,189.743847 L68.1707134,190.293724 L67.9928808,190.844771 L67.8162182,191.396988 L67.6418955,191.949205 L67.4687427,192.502591 L67.2967598,193.055979 L67.1271169,193.610535 L66.9586439,194.166262 L66.7925109,194.721989 L66.6275477,195.278886 L66.4649245,195.835782 L66.3034712,196.393849 L66.1431881,196.953086 L65.9852447,197.512322 L65.8284712,198.072729 L65.6740376,198.633136 L65.520774,199.194712 L65.3698503,199.757459 L65.2200965,200.320205 L65.0715129,200.884121 L64.9252689,201.449208 L64.7813649,202.014294 L64.6386308,202.579381 L64.4970667,203.145637 L64.3578427,203.713063 L64.2197884,204.28166 L64.084074,204.850256 L63.9495295,205.418852 L63.8161553,205.988618 L63.6862907,206.559555 L63.556426,207.130491 L63.4289013,207.702597 L63.3037167,208.274703 L63.1797018,208.849149 L63.0568568,209.422425 L62.936352,209.996871 L62.8181869,210.572487 L62.7011917,211.148103 L62.5853667,211.724889 L62.4718813,212.301675 L62.3595659,212.879631 L62.2495907,213.458756 L62.1419551,214.037882 L62.0354896,214.617008 L61.9301939,215.198474 L61.8272381,215.778769 L61.7266225,216.361405 L61.6271765,216.942871 L61.5289008,217.526677 L61.4329646,218.110482 L61.3393687,218.694288 L61.2469424,219.279263 L61.1568563,219.865409 L61.0679399,220.451555 L60.9801937,221.03887 L60.8959571,221.626185 L60.8117207,222.214671 L60.7309939,222.803156 L60.6514374,223.392812 L60.5730505,223.982467 L60.4970038,224.573292 L60.422127,225.164118 L60.3495899,225.756113 L60.2793929,226.349278 L60.2103657,226.942443 L60.1436785,227.535609 L60.0781614,228.129944 L60.0149838,228.725449 L59.9529765,229.320954 L59.8933091,229.917629 L59.8359813,230.514304 L59.7798237,231.112149 L59.7260061,231.709994 L59.6733581,232.309009 L59.6230503,232.908024 L59.5739124,233.508209 L59.5282843,234.108394 L59.4826561,234.709749 L59.4393679,235.311104 L59.3984197,235.913629 L59.3598114,236.517323 L59.3223727,237.119848 L59.2872742,237.724713 L59.2533457,238.329578 L59.2217571,238.934443 L59.1913384,239.540477 L59.1632596,240.147682 L59.1375205,240.754887 L59.1141215,241.362091 L59.0918924,241.970466 L59.0708333,242.58001 L59.0532841,243.189555 L59.0369048,243.799099 L59.0216955,244.409814 L59.008826,245.021698 L58.9982965,245.633583 L58.9901068,246.245467 L58.9830871,246.858522 L58.9784071,247.472746 L58.9748972,248.08697 L58.9737273,248.701195 L58.9748972,249.316589 L58.9784071,249.930813 L58.9830871,250.543868 L58.9901068,251.156922 L58.9982965,251.769977 L59.008826,252.381861 L59.0216955,252.992576 L59.0369048,253.60329 L59.0532841,254.214005 L59.0708333,254.823548 L59.0918924,255.431924 L59.1141215,256.040298 L59.1375205,256.648672 L59.1632596,257.255879 L59.1913384,257.861912 L59.2217571,258.467947 L59.2533457,259.072811 L59.2872742,259.677677 L59.3223727,260.28254 L59.3598114,260.886235 L59.3984197,261.48876 L59.4393679,262.091285 L59.4826561,262.692641 L59.5271144,263.293995 L59.5739124,263.894179 L59.6230503,264.494366 L59.6733581,265.093381 L59.7260061,265.692396 L59.7798237,266.29024 L59.8359813,266.888086 L59.8933091,267.48476 L59.9529765,268.081434 L60.0149838,268.676939 L60.0781614,269.272447 L60.1436785,269.86678 L60.2103657,270.459947 L60.2793929,271.053111 L60.3495899,271.646278 L60.422127,272.238273 L60.4970038,272.829098 L60.5730505,273.419922 L60.6514374,274.009578 L60.7309939,274.599232 L60.8117207,275.188889 L60.8959571,275.776205 L60.9801937,276.364689 L61.0679399,276.950836 L61.1568563,277.53698 L61.2469424,278.123126 L61.3393687,278.708101 L61.4329646,279.291907 L61.5289008,279.875712 L61.6271765,280.459518 L61.7266225,281.042154 L61.8272381,281.623621 L61.9301939,282.203917 L62.0354896,282.785381 L62.1419551,283.365677 L62.2495907,283.943634 L62.3595659,284.52276 L62.4718813,285.100715 L62.5853667,285.6775 L62.7011917,286.254288 L62.8181869,286.829902 L62.936352,287.405518 L63.0568568,287.979965 L63.1797018,288.554412 L63.3037167,289.127687 L63.4289013,289.699793 L63.556426,290.271899 L63.6862907,290.842836 L63.8161553,291.41377 L63.9495295,291.983538 L64.084074,292.553303 L64.2197884,293.12073 L64.3578427,293.689326 L64.4970667,294.256753 L64.6386308,294.82301 L64.7813649,295.388096 L64.9252689,295.953182 L65.0715129,296.518268 L65.2200965,297.082184 L65.3698503,297.644932 L65.520774,298.207677 L65.6740376,298.769255 L65.8284712,299.329662 L65.9852447,299.890068 L66.1431881,300.449303 L66.3034712,301.00854 L66.4649245,301.566606 L66.6275477,302.124674 L66.7925109,302.681571 L66.9586439,303.237298 L67.1271169,303.791854 L67.2967598,304.346412 L67.4687427,304.900967 L67.6418955,305.453184 L67.8162182,306.005402 L67.9928808,306.557619 L68.1707134,307.108667 L68.3508859,307.658543 L68.5322283,308.208419 L68.7147407,308.757126 L68.8995929,309.304664 L69.0856152,309.852202 L69.2739773,310.398568 L69.4635093,310.943765 L69.6542114,311.488962 L69.8472533,312.03299 L70.0414652,312.577018 L70.2380169,313.119874 L70.4357386,313.661563 L70.6346306,314.20325 L70.8358621,314.743768 L71.0382636,315.283114 L71.2418351,315.821293 L71.4477465,316.35947 L71.6559977,316.897646 L71.864249,317.434654 L72.0748404,317.969323 L72.2866015,318.505159 L72.5007025,319.039828 L72.7159735,319.573326 L72.9324144,320.105654 L73.1511955,320.636811 L73.3711462,321.16797 L73.5922669,321.699126 L73.8157275,322.227944 L74.0403583,322.756763 L74.2673288,323.284412 L74.4942992,323.812058 L74.7247795,324.338535 L74.9552601,324.863843 L75.1880803,325.387982 L75.4220705,325.912121 L75.6572308,326.435088 L75.8947308,326.956886 L76.1334008,327.478684 L76.3732409,327.999313 L76.6154207,328.518773 L76.8587705,329.03823 L77.1044604,329.555348 L77.35015,330.073636 L77.5981798,330.589586 L77.8473793,331.104364 L78.0989187,331.619141 L78.3516283,332.133922 L78.6055076,332.646359 L78.861727,333.158798 L79.1191162,333.670066 L79.3776753,334.180164 L79.6374045,334.690265 L79.8983035,335.198023 L80.1615427,335.705783 L80.4271215,336.21354 L80.6927005,336.71896 L80.9606192,337.224379 L81.2297081,337.728626 L81.4999667,338.231707 L81.7725654,338.733616 L82.0463338,339.236694 L82.3212725,339.736263 L82.5973808,340.237003 L82.8758293,340.735402 L83.1554477,341.233801 L83.4362359,341.73103 L83.7193641,342.227088 L84.0024922,342.72198 L84.2879604,343.216869 L84.5745982,343.709417 L84.8635763,344.201967 L85.1537242,344.694515 L85.4450419,345.184725 L85.7375298,345.673765 L86.0311876,346.163975 L86.3271851,346.650674 L86.6231828,347.137374 L86.9215205,347.624073 L87.2221977,348.109604 L87.5228753,348.592793 L87.8258927,349.075982 L88.1300798,349.559174 L88.4354371,350.040023 L88.7431343,350.519702 L89.0508313,350.999384 L89.3608684,351.477894 L89.6720755,351.955232 L89.9856225,352.431404 L90.2991692,352.906404 L90.6138861,353.381404 L90.9309429,353.855235 L91.2491697,354.326725 L91.5697364,354.799384 L91.8903028,355.268535 L92.2132093,355.737684 L92.5372859,356.206836 L92.8625323,356.674816 L93.1889487,357.141626 L93.5165348,357.606096 L93.8464611,358.070568 L94.1763874,358.535038 L94.5086535,358.996 L94.8420896,359.458129 L95.1766957,359.919091 L95.5136417,360.377712 L95.8505874,360.836333 L96.1898732,361.293783 L96.530329,361.750063 L96.8707848,362.204005 L97.2135806,362.659116 L97.5587162,363.113058 L97.9038518,363.564659 L98.2513273,364.015088 L98.5988028,364.46552 L98.9486182,364.913611 L99.2996035,365.361705 L99.6517588,365.808624 L100.005084,366.254376 L100.360749,366.698957 L100.716414,367.142369 L101.074419,367.584611 L101.433594,368.026851 L101.792769,368.466753 L102.154284,368.905485 L102.516969,369.344217 L102.880824,369.780609 L103.247019,370.217 L103.613213,370.652222 L103.980578,371.083934 L104.350283,371.517987 L104.721157,371.949697 L105.092032,372.379071 L105.465246,372.808442 L105.83963,373.236644 L106.215185,373.663677 L106.591909,374.089538 L106.969803,374.514232 L107.348867,374.937753 L107.730271,375.360106 L108.111676,375.781288 L108.494249,376.20247 L108.879163,376.621313 L109.264077,377.038985 L109.651331,377.455487 L110.038585,377.870821 L110.428179,378.284985 L110.818942,378.697977 L111.210876,379.11097 L111.60281,379.521621 L111.998253,379.931106 L112.393697,380.340588 L112.78914,380.746561 L113.186923,381.153705 L113.585877,381.558508 L113.98717,381.962139 L114.388463,382.364604 L114.789757,382.765896 L115.19339,383.16602 L115.599363,383.564972 L116.005336,383.962758 L116.412479,384.359371 L116.820792,384.754813 L117.230275,385.149086 L117.642097,385.542189 L118.05392,385.934124 L118.466913,386.323717 L118.882246,386.713311 L119.297578,387.101735 L119.714081,387.487818 L120.131754,387.873904 L120.550596,388.257646 L120.970609,388.641391 L121.391791,389.022795 L121.814143,389.40303 L122.238836,389.783263 L122.663528,390.161157 L123.08822,390.537881 L123.515252,390.912265 L123.943454,391.287821 L124.372827,391.659866 L124.803368,392.031909 L125.235081,392.402785 L125.667962,392.77249 L126.102014,393.139854 L126.536066,393.506048 L126.971288,393.871073 L127.40768,394.234927 L127.847581,394.597614 L128.286313,394.960298 L128.726215,395.319472 L129.168456,395.678646 L129.610698,396.036652 L130.052939,396.392318 L130.498691,396.746813 L130.944442,397.100139 L131.390193,397.452293 L131.839455,397.804449 L132.287546,398.153093 L132.736807,398.50174 L133.188408,398.849215 L133.64001,399.194351 L134.092781,399.538316 L134.547892,399.881111 L135.003003,400.222737 L135.459284,400.563194 L135.916734,400.90248 L136.374185,401.239424 L136.833976,401.576371 L137.294937,401.910977 L137.755898,402.243242 L138.218028,402.576679 L138.681329,402.906606 L139.145799,403.236533 L139.61144,403.564119 L140.078251,403.890535 L140.545061,404.21578 L141.014212,404.539856 L141.483362,404.861593 L141.953682,405.183331 L142.425173,405.502727 L142.897833,405.820955 L143.371663,406.13801 L143.846663,406.453896 L144.321663,406.767444 L144.796664,407.079821 L145.275174,407.391028 L145.753684,407.702235 L146.232194,408.009932 L146.711874,408.31646 L147.195063,408.622987 L147.677083,408.927174 L148.159103,409.229023 L148.643463,409.529699 L149.128993,409.830376 L149.615692,410.128715 L150.102392,410.425881 L150.589092,410.72071 L151.078131,411.015538 L151.568341,411.308025 L152.05738,411.599343 L152.54993,411.88949 L153.043649,412.178467 L153.536199,412.465106 L154.029918,412.749404 L154.525977,413.033702 L155.022037,413.315662 L155.520436,413.597619 L156.017665,413.877237 L156.516064,414.154515 L157.015633,414.431795 L157.516372,414.705563 L158.018282,414.980503 L158.521361,415.251929 L159.024439,415.523359 L159.528688,415.792447 L160.032937,416.059197 L160.539526,416.325944 L161.047285,416.590354 L161.553874,416.853593 L162.062803,417.115662 L162.572901,417.375391 L163.08183,417.633949 L163.594269,417.891341 L164.106707,418.146389 L164.619146,418.400268 L165.133924,418.654149 L165.648703,418.904518 L166.163481,419.153717 L166.67943,419.401747 L167.195378,419.648606 L167.714837,419.894295 L168.234295,420.137646 L168.753753,420.378657 L169.274382,420.618495 L169.79501,420.858336 L170.316808,421.094667 L170.839776,421.330995 L171.365084,421.564987 L171.888052,421.796636 L172.41453,422.028288 L172.941008,422.257598 L173.467486,422.485737 L173.995134,422.711538 L174.525122,422.937338 L175.05394,423.159629 L175.583928,423.38075 L176.115086,423.601871 L176.647414,423.820652 L177.179741,424.037093 L177.713239,424.252364 L178.247907,424.466465 L178.782574,424.678227 L179.318412,424.888818 L179.85425,425.097068 L180.391257,425.304149 L180.930605,425.510061 L181.468782,425.714803 L182.00813,425.916035 L182.549817,426.118437 L183.091505,426.317328 L183.632022,426.515051 L184.174879,426.710432 L184.718907,426.904644 L185.262934,427.097684 L185.808131,427.289558 L186.354498,427.479088 L186.899695,427.666283 L187.448403,427.853475 L187.99594,428.037157 L188.543477,428.220838 L189.094524,428.402182 L189.644401,428.581184 L190.194278,428.759015 L190.746495,428.935679 L191.299882,429.111172 L191.852099,429.284323 L192.405486,429.455136 L192.961212,429.62478 L193.515769,429.793253 L194.071496,429.959386 L194.628393,430.124348 L195.186459,430.288141 L195.744526,430.449596 L196.302593,430.60871 L196.862999,430.767823 L197.422236,430.923427 L197.983813,431.07903 L198.545389,431.231124 L199.108136,431.383217 L199.670882,431.53297 L200.234799,431.680384 L200.798715,431.826629 L201.363802,431.971702 L201.930058,432.114437 L202.496314,432.256 L203.06374,432.395225 L203.632337,432.533278 L204.199763,432.668992 L204.768359,432.803538 L205.339295,432.935742 L205.909062,433.066775 L206.479998,433.19547 L207.052104,433.322995 L207.62538,433.449351 L208.198656,433.573366 L208.771932,433.69504 L209.347548,433.815545 L209.921994,433.934879 L210.49761,434.051874 L211.074396,434.167699 L211.651182,434.280015 L212.230308,434.392331 L212.808264,434.502306 L213.387389,434.611111 L213.967685,434.717578 L214.547981,434.821702 L215.129447,434.924659 L215.710912,435.026444 L216.292378,435.125889 L216.876184,435.222995 L217.459989,435.318932 L218.043795,435.413697 L218.62994,435.506124 L219.214916,435.59621 L219.801062,435.685126 L220.389547,435.771702 L220.975692,435.857109 L221.564178,435.940177 L222.152663,436.022073 L222.742319,436.101629 L223.333144,436.180015 L223.923969,436.256063 L224.514795,436.32977 L225.10679,436.402306 L225.698785,436.473674 L226.291951,436.54153 L226.886286,436.609389 L227.480621,436.674907 L228.074956,436.738083 L228.671631,436.798919 L229.268306,436.858588 L229.863811,436.917086 L230.461656,436.973242 L231.060671,437.027061 L231.658516,437.07971 L232.257532,437.130018 L232.857716,437.177985 L233.459071,437.224783 L234.059256,437.26924 L234.661781,437.312528 L235.264306,437.353477 L235.866831,437.393255 L236.470526,437.430694 L237.07422,437.465793 L237.680255,437.499722 L238.28512,437.531311 L238.889985,437.560558 L239.497189,437.588636 L240.105564,437.614376 L240.711598,437.638944 L241.319973,437.661174 L241.929518,437.681063 L242.539062,437.699783 L243.149777,437.716162 L243.760491,437.730202 L244.371206,437.743071 L244.98309,437.753601 L245.596144,437.76296 L246.209199,437.76998 L246.822253,437.774659 L247.436478,437.777 L248.051872,437.778169 L248.666096,437.777 L249.280321,437.774659 L249.893375,437.76998 L250.506429,437.76296 L251.120654,437.753601 L251.732538,437.743071 L252.342083,437.730202 L252.952798,437.716162 L253.563513,437.699783 L254.173056,437.681063 L254.782601,437.661174 L255.390975,437.638944 L255.998179,437.614376 L256.605384,437.588636 L257.212588,437.560558 L257.817455,437.531311 L258.422318,437.499722 L259.028354,437.465793 L259.632048,437.430694 L260.235742,437.393255 L260.839437,437.353477 L261.441962,437.312528 L262.043318,437.26924 L262.643503,437.224783 L263.244859,437.177985 L263.845043,437.130018 L264.444058,437.07971 L265.041902,437.027061 L265.640917,436.973242 L266.238763,436.917086 L266.834268,436.858588 L267.430942,436.798919 L268.027619,436.738083 L268.621952,436.674907 L269.216288,436.609389 L269.810624,436.54153 L270.40496,436.473674 L270.995783,436.402306 L271.58778,436.32977 L272.178604,436.256063 L272.769429,436.180015 L273.360255,436.101629 L273.949912,436.022073 L274.538396,435.940177 L275.126881,435.857109 L275.564871,435.79329 Z" id="Shape"></path>
            </g>
            <path d="M66.3508038,369.944338 C216.053509,469.021301 298.350126,343.834588 206.661179,271.986614 C114.972231,200.139673 223.321862,70.6915972 349.044985,186.614924" id="svg_29" stroke="#000000" stroke-width="51.5778702"></path>
            <g id="baseline-pause_circle_filled-24px" transform="translate(277.282631, 277.282631)" fill="#000000" fill-rule="nonzero">
                <g id="Group">
                    <path d="M105.012544,2.06311481 C47.6150394,2.06311481 1.0315574,48.6465967 1.0315574,106.044101 C1.0315574,163.441606 47.6150394,210.025087 105.012544,210.025087 C162.410048,210.025087 208.99353,163.441606 208.99353,106.044101 C208.99353,48.6465967 162.410048,2.06311481 105.012544,2.06311481 Z M95.1095927,145.655906 L75.3036904,145.655906 L75.3036904,66.4322967 L95.1095927,66.4322967 L95.1095927,145.655906 Z M134.721397,145.655906 L114.915495,145.655906 L114.915495,66.4322967 L134.721397,66.4322967 L134.721397,145.655906 Z" id="Shape"></path>
                </g>
            </g>
        </g>
    </g>
</svg>