<?xml version="1.0" encoding="UTF-8"?>
<svg viewBox="0 0 233 233" version="1.1" xmlns="http://www.w3.org/2000/svg" xmlns:xlink="http://www.w3.org/1999/xlink">
    <!-- Generator: Sketch 52.3 (67297) - http://www.bohemiancoding.com/sketch -->
    <title>stretchly 2</title>
    <desc>Created with Sketch.</desc>
    <defs>
        <filter x="-11.6%" y="-11.6%" width="123.2%" height="123.2%" filterUnits="objectBoundingBox" id="filter-1">
            <feOffset dx="0" dy="4" in="SourceAlpha" result="shadowOffsetOuter1"></feOffset>
            <feGaussianBlur stdDeviation="4" in="shadowOffsetOuter1" result="shadowBlurOuter1"></feGaussianBlur>
            <feColorMatrix values="0 0 0 0 0   0 0 0 0 0   0 0 0 0 0  0 0 0 0.5 0" type="matrix" in="shadowBlurOuter1" result="shadowMatrixOuter1"></feColorMatrix>
            <feMerge>
                <feMergeNode in="shadowMatrixOuter1"></feMergeNode>
                <feMergeNode in="SourceGraphic"></feMergeNode>
            </feMerge>
        </filter>
    </defs>
    <g id="Page-1" stroke="none" stroke-width="1" fill="none" fill-rule="evenodd">
        <g id="stretchly" transform="translate(17.000000, 17.000000)">
            <g id="svg_28" filter="url(#filter-1)" transform="translate(0.219788, 0.370882)" fill="#000000">
                <path d="M114.520709,171.583263 C118.246945,179.425987 124.079079,186.076853 131.284865,190.803615 L131.077021,190.878016 L130.793944,190.978089 L130.510868,191.077699 L130.226864,191.175918 L129.942861,191.273675 L129.658394,191.370505 L129.373464,191.466408 L129.088535,191.561848 L128.802678,191.655898 L128.516822,191.749485 L128.230502,191.842145 L127.943719,191.933415 L127.656472,192.024685 L127.368762,192.114566 L127.081053,192.203519 L126.792416,192.29201 L126.50378,192.379573 L126.214681,192.465747 L125.925581,192.551458 L125.635555,192.636242 L125.345529,192.720563 L125.055039,192.803494 L124.764086,192.885498 L124.473133,192.967039 L124.181254,193.04719 L123.889375,193.126877 L123.597032,193.205639 L123.304226,193.283473 L123.01142,193.360381 L122.717687,193.436362 L122.423955,193.51188 L122.129759,193.586008 L121.835563,193.65921 L121.540904,193.731948 L121.245781,193.803296 L120.950195,193.874181 L120.654146,193.94414 L120.358097,194.012708 L120.061585,194.080813 L119.764609,194.147992 L119.46717,194.214244 L119.169731,194.279569 L118.871828,194.343968 L118.573926,194.40744 L118.275097,194.470449 L117.976268,194.532068 L117.676976,194.592761 L117.377684,194.652527 L117.077465,194.711829 L116.77771,194.769742 L116.477027,194.826728 L116.176345,194.88325 L115.8752,194.938383 L115.573591,194.993052 L115.271519,195.046332 L114.969447,195.098685 L114.667375,195.150575 L114.364376,195.201074 L114.061378,195.251111 L113.757916,195.299758 L113.454454,195.347941 L113.150529,195.394734 L112.84614,195.441064 L112.541752,195.486004 L112.236437,195.530018 L111.931585,195.573568 L111.625806,195.615729 L111.320028,195.656962 L111.014249,195.697733 L110.707544,195.737113 L110.401303,195.775567 L110.094134,195.813095 L109.786966,195.849695 L109.479334,195.88537 L109.171703,195.920117 L108.863608,195.953938 L108.55505,195.986832 L108.246491,196.0188 L107.93747,196.049841 L107.627985,196.079493 L107.3185,196.10868 L107.009015,196.136478 L106.698604,196.163813 L106.388192,196.189758 L106.077781,196.214776 L105.766906,196.239331 L105.455568,196.262496 L105.14423,196.284735 L104.832429,196.306047 L104.520627,196.325968 L104.208363,196.345427 L103.896098,196.363959 L103.58337,196.381101 L103.270179,196.39778 L102.956988,196.413069 L102.643333,196.427431 L102.329679,196.440867 L102.015561,196.453376 L101.701443,196.464959 L101.386862,196.475151 L101.072281,196.484881 L100.757236,196.49322 L100.441728,196.500633 L100.126221,196.507119 L99.810713,196.512679 L99.494742,196.517312 L99.1783076,196.520555 L98.8618733,196.523335 L98.5454389,196.524724 L98.2285413,196.525188 L97.9111803,196.524724 L97.594746,196.523335 L97.2783116,196.520555 L96.9618773,196.517312 L96.6459062,196.512679 L96.3303985,196.507119 L96.0148908,196.500633 L95.699383,196.49322 L95.3843386,196.484881 L95.0697574,196.475151 L94.7551763,196.464959 L94.4410584,196.453376 L94.1269406,196.440867 L93.813286,196.427431 L93.4996315,196.413069 L93.1864403,196.39778 L92.873249,196.381101 L92.5605211,196.363959 L92.2482564,196.345427 L91.9359918,196.325968 L91.6241905,196.306047 L91.3123891,196.284735 L91.0010511,196.262496 L90.689713,196.239331 L90.3788383,196.214776 L90.0684269,196.189758 L89.7580154,196.163813 L89.447604,196.136478 L89.1381192,196.10868 L88.8286343,196.079493 L88.5191495,196.049841 L88.2101279,196.0188 L87.9015697,195.986832 L87.5934748,195.953938 L87.2849165,195.920117 L86.9772849,195.88537 L86.6696533,195.849695 L86.3624849,195.813095 L86.0557799,195.775567 L85.7490749,195.737113 L85.4423698,195.697733 L85.1365914,195.656962 L84.830813,195.615729 L84.5250345,195.573568 L84.2201827,195.530018 L83.9148676,195.486004 L83.6104791,195.441064 L83.3060905,195.394734 L83.0021653,195.347941 L82.6987034,195.299758 L82.3952414,195.251111 L82.0922428,195.201074 L81.7892442,195.150575 L81.4871722,195.098685 L81.1851001,195.046332 L80.8830281,194.993052 L80.5818827,194.938383 L80.280274,194.88325 L79.9795918,194.826728 L79.679373,194.769742 L79.3791542,194.711829 L79.0789354,194.652527 L78.7796431,194.592761 L78.4803509,194.532068 L78.181522,194.470449 L77.8826931,194.40744 L77.5847908,194.343968 L77.2868884,194.279569 L76.9894494,194.214244 L76.6920104,194.147992 L76.3950347,194.080813 L76.0985223,194.012708 L75.8024731,193.94414 L75.506424,193.874181 L75.2113015,193.803296 L74.9157157,193.731948 L74.6210565,193.65921 L74.3268606,193.586008 L74.0326646,193.51188 L73.738932,193.436362 L73.4451994,193.360381 L73.1523934,193.283473 L72.8595874,193.205639 L72.5672447,193.126877 L72.2753653,193.04719 L71.9839492,192.967039 L71.692533,192.885498 L71.4015802,192.803494 L71.1110907,192.720563 L70.8210645,192.636242 L70.5310383,192.551458 L70.2419387,192.465747 L69.9528391,192.379573 L69.6642028,192.29201 L69.3755665,192.203519 L69.0878568,192.114566 L68.8001471,192.024685 L68.5129007,191.933415 L68.2261175,191.842145 L67.9397977,191.749485 L67.6539412,191.655898 L67.3680847,191.561848 L67.0831548,191.466408 L66.7982249,191.370505 L66.5137583,191.273675 L66.229755,191.175918 L65.946215,191.077699 L65.662675,190.978089 L65.3795983,190.878016 L65.0974482,190.777017 L64.8152981,190.67509 L64.5336113,190.572238 L64.2523878,190.468458 L63.9711643,190.364216 L63.6908675,190.259046 L63.4110339,190.152951 L63.1312003,190.045928 L62.85183,189.938442 L62.572923,189.829567 L62.2944793,189.720228 L62.0164989,189.609962 L61.7389818,189.499233 L61.461928,189.387115 L61.1848742,189.274533 L60.908747,189.161024 L60.6326198,189.046589 L60.3574192,188.93169 L60.0822187,188.815865 L59.8074814,188.699113 L59.5332074,188.581435 L59.2593967,188.463293 L58.9860493,188.343762 L58.7131652,188.223767 L58.4407444,188.103308 L58.168787,187.98146 L57.8968295,187.859149 L57.6257986,187.735911 L57.355231,187.611746 L57.0846634,187.487119 L56.8150225,187.361564 L56.5453815,187.235083 L56.2766671,187.108139 L56.0079527,186.980268 L55.7397016,186.85147 L55.4723772,186.721746 L55.2050527,186.591558 L54.9381915,186.460444 L54.6722569,186.328404 L54.4063224,186.1959 L54.1408511,186.062469 L53.8758431,185.928112 L53.6117617,185.793291 L53.3476804,185.657081 L53.0840623,185.520871 L52.8209075,185.38327 L52.5586793,185.245207 L52.2964512,185.106217 L52.0346863,184.966763 L51.7733847,184.826383 L51.5130098,184.685076 L51.2526348,184.543306 L50.9927231,184.40061 L50.7337381,184.256986 L50.474753,184.1129 L50.2166945,183.967887 L49.9586361,183.821947 L49.7015042,183.675544 L49.4443724,183.528215 L49.1881671,183.380422 L48.9324251,183.231702 L48.6766832,183.082056 L48.4218678,182.931947 L48.1675158,182.780911 L47.913627,182.628948 L47.6602015,182.476522 L47.4072394,182.32317 L47.1547405,182.169354 L46.9031683,182.014611 L46.651596,181.859406 L46.4004871,181.703273 L46.1503047,181.546214 L45.9001224,181.388692 L45.6508666,181.230243 L45.4020742,181.070868 L45.153745,180.911029 L44.9058792,180.750727 L44.6584766,180.589498 L44.4115374,180.427343 L44.1650614,180.264725 L43.9195121,180.10118 L43.6739627,179.937171 L43.42934,179.772236 L43.1851805,179.606374 L42.9414844,179.44005 L42.6982515,179.273261 L42.455482,179.105546 L42.2136391,178.936905 L41.9717961,178.7678 L41.7308798,178.597769 L41.4904267,178.427274 L41.250437,178.256316 L41.0109106,178.083969 L40.7718474,177.911621 L40.5332476,177.737883 L40.2955743,177.564145 L40.0583644,177.389481 L39.8216178,177.21389 L39.5853344,177.037836 L39.3495144,176.860855 L39.114621,176.683411 L38.8797275,176.50504 L38.6457607,176.326206 L38.4122572,176.146445 L38.1796803,175.966221 L37.9471033,175.785071 L37.715453,175.603457 L37.484266,175.42138 L37.2535423,175.238376 L37.0232818,175.054446 L36.7934847,174.870052 L36.5646142,174.685195 L36.336207,174.499411 L36.108263,174.313165 L35.8812457,174.125991 L35.6542284,173.938354 L35.4281377,173.749791 L35.2025103,173.560764 L34.9778094,173.371274 L34.7531086,173.180858 L34.5293344,172.989978 L34.3060235,172.798171 L34.0836392,172.605902 L33.8612549,172.412705 L33.6397972,172.219046 L33.4188027,172.024923 L33.1987349,171.829873 L32.9786671,171.63436 L32.7595259,171.437921 L32.5413113,171.241018 L32.3230967,171.043652 L32.1058087,170.845359 L31.888984,170.646603 L31.6726226,170.447384 L31.4571878,170.247238 L31.2422163,170.046165 L31.0277081,169.845093 L30.8141265,169.643094 L30.6010082,169.440168 L30.3883532,169.237243 L30.1761615,169.032927 L29.9648964,168.828611 L29.7540946,168.623369 L29.5442194,168.417664 L29.3348075,168.211032 L29.1258589,168.0044 L28.9173736,167.796378 L28.7098149,167.588356 L28.5027195,167.379407 L28.2965507,167.169995 L28.0903819,166.959657 L27.885603,166.748855 L27.6808242,166.53759 L27.4769719,166.325861 L27.2735829,166.113206 L27.0711205,165.900088 L26.8691214,165.686043 L26.6675856,165.471998 L26.4669764,165.257027 L26.2668306,165.041129 L26.067148,164.82523 L25.868392,164.608406 L25.6705626,164.391118 L25.4727332,164.172903 L25.2758305,163.954225 L25.0798543,163.735084 L24.8838781,163.515479 L24.6892918,163.294948 L24.4947056,163.074417 L24.3010459,162.852496 L24.1083128,162.630575 L23.916043,162.407728 L23.7242366,162.184417 L23.5328934,161.960642 L23.3429401,161.736405 L23.1529869,161.511241 L22.9639602,161.285613 L22.7758601,161.059523 L22.5877601,160.832969 L22.4010499,160.605488 L22.2143397,160.378007 L22.0290195,160.149137 L21.8436992,159.920266 L21.6593056,159.690933 L21.4758385,159.460672 L21.2928347,159.229948 L21.1102943,158.998761 L20.9286804,158.767111 L20.7479932,158.534534 L20.5673059,158.301494 L20.3880086,158.06799 L20.2091745,157.834024 L20.0308038,157.599593 L19.8533596,157.364237 L19.6763788,157.12888 L19.5003245,156.892597 L19.3247336,156.65585 L19.1500692,156.41864 L18.9758682,156.180504 L18.8025937,155.942367 L18.6297826,155.703304 L18.457898,155.463777 L18.2864768,155.223788 L18.1159822,154.983335 L17.9464141,154.742418 L17.7768461,154.500575 L17.6086679,154.258269 L17.4409531,154.015963 L17.2737016,153.77273 L17.1073766,153.529034 L16.9419783,153.284411 L16.7770433,153.039788 L16.6130348,152.794702 L16.4494897,152.54869 L16.2868712,152.302677 L16.1247159,152.055738 L15.9634873,151.808335 L15.802722,151.560469 L15.6428833,151.31214 L15.4839711,151.062885 L15.3255223,150.813629 L15.1680001,150.56391 L15.0109412,150.313264 L14.8548089,150.062618 L14.6996031,149.811046 L14.5448607,149.559011 L14.3905816,149.306512 L14.2376924,149.05355 L14.0848032,148.800124 L13.9333039,148.546235 L13.7822678,148.291883 L13.6321584,148.037068 L13.4825123,147.781789 L13.3337928,147.526047 L13.1855366,147.269379 L13.0386703,147.01271 L12.891804,146.755115 L12.7463276,146.49752 L12.6013145,146.238998 L12.457228,145.980476 L12.3136048,145.721028 L12.1709082,145.46158 L12.0286749,145.201205 L11.8878315,144.940366 L11.7474514,144.679065 L11.6075346,144.417763 L11.4685444,144.155535 L11.3304808,143.892844 L11.1933438,143.629689 L11.0566701,143.366534 L10.920923,143.102453 L10.7861025,142.837908 L10.6517453,142.5729 L10.5183147,142.307892 L10.3853475,142.041957 L10.2537701,141.77556 L10.122656,141.508698 L9.9924685,141.241837 L9.86274431,140.974049 L9.73394673,140.706262 L9.60607575,140.437547 L9.47866807,140.16837 L9.35265029,139.899192 L9.22663252,139.629088 L9.10200464,139.358983 L8.97830337,139.088416 L8.85506539,138.816922 L8.73229072,138.545427 L8.61090595,138.27347 L8.48998448,138.000586 L8.36998961,137.727702 L8.25092134,137.454354 L8.13277967,137.180544 L8.01510131,136.90627 L7.89834954,136.631996 L7.78252438,136.356795 L7.66716252,136.081131 L7.55272725,135.805467 L7.43921859,135.528877 L7.32663654,135.252286 L7.21498108,134.975233 L7.10378892,134.697252 L6.99352337,134.419272 L6.88418441,134.140828 L6.77577206,133.861921 L6.66782301,133.583014 L6.56126386,133.303181 L6.45516801,133.023347 L6.34999876,132.742587 L6.24529281,132.461827 L6.14197676,132.180603 L6.03912402,131.898916 L5.93719788,131.616766 L5.83619833,131.334153 L5.73612539,131.051539 L5.63651575,130.767999 L5.53783271,130.484459 L5.44053958,130.200456 L5.34370974,129.915989 L5.2473432,129.63106 L5.15236657,129.345666 L5.05831654,129.060273 L4.9647298,128.773953 L4.87206967,128.487634 L4.78033614,128.20085 L4.68952922,127.913604 L4.59964889,127.626358 L4.51023186,127.338185 L4.42220474,127.050012 L4.33464092,126.761375 L4.24800369,126.472276 L4.16229307,126.182713 L4.07750905,125.89315 L3.99365163,125.603124 L3.91072082,125.312634 L3.8282533,125.021681 L3.74717569,124.730265 L3.66656137,124.438849 L3.58687366,124.146506 L3.50811255,123.854164 L3.43074134,123.561821 L3.35337013,123.268552 L3.27738882,122.975282 L3.20233412,122.68155 L3.12820601,122.387354 L3.05454121,122.092695 L2.98226631,121.798035 L2.91045471,121.502913 L2.84003301,121.207327 L2.77007461,120.911741 L2.70104281,120.615229 L2.63293761,120.318716 L2.56575902,120.022204 L2.49950703,119.724765 L2.43418163,119.427326 L2.36978284,119.129424 L2.30631065,118.831058 L2.24376507,118.532692 L2.18214608,118.233863 L2.12145369,117.934571 L2.06122461,117.634816 L2.00238542,117.33506 L1.94447284,117.034841 L1.88702356,116.734159 L1.83096418,116.433477 L1.7753681,116.132332 L1.72116193,115.830723 L1.66788235,115.529114 L1.61506608,115.227042 L1.56363971,114.924507 L1.51267663,114.621972 L1.46310346,114.318973 L1.41399359,114.015511 L1.36627363,113.711586 L1.31948026,113.407661 L1.2731502,113.103735 L1.22821003,112.798884 L1.18373317,112.494032 L1.14064621,112.188717 L1.09848585,111.883401 L1.05678879,111.577623 L1.01648163,111.271381 L0.977101078,110.96514 L0.938647124,110.658435 L0.901119771,110.351729 L0.864055719,110.044098 L0.828381569,109.73693 L0.79363402,109.428835 L0.759813072,109.12074 L0.727382026,108.812181 L0.695414281,108.503623 L0.664373137,108.194602 L0.634258595,107.88558 L0.605533954,107.576095 L0.577272614,107.266147 L0.550401176,106.956199 L0.523993039,106.645788 L0.498974804,106.335376 L0.47488317,106.024501 L0.451718137,105.713163 L0.429479706,105.401825 L0.408167876,105.090024 L0.387782647,104.778223 L0.36832402,104.465958 L0.350255294,104.15323 L0.332649869,103.840502 L0.316434346,103.527774 L0.301145425,103.214583 L0.286783105,102.900928 L0.273347386,102.587274 L0.260838268,102.273156 L0.249255752,101.959038 L0.238599837,101.644457 L0.229333824,101.329413 L0.220994412,101.014368 L0.213118301,100.699324 L0.206632092,100.383816 L0.201072484,100.067845 L0.196902778,99.7518738 L0.193196373,99.4359028 L0.190879869,99.1194684 L0.189026667,98.8025708 L0.188563366,98.4856731 L0.189026667,98.1687755 L0.190879869,97.8518778 L0.193196373,97.5354435 L0.196902778,97.2194725 L0.201072484,96.9035014 L0.206632092,96.5875304 L0.213118301,96.2720226 L0.220994412,95.9569782 L0.229333824,95.6419337 L0.238599837,95.3273526 L0.249255752,95.0127714 L0.260838268,94.6981903 L0.273347386,94.3845358 L0.286783105,94.0704179 L0.301145425,93.7572267 L0.316434346,93.4435721 L0.332649869,93.1308442 L0.350255294,92.8181162 L0.36832402,92.5053883 L0.387782647,92.193587 L0.408167876,91.8813223 L0.429479706,91.569521 L0.451718137,91.2581829 L0.47488317,90.9473082 L0.498974804,90.6364335 L0.523993039,90.3255587 L0.550401176,90.0151473 L0.577272614,89.7051992 L0.605533954,89.395251 L0.634258595,89.0857662 L0.664373137,88.7767446 L0.695414281,88.4677231 L0.727382026,88.1591649 L0.759813072,87.8506066 L0.79363402,87.5425117 L0.828381569,87.2348801 L0.864055719,86.9272484 L0.901119771,86.6200801 L0.938647124,86.3129118 L0.977101078,86.0062067 L1.01648163,85.699965 L1.05678879,85.3937233 L1.09848585,85.0879448 L1.14064621,84.7826297 L1.18373317,84.4773146 L1.22821003,84.1724627 L1.2731502,83.8680742 L1.31948026,83.5636857 L1.36627363,83.2597605 L1.41399359,82.9558352 L1.46310346,82.6528366 L1.51267663,82.3493747 L1.56363971,82.0468393 L1.61506608,81.744304 L1.66788235,81.442232 L1.72116193,81.1406233 L1.7753681,80.8390145 L1.83096418,80.5378691 L1.88702356,80.237187 L1.94447284,79.9365049 L2.00238542,79.636286 L2.06122461,79.3365305 L2.12145369,79.036775 L2.18214608,78.7379461 L2.24376507,78.4386539 L2.30631065,78.1402882 L2.36978284,77.8419226 L2.43418163,77.5440203 L2.49950703,77.2465813 L2.56575902,76.9496056 L2.63293761,76.6526298 L2.70104281,76.3561174 L2.77007461,76.0600683 L2.84003301,75.7640192 L2.91045471,75.4684334 L2.98226631,75.1733108 L3.05454121,74.8786516 L3.12820601,74.5839924 L3.20233412,74.2897965 L3.27738882,73.9960639 L3.35337013,73.7027946 L3.43074134,73.4095253 L3.50811255,73.1171825 L3.58687366,72.8248398 L3.66656137,72.5329604 L3.74717569,72.241081 L3.8282533,71.9496649 L3.91072082,71.6591754 L3.99365163,71.3686859 L4.07750905,71.0781964 L4.16229307,70.7886335 L4.24800369,70.4990706 L4.33464092,70.2099709 L4.42220474,69.9213346 L4.51023186,69.6331616 L4.59964889,69.3449886 L4.68952922,69.0577422 L4.78033614,68.7704958 L4.87206967,68.4837127 L4.9647298,68.1973929 L5.05831654,67.9115364 L5.15236657,67.6256799 L5.2473432,67.3402867 L5.34370974,67.0558201 L5.44053958,66.7713535 L5.53783271,66.4868869 L5.63651575,66.2033469 L5.73612539,65.9202702 L5.83619833,65.6371935 L5.93719788,65.3545801 L6.03912402,65.07243 L6.14197676,64.7907432 L6.24529281,64.5095197 L6.34999876,64.2287595 L6.45516801,63.9484626 L6.56126386,63.6681657 L6.66782301,63.3883321 L6.77577206,63.1094251 L6.88418441,62.8305181 L6.99352337,62.5520744 L7.10378892,62.2740941 L7.21498108,61.996577 L7.32663654,61.7190599 L7.43921859,61.4424694 L7.55272725,61.1658789 L7.66716252,60.890215 L7.78252438,60.6145511 L7.89834954,60.3393505 L8.01510131,60.0650765 L8.13277967,59.7908025 L8.25092134,59.5169919 L8.36998961,59.2436445 L8.48998448,58.9707604 L8.61090595,58.6983396 L8.73229072,58.4259188 L8.85506539,58.1544246 L8.97830337,57.8833938 L9.10200464,57.6123629 L9.22663252,57.3422586 L9.35265029,57.0721543 L9.47866807,56.8029766 L9.60607575,56.533799 L9.73394673,56.2655479 L9.86274431,55.9972968 L9.9924685,55.729509 L10.122656,55.4626478 L10.2537701,55.1957867 L10.3853475,54.9293888 L10.5183147,54.6639175 L10.6517453,54.3984462 L10.7861025,54.1334383 L10.920923,53.8688936 L11.0566701,53.6048122 L11.1933438,53.3416575 L11.3304808,53.0785027 L11.4685444,52.8158112 L11.6075346,52.553583 L11.7474514,52.2922815 L11.8878315,52.0309799 L12.0286749,51.7701416 L12.1709082,51.51023 L12.3136048,51.2503183 L12.457228,50.9908699 L12.6013145,50.7323482 L12.7463276,50.4738264 L12.891804,50.2162312 L13.0386703,49.9586361 L13.1855366,49.7019675 L13.3337928,49.4457623 L13.4825123,49.189557 L13.6321584,48.9342783 L13.7822678,48.679463 L13.9333039,48.4251109 L14.0848032,48.1712222 L14.2376924,47.9177967 L14.3905816,47.6648345 L14.5448607,47.4123357 L14.6996031,47.1603001 L14.8548089,46.9087279 L15.0109412,46.6580822 L15.1680001,46.4074366 L15.3255223,46.1577175 L15.4839711,45.9084618 L15.6428833,45.659206 L15.802722,45.4108769 L15.9634873,45.163011 L16.1247159,44.9156085 L16.2868712,44.6691325 L16.4494897,44.4226566 L16.6130348,44.1766439 L16.7770433,43.9315579 L16.9419783,43.6869351 L17.1073766,43.4423124 L17.2737016,43.1986162 L17.4409531,42.9558467 L17.6086679,42.7130772 L17.7768461,42.4707709 L17.9464141,42.2293913 L18.1159822,41.9880116 L18.2864768,41.7475586 L18.457898,41.5075689 L18.6297826,41.2680424 L18.8025937,41.0289793 L18.9758682,40.7908427 L19.1500692,40.5531695 L19.3247336,40.3154963 L19.5003245,40.0787496 L19.6763788,39.8424663 L19.8533596,39.6071096 L20.0308038,39.3717528 L20.2091745,39.1373227 L20.3880086,38.9033559 L20.5673059,38.6698524 L20.7479932,38.4368121 L20.9286804,38.2046985 L21.1102943,37.9725849 L21.2928347,37.7413978 L21.4758385,37.5106741 L21.6593056,37.2804137 L21.8436992,37.0510799 L22.0290195,36.8222093 L22.2143397,36.5938021 L22.4010499,36.3658582 L22.5877601,36.1383776 L22.7758601,35.9118236 L22.9639602,35.6857328 L23.1529869,35.4601054 L23.3429401,35.2349413 L23.5328934,35.0107038 L23.7242366,34.7869296 L23.916043,34.5636187 L24.1083128,34.340771 L24.3010459,34.11885 L24.4947056,33.8973923 L24.6892918,33.6763979 L24.8838781,33.4558668 L25.0798543,33.2362623 L25.2758305,33.0171211 L25.4727332,32.7984432 L25.6705626,32.5806919 L25.868392,32.3629406 L26.067148,32.1461158 L26.2668306,31.9302177 L26.4669764,31.7147829 L26.6675856,31.4998114 L26.8691214,31.2853032 L27.0711205,31.0712583 L27.2735829,30.85814 L27.4769719,30.645485 L27.6808242,30.4337566 L27.885603,30.2224915 L28.0903819,30.0116897 L28.2965507,29.8013512 L28.5027195,29.5919393 L28.7098149,29.3829908 L28.9173736,29.1749688 L29.1258589,28.9674101 L29.3348075,28.7603147 L29.5442194,28.5536826 L29.7540946,28.3479771 L29.9648964,28.1427349 L30.1761615,27.9384193 L30.3883532,27.734567 L30.6010082,27.531178 L30.8141265,27.3282524 L31.0277081,27.1262533 L31.2422163,26.9251808 L31.4571878,26.7241083 L31.6726226,26.5244257 L31.888984,26.3247431 L32.1058087,26.1259872 L32.3230967,25.9276945 L32.5413113,25.7303284 L32.7595259,25.5334256 L32.9786671,25.3369861 L33.1987349,25.1414733 L33.4188027,24.9464237 L33.6397972,24.7523007 L33.8612549,24.558641 L34.0836392,24.3654447 L34.3060235,24.1731749 L34.5293344,23.9813684 L34.7531086,23.7904886 L34.9778094,23.600072 L35.2025103,23.410582 L35.4281377,23.2215554 L35.6542284,23.032992 L35.8812457,22.8453552 L36.108263,22.6581818 L36.336207,22.4719349 L36.5646142,22.2861513 L36.7934847,22.1012944 L37.0232818,21.9169007 L37.2535423,21.7329704 L37.484266,21.5499666 L37.715453,21.3678894 L37.9471033,21.1862756 L38.1796803,21.005125 L38.4122572,20.8249011 L38.6457607,20.6451404 L38.8797275,20.4663064 L39.114621,20.2883989 L39.3495144,20.1104915 L39.5853344,19.9339739 L39.8216178,19.7574564 L40.0583644,19.5823287 L40.2955743,19.4072011 L40.5332476,19.2334633 L40.7718474,19.0597256 L41.0109106,18.8873777 L41.250437,18.7154932 L41.4904267,18.544072 L41.7308798,18.3735773 L41.9717961,18.203546 L42.2136391,18.0344412 L42.455482,17.8657998 L42.6982515,17.698085 L42.9414844,17.5312967 L43.1851805,17.3649718 L43.42934,17.1991102 L43.6739627,17.0346384 L43.9195121,16.8701667 L44.1650614,16.7066216 L44.4115374,16.544003 L44.6584766,16.3823111 L44.9058792,16.2206192 L45.153745,16.0603172 L45.4020742,15.9004784 L45.6508666,15.741103 L45.9001224,15.5831175 L46.1503047,15.425132 L46.4004871,15.2685363 L46.651596,15.112404 L46.9031683,14.956735 L47.1547405,14.8019926 L47.4072394,14.6481768 L47.6602015,14.4948242 L47.913627,14.3423983 L48.1675158,14.1904357 L48.4218678,14.039863 L48.6766832,13.8892903 L48.9324251,13.7401075 L49.1881671,13.5909247 L49.4443724,13.4431318 L49.7015042,13.2958022 L49.9586361,13.1493992 L50.2166945,13.0034594 L50.474753,12.8584463 L50.7337381,12.7143598 L50.9927231,12.5707366 L51.2526348,12.42804 L51.5130098,12.28627 L51.7733847,12.1449633 L52.0346863,12.0045832 L52.2964512,11.8651297 L52.5586793,11.7261395 L52.8209075,11.5880759 L53.0840623,11.450939 L53.3476804,11.3142653 L53.6117617,11.1785182 L53.8758431,11.0432344 L54.1408511,10.9088772 L54.4063224,10.7754466 L54.6722569,10.6429426 L54.9381915,10.5109019 L55.2050527,10.3797878 L55.4723772,10.2496004 L55.7397016,10.1198762 L56.0079527,9.9915419 L56.2766671,9.86320761 L56.5453815,9.73626324 L56.8150225,9.60978216 L57.0846634,9.48422768 L57.355231,9.3595998 L57.6257986,9.23543523 L57.8968295,9.11219725 L58.168787,8.98988588 L58.4407444,8.86850111 L58.7131652,8.74757964 L58.9860493,8.62758477 L59.2593967,8.5085165 L59.5332074,8.38991154 L59.8074814,8.27223317 L60.0822187,8.15548141 L60.3574192,8.03965624 L60.6326198,7.92475768 L60.908747,7.81032242 L61.1848742,7.69681376 L61.461928,7.5842317 L61.7389818,7.47211294 L62.0164989,7.36138408 L62.2944793,7.25111853 L62.572923,7.14177958 L62.85183,7.03290392 L63.1312003,6.92541817 L63.4110339,6.81839572 L63.6908675,6.71229987 L63.9711643,6.60713062 L64.2523878,6.50288797 L64.5336113,6.39910863 L64.8152981,6.29671918 L65.0974482,6.19479304 L65.3795983,6.0933302 L65.662675,5.99325725 L65.946215,5.89411092 L66.229755,5.79542788 L66.5137583,5.69767144 L66.7982249,5.6008416 L67.0831548,5.50493837 L67.3680847,5.40996173 L67.6539412,5.3154484 L67.9397977,5.22186167 L68.2261175,5.12966484 L68.5129007,5.03793131 L68.8001471,4.94712438 L69.0878568,4.85678075 L69.3755665,4.76782703 L69.6642028,4.6793366 L69.9528391,4.59223608 L70.2419387,4.50559886 L70.5310383,4.41988824 L70.8210645,4.33510422 L71.1110907,4.2512468 L71.4015802,4.16785268 L71.692533,4.08584846 L71.9839492,4.00430755 L72.2753653,3.92415654 L72.5672447,3.84446882 L72.8595874,3.76570771 L73.1523934,3.6878732 L73.4451994,3.61096529 L73.738932,3.53498399 L74.0326646,3.45992928 L74.3268606,3.38533788 L74.6210565,3.31213637 L74.9157157,3.23939817 L75.2113015,3.16804987 L75.506424,3.09716487 L75.8024731,3.02720647 L76.0985223,2.95863797 L76.3950347,2.89053278 L76.6920104,2.82335418 L76.9894494,2.75710219 L77.2868884,2.6917768 L77.5847908,2.62737801 L77.8826931,2.56390582 L78.181522,2.50136023 L78.4803509,2.43927794 L78.7796431,2.37858556 L79.0789354,2.31881977 L79.3791542,2.25998059 L79.679373,2.20160471 L79.9795918,2.14461873 L80.280274,2.08809605 L80.5818827,2.03296327 L80.8830281,1.97875709 L81.1851001,1.92501422 L81.4871722,1.87266124 L81.7892442,1.82077157 L82.0922428,1.7702718 L82.3952414,1.72023533 L82.6987034,1.67158876 L83.0021653,1.62340549 L83.3060905,1.57661212 L83.6104791,1.53074536 L83.9148676,1.4853419 L84.2201827,1.44132833 L84.5250345,1.39824137 L84.830813,1.35561771 L85.1365914,1.31438395 L85.4423698,1.2740768 L85.7490749,1.23423294 L86.0557799,1.19577899 L86.3624849,1.15825163 L86.6696533,1.12165088 L86.9772849,1.08597673 L87.2849165,1.05122918 L87.5934748,1.01740824 L87.9015697,0.984513889 L88.2101279,0.952546144 L88.5191495,0.921968301 L88.8286343,0.891853758 L89.1381192,0.862665817 L89.447604,0.834867778 L89.7580154,0.807533039 L90.0684269,0.781588203 L90.3788383,0.756569967 L90.689713,0.732015033 L91.0010511,0.70885 L91.3123891,0.686611569 L91.6241905,0.665299739 L91.9359918,0.64537781 L92.2482564,0.625919183 L92.5605211,0.607387157 L92.873249,0.590245033 L93.1864403,0.57402951 L93.4996315,0.558277288 L93.813286,0.543914967 L94.1269406,0.530479248 L94.4410584,0.517970131 L94.7551763,0.506850915 L95.0697574,0.496195 L95.3843386,0.486465686 L95.699383,0.478126275 L96.0148908,0.470713464 L96.3303985,0.464227255 L96.6459062,0.458667647 L96.9618773,0.454034641 L97.2783116,0.450791536 L97.594746,0.448011732 L97.9111803,0.44662183 L98.2285413,0.446158529 L98.5454389,0.44662183 L98.8618733,0.448011732 L99.1783076,0.450791536 L99.494742,0.454034641 L99.810713,0.458667647 L100.126221,0.464227255 L100.441728,0.470713464 L100.757236,0.478126275 L101.072281,0.486465686 L101.386862,0.496195 L101.701443,0.506850915 L102.015561,0.517970131 L102.329679,0.530479248 L102.643333,0.543914967 L102.956988,0.558277288 L103.270179,0.57402951 L103.58337,0.590245033 L103.896098,0.607387157 L104.208363,0.625919183 L104.520627,0.64537781 L104.832429,0.665299739 L105.14423,0.686611569 L105.455568,0.70885 L105.766906,0.732015033 L106.077781,0.756569967 L106.388192,0.781588203 L106.698604,0.807533039 L107.009015,0.834867778 L107.3185,0.862665817 L107.627985,0.891853758 L107.93747,0.921968301 L108.246491,0.952546144 L108.55505,0.984513889 L108.863608,1.01740824 L109.171703,1.05122918 L109.479334,1.08597673 L109.786966,1.12165088 L110.094134,1.15825163 L110.401303,1.19577899 L110.707544,1.23423294 L111.014249,1.2740768 L111.320028,1.31438395 L111.625806,1.35561771 L111.931585,1.39824137 L112.236437,1.44132833 L112.541752,1.4853419 L112.84614,1.53074536 L113.150529,1.57661212 L113.454454,1.62340549 L113.757916,1.67158876 L114.061378,1.72023533 L114.364376,1.7702718 L114.667375,1.82077157 L114.969447,1.87266124 L115.271519,1.92501422 L115.573591,1.97875709 L115.8752,2.03296327 L116.176345,2.08809605 L116.477027,2.14461873 L116.77771,2.20160471 L117.077465,2.25998059 L117.377684,2.31881977 L117.676976,2.37858556 L117.976268,2.43927794 L118.275097,2.50136023 L118.573926,2.56390582 L118.871828,2.62737801 L119.169731,2.6917768 L119.46717,2.75710219 L119.764609,2.82335418 L120.061585,2.89053278 L120.358097,2.95863797 L120.654146,3.02720647 L120.950195,3.09716487 L121.245781,3.16804987 L121.540904,3.23939817 L121.835563,3.31213637 L122.129759,3.38533788 L122.423955,3.45992928 L122.717687,3.53498399 L123.01142,3.61096529 L123.304226,3.6878732 L123.597032,3.76570771 L123.889375,3.84446882 L124.181254,3.92415654 L124.473133,4.00430755 L124.764086,4.08584846 L125.055039,4.16785268 L125.345529,4.2512468 L125.635555,4.33510422 L125.925581,4.41988824 L126.214681,4.50559886 L126.50378,4.59223608 L126.792416,4.6793366 L127.081053,4.76782703 L127.368762,4.85678075 L127.656472,4.94712438 L127.943719,5.03793131 L128.230502,5.12966484 L128.516822,5.22186167 L128.802678,5.3154484 L129.088535,5.40996173 L129.373464,5.50493837 L129.658394,5.6008416 L129.942861,5.69767144 L130.226864,5.79542788 L130.510868,5.89411092 L130.793944,5.99325725 L131.077021,6.0933302 L131.359171,6.19479304 L131.641321,6.29671918 L131.923008,6.39910863 L132.204231,6.50288797 L132.485455,6.60713062 L132.765752,6.71229987 L133.046049,6.81839572 L133.325419,6.92541817 L133.604789,7.03290392 L133.883696,7.14177958 L134.16214,7.25111853 L134.44012,7.36138408 L134.717637,7.47211294 L134.994691,7.5842317 L135.271745,7.69681376 L135.547872,7.81032242 L135.823999,7.92475768 L136.0992,8.03965624 L136.374401,8.15548141 L136.649138,8.27223317 L136.923412,8.38991154 L137.197223,8.5085165 L137.47057,8.62758477 L137.743454,8.74757964 L138.015875,8.86850111 L138.287832,8.98988588 L138.55979,9.11219725 L138.830821,9.23543523 L139.101388,9.3595998 L139.371956,9.48422768 L139.641597,9.60978216 L139.911238,9.73626324 L140.179952,9.86320761 L140.448667,9.9915419 L140.716918,10.1198762 L140.984242,10.2496004 L141.251567,10.3797878 L141.518428,10.5109019 L141.784362,10.6429426 L142.050297,10.7754466 L142.315768,10.9088772 L142.580776,11.0432344 L142.844858,11.1785182 L143.108939,11.3142653 L143.372557,11.450939 L143.635712,11.5880759 L143.89794,11.7261395 L144.160168,11.8651297 L144.421933,12.0045832 L144.683235,12.1449633 L144.943609,12.28627 L145.203984,12.42804 L145.463896,12.5707366 L145.722881,12.7143598 L145.981866,12.8584463 L146.239925,13.0034594 L146.497983,13.1493992 L146.755115,13.2958022 L147.012247,13.4431318 L147.268452,13.5909247 L147.524194,13.7401075 L147.779936,13.8892903 L148.034751,14.039863 L148.289103,14.1904357 L148.542992,14.3423983 L148.796418,14.4948242 L149.04938,14.6481768 L149.301879,14.8019926 L149.553451,14.956735 L149.805023,15.112404 L150.056132,15.2685363 L150.306315,15.425132 L150.556497,15.5831175 L150.805753,15.741103 L151.054545,15.9004784 L151.302874,16.0603172 L151.55074,16.2206192 L151.798143,16.3823111 L152.045082,16.544003 L152.291558,16.7066216 L152.537107,16.8701667 L152.782657,17.0346384 L153.027279,17.1991102 L153.271439,17.3649718 L153.515135,17.5312967 L153.758368,17.698085 L154.001137,17.8657998 L154.24298,18.0344412 L154.484823,18.203546 L154.725739,18.3735773 L154.966656,18.544072 L155.206646,18.7154932 L155.445709,18.8873777 L155.684772,19.0597256 L155.923372,19.2334633 L156.161045,19.4072011 L156.398255,19.5823287 L156.635001,19.7574564 L156.871285,19.9339739 L157.107105,20.1104915 L157.341998,20.2883989 L157.576892,20.4663064 L157.810859,20.6451404 L158.044362,20.8249011 L158.277402,21.005125 L158.509516,21.1862756 L158.741166,21.3678894 L158.972817,21.5499666 L159.203077,21.7329704 L159.433337,21.9169007 L159.663135,22.1012944 L159.892005,22.2861513 L160.120412,22.4719349 L160.348356,22.6581818 L160.575374,22.8453552 L160.802391,23.032992 L161.028482,23.2215554 L161.254109,23.410582 L161.47881,23.600072 L161.703511,23.7904886 L161.927285,23.9813684 L162.150596,24.1731749 L162.37298,24.3654447 L162.595364,24.558641 L162.816822,24.7523007 L163.037817,24.9464237 L163.257884,25.1414733 L163.477952,25.3369861 L163.697093,25.5334256 L163.915771,25.7303284 L164.133523,25.9276945 L164.350811,26.1259872 L164.567635,26.3247431 L164.783997,26.5244257 L164.999431,26.7241083 L165.214403,26.9251808 L165.428911,27.1262533 L165.642493,27.3282524 L165.855611,27.531178 L166.068266,27.734567 L166.280458,27.9384193 L166.491723,28.1427349 L166.702525,28.3479771 L166.9124,28.5536826 L167.121812,28.7603147 L167.33076,28.9674101 L167.539246,29.1749688 L167.746804,29.3829908 L167.9539,29.5919393 L168.160069,29.8013512 L168.366237,30.0116897 L168.571016,30.2224915 L168.775795,30.4337566 L168.979647,30.645485 L169.183036,30.85814 L169.385499,31.0712583 L169.587498,31.2853032 L169.789034,31.4998114 L169.989643,31.7147829 L170.189789,31.9302177 L170.389471,32.1461158 L170.588227,32.3629406 L170.78652,32.5806919 L170.983886,32.7984432 L171.180789,33.0171211 L171.376765,33.2362623 L171.572741,33.4558668 L171.767327,33.6763979 L171.961914,33.8973923 L172.155573,34.11885 L172.348306,34.340771 L172.54104,34.5636187 L172.732383,34.7869296 L172.923726,35.0107038 L173.113679,35.2349413 L173.303632,35.4601054 L173.492659,35.6857328 L173.681222,35.9118236 L173.868859,36.1383776 L174.055569,36.3658582 L174.24228,36.5938021 L174.4276,36.8222093 L174.61292,37.0510799 L174.797314,37.2804137 L174.980781,37.5106741 L175.163785,37.7413978 L175.346325,37.9725849 L175.527939,38.2046985 L175.708626,38.4368121 L175.889313,38.6698524 L176.068611,38.9033559 L176.247445,39.1373227 L176.425815,39.3717528 L176.60326,39.6071096 L176.78024,39.8424663 L176.956295,40.0787496 L177.131886,40.3154963 L177.30655,40.5531695 L177.480751,40.7908427 L177.654026,41.0289793 L177.826837,41.2680424 L177.998721,41.5075689 L178.170142,41.7475586 L178.340637,41.9880116 L178.510205,42.2293913 L178.679773,42.4707709 L178.847951,42.7130772 L179.015666,42.9558467 L179.182918,43.1986162 L179.349243,43.4423124 L179.514641,43.6869351 L179.679576,43.9315579 L179.843584,44.1766439 L180.00713,44.4226566 L180.169748,44.6691325 L180.331903,44.9156085 L180.493132,45.163011 L180.653897,45.4108769 L180.813736,45.659206 L180.972648,45.9084618 L181.131097,46.1577175 L181.288619,46.4074366 L181.445678,46.6580822 L181.60181,46.9087279 L181.757479,47.1603001 L181.911759,47.4123357 L182.066038,47.6648345 L182.21939,47.9177967 L182.371816,48.1712222 L182.523315,48.4251109 L182.674351,48.679463 L182.824461,48.9342783 L182.974107,49.189557 L183.122826,49.4457623 L183.271083,49.7019675 L183.417949,49.9586361 L183.564815,50.2162312 L183.710292,50.4738264 L183.855305,50.7323482 L183.999391,50.9908699 L184.143014,51.2503183 L184.285711,51.51023 L184.427944,51.7701416 L184.568788,52.0309799 L184.709168,52.2922815 L184.849085,52.553583 L184.988075,52.8158112 L185.126138,53.0785027 L185.263275,53.3416575 L185.399949,53.6048122 L185.535696,53.8688936 L185.670517,54.1334383 L185.804874,54.3984462 L185.938305,54.6639175 L186.071272,54.9293888 L186.202849,55.1957867 L186.333963,55.4626478 L186.464614,55.729509 L186.593875,55.9972968 L186.722673,56.2655479 L186.850543,56.533799 L186.977951,56.8029766 L187.104432,57.0721543 L187.229987,57.3422586 L187.354615,57.6123629 L187.478779,57.8833938 L187.601554,58.1544246 L187.724329,58.4259188 L187.845713,58.6983396 L187.966635,58.9707604 L188.08663,59.2436445 L188.205698,59.5169919 L188.32384,59.7908025 L188.441518,60.0650765 L188.55827,60.3393505 L188.674095,60.6145511 L188.789457,60.890215 L188.903892,61.1658789 L189.017401,61.4424694 L189.129983,61.7190599 L189.241638,61.996577 L189.35283,62.2740941 L189.463096,62.5520744 L189.572435,62.8305181 L189.680847,63.1094251 L189.788796,63.3883321 L189.895355,63.6681657 L190.001451,63.9484626 L190.10662,64.2287595 L190.211326,64.5095197 L190.314642,64.7907432 L190.417495,65.07243 L190.519421,65.3545801 L190.620421,65.6371935 L190.720494,65.9202702 L190.820103,66.2033469 L190.918787,66.4868869 L191.01608,66.7713535 L191.11291,67.0558201 L191.209276,67.3402867 L191.304253,67.6256799 L191.398303,67.9115364 L191.491889,68.1973929 L191.58455,68.4837127 L191.676283,68.7704958 L191.76709,69.0577422 L191.85697,69.3449886 L191.946387,69.6331616 L192.034415,69.9213346 L192.121978,70.2099709 L192.208616,70.4990706 L192.294326,70.7886335 L192.37911,71.0781964 L192.462968,71.3686859 L192.545898,71.6591754 L192.628366,71.9496649 L192.709444,72.241081 L192.790058,72.5329604 L192.869746,72.8248398 L192.948507,73.1171825 L193.026341,73.4095253 L193.103249,73.7027946 L193.17923,73.9960639 L193.254285,74.2897965 L193.328413,74.5839924 L193.402078,74.8786516 L193.474353,75.1733108 L193.546165,75.4684334 L193.616586,75.7640192 L193.686545,76.0600683 L193.755576,76.3561174 L193.823682,76.6526298 L193.89086,76.9496056 L193.957112,77.2465813 L194.022438,77.5440203 L194.086836,77.8419226 L194.150309,78.1402882 L194.212854,78.4386539 L194.274473,78.7379461 L194.335629,79.036775 L194.395395,79.3365305 L194.454234,79.636286 L194.512146,79.9365049 L194.569596,80.237187 L194.625655,80.5378691 L194.681251,80.8390145 L194.735457,81.1406233 L194.788737,81.442232 L194.841553,81.744304 L194.89298,82.0468393 L194.943943,82.3493747 L194.993516,82.6528366 L195.042626,82.9558352 L195.090346,83.2597605 L195.137602,83.5636857 L195.183469,83.8680742 L195.228409,84.1724627 L195.272886,84.4773146 L195.315973,84.7826297 L195.358133,85.0879448 L195.39983,85.3937233 L195.440138,85.699965 L195.479518,86.0062067 L195.517972,86.3129118 L195.555963,86.6200801 L195.592564,86.9272484 L195.628238,87.2348801 L195.662985,87.5425117 L195.696806,87.8506066 L195.729237,88.1591649 L195.761205,88.4677231 L195.792246,88.7767446 L195.822361,89.0857662 L195.851085,89.395251 L195.879347,89.7051992 L195.906218,90.0151473 L195.932626,90.3255587 L195.957644,90.6364335 L195.981736,90.9473082 L196.004901,91.2581829 L196.02714,91.569521 L196.048451,91.8813223 L196.068837,92.193587 L196.088295,92.5053883 L196.106364,92.8181162 L196.123969,93.1308442 L196.140185,93.4435721 L196.155474,93.7572267 L196.169836,94.0704179 L196.183272,94.3845358 L196.195781,94.6981903 L196.207363,95.0127714 L196.218019,95.3273526 L196.227285,95.6419337 L196.235625,95.9569782 L196.243501,96.2720226 L196.249987,96.5875304 L196.255547,96.9035014 L196.259716,97.2194725 L196.263423,97.5354435 L196.265739,97.8518778 L196.267593,98.1687755 L196.268056,98.4856731 L196.267593,98.8025708 L196.265739,99.1194684 L196.263423,99.4359028 L196.259716,99.7518738 L196.255547,100.067845 L196.249987,100.383816 L196.243501,100.699324 L196.235625,101.014368 L196.227285,101.329413 L196.218019,101.644457 L196.207363,101.959038 L196.195781,102.273156 L196.183272,102.587274 L196.169836,102.900928 L196.155474,103.214583 L196.140185,103.527774 L196.123969,103.840502 L196.106364,104.15323 L196.088295,104.465958 L196.068837,104.778223 L196.048451,105.090024 L196.02714,105.401825 L196.004901,105.713163 L195.981736,106.024501 L195.957644,106.335376 L195.932626,106.645788 L195.906218,106.956199 L195.879347,107.266147 L195.851085,107.576095 L195.822361,107.88558 L195.792246,108.194602 L195.761205,108.503623 L195.729237,108.812181 L195.696806,109.12074 L195.662985,109.428835 L195.628238,109.73693 L195.592564,110.044098 L195.555963,110.351729 L195.517972,110.658435 L195.479518,110.96514 L195.440138,111.271381 L195.39983,111.577623 L195.358133,111.883401 L195.315973,112.188717 L195.272886,112.494032 L195.228409,112.798884 L195.183469,113.103735 L195.137602,113.407661 L195.090346,113.711586 L195.042626,114.015511 L194.993516,114.318973 L194.943943,114.621972 L194.89298,114.924507 L194.841553,115.227042 L194.788737,115.529114 L194.735457,115.830723 L194.681251,116.132332 L194.625655,116.433477 L194.569596,116.734159 L194.512146,117.034841 L194.454234,117.33506 L194.395395,117.634816 L194.335629,117.934571 L194.274473,118.233863 L194.212854,118.532692 L194.150309,118.831058 L194.086836,119.129424 L194.022438,119.427326 L193.957112,119.724765 L193.89086,120.022204 L193.823682,120.318716 L193.755576,120.615229 L193.686545,120.911741 L193.616586,121.207327 L193.546165,121.502913 L193.504444,121.674371 C188.078213,115.035372 180.875408,109.904205 172.623833,107.008673 L172.639723,106.866782 L172.665667,106.631425 L172.690686,106.396068 L172.715241,106.160248 L172.738869,105.923965 L172.761571,105.687682 L172.783809,105.451398 L172.805121,105.214189 L172.825969,104.977442 L172.845891,104.739769 L172.86535,104.502095 L172.883882,104.264422 L172.901487,104.026286 L172.91863,103.788149 L172.934845,103.549549 L172.950134,103.310486 L172.96496,103.071886 L172.978859,102.832823 L172.992294,102.592833 L173.004803,102.353307 L173.016849,102.113317 L173.027968,101.872864 L173.038161,101.632411 L173.047427,101.391958 L173.05623,101.151505 L173.064569,100.910125 L173.071519,100.668746 L173.078468,100.426903 L173.084028,100.184597 L173.089124,99.943217 L173.093294,99.7009108 L173.096537,99.4576779 L173.099317,99.2153717 L173.10117,98.9726021 L173.10256,98.7293693 L173.103023,98.4856731 L173.10256,98.241977 L173.10117,97.9987442 L173.099317,97.7559746 L173.096537,97.5136684 L173.093294,97.2704355 L173.089124,97.0281293 L173.084028,96.7867496 L173.078468,96.5444434 L173.071519,96.3030638 L173.064569,96.0616841 L173.05623,95.8198412 L173.047427,95.5793881 L173.038161,95.3389351 L173.027968,95.0984821 L173.016849,94.858029 L173.004803,94.6180393 L172.992294,94.3789761 L172.978859,94.1389864 L172.96496,93.89946 L172.950134,93.6608601 L172.934845,93.421797 L172.91863,93.1831972 L172.901487,92.9450606 L172.883882,92.7069241 L172.86535,92.4692508 L172.845891,92.2315776 L172.825969,91.9943677 L172.805121,91.7571577 L172.783809,91.5204111 L172.761571,91.2836645 L172.738869,91.0478444 L172.715241,90.8110978 L172.690686,90.5752778 L172.665667,90.339921 L172.639723,90.1045643 L172.613314,89.8692076 L172.58598,89.6338508 L172.558182,89.3994207 L172.529457,89.1649906 L172.499806,88.9310238 L172.469691,88.6975202 L172.43865,88.4630901 L172.407146,88.2295866 L172.375178,87.9965463 L172.34182,87.7639694 L172.308463,87.5313925 L172.273715,87.2988156 L172.238504,87.0667019 L172.20283,86.8350516 L172.166229,86.6024747 L172.129165,86.3717509 L172.091175,86.1405639 L172.052257,85.9093769 L172.012877,85.6791165 L171.973033,85.4483927 L171.932262,85.2185956 L171.890565,84.9887985 L171.848405,84.7590014 L171.805781,84.5296675 L171.762231,84.3003337 L171.717754,84.0714632 L171.672814,83.843056 L171.626947,83.6146488 L171.580617,83.3867048 L171.533824,83.1587609 L171.486104,82.9312803 L171.437457,82.704263 L171.388347,82.4772457 L171.338774,82.2502283 L171.288275,82.0236743 L171.237311,81.7975836 L171.185422,81.5714929 L171.132606,81.3458655 L171.079326,81.120238 L171.025583,80.8955372 L170.971377,80.6708364 L170.915781,80.4456723 L170.859721,80.2214348 L170.803199,79.9971973 L170.746213,79.773423 L170.6883,79.5501121 L170.629461,79.3272645 L170.570159,79.1039536 L170.510393,78.881106 L170.4497,78.6587217 L170.388545,78.4363374 L170.326462,78.2148796 L170.263917,77.9934219 L170.200445,77.7719642 L170.136509,77.5509698 L170.07211,77.3304387 L170.006785,77.1099076 L169.940996,76.8893765 L169.874281,76.669772 L169.807102,76.4501675 L169.738997,76.2305629 L169.670429,76.011885 L169.601397,75.7932071 L169.531438,75.5745292 L169.461017,75.3563146 L169.389668,75.1385633 L169.317857,74.920812 L169.245582,74.7039873 L169.17238,74.4871626 L169.098716,74.2698746 L169.024124,74.0535132 L168.94907,73.8376151 L168.873552,73.621717 L168.797107,73.4062822 L168.719736,73.1903841 L168.642365,72.9758758 L168.564067,72.7613676 L168.485306,72.5473227 L168.405618,72.3328145 L168.325467,72.1192329 L168.244853,71.9061146 L168.163312,71.692533 L168.080844,71.479878 L167.998377,71.2676863 L167.914982,71.0554946 L167.831125,70.8437662 L167.746341,70.6315745 L167.661094,70.4203094 L167.575383,70.2099709 L167.488746,69.9991692 L167.401645,69.7883674 L167.314082,69.5784922 L167.225591,69.3690803 L167.136637,69.1596684 L167.046757,68.9507198 L166.956877,68.7422345 L166.865607,68.5332859 L166.774336,68.3252639 L166.682603,68.1177052 L166.589479,67.9101465 L166.495893,67.7025878 L166.402306,67.496419 L166.307793,67.2897869 L166.212816,67.0836181 L166.116913,66.8783759 L166.020546,66.6726705 L165.923253,66.466965 L165.82596,66.2621861 L165.72774,66.0578705 L165.629057,65.8540182 L165.529447,65.6501659 L165.429374,65.4463136 L165.328838,65.2433879 L165.227375,65.0404623 L165.125449,64.8379999 L165.023523,64.6364641 L164.920207,64.434465 L164.816428,64.2329292 L164.712648,64.0318567 L164.607479,63.8307842 L164.50231,63.6306384 L164.396214,63.4309558 L164.289655,63.2312732 L164.182632,63.0315906 L164.074683,62.8323713 L163.966271,62.6336154 L163.857395,62.435786 L163.748056,62.2379566 L163.637791,62.0401272 L163.527062,61.8432244 L163.41587,61.6458584 L163.303751,61.4494189 L163.191632,61.2534427 L163.078587,61.0579298 L162.965078,60.8628803 L162.850643,60.6673674 L162.735744,60.4723178 L162.620846,60.2786581 L162.505021,60.0845352 L162.388269,59.8904122 L162.271517,59.6976791 L162.153839,59.504946 L162.035697,59.312213 L161.916629,59.1199432 L161.797097,58.9281367 L161.677566,58.7377202 L161.557108,58.546377 L161.435723,58.3554971 L161.314338,58.1650806 L161.19249,57.9760539 L161.069715,57.7865639 L160.946014,57.597074 L160.822776,57.4085106 L160.698148,57.2204105 L160.57352,57.0323105 L160.447966,56.845137 L160.321948,56.6579635 L160.195004,56.4712534 L160.068059,56.2850065 L159.940188,56.0987596 L159.811854,55.9134394 L159.683056,55.7281191 L159.554259,55.5437255 L159.424071,55.3593318 L159.293884,55.1754014 L159.16277,54.9919344 L159.031192,54.8084673 L158.899152,54.6263902 L158.766648,54.4438497 L158.633217,54.2617725 L158.499787,54.0801587 L158.365893,53.8994714 L158.231072,53.7187842 L158.095325,53.5380969 L157.959578,53.3583363 L157.823368,53.1790389 L157.686694,53.0002049 L157.549094,52.8213708 L157.411493,52.6434634 L157.272966,52.4655559 L157.133976,52.2881118 L156.994523,52.1111309 L156.854606,51.9346134 L156.713763,51.7585591 L156.572919,51.5834315 L156.431612,51.4078405 L156.288916,51.2331762 L156.146683,51.0589751 L156.003523,50.8847741 L155.859436,50.7110363 L155.71535,50.5382252 L155.571263,50.3654141 L155.42625,50.1935295 L155.28031,50.0221083 L155.133907,49.8502237 L154.987041,49.6792658 L154.840175,49.5092344 L154.692382,49.3392031 L154.544126,49.1696351 L154.395406,49.0005303 L154.246223,48.8318889 L154.096577,48.6637108 L153.946468,48.4959959 L153.795895,48.3287444 L153.644396,48.1619561 L153.492896,47.9951679 L153.340934,47.8297696 L153.188045,47.6639079 L153.034692,47.4989729 L152.88134,47.3345012 L152.72706,47.1704927 L152.572318,47.0069476 L152.417576,46.8438658 L152.261443,46.680784 L152.105311,46.5186287 L151.949179,46.3569368 L151.79212,46.1957082 L151.634598,46.0349428 L151.476149,45.8741775 L151.3177,45.7143388 L151.159251,45.5549634 L150.999412,45.3960512 L150.839574,45.2376024 L150.679272,45.0796169 L150.518506,44.9220947 L150.357278,44.7650358 L150.195586,44.6084401 L150.032967,44.4523078 L149.870349,44.2966388 L149.707267,44.1414331 L149.543722,43.987154 L149.379713,43.8328748 L149.215242,43.6795223 L149.049843,43.5261698 L148.884445,43.3732806 L148.718583,43.221318 L148.552258,43.0693554 L148.38547,42.9183193 L148.218218,42.7677466 L148.05004,42.6171739 L147.881862,42.4675278 L147.713684,42.3188083 L147.544579,42.1696255 L147.375011,42.0218326 L147.20498,41.8740397 L147.034485,41.7267101 L146.863527,41.5798438 L146.692106,41.4334408 L146.520685,41.2884276 L146.348337,41.1429512 L146.175526,40.9984014 L146.002715,40.8543149 L145.82944,40.7106917 L145.655239,40.5675318 L145.481038,40.4248352 L145.306374,40.2826019 L145.130783,40.1412952 L144.955192,39.9999885 L144.779138,39.8596084 L144.60262,39.7196916 L144.426103,39.5802381 L144.248658,39.4412479 L144.070751,39.302721 L143.892844,39.1646575 L143.71401,39.0275205 L143.535175,38.8908468 L143.355415,38.7541731 L143.175654,38.618426 L142.99543,38.4831422 L142.814743,38.3483217 L142.633592,38.2139645 L142.452442,38.0805339 L142.270365,37.9475666 L142.087824,37.8150626 L141.905284,37.6825587 L141.72228,37.5514446 L141.538813,37.4203305 L141.354883,37.290143 L141.170489,37.1599555 L140.985632,37.0306946 L140.800775,36.9018971 L140.614991,36.7735628 L140.429208,36.6461551 L140.242961,36.5192107 L140.056251,36.3922663 L139.869077,36.2662486 L139.681441,36.1406941 L139.493341,36.0156029 L139.305704,35.8914383 L139.116677,35.7677371 L138.92765,35.6444991 L138.738161,35.5217244 L138.548671,35.399413 L138.358254,35.2780283 L138.167837,35.1571068 L137.976958,35.0366486 L137.785614,34.9166538 L137.593808,34.7975855 L137.401538,34.6785172 L137.209268,34.5603756 L137.016535,34.4426972 L136.823339,34.3259454 L136.629679,34.2091937 L136.435556,34.0933685 L136.241433,33.9780066 L136.046384,33.8631081 L135.851797,33.7491361 L135.656285,33.6356275 L135.460308,33.5225821 L135.264332,33.41 L135.067893,33.2983446 L134.87099,33.1871524 L134.673624,33.0764236 L134.476258,32.966158 L134.278428,32.8568191 L134.080136,32.7479434 L133.88138,32.6390677 L133.68216,32.531582 L133.483405,32.4245595 L133.283259,32.3180004 L133.083576,32.2119045 L132.882967,32.106272 L132.681894,32.001566 L132.481285,31.8973234 L132.279749,31.7940074 L132.078214,31.6906913 L131.875751,31.5883019 L131.673289,31.4863757 L131.470363,31.3853762 L131.267437,31.2848399 L131.064048,31.184767 L130.860196,31.0851574 L130.656344,30.9864743 L130.451565,30.8882546 L130.246786,30.7904981 L130.041544,30.6936683 L129.836302,30.5973018 L129.630133,30.5013985 L129.424427,30.4064219 L129.217795,30.3119086 L129.0107,30.2178585 L128.804068,30.1242718 L128.596509,30.0316117 L128.388487,29.9398781 L128.180465,29.8481446 L127.97198,29.7573377 L127.763495,29.6669941 L127.554083,29.577577 L127.345134,29.4886233 L127.135259,29.4001329 L126.925384,29.3121058 L126.715045,29.2254685 L126.504243,29.1388313 L126.293442,29.0526574 L126.082177,28.9674101 L125.870448,28.8830893 L125.65872,28.7987686 L125.446528,28.7158378 L125.234336,28.632907 L125.021218,28.5509028 L124.8081,28.4693619 L124.594518,28.3887475 L124.380937,28.3085965 L124.166892,28.2289088 L123.952847,28.1501477 L123.737875,28.0718499 L123.522904,27.9940154 L123.307932,27.9171075 L123.092497,27.8406629 L122.876599,27.7651449 L122.660238,27.6900902 L122.44434,27.6154988 L122.227515,27.541834 L122.010227,27.4686325 L121.792939,27.3963575 L121.575651,27.3240826 L121.357437,27.2531976 L121.139685,27.1827759 L120.921007,27.1128175 L120.702329,27.0433225 L120.483188,26.974754 L120.264047,26.9071121 L120.044442,26.8399335 L119.824375,26.7732182 L119.604307,26.7074295 L119.383776,26.6421041 L119.163245,26.577242 L118.941787,26.5133065 L118.720792,26.4502976 L118.498871,26.387752 L118.277414,26.3256697 L118.055029,26.2645141 L117.832645,26.2038217 L117.610261,26.1435926 L117.38695,26.0842901 L117.163639,26.0259142 L116.940328,25.9680016 L116.716554,25.9105524 L116.492316,25.8540297 L116.268079,25.7979703 L116.043378,25.7428375 L115.818677,25.688168 L115.593513,25.6344252 L115.368349,25.5811456 L115.142258,25.5287926 L114.916631,25.4769029 L114.690077,25.4259399 L114.463986,25.3754401 L114.236969,25.3254036 L114.009951,25.2762938 L113.782934,25.2281105 L113.55499,25.1803905 L113.32751,25.1331339 L113.099566,25.0868038 L112.871158,25.0414003 L112.642288,24.9964602 L112.413417,24.9519833 L112.184547,24.908433 L111.955213,24.8653461 L111.725416,24.8231857 L111.495619,24.781952 L111.265358,24.7411815 L111.035098,24.7008743 L110.804374,24.6614938 L110.57365,24.6230398 L110.342463,24.5850492 L110.110813,24.5475218 L109.879163,24.5113844 L109.647512,24.4752469 L109.415399,24.4400361 L109.182822,24.4057518 L108.950245,24.3719309 L108.717205,24.3390365 L108.484165,24.3066055 L108.250661,24.275101 L108.017157,24.2440599 L107.783191,24.2139454 L107.548761,24.1847574 L107.31433,24.1560328 L107.0799,24.1277714 L106.845007,24.1009 L106.60965,24.0740286 L106.374293,24.048547 L106.138937,24.0230655 L105.902653,23.9989739 L105.666833,23.9753455 L105.43055,23.9521805 L105.193803,23.9304054 L104.957057,23.9086302 L104.719847,23.888245 L104.482637,23.8683231 L104.244964,23.8488644 L104.006827,23.8303324 L103.769154,23.812727 L103.530554,23.7955849 L103.291954,23.7793693 L103.053354,23.7636171 L102.814291,23.7487915 L102.575228,23.7348925 L102.335702,23.7214568 L102.095712,23.7089476 L101.855722,23.6973651 L101.615732,23.6862459 L101.375279,23.6760533 L101.134826,23.666324 L100.89391,23.6575213 L100.65253,23.6496452 L100.411151,23.6422324 L100.169771,23.6357461 L99.9279281,23.6301865 L99.6856218,23.6250902 L99.4433156,23.6209205 L99.2010093,23.6172141 L98.9582398,23.6148976 L98.715007,23.6125811 L98.4717741,23.6116545 L98.2285413,23.6111912 L97.9848451,23.6116545 L97.7416123,23.6125811 L97.4988427,23.6148976 L97.2556099,23.6172141 L97.0133037,23.6209205 L96.7709974,23.6250902 L96.5286912,23.6301865 L96.2868482,23.6357461 L96.0454686,23.6422324 L95.804089,23.6496452 L95.5631726,23.6575213 L95.3222563,23.666324 L95.0813399,23.6760533 L94.8408869,23.6862459 L94.6008972,23.6973651 L94.3609074,23.7089476 L94.1209177,23.7214568 L93.8813912,23.7348925 L93.6423281,23.7487915 L93.403265,23.7636171 L93.1646651,23.7793693 L92.9260653,23.7955849 L92.6874655,23.812727 L92.4497922,23.8303324 L92.2116557,23.8488644 L91.9739825,23.8683231 L91.7367725,23.888245 L91.4995626,23.9086302 L91.2628159,23.9304054 L91.0260693,23.9521805 L90.789786,23.9753455 L90.5539659,23.9989739 L90.3181459,24.0230655 L90.0823259,24.048547 L89.8469692,24.0740286 L89.6116124,24.1009 L89.376719,24.1277714 L89.1422889,24.1560328 L88.9078587,24.1847574 L88.6734286,24.2139454 L88.4394618,24.2440599 L88.2059582,24.275101 L87.9724547,24.3066055 L87.7394145,24.3390365 L87.5063742,24.3719309 L87.2737973,24.4057518 L87.0412204,24.4400361 L86.8091068,24.4752469 L86.5774564,24.5113844 L86.3458061,24.5475218 L86.1141558,24.5850492 L85.8829688,24.6230398 L85.652245,24.6614938 L85.4215213,24.7008743 L85.1912609,24.7411815 L84.9610005,24.781952 L84.7312033,24.8231857 L84.5014062,24.8653461 L84.2720724,24.908433 L84.0432019,24.9519833 L83.8143313,24.9964602 L83.5854608,25.0414003 L83.3570536,25.0868038 L83.1291097,25.1331339 L82.9016291,25.1803905 L82.6736851,25.2281105 L82.4466678,25.2762938 L82.2196505,25.3254036 L81.9926332,25.3754401 L81.7665425,25.4259399 L81.5399884,25.4769029 L81.314361,25.5287926 L81.0887336,25.5811456 L80.8631062,25.6344252 L80.6379421,25.688168 L80.4132412,25.7428375 L80.1885404,25.7979703 L79.9643029,25.8540297 L79.7400654,25.9105524 L79.5162912,25.9680016 L79.2929803,26.0259142 L79.0696693,26.0842901 L78.8468217,26.1435926 L78.6239741,26.2038217 L78.4015898,26.2645141 L78.1792055,26.3256697 L77.9572845,26.387752 L77.7358268,26.4502976 L77.5148324,26.5133065 L77.2938379,26.577242 L77.0728435,26.6421041 L76.8523124,26.7074295 L76.6322446,26.7732182 L76.4121768,26.8399335 L76.1925723,26.9071121 L75.9734311,26.974754 L75.7542899,27.0433225 L75.535612,27.1128175 L75.3173974,27.1827759 L75.0991827,27.2531976 L74.8809681,27.3240826 L74.6636801,27.3958942 L74.4463921,27.4686325 L74.2291041,27.541834 L74.0127427,27.6154988 L73.7963813,27.6900902 L73.5800199,27.7651449 L73.3641218,27.8406629 L73.148687,27.9171075 L72.9337155,27.9940154 L72.718744,28.0718499 L72.5042358,28.1496844 L72.2897276,28.2289088 L72.0756827,28.3085965 L71.8621011,28.3887475 L71.6485195,28.4693619 L71.4354012,28.5509028 L71.2227462,28.632907 L71.0100912,28.7158378 L70.7978995,28.7992319 L70.5861711,28.8830893 L70.3744427,28.9674101 L70.1631776,29.0526574 L69.9523758,29.1388313 L69.741574,29.2254685 L69.5312355,29.3125691 L69.3213603,29.4001329 L69.1114851,29.4886233 L68.9020732,29.577577 L68.6931246,29.6669941 L68.4846393,29.7573377 L68.276154,29.8481446 L68.068132,29.9398781 L67.86011,30.0316117 L67.6530146,30.1242718 L67.4454559,30.2178585 L67.2388239,30.3119086 L67.0326551,30.4064219 L66.8264863,30.5013985 L66.6207808,30.5973018 L66.4150753,30.6936683 L66.2098331,30.7904981 L66.0050542,30.8882546 L65.8007386,30.9864743 L65.596423,31.0851574 L65.3925708,31.184767 L65.1891818,31.2848399 L64.9862561,31.3853762 L64.7833304,31.4863757 L64.580868,31.5883019 L64.3784056,31.6906913 L64.1768698,31.7935441 L63.9753341,31.8973234 L63.7742616,32.001566 L63.5736524,32.106272 L63.3735065,32.2119045 L63.1733606,32.3180004 L62.973678,32.4245595 L62.7739955,32.531582 L62.5752395,32.6390677 L62.3764835,32.7474801 L62.1781908,32.8568191 L61.9803614,32.966158 L61.7829954,33.0764236 L61.5856293,33.1871524 L61.3887265,33.2983446 L61.192287,33.41 L60.9963108,33.5225821 L60.8003347,33.6356275 L60.6048218,33.7491361 L60.4097722,33.8631081 L60.2151859,33.9780066 L60.021063,34.0933685 L59.82694,34.2091937 L59.6332803,34.3259454 L59.440084,34.4426972 L59.2473509,34.5603756 L59.0550811,34.6785172 L58.8628113,34.7971222 L58.6710049,34.9166538 L58.4796617,35.0366486 L58.2887818,35.1571068 L58.0983653,35.2780283 L57.9079487,35.399413 L57.7184587,35.5217244 L57.5289688,35.6444991 L57.3399421,35.7677371 L57.1513787,35.8914383 L56.9628154,36.0160662 L56.7751786,36.1406941 L56.5875418,36.2662486 L56.4003684,36.3922663 L56.2136582,36.5187474 L56.0274113,36.6461551 L55.8416278,36.7735628 L55.6558442,36.9018971 L55.4709873,37.0306946 L55.2861303,37.1599555 L55.1017366,37.290143 L54.9178063,37.4203305 L54.7343392,37.5514446 L54.5513355,37.683022 L54.368795,37.8150626 L54.1862545,37.9475666 L54.0041774,38.0805339 L53.8230268,38.2144278 L53.6418763,38.3483217 L53.461189,38.4831422 L53.2809651,38.618426 L53.1012044,38.7541731 L52.9214438,38.8903835 L52.7426097,39.0275205 L52.5637757,39.1646575 L52.3858682,39.302721 L52.2079608,39.4412479 L52.0305166,39.5802381 L51.8539991,39.7196916 L51.6774815,39.8596084 L51.5014273,39.9999885 L51.3258363,40.1412952 L51.1502454,40.2826019 L50.975581,40.4248352 L50.80138,40.5675318 L50.6271789,40.7106917 L50.4539045,40.8543149 L50.2810933,40.9984014 L50.1082822,41.1429512 L49.9359343,41.2879643 L49.7645131,41.4339041 L49.5930919,41.5798438 L49.4221339,41.7267101 L49.2516393,41.8740397 L49.0816079,42.0218326 L48.9125032,42.1696255 L48.7429352,42.318345 L48.574757,42.4675278 L48.4061156,42.6176372 L48.2384008,42.7677466 L48.0711492,42.9183193 L47.904361,43.0693554 L47.738036,43.221318 L47.5721744,43.3732806 L47.4067761,43.5261698 L47.241841,43.679059 L47.0773693,43.8328748 L46.9128976,43.987154 L46.7493525,44.1418964 L46.5862706,44.2966388 L46.4236521,44.4523078 L46.2610336,44.6084401 L46.0993416,44.7650358 L45.938113,44.9220947 L45.7773477,45.0796169 L45.6170457,45.2376024 L45.4572069,45.3960512 L45.2978315,45.5549634 L45.1389194,45.7143388 L44.9804706,45.8741775 L44.8220217,46.0349428 L44.6644995,46.1957082 L44.5074406,46.3569368 L44.3513083,46.5186287 L44.1951759,46.680784 L44.0395069,46.8438658 L43.8843012,47.0069476 L43.7295588,47.1704927 L43.5752797,47.3345012 L43.4219272,47.4989729 L43.2685746,47.6639079 L43.1161487,47.8293063 L42.9637228,47.9956312 L42.8122235,48.1619561 L42.6611875,48.3287444 L42.5101515,48.4959959 L42.3600421,48.6637108 L42.2103959,48.8318889 L42.0612131,49.0005303 L41.9124936,49.1696351 L41.7642374,49.3392031 L41.6164445,49.5092344 L41.4691149,49.6797291 L41.3227119,49.8502237 L41.1763089,50.021645 L41.0308325,50.1935295 L40.8858194,50.3654141 L40.7408063,50.5382252 L40.5967198,50.7114996 L40.4530966,50.8847741 L40.3099367,51.0585118 L40.1672401,51.2331762 L40.0254701,51.4078405 L39.8837001,51.5829682 L39.7428567,51.7585591 L39.6020133,51.9346134 L39.4620965,52.1111309 L39.322643,52.2881118 L39.1836528,52.4655559 L39.0451259,52.6434634 L38.9075256,52.8213708 L38.7699253,53.0002049 L38.6332516,53.1790389 L38.4970412,53.3583363 L38.3608308,53.5380969 L38.2260103,53.7183209 L38.0911898,53.8994714 L37.9568326,54.0801587 L37.8234021,54.2617725 L37.6899715,54.4438497 L37.5574675,54.6259269 L37.4254268,54.8089306 L37.2938494,54.9919344 L37.1627353,55.1754014 L37.0325478,55.3593318 L36.9028237,55.5437255 L36.7735628,55.7281191 L36.6447652,55.9134394 L36.5164309,56.0987596 L36.3885599,56.2850065 L36.2616156,56.4712534 L36.1351345,56.6579635 L36.0086534,56.845137 L35.8835622,57.0323105 L35.758471,57.2204105 L35.6343065,57.4085106 L35.5101419,57.597074 L35.3869039,57.7861006 L35.2641292,57.9755906 L35.1422812,58.1655439 L35.0204331,58.3554971 L34.8995116,58.546377 L34.7790535,58.7372569 L34.6590586,58.9286 L34.5399903,59.1204065 L34.4213854,59.312213 L34.3027804,59.504946 L34.1855653,59.6976791 L34.0683503,59.8908755 L33.9520618,60.0845352 L33.8357733,60.2781948 L33.7208748,60.4727811 L33.6059762,60.6673674 L33.4915409,60.862417 L33.3780323,61.0579298 L33.2649869,61.2534427 L33.1528682,61.4498822 L33.0407494,61.6463217 L32.9295573,61.8427611 L32.8188284,62.0401272 L32.7085628,62.2379566 L32.5992239,62.435786 L32.4903482,62.6340787 L32.3819359,62.8328346 L32.2739868,63.0315906 L32.1669644,63.2308099 L32.0604052,63.4304925 L31.9543094,63.6306384 L31.8491401,63.8312475 L31.7444342,64.0318567 L31.6397282,64.2329292 L31.5364122,64.434465 L31.4335594,64.6360008 L31.3307067,64.8379999 L31.2292439,65.0404623 L31.127781,65.2433879 L31.0272448,65.4467769 L30.9271718,65.6501659 L30.8280255,65.8540182 L30.7288792,66.0578705 L30.6306594,66.2626494 L30.5333663,66.4674283 L30.4360731,66.6726705 L30.3397066,66.8779126 L30.2442667,67.0836181 L30.1488267,67.2897869 L30.0543134,67.496419 L29.9602634,67.7030511 L29.8671399,67.9101465 L29.7744798,68.1177052 L29.682283,68.3252639 L29.5910127,68.5332859 L29.4997425,68.7417712 L29.4098622,68.9507198 L29.3199819,69.1596684 L29.2310281,69.3690803 L29.1425377,69.5789555 L29.0549739,69.7888307 L28.9678734,69.9991692 L28.8812361,70.2095076 L28.7955255,70.4207727 L28.7102782,70.6320378 L28.6254942,70.8433029 L28.5416368,71.0550313 L28.4582426,71.2676863 L28.3753118,71.479878 L28.2933076,71.692533 L28.2117667,71.9061146 L28.1311524,72.1192329 L28.0510014,72.3328145 L27.9713137,72.5473227 L27.8925525,72.7613676 L27.8142547,72.9758758 L27.7364202,73.1908474 L27.6595123,73.4062822 L27.5830677,73.621717 L27.5075497,73.8376151 L27.432495,74.0535132 L27.3579036,74.2698746 L27.2842388,74.4866993 L27.2110373,74.7039873 L27.1387624,74.920812 L27.0669508,75.1385633 L26.9956025,75.3563146 L26.9251808,75.5745292 L26.8552224,75.7932071 L26.7861906,76.011885 L26.7176221,76.2310262 L26.6495169,76.4501675 L26.5823383,76.669772 L26.515623,76.8898398 L26.4498343,77.1099076 L26.3845089,77.3304387 L26.3201101,77.5509698 L26.2561746,77.7719642 L26.1927025,77.9934219 L26.1301569,78.2148796 L26.0680746,78.4368007 L26.0069189,78.6587217 L25.9462265,78.881106 L25.8864607,79.1039536 L25.8271582,79.3268012 L25.7683191,79.5501121 L25.7104065,79.7738863 L25.6534205,79.9976606 L25.5968978,80.2214348 L25.5408384,80.4456723 L25.4857057,80.6703731 L25.4310362,80.8955372 L25.3772933,81.1207013 L25.3240137,81.3458655 L25.2711975,81.5714929 L25.2197711,81.7975836 L25.1683447,82.0236743 L25.1178449,82.2502283 L25.0682718,82.4767824 L25.0191619,82.704263 L24.9705153,82.9312803 L24.9227954,83.1587609 L24.876002,83.3867048 L24.8296719,83.6146488 L24.7838052,83.843056 L24.738865,84.0714632 L24.6943881,84.3003337 L24.6508379,84.5296675 L24.6082142,84.7590014 L24.5660539,84.9883352 L24.5243568,85.2185956 L24.4835863,85.4483927 L24.4437425,85.6791165 L24.4043619,85.9093769 L24.3654447,86.1405639 L24.327454,86.3717509 L24.29039,86.602938 L24.2537892,86.8345883 L24.2181151,87.0667019 L24.1829042,87.2988156 L24.1481567,87.5313925 L24.114799,87.7639694 L24.0814414,87.9970096 L24.0494736,88.2300499 L24.0179692,88.4635534 L23.986928,88.6970569 L23.9568135,88.9310238 L23.9271623,89.1649906 L23.8984376,89.3994207 L23.8706396,89.6343142 L23.8433048,89.8692076 L23.8168967,90.104101 L23.7909519,90.3394577 L23.7659336,90.5752778 L23.7413787,90.8110978 L23.7177504,91.0473811 L23.6950486,91.2836645 L23.6728102,91.5204111 L23.6514984,91.7571577 L23.6306498,91.9943677 L23.6107279,92.2315776 L23.5912693,92.4692508 L23.5732006,92.7069241 L23.5551318,92.9450606 L23.5379897,93.1831972 L23.5217742,93.421797 L23.5064853,93.6608601 L23.4916596,93.89946 L23.4777606,94.1389864 L23.4643249,94.3785128 L23.4518158,94.6180393 L23.43977,94.858029 L23.4286508,95.0984821 L23.4184581,95.3389351 L23.4091921,95.5793881 L23.4003894,95.8203045 L23.39205,96.0616841 L23.3851005,96.3030638 L23.3786143,96.5444434 L23.3725914,96.7862863 L23.3674951,97.0285926 L23.3633254,97.2708988 L23.3600823,97.5132051 L23.3573025,97.7559746 L23.3554492,97.9992075 L23.3540593,98.2424403 L23.353596,98.4856731 L23.3540593,98.7293693 L23.3554492,98.9726021 L23.3573025,99.2153717 L23.3600823,99.4581412 L23.3633254,99.7009108 L23.3674951,99.943217 L23.3725914,100.18506 L23.3786143,100.426903 L23.3851005,100.668746 L23.39205,100.910125 L23.4003894,101.151042 L23.4091921,101.391958 L23.4184581,101.632874 L23.4286508,101.873328 L23.43977,102.113317 L23.4518158,102.353307 L23.4643249,102.592833 L23.4777606,102.83236 L23.4916596,103.071886 L23.5064853,103.310949 L23.5217742,103.549549 L23.5379897,103.788149 L23.5551318,104.026286 L23.5727373,104.264422 L23.5912693,104.502095 L23.6107279,104.739769 L23.6306498,104.976979 L23.6514984,105.214189 L23.6728102,105.450935 L23.6950486,105.687682 L23.7177504,105.923965 L23.7413787,106.160248 L23.7659336,106.396068 L23.7909519,106.631889 L23.8168967,106.867245 L23.8433048,107.102139 L23.8706396,107.337032 L23.8984376,107.571926 L23.9271623,107.806356 L23.9568135,108.040323 L23.986928,108.274289 L24.0179692,108.507793 L24.0494736,108.741296 L24.0814414,108.9748 L24.114799,109.207377 L24.1481567,109.440417 L24.1829042,109.672531 L24.2181151,109.904644 L24.2537892,110.136758 L24.29039,110.368408 L24.327454,110.599595 L24.3654447,110.830782 L24.4043619,111.061969 L24.4437425,111.292693 L24.4835863,111.522954 L24.5243568,111.752751 L24.5660539,111.983011 L24.6082142,112.212808 L24.6508379,112.441679 L24.6943881,112.671013 L24.738865,112.899883 L24.7838052,113.12829 L24.8296719,113.356698 L24.876002,113.584641 L24.9227954,113.812585 L24.9705153,114.040066 L25.0191619,114.267547 L25.0682718,114.494564 L25.1178449,114.721118 L25.1683447,114.947672 L25.2197711,115.173763 L25.2711975,115.399853 L25.3240137,115.625481 L25.3772933,115.851108 L25.4310362,116.075809 L25.4857057,116.300973 L25.5408384,116.525674 L25.5968978,116.749912 L25.6534205,116.973686 L25.7104065,117.19746 L25.7683191,117.421234 L25.8271582,117.644545 L25.8864607,117.867393 L25.9462265,118.09024 L26.0069189,118.312625 L26.0680746,118.534546 L26.1301569,118.756467 L26.1927025,118.977924 L26.2561746,119.199382 L26.3201101,119.420376 L26.3845089,119.641371 L26.4498343,119.861902 L26.515623,120.08197 L26.5823383,120.301574 L26.6495169,120.521179 L26.7176221,120.740783 L26.7861906,120.959461 L26.8552224,121.178139 L26.9251808,121.396817 L26.9956025,121.615032 L27.0669508,121.832783 L27.1387624,122.050534 L27.2110373,122.267822 L27.2842388,122.484647 L27.3579036,122.701472 L27.432495,122.917833 L27.5075497,123.133731 L27.5830677,123.349629 L27.6595123,123.565064 L27.7364202,123.780499 L27.8142547,123.99547 L27.8925525,124.209979 L27.9713137,124.424487 L28.0510014,124.638532 L28.1311524,124.852113 L28.2117667,125.065232 L28.2933076,125.27835 L28.3757751,125.491468 L28.4582426,125.704123 L28.5416368,125.915852 L28.6254942,126.128043 L28.7102782,126.339772 L28.7955255,126.551037 L28.8812361,126.761839 L28.9678734,126.972177 L29.0549739,127.182516 L29.1425377,127.392854 L29.2310281,127.602266 L29.3199819,127.811678 L29.4098622,128.020627 L29.4997425,128.229575 L29.5910127,128.43806 L29.682283,128.646082 L29.7744798,128.853641 L29.8671399,129.0612 L29.9602634,129.268295 L30.0543134,129.474927 L30.1488267,129.681559 L30.2438034,129.887728 L30.3397066,130.093434 L30.4360731,130.299139 L30.5333663,130.503918 L30.6306594,130.70916 L30.7288792,130.913476 L30.8275622,131.117328 L30.9271718,131.32118 L31.0272448,131.525033 L31.127781,131.727958 L31.2292439,131.930884 L31.33117,132.133346 L31.4335594,132.335345 L31.5364122,132.537345 L31.6397282,132.738417 L31.7439709,132.93949 L31.8491401,133.140562 L31.9543094,133.340708 L32.0604052,133.540854 L32.1669644,133.740536 L32.2739868,133.939756 L32.3819359,134.138512 L32.4903482,134.337731 L32.5992239,134.53556 L32.7085628,134.733853 L32.8188284,134.931219 L32.9295573,135.128585 L33.0407494,135.325488 L33.1528682,135.521927 L33.2649869,135.717904 L33.3780323,135.91388 L33.4915409,136.108929 L33.6059762,136.303979 L33.7208748,136.499028 L33.8362366,136.693151 L33.9520618,136.886811 L34.0683503,137.080934 L34.1855653,137.273667 L34.3027804,137.4664 L34.4209221,137.659133 L34.5399903,137.851403 L34.6590586,138.042746 L34.7790535,138.234089 L34.8995116,138.425433 L35.0204331,138.615849 L35.1422812,138.805802 L35.2641292,138.995756 L35.3869039,139.185246 L35.5101419,139.374272 L35.6343065,139.562836 L35.758471,139.750936 L35.8830989,139.939036 L36.0086534,140.126673 L36.1346712,140.313383 L36.2616156,140.500556 L36.3885599,140.68634 L36.5164309,140.872123 L36.6447652,141.057907 L36.7735628,141.243227 L36.9028237,141.428084 L37.0325478,141.612014 L37.1631986,141.795945 L37.2938494,141.979875 L37.4254268,142.162416 L37.5574675,142.345419 L37.6899715,142.52796 L37.8234021,142.709574 L37.9568326,142.891188 L38.0911898,143.072338 L38.2260103,143.253025 L38.3608308,143.432786 L38.4965779,143.61301 L38.6332516,143.792771 L38.7699253,143.971605 L38.9075256,144.149975 L39.0451259,144.328346 L39.1836528,144.50579 L39.322643,144.683235 L39.4620965,144.860215 L39.6020133,145.036733 L39.7428567,145.212787 L39.8837001,145.388378 L40.0254701,145.563506 L40.1677034,145.738633 L40.3099367,145.912834 L40.4530966,146.086572 L40.5967198,146.26031 L40.7408063,146.433121 L40.8858194,146.605932 L41.0308325,146.77828 L41.1763089,146.949238 L41.3227119,147.121123 L41.4695782,147.29208 L41.6164445,147.462112 L41.7642374,147.632143 L41.9124936,147.801711 L42.0612131,147.970816 L42.2103959,148.139457 L42.3600421,148.307636 L42.5101515,148.47535 L42.6611875,148.642602 L42.8122235,148.80939 L42.9637228,148.976178 L43.1161487,149.14204 L43.2685746,149.307438 L43.4219272,149.472373 L43.5752797,149.636845 L43.7295588,149.800854 L43.8843012,149.964399 L44.0395069,150.127944 L44.1947126,150.290562 L44.3513083,150.452718 L44.5079039,150.614873 L44.6644995,150.775638 L44.8220217,150.936867 L44.9800073,151.097169 L45.1389194,151.257007 L45.2978315,151.416383 L45.4567436,151.575295 L45.6165824,151.733744 L45.7773477,151.891729 L45.938113,152.049252 L46.0993416,152.206311 L46.2610336,152.362906 L46.4231888,152.519038 L46.5862706,152.674707 L46.7493525,152.829913 L46.9128976,152.984192 L47.0773693,153.138471 L47.241841,153.292287 L47.4067761,153.445176 L47.5721744,153.598066 L47.738036,153.750028 L47.904361,153.901991 L48.0711492,154.053027 L48.2384008,154.2036 L48.4065789,154.354172 L48.574757,154.503818 L48.7429352,154.653001 L48.9120399,154.801257 L49.0816079,154.949977 L49.2516393,155.097307 L49.4221339,155.244636 L49.5930919,155.391503 L49.7645131,155.537906 L49.9363976,155.683382 L50.1082822,155.828395 L50.28063,155.972945 L50.4534412,156.117031 L50.6276422,156.260655 L50.80138,156.404278 L50.975581,156.546511 L51.1507087,156.688744 L51.3258363,156.830514 L51.500964,156.971358 L51.6774815,157.111738 L51.8539991,157.251655 L52.0305166,157.391108 L52.2084241,157.530562 L52.3858682,157.668625 L52.5637757,157.806689 L52.7426097,157.944289 L52.9214438,158.080963 L53.1007411,158.217173 L53.2809651,158.35292 L53.461189,158.488204 L53.6418763,158.623025 L53.8230268,158.757382 L54.0041774,158.890812 L54.1862545,159.024243 L54.368795,159.156747 L54.5513355,159.288324 L54.7343392,159.420365 L54.9178063,159.551016 L55.1017366,159.681667 L55.2861303,159.811391 L55.4709873,159.940652 L55.6558442,160.069449 L55.8416278,160.197783 L56.0274113,160.325191 L56.2136582,160.452599 L56.4003684,160.57908 L56.5875418,160.705098 L56.7751786,160.830652 L56.9632787,160.955743 L57.1513787,161.079908 L57.3394788,161.203609 L57.5289688,161.326847 L57.7184587,161.450085 L57.9079487,161.571933 L58.097902,161.693318 L58.2892451,161.814703 L58.480125,161.935161 L58.6710049,162.054693 L58.8628113,162.173761 L59.0550811,162.292829 L59.2478142,162.410971 L59.4405473,162.528649 L59.6332803,162.645401 L59.82694,162.762153 L60.021063,162.877978 L60.2147226,162.99334 L60.4097722,163.108238 L60.6052851,163.222673 L60.8003347,163.336182 L60.9958475,163.448764 L61.192287,163.561346 L61.3887265,163.673002 L61.5860926,163.784657 L61.7829954,163.895386 L61.9803614,164.005188 L62.1781908,164.114991 L62.3764835,164.223403 L62.5752395,164.332279 L62.7744588,164.439764 L62.973678,164.54725 L63.1733606,164.653809 L63.3730432,164.759442 L63.5736524,164.865074 L63.7747249,164.96978 L63.9753341,165.074023 L64.1768698,165.177802 L64.3788689,165.280655 L64.5804047,165.383044 L64.7833304,165.484971 L64.9862561,165.58597 L65.1891818,165.686506 L65.3930341,165.787043 L65.5968863,165.886189 L65.8007386,165.984872 L66.0050542,166.083092 L66.2093698,166.180848 L66.4150753,166.278141 L66.6207808,166.374508 L66.8264863,166.469948 L67.0326551,166.564924 L67.2388239,166.659901 L67.4454559,166.753488 L67.6525513,166.847074 L67.8605733,166.939735 L68.0676687,167.031468 L68.276154,167.123202 L68.4846393,167.214009 L68.6931246,167.304352 L68.9020732,167.393769 L69.1119484,167.483186 L69.3213603,167.571213 L69.5312355,167.658777 L69.741574,167.746341 L69.9523758,167.832978 L70.1631776,167.918689 L70.3744427,168.003936 L70.5861711,168.08872 L70.7978995,168.172578 L71.0100912,168.255972 L71.2222829,168.338439 L71.4349379,168.420443 L71.6485195,168.501984 L71.8616378,168.583062 L72.0752194,168.66275 L72.2897276,168.742901 L72.5042358,168.821662 L72.7182807,168.89996 L72.9332522,168.977331 L73.148687,169.054239 L73.3641218,169.130683 L73.5800199,169.206665 L73.7963813,169.281719 L74.0122794,169.355848 L74.2295674,169.429976 L74.4463921,169.502714 L74.6632168,169.575452 L74.8814314,169.647264 L75.0991827,169.718149 L75.3169341,169.78857 L75.535612,169.858529 L75.7547532,169.928024 L75.9734311,169.996592 L76.1925723,170.064234 L76.4126401,170.131413 L76.6322446,170.198128 L76.8523124,170.263917 L77.0728435,170.329242 L77.2938379,170.394104 L77.5148324,170.45804 L77.7358268,170.521049 L77.9577478,170.584058 L78.1792055,170.645677 L78.4015898,170.707296 L78.6239741,170.767525 L78.8468217,170.827754 L79.0696693,170.887056 L79.2929803,170.945432 L79.5162912,171.003345 L79.7400654,171.060794 L79.9643029,171.117317 L80.1885404,171.173376 L80.4132412,171.228509 L80.6384054,171.283178 L80.8631062,171.336921 L81.0882703,171.390201 L81.314361,171.442554 L81.5399884,171.494443 L81.7660792,171.545406 L81.9926332,171.595906 L82.2196505,171.645943 L82.4466678,171.695053 L82.6736851,171.743236 L82.9016291,171.790956 L83.1291097,171.838212 L83.3570536,171.884542 L83.5854608,171.930409 L83.813868,171.974886 L84.0432019,172.019363 L84.2720724,172.062913 L84.5014062,172.106 L84.7312033,172.148161 L84.9610005,172.189394 L85.1912609,172.230165 L85.4215213,172.270472 L85.6517817,172.309852 L85.8829688,172.348306 L86.1141558,172.386297 L86.3453428,172.423824 L86.5774564,172.460425 L86.8091068,172.496099 L87.0412204,172.53131 L87.2742606,172.565594 L87.5063742,172.599415 L87.7394145,172.63231 L87.9724547,172.664741 L88.2059582,172.696245 L88.4399251,172.727286 L88.6738919,172.757401 L88.9078587,172.786589 L89.1422889,172.815313 L89.376719,172.843575 L89.6116124,172.870446 L89.8469692,172.897318 L90.0823259,172.923263 L90.3176826,172.948281 L90.5539659,172.972372 L90.7902493,172.996001 L91.0260693,173.019166 L91.2628159,173.041404 L91.5000259,173.062716 L91.7367725,173.083565 L91.9739825,173.103487 L92.2116557,173.122482 L92.4497922,173.141014 L92.6874655,173.158619 L92.9260653,173.175761 L93.1646651,173.191977 L93.403265,173.207729 L93.6423281,173.222555 L93.8813912,173.236454 L94.121381,173.24989 L94.3609074,173.262399 L94.6004339,173.273981 L94.8408869,173.2851 L95.0818032,173.295293 L95.321793,173.305022 L95.5627093,173.313825 L95.804089,173.321701 L96.0454686,173.329114 L96.2873115,173.3356 L96.5291545,173.34116 L96.7709974,173.346256 L97.0133037,173.350426 L97.2560732,173.354132 L97.4988427,173.356912 L97.7416123,173.358765 L97.9848451,173.359692 L98.2285413,173.360155 L98.4717741,173.359692 L98.715007,173.358765 L98.9577765,173.356912 L99.200546,173.354132 L99.4437789,173.350426 L99.6860851,173.346256 L99.9274648,173.34116 L100.169308,173.3356 L100.411151,173.329114 L100.65253,173.321701 L100.89391,173.313825 L101.134826,173.305022 L101.375279,173.295293 L101.615732,173.2851 L101.856185,173.273981 L102.095712,173.262399 L102.335238,173.24989 L102.575228,173.236454 L102.814291,173.222555 L103.053354,173.207729 L103.292417,173.191977 L103.531017,173.175761 L103.769154,173.158619 L104.006827,173.141014 L104.244964,173.122482 L104.482637,173.103487 L104.719847,173.083565 L104.956593,173.062716 L105.193803,173.041404 L105.43055,173.019166 L105.66637,172.996001 L105.902653,172.972372 L106.138937,172.948281 L106.374293,172.923263 L106.60965,172.897318 L106.845007,172.870446 L107.080364,172.843575 L107.31433,172.815313 L107.548761,172.786589 L107.782727,172.757401 L108.016694,172.727286 L108.250661,172.696245 L108.484165,172.664741 L108.717205,172.63231 L108.950245,172.599415 L109.182359,172.565594 L109.415399,172.53131 L109.647512,172.496099 L109.879163,172.460425 L110.111276,172.423824 L110.342463,172.386297 L110.57365,172.348306 L110.804838,172.309852 L111.035098,172.270472 L111.265358,172.230165 L111.495619,172.189394 L111.725416,172.148161 L111.955213,172.106 L112.184547,172.062913 L112.413417,172.019363 L112.642751,171.974886 L112.871158,171.930409 L113.099566,171.884542 L113.32751,171.838212 L113.55499,171.790956 L113.782934,171.743236 L114.009951,171.695053 L114.236969,171.645943 L114.463986,171.595906 L114.520709,171.583263 Z" id="Shape"></path>
            </g>
            <path d="M26.2749183,146.497958 C85.5571895,185.732435 118.14665,136.158497 81.8378268,107.706699 C45.5290033,79.2553105 88.4354575,27.9938725 138.221814,73.8995098" id="svg_29" stroke="#000000" stroke-width="20.4248366"></path>
            <g id="baseline-pause_circle_filled-24px" transform="translate(117.647059, 111.764706)" fill="#000000" fill-rule="nonzero">
                <path d="M39.624183,0.816993464 C17.9771242,0.816993464 0.408496732,18.3856209 0.408496732,40.0326797 C0.408496732,61.6797386 17.9771242,79.248366 39.624183,79.248366 C61.2712418,79.248366 78.8398693,61.6797386 78.8398693,40.0326797 C78.8398693,18.3856209 61.2712418,0.816993464 39.624183,0.816993464 Z M35.7026144,55.7189542 L27.8594771,55.7189542 L27.8594771,24.3464052 L35.7026144,24.3464052 L35.7026144,55.7189542 Z M51.3888889,55.7189542 L43.5457516,55.7189542 L43.5457516,24.3464052 L51.3888889,24.3464052 L51.3888889,55.7189542 Z" id="Shape"></path>
            </g>
        </g>
    </g>
</svg>