<?xml version="1.0" encoding="UTF-8" standalone="no"?>
<!DOCTYPE svg PUBLIC "-//W3C//DTD SVG 1.1//EN" "http://www.w3.org/Graphics/SVG/1.1/DTD/svg11.dtd">
<svg width="100%" height="100%" viewBox="0 0 480 480" version="1.1" xmlns="http://www.w3.org/2000/svg" xmlns:xlink="http://www.w3.org/1999/xlink" xml:space="preserve" xmlns:serif="http://www.serif.com/" style="fill-rule:evenodd;clip-rule:evenodd;">
    <g id="svg_32">
        <g id="svg_28" transform="matrix(1.13416,0,0,1.13416,-33.3526,-31.7144)">
            <path d="M241.703,27.964L242.386,27.967L243.069,27.973L243.752,27.98L244.434,27.99L245.115,28.002L245.796,28.016L246.477,28.032L247.157,28.05L247.836,28.071L248.515,28.094L249.193,28.118L249.871,28.145L250.548,28.174L251.225,28.205L251.901,28.239L252.577,28.274L253.252,28.311L253.926,28.351L254.6,28.393L255.273,28.436L255.946,28.482L256.618,28.53L257.29,28.58L257.961,28.633L258.631,28.687L259.301,28.743L259.971,28.802L260.639,28.862L261.307,28.925L261.975,28.99L262.642,29.056L263.308,29.125L263.974,29.196L264.639,29.269L265.303,29.344L265.967,29.421L266.63,29.5L267.293,29.581L267.954,29.664L268.616,29.75L269.276,29.837L269.936,29.926L270.596,30.018L271.254,30.111L271.913,30.206L272.57,30.304L273.227,30.403L273.883,30.504L274.538,30.608L275.193,30.713L275.847,30.821L276.501,30.93L277.153,31.042L277.805,31.155L278.457,31.271L279.108,31.388L279.758,31.507L280.407,31.629L281.056,31.752L281.703,31.878L282.351,32.005L282.997,32.134L283.643,32.265L284.288,32.399L284.933,32.534L285.576,32.671L286.219,32.81L286.861,32.951L287.503,33.094L288.144,33.239L288.784,33.386L289.423,33.534L290.062,33.685L290.7,33.838L291.337,33.992L291.973,34.149L292.608,34.307L293.243,34.468L293.877,34.63L294.511,34.794L295.143,34.96L295.775,35.128L296.406,35.298L297.036,35.47L297.666,35.643L298.294,35.819L298.922,35.996L299.549,36.176L300.175,36.357L300.801,36.54L301.425,36.725L302.049,36.912L302.672,37.1L303.295,37.291L303.916,37.483L304.537,37.678L305.157,37.874L305.776,38.072L306.394,38.271L307.011,38.473L307.628,38.677L308.243,38.882L308.858,39.089L309.472,39.298L310.085,39.509L310.698,39.722L311.309,39.936L311.92,40.152L312.529,40.371L313.138,40.591L313.746,40.812L314.353,41.036L314.96,41.261L315.565,41.488L316.17,41.717L316.773,41.948L317.376,42.18L317.978,42.415L318.579,42.651L319.179,42.889L319.778,43.128L320.376,43.37L320.974,43.613L321.57,43.858L322.166,44.105L322.76,44.353L323.354,44.603L323.947,44.855L324.539,45.109L325.13,45.365L325.72,45.622L326.309,45.881L326.897,46.142L327.484,46.404L328.071,46.668L328.656,46.934L329.24,47.202L329.824,47.471L330.406,47.742L330.988,48.015L331.568,48.289L332.148,48.566L332.727,48.843L333.304,49.123L333.881,49.404L334.457,49.687L335.031,49.972L335.605,50.258L336.178,50.546L336.75,50.836L337.32,51.128L337.89,51.421L338.459,51.716L339.027,52.012L339.593,52.31L340.159,52.61L340.724,52.911L341.288,53.214L341.85,53.519L342.412,53.825L342.973,54.133L343.532,54.443L344.091,54.754L344.648,55.067L345.205,55.382L345.76,55.698L346.315,56.016L346.868,56.335L347.42,56.657L347.972,56.979L348.522,57.304L349.071,57.629L349.619,57.957L350.166,58.286L350.712,58.617L351.257,58.949L351.8,59.283L352.343,59.619L352.885,59.956L353.425,60.294L353.965,60.635L354.503,60.976L355.04,61.32L355.576,61.665L356.111,62.011L356.645,62.36L357.178,62.709L357.71,63.06L358.24,63.413L358.77,63.768L359.298,64.123L359.825,64.481L360.351,64.84L360.876,65.2L361.4,65.562L361.922,65.926L362.444,66.291L362.964,66.658L363.484,67.026L364.002,67.396L364.518,67.767L365.034,68.139L365.549,68.514L366.062,68.889L366.574,69.267L367.085,69.645L367.595,70.026L368.104,70.407L368.611,70.791L369.118,71.175L369.623,71.561L370.127,71.949L370.63,72.338L371.131,72.729L371.631,73.121L372.131,73.514L372.628,73.909L373.125,74.306L373.621,74.704L374.115,75.103L374.608,75.504L375.1,75.906L375.59,76.31L376.08,76.715L376.568,77.122L377.055,77.53L377.54,77.939L378.025,78.35L378.508,78.762L378.99,79.176L379.47,79.591L379.95,80.008L380.428,80.426L380.905,80.845L381.38,81.266L381.855,81.688L382.328,82.112L382.8,82.537L383.27,82.963L383.739,83.391L384.207,83.82L384.674,84.251L385.139,84.682L385.603,85.116L386.066,85.55L386.527,85.986L386.987,86.424L387.446,86.863L387.904,87.303L388.36,87.744L388.815,88.187L389.268,88.631L389.72,89.077L390.171,89.524L390.621,89.972L391.069,90.421L391.516,90.872L391.961,91.324L392.406,91.778L392.848,92.233L393.29,92.689L393.73,93.146L394.169,93.605L394.606,94.065L395.042,94.527L395.477,94.99L395.91,95.454L396.342,95.919L396.773,96.385L397.202,96.853L397.63,97.323L398.056,97.793L398.481,98.265L398.904,98.738L399.327,99.212L399.747,99.688L400.167,100.165L400.585,100.643L401.001,101.122L401.417,101.603L401.83,102.085L402.243,102.568L402.653,103.052L403.063,103.538L403.471,104.025L403.878,104.513L404.283,105.002L404.686,105.493L405.089,105.985L405.489,106.478L405.889,106.972L406.287,107.467L406.683,107.964L407.078,108.462L407.472,108.961L407.864,109.462L408.254,109.963L408.644,110.466L409.031,110.97L409.417,111.475L409.802,111.981L410.185,112.489L410.567,112.997L410.947,113.507L411.326,114.018L411.703,114.531L412.079,115.044L412.453,115.558L412.826,116.074L413.197,116.591L413.567,117.109L413.935,117.628L414.301,118.149L414.667,118.67L415.03,119.193L415.392,119.717L415.753,120.241L416.112,120.767L416.469,121.295L416.825,121.823L417.179,122.352L417.532,122.883L417.883,123.415L418.233,123.947L418.581,124.481L418.928,125.016L419.273,125.552L419.616,126.09L419.958,126.628L420.298,127.167L420.637,127.708L420.974,128.249L421.31,128.792L421.643,129.336L421.976,129.881L422.307,130.427L422.636,130.974L422.963,131.522L423.289,132.071L423.613,132.621L423.936,133.172L424.257,133.725L424.577,134.278L424.894,134.832L425.211,135.388L425.525,135.944L425.838,136.502L426.149,137.06L426.459,137.62L426.767,138.181L427.074,138.742L427.378,139.305L427.681,139.869L427.983,140.433L428.283,140.999L428.581,141.566L428.877,142.134L429.172,142.702L429.465,143.272L429.756,143.843L430.046,144.415L430.334,144.988L430.621,145.561L430.905,146.136L431.188,146.712L431.47,147.288L431.749,147.866L432.027,148.445L432.303,149.024L432.578,149.605L432.851,150.186L433.122,150.769L433.391,151.352L433.659,151.937L433.924,152.522L434.189,153.108L434.451,153.696L434.712,154.284L434.971,154.873L435.228,155.463L435.483,156.054L435.737,156.646L435.989,157.238L436.239,157.832L436.488,158.427L436.735,159.022L436.98,159.619L437.223,160.216L437.464,160.815L437.704,161.414L437.942,162.014L438.178,162.615L438.412,163.217L438.645,163.819L438.875,164.423L439.104,165.028L439.331,165.633L439.557,166.239L439.78,166.846L440.002,167.454L440.222,168.063L440.44,168.673L440.656,169.284L440.871,169.895L441.084,170.507L441.294,171.121L441.503,171.735L441.711,172.349L441.916,172.965L442.119,173.582L442.321,174.199L442.521,174.817L442.719,175.436L442.915,176.056L443.109,176.676L443.302,177.298L443.492,177.92L443.681,178.543L443.868,179.167L444.053,179.792L444.236,180.417L444.417,181.044L444.596,181.671L444.774,182.298L444.949,182.927L445.123,183.557L445.295,184.187L445.465,184.818L445.633,185.449L445.799,186.082L445.963,186.715L446.125,187.349L446.285,187.984L446.444,188.62L446.6,189.256L446.755,189.893L446.907,190.531L447.058,191.17L447.207,191.809L447.354,192.449L447.499,193.09L447.642,193.731L447.783,194.373L447.922,195.016L448.059,195.66L448.194,196.304L448.327,196.95L448.459,197.595L448.588,198.242L448.715,198.889L448.84,199.537L448.964,200.186L449.085,200.835L449.205,201.485L449.322,202.136L449.437,202.787L449.551,203.439L449.662,204.092L449.772,204.745L449.879,205.4L449.985,206.054L450.088,206.71L450.19,207.366L450.289,208.023L450.386,208.68L450.482,209.338L450.575,209.997L450.666,210.656L450.756,211.316L450.843,211.977L450.928,212.638L451.011,213.3L451.093,213.963L451.172,214.626L451.249,215.29L451.324,215.954L451.397,216.619L451.467,217.285L451.536,217.951L451.603,218.618L451.668,219.285L451.73,219.953L451.791,220.622L451.849,221.291L451.906,221.961L451.96,222.632L452.012,223.303L452.062,223.974L452.11,224.646L452.156,225.319L452.2,225.993L452.242,226.666L452.281,227.341L452.319,228.016L452.354,228.691L452.387,229.368L452.418,230.044L452.447,230.722L452.474,231.399L452.499,232.078L452.522,232.757L452.542,233.436L452.56,234.116L452.577,234.796L452.591,235.477L452.603,236.159L452.612,236.841L452.62,237.523L452.625,238.206L452.629,238.89L452.63,239.574L452.629,240.258L452.625,240.942L452.62,241.625L452.612,242.307L452.603,242.989L452.591,243.671L452.577,244.352L452.56,245.032L452.542,245.712L452.522,246.392L452.499,247.071L452.474,247.749L452.447,248.427L452.418,249.104L452.387,249.781L452.354,250.457L452.319,251.132L452.281,251.807L452.242,252.482L452.2,253.156L452.156,253.829L452.11,254.502L452.062,255.174L452.012,255.846L451.96,256.517L451.906,257.187L451.849,257.857L451.791,258.526L451.73,259.195L451.668,259.863L451.603,260.53L451.536,261.197L451.467,261.863L451.397,262.529L451.324,263.194L451.249,263.859L451.172,264.522L451.093,265.186L451.011,265.848L450.928,266.51L450.843,267.171L450.756,267.832L450.666,268.492L450.575,269.151L450.482,269.81L450.386,270.468L450.289,271.126L450.19,271.782L450.088,272.438L449.985,273.094L449.879,273.749L449.772,274.403L449.662,275.056L449.551,275.709L449.437,276.361L449.322,277.012L449.205,277.663L449.085,278.313L448.964,278.962L448.84,279.611L448.715,280.259L448.588,280.906L448.459,281.553L448.327,282.199L448.194,282.844L448.059,283.488L447.922,284.132L447.783,284.775L447.642,285.417L447.499,286.059L447.354,286.699L447.207,287.339L447.058,287.979L446.907,288.617L446.755,289.255L446.6,289.892L446.444,290.528L446.285,291.164L446.125,291.799L445.963,292.433L445.799,293.066L445.633,293.699L445.465,294.33L445.295,294.961L445.123,295.592L444.949,296.221L444.774,296.85L444.596,297.478L444.417,298.105L444.236,298.731L444.053,299.356L443.868,299.981L443.681,300.605L443.492,301.228L443.302,301.85L443.109,302.472L442.915,303.092L442.719,303.712L442.521,304.331L442.321,304.949L442.119,305.567L441.916,306.183L441.711,306.799L441.503,307.414L441.294,308.028L441.084,308.641L440.871,309.253L440.656,309.865L440.44,310.475L440.222,311.085L440.002,311.694L439.78,312.302L439.557,312.909L439.331,313.515L439.104,314.121L438.875,314.725L438.645,315.329L438.412,315.931L438.178,316.533L437.942,317.134L437.704,317.734L437.464,318.334L437.223,318.932L436.98,319.529L436.735,320.126L436.488,320.721L436.239,321.316L435.989,321.91L435.737,322.502L435.483,323.094L435.228,323.685L434.971,324.275L434.712,324.864L434.451,325.453L434.189,326.04L433.924,326.626L433.659,327.212L433.391,327.796L433.122,328.379L432.851,328.962L432.578,329.543L432.303,330.124L432.027,330.704L431.749,331.282L431.47,331.86L431.188,332.436L430.905,333.012L430.621,333.587L430.334,334.161L430.046,334.733L429.756,335.305L429.465,335.876L429.172,336.446L428.877,337.014L428.581,337.582L428.283,338.149L427.983,338.715L427.681,339.279L427.378,339.843L427.074,340.406L426.767,340.968L426.459,341.528L426.149,342.088L425.838,342.646L425.525,343.204L425.211,343.76L424.894,344.316L424.577,344.87L424.257,345.424L423.936,345.976L423.613,346.527L423.289,347.077L422.963,347.626L422.636,348.174L422.307,348.721L421.976,349.267L421.643,349.812L421.31,350.356L420.974,350.899L420.637,351.44L420.298,351.981L419.958,352.52L419.616,353.058L419.273,353.596L418.928,354.132L418.581,354.667L418.233,355.201L417.883,355.734L417.532,356.265L417.179,356.796L416.825,357.325L416.469,357.853L416.112,358.381L415.753,358.907L415.392,359.432L415.03,359.955L414.667,360.478L414.301,361L413.935,361.52L413.567,362.039L413.197,362.557L412.826,363.074L412.453,363.59L412.079,364.104L411.703,364.618L411.326,365.13L410.947,365.641L410.567,366.151L410.185,366.659L409.802,367.167L409.417,367.673L409.031,368.178L408.644,368.682L408.254,369.185L407.864,369.687L407.472,370.187L407.078,370.686L406.683,371.184L406.287,371.681L405.889,372.176L405.489,372.67L405.089,373.164L404.686,373.655L404.283,374.146L403.878,374.635L403.471,375.123L403.063,375.61L402.653,376.096L402.243,376.58L401.83,377.063L401.417,377.545L401.001,378.026L400.585,378.505L400.167,378.984L399.747,379.46L399.327,379.936L398.904,380.41L398.481,380.883L398.056,381.355L397.63,381.826L397.202,382.295L396.773,382.763L396.342,383.229L395.91,383.695L395.477,384.159L395.042,384.621L394.606,385.083L394.169,385.543L393.73,386.002L393.29,386.459L392.848,386.915L392.406,387.37L391.961,387.824L391.516,388.276L391.069,388.727L390.621,389.176L390.171,389.625L389.72,390.071L389.268,390.517L388.815,390.961L388.36,391.404L387.904,391.845L387.446,392.286L386.987,392.724L386.527,393.162L386.066,393.598L385.603,394.032L385.139,394.466L384.674,394.898L384.207,395.328L383.739,395.757L383.27,396.185L382.8,396.611L382.328,397.036L381.855,397.46L381.38,397.882L380.905,398.303L380.428,398.722L379.95,399.14L379.47,399.557L378.99,399.972L378.508,400.386L378.025,400.798L377.54,401.209L377.055,401.618L376.568,402.026L376.08,402.433L375.59,402.838L375.1,403.242L374.608,403.644L374.115,404.045L373.621,404.444L373.125,404.842L372.628,405.239L372.131,405.634L371.631,406.027L371.131,406.419L370.63,406.81L370.127,407.199L369.623,407.587L369.118,407.973L368.611,408.358L368.104,408.741L367.595,409.123L367.085,409.503L366.574,409.882L366.062,410.259L365.549,410.634L365.034,411.009L364.518,411.381L364.002,411.753L363.484,412.122L362.964,412.49L362.444,412.857L361.922,413.222L361.4,413.586L360.876,413.948L360.351,414.308L359.825,414.667L359.298,415.025L358.77,415.381L358.24,415.735L357.71,416.088L357.178,416.439L356.645,416.789L356.111,417.137L355.576,417.483L355.04,417.828L354.503,418.172L353.965,418.514L353.425,418.854L352.885,419.193L352.343,419.53L351.8,419.865L351.257,420.199L350.712,420.531L350.166,420.862L349.619,421.191L349.071,421.519L348.522,421.845L347.972,422.169L347.42,422.492L346.868,422.813L346.315,423.132L345.76,423.45L345.205,423.766L344.648,424.081L344.091,424.394L343.532,424.705L342.973,425.015L342.412,425.323L341.85,425.629L341.288,425.934L340.724,426.237L340.159,426.538L339.593,426.838L339.027,427.136L338.459,427.433L337.89,427.727L337.32,428.021L336.75,428.312L336.178,428.602L335.605,428.89L335.031,429.176L334.457,429.461L333.881,429.744L333.304,430.025L332.727,430.305L332.148,430.583L331.568,430.859L330.988,431.133L330.406,431.406L329.824,431.677L329.24,431.946L328.656,432.214L328.071,432.48L327.484,432.744L326.897,433.007L326.309,433.267L325.72,433.526L325.13,433.784L324.539,434.039L323.947,434.293L323.354,434.545L322.76,434.795L322.166,435.043L321.57,435.29L320.974,435.535L320.376,435.778L319.778,436.02L319.179,436.259L318.579,436.497L317.978,436.733L317.376,436.968L316.773,437.2L316.17,437.431L315.565,437.66L314.96,437.887L314.353,438.112L313.746,438.336L313.138,438.558L312.529,438.778L311.92,438.996L311.309,439.212L310.698,439.427L310.085,439.639L309.472,439.85L308.858,440.059L308.243,440.266L307.628,440.472L307.011,440.675L306.394,440.877L305.776,441.077L305.157,441.274L304.537,441.471L303.916,441.665L303.295,441.857L302.672,442.048L302.049,442.237L301.425,442.423L300.801,442.608L300.175,442.791L299.549,442.973L298.922,443.152L298.294,443.329L297.666,443.505L297.036,443.678L296.406,443.85L295.775,444.02L295.143,444.188L294.511,444.354L293.877,444.518L293.243,444.681L292.608,444.841L291.973,444.999L291.337,445.156L290.7,445.31L290.062,445.463L289.423,445.614L288.784,445.762L288.144,445.909L287.503,446.054L286.861,446.197L286.219,446.338L285.576,446.477L284.933,446.614L284.288,446.75L283.643,446.883L282.997,447.014L282.351,447.143L281.703,447.271L281.056,447.396L280.407,447.519L279.758,447.641L279.108,447.76L278.457,447.878L277.805,447.993L277.153,448.106L276.501,448.218L275.847,448.327L275.193,448.435L274.538,448.54L273.883,448.644L273.227,448.745L272.57,448.845L271.913,448.942L271.254,449.037L270.596,449.131L269.936,449.222L269.276,449.311L268.616,449.399L267.954,449.484L267.293,449.567L266.63,449.648L265.967,449.727L265.303,449.804L264.639,449.879L263.974,449.952L263.308,450.023L262.642,450.092L261.975,450.159L261.307,450.223L260.639,450.286L259.971,450.346L259.301,450.405L258.631,450.461L257.961,450.515L257.29,450.568L256.618,450.618L255.946,450.666L255.273,450.712L254.6,450.755L253.926,450.797L253.252,450.837L252.577,450.874L251.901,450.91L251.225,450.943L250.548,450.974L249.871,451.003L249.193,451.03L248.515,451.055L247.836,451.077L247.157,451.098L246.477,451.116L245.796,451.132L245.115,451.146L244.434,451.158L243.752,451.168L243.069,451.175L242.386,451.181L241.703,451.184L241.019,451.185L240.334,451.184L239.651,451.181L238.968,451.175L238.285,451.168L237.603,451.158L236.922,451.146L236.241,451.132L235.56,451.116L234.88,451.098L234.201,451.077L233.522,451.055L232.844,451.03L232.166,451.003L231.489,450.974L230.812,450.943L230.136,450.91L229.46,450.874L228.785,450.837L228.111,450.797L227.437,450.755L226.764,450.712L226.091,450.666L225.419,450.618L224.747,450.568L224.076,450.515L223.406,450.461L222.736,450.405L222.066,450.346L221.398,450.286L220.73,450.223L220.062,450.159L219.395,450.092L218.729,450.023L218.064,449.952L217.398,449.879L216.734,449.804L216.07,449.727L215.407,449.648L214.745,449.567L214.083,449.484L213.421,449.399L212.761,449.311L212.101,449.222L211.441,449.131L210.783,449.037L210.124,448.942L209.467,448.845L208.81,448.745L208.154,448.644L207.499,448.54L206.844,448.435L206.19,448.327L205.536,448.218L204.884,448.106L204.232,447.993L203.58,447.878L202.93,447.76L202.279,447.641L201.63,447.519L200.982,447.396L200.334,447.271L199.686,447.143L199.04,447.014L198.394,446.883L197.749,446.75L197.104,446.614L196.461,446.477L195.818,446.338L195.176,446.197L194.534,446.054L193.893,445.909L193.253,445.762L192.614,445.614L191.975,445.463L191.338,445.31L190.7,445.156L190.064,444.999L189.429,444.841L188.794,444.681L188.16,444.518L187.526,444.354L186.894,444.188L186.262,444.02L185.631,443.85L185.001,443.678L184.372,443.505L183.743,443.329L183.115,443.152L182.488,442.973L181.862,442.791L181.236,442.608L180.612,442.423L179.988,442.237L179.365,442.048L178.742,441.857L178.121,441.665L177.5,441.471L176.88,441.274L176.261,441.077L175.643,440.877L175.026,440.675L174.409,440.472L173.794,440.266L173.179,440.059L172.565,439.85L171.952,439.639L171.34,439.427L170.728,439.212L170.117,438.996L169.508,438.778L168.899,438.558L168.291,438.336L167.684,438.112L167.077,437.887L166.472,437.66L165.868,437.431L165.264,437.2L164.661,436.968L164.059,436.733L163.458,436.497L162.858,436.259L162.259,436.02L161.661,435.778L161.063,435.535L160.467,435.29L159.871,435.043L159.277,434.795L158.683,434.545L158.09,434.293L157.498,434.039L156.907,433.784L156.317,433.526L155.728,433.267L155.14,433.007L154.553,432.744L153.966,432.48L153.381,432.214L152.797,431.946L152.213,431.677L151.631,431.406L151.049,431.133L150.469,430.859L149.889,430.583L149.31,430.305L148.733,430.025L148.156,429.744L147.58,429.461L147.006,429.176L146.432,428.89L145.859,428.602L145.287,428.312L144.717,428.021L144.147,427.727L143.578,427.433L143.01,427.136L142.444,426.838L141.878,426.538L141.313,426.237L140.749,425.934L140.187,425.629L139.625,425.323L139.064,425.015L138.505,424.705L137.946,424.394L137.389,424.081L136.832,423.766L136.277,423.45L135.722,423.132L135.169,422.813L134.617,422.492L134.065,422.169L133.515,421.845L132.966,421.519L132.418,421.191L131.871,420.862L131.325,420.531L130.78,420.199L130.237,419.865L129.694,419.53L129.152,419.193L128.612,418.854L128.072,418.514L127.534,418.172L126.997,417.828L126.461,417.483L125.926,417.137L125.392,416.789L124.859,416.439L124.327,416.088L123.797,415.735L123.267,415.381L122.739,415.025L122.212,414.667L121.686,414.308L121.161,413.948L120.637,413.586L120.115,413.222L119.593,412.857L119.073,412.49L118.554,412.122L118.036,411.753L117.519,411.381L117.003,411.009L116.488,410.634L115.975,410.259L115.463,409.882L114.952,409.503L114.442,409.123L113.933,408.741L113.426,408.358L112.919,407.973L112.414,407.587L111.91,407.199L111.408,406.81L110.906,406.419L110.406,406.027L109.907,405.634L109.409,405.239L108.912,404.842L108.416,404.444L107.922,404.045L107.429,403.644L106.937,403.242L106.447,402.838L105.957,402.433L105.469,402.026L104.982,401.618L104.497,401.209L104.012,400.798L103.529,400.386L103.047,399.972L102.567,399.557L102.087,399.14L101.609,398.722L101.132,398.303L100.657,397.882L100.182,397.46L99.709,397.036L99.238,396.611L98.767,396.185L98.298,395.757L97.83,395.328L97.363,394.898L96.898,394.466L96.434,394.032L95.971,393.598L95.51,393.162L95.05,392.724L94.591,392.286L94.133,391.845L93.677,391.404L93.222,390.961L92.769,390.517L92.317,390.071L91.866,389.625L91.416,389.176L90.968,388.727L90.521,388.276L90.076,387.824L89.631,387.37L89.189,386.915L88.747,386.459L88.307,386.002L87.868,385.543L87.431,385.083L86.995,384.621L86.56,384.159L86.127,383.695L85.695,383.229L85.264,382.763L84.835,382.295L84.408,381.826L83.981,381.355L83.556,380.883L83.133,380.41L82.71,379.936L82.29,379.46L81.87,378.984L81.452,378.505L81.036,378.026L80.621,377.545L80.207,377.063L79.794,376.58L79.384,376.096L78.974,375.61L78.566,375.123L78.16,374.635L77.754,374.146L77.351,373.655L76.948,373.164L76.548,372.67L76.148,372.176L75.75,371.681L75.354,371.184L74.959,370.686L74.565,370.187L74.173,369.687L73.783,369.185L73.393,368.682L73.006,368.178L72.62,367.673L72.235,367.167L71.852,366.659L71.47,366.151L71.09,365.641L70.711,365.13L70.334,364.618L69.958,364.104L69.584,363.59L69.211,363.074L68.84,362.557L68.47,362.039L68.102,361.52L67.736,361L67.37,360.478L67.007,359.955L66.645,359.432L66.284,358.907L65.925,358.381L65.568,357.853L65.212,357.325L64.858,356.796L64.505,356.265L64.154,355.734L63.804,355.201L63.456,354.667L63.109,354.132L62.764,353.596L62.421,353.058L62.079,352.52L61.739,351.981L61.4,351.44L61.063,350.899L60.728,350.356L60.394,349.812L60.061,349.267L59.731,348.721L59.401,348.174L59.074,347.626L58.748,347.077L58.424,346.527L58.101,345.976L57.78,345.424L57.46,344.87L57.143,344.316L56.826,343.76L56.512,343.204L56.199,342.646L55.888,342.088L55.578,341.528L55.27,340.968L54.963,340.406L54.659,339.843L54.356,339.279L54.054,338.715L53.754,338.149L53.456,337.582L53.16,337.014L52.865,336.446L52.572,335.876L52.281,335.305L51.991,334.733L51.703,334.161L51.416,333.587L51.132,333.012L50.849,332.436L50.568,331.86L50.288,331.282L50.01,330.704L49.734,330.124L49.459,329.543L49.187,328.962L48.915,328.379L48.646,327.796L48.379,327.212L48.113,326.626L47.848,326.04L47.586,325.453L47.325,324.864L47.066,324.275L46.809,323.685L46.554,323.094L46.3,322.502L46.048,321.91L45.798,321.316L45.549,320.721L45.302,320.126L45.057,319.529L44.814,318.932L44.573,318.334L44.333,317.734L44.095,317.134L43.859,316.533L43.625,315.931L43.392,315.329L43.162,314.725L42.933,314.121L42.706,313.515L42.48,312.909L42.257,312.302L42.035,311.694L41.815,311.085L41.597,310.475L41.381,309.865L41.166,309.253L40.953,308.641L40.743,308.028L40.534,307.414L40.326,306.799L40.121,306.183L39.918,305.567L39.716,304.949L39.516,304.331L39.318,303.712L39.122,303.092L38.928,302.472L38.735,301.85L38.545,301.228L38.356,300.605L38.169,299.981L37.984,299.356L37.801,298.731L37.62,298.105L37.441,297.478L37.263,296.85L37.088,296.221L36.914,295.592L36.742,294.961L36.572,294.33L36.405,293.699L36.238,293.066L36.074,292.433L35.912,291.799L35.752,291.164L35.593,290.528L35.437,289.892L35.282,289.255L35.13,288.617L34.979,287.979L34.83,287.339L34.683,286.699L34.538,286.059L34.395,285.417L34.254,284.775L34.115,284.132L33.978,283.488L33.843,282.844L33.71,282.199L33.579,281.553L33.449,280.906L33.322,280.259L33.197,279.611L33.073,278.962L32.952,278.313L32.832,277.663L32.715,277.012L32.6,276.361L32.486,275.709L32.375,275.056L32.265,274.403L32.158,273.749L32.052,273.094L31.949,272.438L31.848,271.782L31.748,271.126L31.651,270.468L31.555,269.81L31.462,269.151L31.371,268.492L31.281,267.832L31.194,267.171L31.109,266.51L31.026,265.848L30.945,265.186L30.865,264.522L30.788,263.859L30.713,263.194L30.64,262.529L30.57,261.863L30.501,261.197L30.434,260.53L30.369,259.863L30.307,259.195L30.246,258.526L30.188,257.857L30.131,257.187L30.077,256.517L30.025,255.846L29.975,255.174L29.927,254.502L29.881,253.829L29.837,253.156L29.795,252.482L29.756,251.807L29.718,251.132L29.683,250.457L29.65,249.781L29.619,249.104L29.59,248.427L29.563,247.749L29.538,247.071L29.515,246.392L29.495,245.712L29.477,245.032L29.46,244.352L29.446,243.671L29.434,242.989L29.425,242.307L29.417,241.625L29.412,240.942L29.408,240.258L29.407,239.574L29.408,238.89L29.412,238.206L29.417,237.523L29.425,236.841L29.434,236.159L29.446,235.477L29.46,234.796L29.477,234.116L29.495,233.436L29.515,232.757L29.538,232.078L29.563,231.399L29.59,230.722L29.619,230.044L29.65,229.368L29.683,228.691L29.718,228.016L29.756,227.341L29.795,226.666L29.837,225.993L29.881,225.319L29.927,224.646L29.975,223.974L30.025,223.303L30.077,222.632L30.131,221.961L30.188,221.291L30.246,220.622L30.307,219.953L30.369,219.285L30.434,218.618L30.501,217.951L30.57,217.285L30.64,216.619L30.713,215.954L30.788,215.29L30.865,214.626L30.945,213.963L31.026,213.3L31.109,212.638L31.194,211.977L31.281,211.316L31.371,210.656L31.462,209.997L31.555,209.338L31.651,208.68L31.748,208.023L31.848,207.366L31.949,206.71L32.052,206.054L32.158,205.4L32.265,204.745L32.375,204.092L32.486,203.439L32.6,202.787L32.715,202.136L32.832,201.485L32.952,200.835L33.073,200.186L33.197,199.537L33.322,198.889L33.449,198.242L33.579,197.595L33.71,196.95L33.843,196.304L33.978,195.66L34.115,195.016L34.254,194.373L34.395,193.731L34.538,193.09L34.683,192.449L34.83,191.809L34.979,191.17L35.13,190.531L35.282,189.893L35.437,189.256L35.593,188.62L35.752,187.984L35.912,187.349L36.074,186.715L36.238,186.082L36.405,185.449L36.572,184.818L36.742,184.187L36.914,183.557L37.088,182.927L37.263,182.298L37.441,181.671L37.62,181.044L37.801,180.417L37.984,179.792L38.169,179.167L38.356,178.543L38.545,177.92L38.735,177.298L38.928,176.676L39.122,176.056L39.318,175.436L39.516,174.817L39.716,174.199L39.918,173.582L40.121,172.965L40.326,172.349L40.534,171.735L40.743,171.121L40.953,170.507L41.166,169.895L41.381,169.284L41.597,168.673L41.815,168.063L42.035,167.454L42.257,166.846L42.48,166.239L42.706,165.633L42.933,165.028L43.162,164.423L43.392,163.819L43.625,163.217L43.859,162.615L44.095,162.014L44.333,161.414L44.573,160.815L44.814,160.216L45.057,159.619L45.302,159.022L45.549,158.427L45.798,157.832L46.048,157.238L46.3,156.646L46.554,156.054L46.809,155.463L47.066,154.873L47.325,154.284L47.586,153.696L47.848,153.108L48.113,152.522L48.379,151.937L48.646,151.352L48.915,150.769L49.187,150.186L49.459,149.605L49.734,149.024L50.01,148.445L50.288,147.866L50.568,147.288L50.849,146.712L51.132,146.136L51.416,145.561L51.703,144.988L51.991,144.415L52.281,143.843L52.572,143.272L52.865,142.702L53.16,142.134L53.456,141.566L53.754,140.999L54.054,140.433L54.356,139.869L54.659,139.305L54.963,138.742L55.27,138.181L55.578,137.62L55.888,137.06L56.199,136.502L56.512,135.944L56.826,135.388L57.143,134.832L57.46,134.278L57.78,133.725L58.101,133.172L58.424,132.621L58.748,132.071L59.074,131.522L59.401,130.974L59.731,130.427L60.061,129.881L60.394,129.336L60.728,128.792L61.063,128.249L61.4,127.708L61.739,127.167L62.079,126.628L62.421,126.09L62.764,125.552L63.109,125.016L63.456,124.481L63.804,123.947L64.154,123.415L64.505,122.883L64.858,122.352L65.212,121.823L65.568,121.295L65.925,120.767L66.284,120.241L66.645,119.717L67.007,119.193L67.37,118.67L67.736,118.149L68.102,117.628L68.47,117.109L68.84,116.591L69.211,116.074L69.584,115.558L69.958,115.044L70.334,114.531L70.711,114.018L71.09,113.507L71.47,112.997L71.852,112.489L72.235,111.981L72.62,111.475L73.006,110.97L73.393,110.466L73.783,109.963L74.173,109.462L74.565,108.961L74.959,108.462L75.354,107.964L75.75,107.467L76.148,106.972L76.548,106.478L76.948,105.985L77.351,105.493L77.754,105.002L78.16,104.513L78.566,104.025L78.974,103.538L79.384,103.052L79.794,102.568L80.207,102.085L80.621,101.603L81.036,101.122L81.452,100.643L81.87,100.165L82.29,99.688L82.71,99.212L83.133,98.738L83.556,98.265L83.981,97.793L84.408,97.323L84.835,96.853L85.264,96.385L85.695,95.919L86.127,95.454L86.56,94.99L86.995,94.527L87.431,94.065L87.868,93.605L88.307,93.146L88.747,92.689L89.189,92.233L89.631,91.778L90.076,91.324L90.521,90.872L90.968,90.421L91.416,89.972L91.866,89.524L92.317,89.077L92.769,88.631L93.222,88.187L93.677,87.744L94.133,87.303L94.591,86.863L95.05,86.424L95.51,85.986L95.971,85.55L96.434,85.116L96.898,84.682L97.363,84.251L97.83,83.82L98.298,83.391L98.767,82.963L99.238,82.537L99.709,82.112L100.182,81.688L100.657,81.266L101.132,80.845L101.609,80.426L102.087,80.008L102.567,79.591L103.047,79.176L103.529,78.762L104.012,78.35L104.497,77.939L104.982,77.53L105.469,77.122L105.957,76.715L106.447,76.31L106.937,75.906L107.429,75.504L107.922,75.103L108.416,74.704L108.912,74.306L109.409,73.909L109.907,73.514L110.406,73.121L110.906,72.729L111.408,72.338L111.91,71.949L112.414,71.561L112.919,71.175L113.426,70.791L113.933,70.407L114.442,70.026L114.952,69.645L115.463,69.267L115.975,68.889L116.488,68.514L117.003,68.139L117.519,67.767L118.036,67.396L118.554,67.026L119.073,66.658L119.593,66.291L120.115,65.926L120.637,65.562L121.161,65.2L121.686,64.84L122.212,64.481L122.739,64.123L123.267,63.768L123.797,63.413L124.327,63.06L124.859,62.709L125.392,62.36L125.926,62.011L126.461,61.665L126.997,61.32L127.534,60.976L128.072,60.635L128.612,60.294L129.152,59.956L129.694,59.619L130.237,59.283L130.78,58.949L131.325,58.617L131.871,58.286L132.418,57.957L132.966,57.629L133.515,57.304L134.065,56.979L134.617,56.657L135.169,56.335L135.722,56.016L136.277,55.698L136.832,55.382L137.389,55.067L137.946,54.754L138.505,54.443L139.064,54.133L139.625,53.825L140.187,53.519L140.749,53.214L141.313,52.911L141.878,52.61L142.444,52.31L143.01,52.012L143.578,51.716L144.147,51.421L144.717,51.128L145.287,50.836L145.859,50.546L146.432,50.258L147.006,49.972L147.58,49.687L148.156,49.404L148.733,49.123L149.31,48.843L149.889,48.566L150.469,48.289L151.049,48.015L151.631,47.742L152.213,47.471L152.797,47.202L153.381,46.934L153.966,46.668L154.553,46.404L155.14,46.142L155.728,45.881L156.317,45.622L156.907,45.365L157.498,45.109L158.09,44.855L158.683,44.603L159.277,44.353L159.871,44.105L160.467,43.858L161.063,43.613L161.661,43.37L162.259,43.128L162.858,42.889L163.458,42.651L164.059,42.415L164.661,42.18L165.264,41.948L165.868,41.717L166.472,41.488L167.077,41.261L167.684,41.036L168.291,40.812L168.899,40.591L169.508,40.371L170.117,40.152L170.728,39.936L171.34,39.722L171.952,39.509L172.565,39.298L173.179,39.089L173.794,38.882L174.409,38.677L175.026,38.473L175.643,38.271L176.261,38.072L176.88,37.874L177.5,37.678L178.121,37.483L178.742,37.291L179.365,37.1L179.988,36.912L180.612,36.725L181.236,36.54L181.862,36.357L182.488,36.176L183.115,35.996L183.743,35.819L184.372,35.643L185.001,35.47L185.631,35.298L186.262,35.128L186.894,34.96L187.526,34.794L188.16,34.63L188.794,34.468L189.429,34.307L190.064,34.149L190.7,33.992L191.338,33.838L191.975,33.685L192.614,33.534L193.253,33.386L193.893,33.239L194.534,33.094L195.176,32.951L195.818,32.81L196.461,32.671L197.104,32.534L197.749,32.399L198.394,32.265L199.04,32.134L199.686,32.005L200.334,31.878L200.982,31.752L201.63,31.629L202.279,31.507L202.93,31.388L203.58,31.271L204.232,31.155L204.884,31.042L205.536,30.93L206.19,30.821L206.844,30.713L207.499,30.608L208.154,30.504L208.81,30.403L209.467,30.304L210.124,30.206L210.783,30.111L211.441,30.018L212.101,29.926L212.761,29.837L213.421,29.75L214.083,29.664L214.745,29.581L215.407,29.5L216.07,29.421L216.734,29.344L217.398,29.269L218.064,29.196L218.729,29.125L219.395,29.056L220.062,28.99L220.73,28.925L221.398,28.862L222.066,28.802L222.736,28.743L223.406,28.687L224.076,28.633L224.747,28.58L225.419,28.53L226.091,28.482L226.764,28.436L227.437,28.393L228.111,28.351L228.785,28.311L229.46,28.274L230.136,28.239L230.812,28.205L231.489,28.174L232.166,28.145L232.844,28.118L233.522,28.094L234.201,28.071L234.88,28.05L235.56,28.032L236.241,28.016L236.922,28.002L237.603,27.99L238.285,27.98L238.968,27.973L239.651,27.967L240.334,27.964L241.019,27.963L241.703,27.964ZM240.493,77.964L239.968,77.966L239.444,77.971L238.919,77.976L238.396,77.984L237.873,77.993L237.35,78.004L236.828,78.016L236.307,78.03L235.786,78.046L235.266,78.063L234.746,78.082L234.226,78.103L233.707,78.125L233.189,78.149L232.671,78.174L232.153,78.201L231.636,78.23L231.12,78.26L230.604,78.292L230.089,78.326L229.574,78.361L229.059,78.398L228.546,78.436L228.032,78.476L227.519,78.518L227.007,78.561L226.495,78.605L225.984,78.652L225.473,78.699L224.963,78.749L224.454,78.8L223.945,78.852L223.436,78.907L222.928,78.962L222.42,79.02L221.913,79.078L221.407,79.139L220.901,79.201L220.395,79.264L219.89,79.329L219.386,79.396L218.882,79.464L218.379,79.534L217.876,79.605L217.374,79.678L216.872,79.752L216.371,79.828L215.871,79.906L215.371,79.984L214.871,80.065L214.372,80.147L213.874,80.23L213.376,80.315L212.879,80.402L212.382,80.49L211.886,80.579L211.39,80.67L210.895,80.763L210.401,80.857L209.907,80.953L209.413,81.05L208.92,81.148L208.428,81.248L207.937,81.35L207.445,81.453L206.955,81.557L206.465,81.663L205.975,81.771L205.487,81.88L204.998,81.99L204.511,82.102L204.024,82.215L203.537,82.33L203.051,82.446L202.566,82.564L202.081,82.683L201.597,82.804L201.113,82.926L200.63,83.05L200.148,83.175L199.666,83.301L199.185,83.429L198.704,83.559L198.224,83.69L197.744,83.822L197.265,83.956L196.787,84.091L196.31,84.227L195.833,84.365L195.356,84.505L194.88,84.646L194.405,84.788L193.93,84.932L193.456,85.077L192.983,85.223L192.51,85.371L192.038,85.521L191.567,85.672L191.096,85.824L190.625,85.977L190.156,86.132L189.687,86.289L189.218,86.447L188.751,86.606L188.284,86.767L187.817,86.929L187.351,87.092L186.886,87.257L186.422,87.423L185.958,87.591L185.495,87.759L185.032,87.93L184.57,88.102L184.109,88.275L183.648,88.449L183.188,88.625L182.729,88.802L182.27,88.981L181.812,89.161L181.355,89.342L180.898,89.524L180.442,89.708L179.987,89.894L179.532,90.081L179.078,90.269L178.625,90.458L178.172,90.649L177.72,90.841L177.269,91.034L176.819,91.229L176.369,91.425L175.92,91.623L175.471,91.821L175.024,92.021L174.576,92.223L174.13,92.426L173.685,92.63L173.24,92.835L172.796,93.042L172.352,93.25L171.909,93.459L171.467,93.67L171.026,93.882L170.585,94.095L170.145,94.31L169.706,94.526L169.268,94.743L168.83,94.961L168.393,95.181L167.956,95.402L167.521,95.624L167.086,95.848L166.652,96.073L166.219,96.299L165.787,96.527L165.355,96.756L164.924,96.986L164.493,97.217L164.064,97.449L163.635,97.683L163.207,97.919L162.78,98.155L162.354,98.393L161.928,98.632L161.503,98.872L161.079,99.113L160.656,99.356L160.233,99.6L159.811,99.845L159.39,100.091L158.97,100.339L158.551,100.588L158.132,100.838L157.714,101.09L157.297,101.342L156.881,101.596L156.466,101.851L156.051,102.107L155.637,102.365L155.224,102.624L154.812,102.884L154.401,103.145L153.99,103.407L153.581,103.671L153.172,103.936L152.764,104.202L152.357,104.469L151.95,104.738L151.545,105.007L151.14,105.278L150.736,105.55L150.333,105.823L149.931,106.098L149.53,106.373L149.129,106.65L148.73,106.928L148.331,107.207L147.933,107.488L147.536,107.769L147.14,108.052L146.745,108.336L146.351,108.621L145.957,108.907L145.564,109.194L145.173,109.483L144.782,109.772L144.392,110.063L144.003,110.355L143.615,110.648L143.227,110.942L142.841,111.238L142.455,111.534L142.071,111.832L141.687,112.131L141.304,112.431L140.923,112.732L140.542,113.034L140.162,113.337L139.783,113.642L139.404,113.947L139.027,114.254L138.651,114.562L138.275,114.871L137.901,115.181L137.528,115.492L137.155,115.804L136.783,116.117L136.413,116.432L136.043,116.747L135.674,117.064L135.306,117.382L134.939,117.701L134.574,118.02L134.208,118.341L133.845,118.663L133.481,118.987L133.119,119.311L132.758,119.636L132.398,119.962L132.039,120.29L131.681,120.618L131.324,120.948L130.968,121.278L130.613,121.61L130.258,121.943L129.905,122.277L129.553,122.611L129.202,122.947L128.851,123.284L128.502,123.622L128.154,123.961L127.807,124.301L127.461,124.642L127.116,124.984L126.772,125.327L126.429,125.671L126.087,126.016L125.745,126.363L125.405,126.71L125.066,127.058L124.729,127.407L124.392,127.757L124.056,128.109L123.721,128.461L123.387,128.814L123.054,129.168L122.723,129.523L122.392,129.879L122.063,130.236L121.734,130.595L121.407,130.954L121.081,131.314L120.755,131.675L120.431,132.037L120.108,132.4L119.786,132.764L119.465,133.129L119.145,133.495L118.826,133.862L118.508,134.23L118.192,134.598L117.876,134.968L117.562,135.339L117.249,135.71L116.936,136.083L116.625,136.457L116.315,136.831L116.006,137.206L115.698,137.583L115.392,137.96L115.086,138.338L114.782,138.717L114.478,139.097L114.176,139.478L113.875,139.86L113.575,140.243L113.276,140.627L112.979,141.011L112.682,141.397L112.387,141.783L112.093,142.17L111.799,142.558L111.508,142.947L111.217,143.338L110.927,143.728L110.639,144.12L110.351,144.513L110.065,144.906L109.78,145.301L109.496,145.696L109.213,146.092L108.932,146.489L108.652,146.887L108.373,147.285L108.095,147.685L107.818,148.085L107.542,148.487L107.268,148.889L106.995,149.292L106.722,149.696L106.452,150.1L106.182,150.506L105.914,150.912L105.646,151.319L105.38,151.727L105.115,152.136L104.852,152.546L104.589,152.956L104.328,153.368L104.068,153.78L103.809,154.193L103.552,154.607L103.296,155.021L103.04,155.437L102.787,155.853L102.534,156.27L102.283,156.688L102.032,157.106L101.784,157.526L101.536,157.946L101.289,158.367L101.044,158.789L100.8,159.211L100.558,159.635L100.316,160.059L100.076,160.483L99.837,160.909L99.599,161.336L99.363,161.763L99.128,162.191L98.894,162.62L98.661,163.049L98.43,163.479L98.2,163.91L97.971,164.342L97.744,164.775L97.518,165.208L97.292,165.642L97.069,166.077L96.847,166.512L96.625,166.948L96.406,167.385L96.187,167.823L95.97,168.262L95.754,168.701L95.54,169.141L95.326,169.581L95.114,170.023L94.904,170.465L94.694,170.908L94.486,171.351L94.28,171.795L94.074,172.24L93.87,172.686L93.667,173.132L93.466,173.579L93.266,174.027L93.067,174.475L92.87,174.924L92.673,175.374L92.479,175.825L92.285,176.276L92.093,176.728L91.902,177.181L91.713,177.634L91.525,178.088L91.338,178.542L91.153,178.998L90.969,179.454L90.786,179.91L90.605,180.367L90.425,180.826L90.246,181.284L90.069,181.743L89.893,182.204L89.719,182.664L89.546,183.125L89.374,183.588L89.204,184.05L89.035,184.513L88.867,184.977L88.701,185.442L88.536,185.907L88.373,186.373L88.211,186.839L88.05,187.306L87.891,187.774L87.733,188.243L87.577,188.711L87.422,189.181L87.268,189.651L87.116,190.122L86.965,190.594L86.816,191.066L86.668,191.539L86.521,192.012L86.376,192.486L86.232,192.961L86.09,193.436L85.949,193.912L85.81,194.388L85.672,194.865L85.535,195.343L85.4,195.821L85.266,196.3L85.134,196.779L85.003,197.259L84.874,197.74L84.746,198.221L84.619,198.703L84.494,199.186L84.371,199.669L84.249,200.152L84.128,200.636L84.009,201.121L83.891,201.607L83.775,202.093L83.66,202.579L83.546,203.066L83.435,203.554L83.324,204.042L83.215,204.531L83.108,205.02L83.002,205.511L82.897,206.001L82.794,206.492L82.693,206.984L82.593,207.476L82.494,207.969L82.397,208.462L82.301,208.956L82.207,209.451L82.115,209.946L82.024,210.441L81.934,210.938L81.846,211.434L81.76,211.932L81.675,212.429L81.591,212.928L81.509,213.427L81.429,213.926L81.35,214.426L81.273,214.927L81.197,215.428L81.122,215.93L81.05,216.432L80.978,216.935L80.909,217.438L80.841,217.942L80.774,218.446L80.709,218.951L80.645,219.456L80.583,219.962L80.523,220.469L80.464,220.976L80.407,221.483L80.351,221.991L80.297,222.5L80.244,223.009L80.193,223.519L80.144,224.029L80.096,224.54L80.05,225.051L80.005,225.563L79.962,226.075L79.92,226.588L79.881,227.101L79.842,227.615L79.805,228.129L79.77,228.644L79.737,229.16L79.705,229.675L79.675,230.192L79.646,230.709L79.619,231.226L79.593,231.744L79.569,232.263L79.547,232.782L79.527,233.301L79.508,233.821L79.49,234.342L79.475,234.863L79.461,235.384L79.448,235.906L79.437,236.429L79.428,236.952L79.421,237.475L79.415,237.999L79.411,238.524L79.408,239.049L79.407,239.574L79.408,240.1L79.411,240.625L79.415,241.149L79.421,241.673L79.428,242.197L79.437,242.72L79.448,243.242L79.461,243.764L79.475,244.286L79.49,244.807L79.508,245.327L79.527,245.847L79.547,246.367L79.569,246.886L79.593,247.404L79.619,247.922L79.646,248.439L79.675,248.956L79.705,249.473L79.737,249.989L79.77,250.504L79.805,251.019L79.842,251.533L79.88,252.047L79.92,252.56L79.962,253.073L80.005,253.585L80.05,254.097L80.096,254.608L80.144,255.119L80.193,255.629L80.244,256.139L80.297,256.648L80.351,257.157L80.407,257.665L80.464,258.172L80.523,258.679L80.583,259.186L80.645,259.692L80.709,260.197L80.774,260.702L80.841,261.206L80.909,261.71L80.978,262.214L81.05,262.716L81.122,263.219L81.197,263.72L81.273,264.221L81.35,264.722L81.429,265.222L81.509,265.721L81.591,266.22L81.675,266.719L81.76,267.217L81.846,267.714L81.934,268.21L82.024,268.707L82.115,269.203L82.207,269.697L82.301,270.192L82.397,270.686L82.494,271.179L82.593,271.672L82.693,272.164L82.794,272.656L82.897,273.147L83.002,273.638L83.108,274.128L83.215,274.617L83.324,275.106L83.435,275.594L83.546,276.082L83.66,276.569L83.775,277.056L83.891,277.541L84.009,278.027L84.128,278.512L84.249,278.996L84.371,279.479L84.494,279.962L84.619,280.445L84.746,280.927L84.874,281.408L85.003,281.889L85.134,282.369L85.266,282.848L85.4,283.327L85.535,283.805L85.672,284.283L85.81,284.76L85.949,285.237L86.09,285.713L86.232,286.188L86.376,286.662L86.521,287.136L86.668,287.61L86.816,288.082L86.965,288.554L87.116,289.026L87.268,289.497L87.422,289.967L87.577,290.437L87.733,290.906L87.891,291.374L88.05,291.842L88.211,292.309L88.373,292.775L88.536,293.241L88.701,293.706L88.867,294.171L89.035,294.635L89.204,295.098L89.374,295.561L89.546,296.023L89.719,296.484L89.893,296.944L90.069,297.404L90.247,297.864L90.425,298.323L90.605,298.78L90.786,299.238L90.969,299.695L91.153,300.151L91.338,300.606L91.525,301.06L91.713,301.514L91.902,301.968L92.093,302.42L92.285,302.872L92.479,303.323L92.673,303.774L92.87,304.224L93.067,304.673L93.266,305.121L93.466,305.569L93.667,306.016L93.87,306.462L94.074,306.908L94.279,307.353L94.486,307.797L94.694,308.241L94.904,308.683L95.114,309.126L95.326,309.567L95.539,310.007L95.754,310.447L95.97,310.887L96.187,311.325L96.406,311.763L96.626,312.2L96.847,312.636L97.069,313.072L97.292,313.506L97.517,313.94L97.744,314.374L97.971,314.806L98.2,315.238L98.43,315.669L98.661,316.099L98.894,316.528L99.128,316.958L99.363,317.385L99.599,317.813L99.837,318.239L100.076,318.665L100.316,319.09L100.558,319.514L100.8,319.937L101.044,320.36L101.289,320.781L101.536,321.202L101.784,321.623L102.033,322.042L102.283,322.46L102.534,322.879L102.787,323.295L103.04,323.711L103.295,324.127L103.552,324.542L103.809,324.955L104.068,325.368L104.328,325.781L104.589,326.192L104.852,326.602L105.115,327.012L105.38,327.421L105.646,327.829L105.914,328.236L106.182,328.642L106.451,329.048L106.722,329.453L106.994,329.856L107.268,330.26L107.542,330.661L107.818,331.062L108.095,331.463L108.373,331.863L108.652,332.262L108.932,332.659L109.214,333.056L109.496,333.453L109.78,333.847L110.065,334.242L110.351,334.636L110.639,335.028L110.927,335.42L111.217,335.811L111.508,336.201L111.799,336.589L112.092,336.978L112.387,337.366L112.682,337.752L112.979,338.137L113.276,338.522L113.575,338.905L113.875,339.288L114.176,339.67L114.478,340.051L114.782,340.431L115.086,340.81L115.392,341.188L115.699,341.566L116.006,341.942L116.315,342.317L116.625,342.692L116.936,343.065L117.249,343.438L117.562,343.81L117.876,344.179L118.192,344.55L118.509,344.919L118.826,345.286L119.145,345.653L119.465,346.019L119.786,346.384L120.108,346.748L120.431,347.111L120.755,347.473L121.081,347.834L121.407,348.194L121.734,348.554L122.063,348.912L122.392,349.269L122.723,349.625L123.054,349.98L123.387,350.334L123.721,350.687L124.056,351.04L124.391,351.391L124.729,351.741L125.067,352.091L125.405,352.438L125.745,352.786L126.086,353.132L126.429,353.477L126.772,353.821L127.115,354.164L127.46,354.506L127.807,354.847L128.154,355.187L128.502,355.526L128.851,355.864L129.201,356.201L129.553,356.537L129.905,356.872L130.258,357.205L130.613,357.538L130.968,357.87L131.324,358.2L131.681,358.53L132.039,358.858L132.398,359.186L132.758,359.512L133.119,359.837L133.482,360.162L133.845,360.485L134.208,360.807L134.573,361.127L134.939,361.448L135.306,361.766L135.674,362.084L136.043,362.401L136.413,362.717L136.784,363.031L137.155,363.344L137.527,363.656L137.9,363.967L138.276,364.277L138.651,364.587L139.027,364.894L139.405,365.201L139.783,365.507L140.161,365.811L140.542,366.114L140.923,366.416L141.304,366.717L141.688,367.018L142.071,367.316L142.455,367.614L142.841,367.911L143.227,368.206L143.614,368.5L144.003,368.793L144.392,369.085L144.782,369.376L145.173,369.666L145.564,369.954L145.957,370.242L146.351,370.528L146.745,370.812L147.14,371.097L147.536,371.379L147.933,371.661L148.331,371.941L148.73,372.22L149.129,372.498L149.53,372.775L149.931,373.05L150.333,373.325L150.736,373.598L151.14,373.87L151.545,374.141L151.951,374.411L152.357,374.679L152.763,374.946L153.172,375.212L153.581,375.478L153.99,375.741L154.4,376.003L154.813,376.265L155.225,376.525L155.637,376.783L156.051,377.04L156.466,377.297L156.882,377.552L157.298,377.806L157.714,378.058L158.132,378.31L158.551,378.56L158.969,378.809L159.39,379.057L159.812,379.304L160.233,379.549L160.655,379.792L161.079,380.035L161.503,380.276L161.929,380.517L162.354,380.756L162.78,380.993L163.207,381.23L163.635,381.464L164.064,381.699L164.494,381.931L164.924,382.163L165.355,382.393L165.786,382.621L166.219,382.849L166.653,383.075L167.086,383.3L167.521,383.524L167.957,383.746L168.392,383.967L168.83,384.187L169.268,384.405L169.706,384.622L170.146,384.839L170.586,385.053L171.026,385.266L171.467,385.478L171.908,385.689L172.352,385.899L172.796,386.107L173.24,386.313L173.685,386.518L174.13,386.723L174.576,386.925L175.023,387.127L175.472,387.327L175.919,387.525L176.369,387.723L176.819,387.919L177.269,388.114L177.72,388.307L178.173,388.5L178.625,388.69L179.078,388.879L179.532,389.068L179.987,389.255L180.442,389.44L180.898,389.624L181.355,389.807L181.812,389.988L182.27,390.168L182.728,390.346L183.187,390.523L183.648,390.699L184.108,390.874L184.569,391.046L185.032,391.219L185.495,391.389L185.957,391.558L186.421,391.725L186.886,391.891L187.351,392.056L187.817,392.22L188.284,392.382L188.75,392.542L189.219,392.702L189.687,392.859L190.155,393.016L190.626,393.171L191.096,393.324L191.566,393.476L192.038,393.627L192.511,393.777L192.983,393.925L193.456,394.071L193.931,394.216L194.405,394.36L194.88,394.502L195.356,394.643L195.833,394.783L196.31,394.921L196.787,395.057L197.266,395.193L197.744,395.326L198.224,395.459L198.704,395.589L199.185,395.719L199.666,395.847L200.148,395.973L200.63,396.098L201.113,396.222L201.597,396.344L202.081,396.465L202.566,396.584L203.052,396.702L203.537,396.818L204.023,396.933L204.511,397.046L204.998,397.158L205.486,397.268L205.975,397.377L206.465,397.485L206.955,397.591L207.445,397.695L207.937,397.798L208.428,397.9L208.92,398L209.413,398.099L209.906,398.195L210.401,398.291L210.895,398.385L211.39,398.478L211.886,398.569L212.382,398.658L212.879,398.746L213.376,398.833L213.873,398.918L214.372,399.001L214.871,399.083L215.37,399.164L215.871,399.243L216.371,399.32L216.872,399.396L217.375,399.47L217.876,399.543L218.379,399.614L218.882,399.684L219.386,399.752L219.891,399.819L220.396,399.884L220.901,399.947L221.407,400.009L221.913,400.07L222.42,400.128L222.928,400.186L223.436,400.242L223.944,400.296L224.454,400.348L224.964,400.399L225.473,400.449L225.984,400.497L226.496,400.543L227.007,400.588L227.519,400.631L228.032,400.672L228.546,400.712L229.059,400.75L229.574,400.787L230.089,400.822L230.604,400.856L231.12,400.888L231.636,400.918L232.154,400.947L232.671,400.974L233.188,400.999L233.707,401.023L234.227,401.045L234.745,401.066L235.265,401.085L235.786,401.102L236.307,401.118L236.829,401.132L237.351,401.144L237.873,401.155L238.396,401.164L238.92,401.172L239.444,401.178L239.968,401.182L240.493,401.184L241.019,401.185L241.544,401.184L242.069,401.182L242.593,401.178L243.117,401.172L243.642,401.164L244.165,401.155L244.686,401.144L245.208,401.132L245.73,401.118L246.251,401.102L246.772,401.085L247.292,401.066L247.811,401.045L248.33,401.023L248.849,400.999L249.366,400.974L249.883,400.947L250.401,400.918L250.917,400.888L251.433,400.856L251.949,400.822L252.464,400.787L252.978,400.75L253.491,400.712L254.005,400.672L254.518,400.631L255.03,400.588L255.541,400.543L256.053,400.497L256.564,400.449L257.073,400.399L257.583,400.348L258.093,400.296L258.601,400.242L259.109,400.186L259.617,400.128L260.125,400.07L260.63,400.009L261.136,399.947L261.641,399.884L262.146,399.819L262.651,399.752L263.155,399.684L263.658,399.614L264.161,399.543L264.662,399.47L265.165,399.396L265.666,399.32L266.166,399.243L266.667,399.164L267.166,399.083L267.665,399.001L268.164,398.918L268.661,398.833L269.158,398.746L269.655,398.658L270.151,398.569L270.647,398.478L271.142,398.385L271.636,398.291L272.131,398.195L272.624,398.099L273.117,398L273.609,397.9L274.1,397.798L274.592,397.695L275.082,397.591L275.572,397.485L276.062,397.377L276.551,397.268L277.039,397.158L277.526,397.046L278.014,396.933L278.5,396.818L278.985,396.702L279.471,396.584L279.957,396.465L280.44,396.344L280.924,396.222L281.407,396.098L281.889,395.973L282.371,395.847L282.853,395.719L283.333,395.589L283.813,395.459L284.293,395.326L284.771,395.193L285.25,395.057L285.727,394.921L286.204,394.783L286.681,394.643L287.157,394.502L287.632,394.36L288.106,394.217L288.581,394.071L289.054,393.925L289.526,393.777L289.999,393.627L290.471,393.476L290.941,393.324L291.411,393.171L291.882,393.016L292.35,392.859L292.818,392.702L293.287,392.542L293.753,392.382L294.219,392.22L294.686,392.056L295.151,391.891L295.616,391.725L296.08,391.558L296.542,391.389L297.005,391.218L297.468,391.046L297.928,390.874L298.388,390.699L298.849,390.523L299.309,390.346L299.767,390.167L300.224,389.988L300.682,389.807L301.139,389.624L301.595,389.44L302.05,389.254L302.505,389.068L302.959,388.879L303.413,388.69L303.865,388.5L304.316,388.307L304.768,388.114L305.218,387.919L305.668,387.723L306.118,387.526L306.565,387.327L307.014,387.127L307.461,386.925L307.907,386.723L308.353,386.518L308.797,386.313L309.241,386.107L309.685,385.898L310.128,385.689L310.571,385.478L311.012,385.266L311.451,385.054L311.891,384.839L312.332,384.622L312.769,384.406L313.207,384.187L313.645,383.967L314.08,383.746L314.516,383.524L314.951,383.3L315.384,383.076L315.818,382.849L316.251,382.621L316.682,382.393L317.113,382.163L317.543,381.932L317.973,381.699L318.403,381.464L318.83,381.23L319.257,380.993L319.683,380.756L320.109,380.517L320.535,380.276L320.959,380.035L321.382,379.792L321.804,379.548L322.225,379.304L322.647,379.057L323.068,378.809L323.486,378.56L323.905,378.31L324.324,378.058L324.74,377.806L325.155,377.553L325.571,377.297L325.987,377.04L326.4,376.783L326.812,376.525L327.225,376.264L327.637,376.003L328.047,375.741L328.456,375.478L328.865,375.212L329.274,374.946L329.68,374.679L330.086,374.411L330.492,374.141L330.897,373.87L331.301,373.598L331.704,373.325L332.106,373.05L332.507,372.775L332.908,372.498L333.307,372.22L333.706,371.941L334.104,371.661L334.501,371.379L334.897,371.096L335.292,370.813L335.686,370.528L336.08,370.241L336.473,369.954L336.864,369.666L337.255,369.376L337.645,369.085L338.034,368.793L338.423,368.5L338.81,368.205L339.196,367.911L339.582,367.614L339.966,367.316L340.349,367.018L340.733,366.717L341.114,366.416L341.495,366.114L341.876,365.811L342.254,365.507L342.632,365.201L343.01,364.894L343.386,364.587L343.762,364.277L344.137,363.967L344.51,363.656L344.882,363.344L345.254,363.031L345.624,362.717L345.994,362.401L346.363,362.084L346.731,361.767L347.098,361.448L347.464,361.127L347.829,360.807L348.192,360.485L348.555,360.162L348.918,359.837L349.279,359.512L349.639,359.186L349.998,358.858L350.356,358.53L350.713,358.2L351.07,357.869L351.424,357.538L351.779,357.205L352.132,356.872L352.484,356.537L352.835,356.201L353.186,355.864L353.535,355.526L353.883,355.188L354.23,354.847L354.577,354.506L354.922,354.164L355.265,353.821L355.608,353.477L355.95,353.132L356.292,352.786L356.632,352.438L356.97,352.091L357.308,351.742L357.645,351.391L357.982,351.039L358.316,350.687L358.65,350.334L358.983,349.98L359.314,349.625L359.645,349.269L359.975,348.911L360.302,348.554L360.63,348.194L360.956,347.834L361.282,347.474L361.607,347.111L361.93,346.748L362.251,346.384L362.572,346.02L362.892,345.653L363.211,345.286L363.528,344.919L363.845,344.55L364.162,344.179L364.475,343.809L364.789,343.438L365.101,343.065L365.411,342.693L365.722,342.317L366.031,341.941L366.338,341.566L366.645,341.188L366.951,340.81L367.255,340.431L367.559,340.051L367.861,339.67L368.162,339.288L368.462,338.905L368.761,338.522L369.058,338.137L369.355,337.751L369.65,337.366L369.944,336.978L370.238,336.59L370.53,336.201L370.821,335.81L371.11,335.42L371.398,335.029L371.686,334.636L371.972,334.242L372.257,333.848L372.541,333.452L372.823,333.056L373.105,332.659L373.385,332.261L373.664,331.863L373.942,331.464L374.219,331.063L374.495,330.662L374.769,330.26L375.043,329.856L375.315,329.453L375.586,329.048L375.856,328.642L376.124,328.236L376.39,327.83L376.657,327.421L376.922,327.011L377.185,326.603L377.447,326.192L377.709,325.78L377.969,325.368L378.227,324.956L378.485,324.542L378.742,324.126L378.997,323.711L379.251,323.295L379.503,322.879L379.755,322.46L380.005,322.042L380.253,321.623L380.501,321.202L380.748,320.78L380.993,320.36L381.237,319.937L381.479,319.514L381.721,319.09L381.961,318.664L382.2,318.239L382.438,317.813L382.674,317.385L382.909,316.958L383.143,316.529L383.376,316.099L383.607,315.669L383.837,315.238L384.066,314.806L384.293,314.374L384.52,313.94L384.744,313.506L384.968,313.072L385.191,312.636L385.411,312.2L385.631,311.763L385.85,311.325L386.067,310.887L386.283,310.447L386.498,310.007L386.711,309.567L386.922,309.126L387.133,308.684L387.343,308.24L387.551,307.796L387.758,307.353L387.963,306.908L388.167,306.462L388.37,306.017L388.571,305.569L388.772,305.121L388.97,304.673L389.167,304.224L389.364,303.774L389.558,303.323L389.752,302.872L389.944,302.42L390.134,301.968L390.324,301.515L390.512,301.06L390.699,300.606L390.884,300.151L391.068,299.695L391.251,299.237L391.432,298.78L391.612,298.323L391.79,297.864L391.968,297.405L392.144,296.944L392.318,296.484L392.491,296.023L392.663,295.561L392.833,295.098L393.002,294.635L393.169,294.172L393.336,293.706L393.501,293.241L393.664,292.775L393.826,292.309L393.986,291.842L394.146,291.373L394.304,290.906L394.46,290.437L394.615,289.967L394.769,289.497L394.921,289.027L395.072,288.555L395.221,288.082L395.369,287.61L395.516,287.136L395.661,286.662L395.805,286.188L395.947,285.713L396.088,285.237L396.227,284.76L396.365,284.283L396.502,283.806L396.637,283.327L396.771,282.849L396.903,282.369L397.034,281.889L397.163,281.408L397.291,280.927L397.418,280.445L397.543,279.963L397.666,279.48L397.788,278.996L397.909,278.512L398.029,278.026L398.146,277.541L398.262,277.056L398.377,276.57L398.491,276.082L398.603,275.594L398.713,275.107L398.822,274.617L398.929,274.127L399.035,273.637L399.14,273.147L399.243,272.656L399.344,272.164L399.444,271.672L399.543,271.179L399.64,270.686L399.736,270.192L399.83,269.697L399.922,269.202L400.013,268.706L400.103,268.21L400.191,267.714L400.277,267.216L400.362,266.719L400.446,266.22L400.528,265.721L400.608,265.223L400.687,264.721L400.764,264.221L400.84,263.721L400.915,263.218L400.987,262.716L401.059,262.214L401.128,261.711L401.196,261.207L401.263,260.701L401.328,260.197L401.392,259.692L401.454,259.186L401.514,258.68L401.573,258.173L401.63,257.664L401.686,257.156L401.74,256.648L401.793,256.139L401.844,255.629L401.893,255.119L401.941,254.609L401.987,254.097L402.032,253.586L402.075,253.073L402.117,252.56L402.157,252.047L402.195,251.533L402.232,251.019L402.267,250.504L402.3,249.988L402.332,249.473L402.362,248.957L402.391,248.439L402.418,247.922L402.444,247.404L402.468,246.885L402.49,246.366L402.51,245.847L402.529,245.328L402.547,244.807L402.562,244.286L402.577,243.764L402.589,243.241L402.6,242.72L402.609,242.197L402.616,241.672L402.622,241.149L402.626,240.625L402.629,240.1L402.63,239.574L402.629,239.048L402.626,238.523L402.622,237.999L402.616,237.476L402.609,236.951L402.6,236.428L402.589,235.907L402.577,235.384L402.562,234.863L402.547,234.342L402.529,233.82L402.51,233.301L402.49,232.782L402.468,232.263L402.444,231.744L402.418,231.226L402.391,230.71L402.362,230.192L402.332,229.675L402.3,229.16L402.267,228.644L402.232,228.129L402.195,227.615L402.157,227.101L402.117,226.588L402.075,226.075L402.032,225.563L401.987,225.051L401.941,224.54L401.893,224.029L401.844,223.52L401.793,223.009L401.74,222.5L401.686,221.992L401.63,221.484L401.573,220.976L401.514,220.468L401.454,219.962L401.392,219.456L401.328,218.951L401.263,218.447L401.196,217.941L401.128,217.437L401.059,216.934L400.987,216.432L400.915,215.93L400.84,215.428L400.764,214.927L400.687,214.427L400.608,213.925L400.528,213.427L400.446,212.928L400.362,212.429L400.277,211.932L400.191,211.434L400.103,210.938L400.013,210.442L399.922,209.946L399.83,209.451L399.736,208.956L399.64,208.462L399.543,207.969L399.444,207.476L399.344,206.984L399.243,206.492L399.14,206.001L399.035,205.511L398.929,205.021L398.822,204.531L398.713,204.042L398.603,203.554L398.491,203.066L398.377,202.579L398.262,202.092L398.146,201.607L398.029,201.122L397.909,200.636L397.788,200.152L397.666,199.668L397.543,199.185L397.418,198.703L397.291,198.222L397.163,197.74L397.034,197.259L396.903,196.779L396.771,196.299L396.637,195.821L396.502,195.343L396.365,194.865L396.227,194.388L396.088,193.912L395.947,193.436L395.805,192.96L395.661,192.486L395.516,192.012L395.369,191.538L395.221,191.066L395.072,190.594L394.921,190.122L394.769,189.651L394.615,189.181L394.46,188.711L394.304,188.243L394.146,187.775L393.987,187.306L393.826,186.839L393.664,186.373L393.501,185.907L393.336,185.442L393.169,184.976L393.002,184.513L392.833,184.05L392.663,183.588L392.491,183.125L392.318,182.664L392.144,182.204L391.968,181.743L391.79,181.284L391.612,180.826L391.432,180.368L391.251,179.911L391.068,179.453L390.884,178.997L390.699,178.543L390.512,178.088L390.324,177.633L390.135,177.18L389.944,176.728L389.752,176.276L389.558,175.825L389.364,175.375L389.167,174.924L388.97,174.475L388.772,174.027L388.571,173.579L388.369,173.131L388.167,172.686L387.963,172.24L387.758,171.795L387.551,171.352L387.343,170.908L387.133,170.464L386.923,170.022L386.711,169.581L386.498,169.141L386.283,168.701L386.067,168.261L385.85,167.823L385.631,167.385L385.411,166.948L385.191,166.513L384.968,166.077L384.744,165.642L384.52,165.208L384.293,164.774L384.066,164.342L383.837,163.911L383.607,163.48L383.376,163.049L383.143,162.619L382.909,162.19L382.674,161.763L382.438,161.336L382.2,160.909L381.961,160.484L381.721,160.058L381.479,159.634L381.237,159.211L380.993,158.789L380.748,158.368L380.501,157.946L380.253,157.525L380.005,157.107L379.755,156.688L379.503,156.269L379.251,155.853L378.997,155.437L378.742,155.021L378.485,154.606L378.227,154.192L377.969,153.781L377.709,153.368L377.447,152.956L377.185,152.545L376.922,152.137L376.657,151.728L376.39,151.319L376.124,150.912L375.855,150.506L375.586,150.1L375.315,149.696L375.043,149.292L374.769,148.889L374.495,148.487L374.219,148.085L373.942,147.685L373.664,147.285L373.386,146.887L373.105,146.489L372.824,146.092L372.541,145.696L372.257,145.3L371.972,144.907L371.686,144.513L371.398,144.12L371.11,143.728L370.821,143.338L370.53,142.948L370.237,142.558L369.944,142.17L369.65,141.783L369.355,141.397L369.058,141.011L368.761,140.627L368.462,140.243L368.162,139.86L367.861,139.478L367.559,139.097L367.255,138.717L366.951,138.339L366.646,137.96L366.338,137.583L366.031,137.207L365.722,136.831L365.411,136.456L365.1,136.083L364.789,135.71L364.476,135.339L364.161,134.969L363.845,134.598L363.528,134.229L363.211,133.862L362.892,133.495L362.572,133.129L362.251,132.764L361.929,132.4L361.606,132.037L361.282,131.675L360.957,131.314L360.63,130.954L360.303,130.594L359.975,130.237L359.645,129.879L359.314,129.523L358.983,129.168L358.65,128.814L358.316,128.461L357.982,128.109L357.645,127.757L357.308,127.407L356.971,127.058L356.632,126.71L356.292,126.363L355.95,126.016L355.608,125.671L355.266,125.327L354.921,124.984L354.576,124.642L354.23,124.301L353.883,123.961L353.535,123.622L353.186,123.284L352.835,122.947L352.484,122.611L352.132,122.276L351.779,121.943L351.425,121.61L351.07,121.279L350.713,120.948L350.356,120.618L349.998,120.29L349.639,119.962L349.279,119.636L348.918,119.311L348.555,118.986L348.192,118.663L347.829,118.342L347.464,118.02L347.098,117.701L346.731,117.382L346.363,117.064L345.994,116.747L345.624,116.431L345.254,116.118L344.882,115.804L344.509,115.492L344.136,115.181L343.762,114.871L343.386,114.562L343.01,114.254L342.633,113.947L342.254,113.642L341.875,113.337L341.495,113.034L341.114,112.732L340.733,112.431L340.35,112.131L339.966,111.832L339.582,111.534L339.196,111.238L338.81,110.943L338.422,110.648L338.034,110.355L337.645,110.063L337.255,109.772L336.864,109.482L336.473,109.194L336.08,108.907L335.686,108.621L335.292,108.335L334.897,108.052L334.501,107.769L334.104,107.488L333.706,107.207L333.307,106.928L332.908,106.65L332.507,106.373L332.106,106.098L331.704,105.824L331.301,105.55L330.897,105.278L330.492,105.007L330.086,104.737L329.681,104.469L329.273,104.202L328.865,103.936L328.456,103.671L328.047,103.407L327.636,103.145L327.225,102.884L326.813,102.624L326.4,102.365L325.986,102.108L325.571,101.851L325.156,101.596L324.74,101.342L324.323,101.09L323.905,100.838L323.486,100.588L323.067,100.339L322.646,100.091L322.226,99.845L321.804,99.6L321.381,99.356L320.958,99.113L320.534,98.872L320.109,98.632L319.683,98.393L319.257,98.155L318.83,97.919L318.402,97.684L317.973,97.449L317.543,97.217L317.114,96.986L316.682,96.756L316.251,96.527L315.818,96.299L315.384,96.073L314.951,95.848L314.516,95.625L314.081,95.402L313.644,95.181L313.207,94.961L312.769,94.743L312.331,94.526L311.892,94.31L311.452,94.095L311.012,93.882L310.57,93.67L310.128,93.459L309.685,93.25L309.242,93.042L308.797,92.835L308.353,92.63L307.907,92.426L307.46,92.223L307.014,92.021L306.566,91.821L306.117,91.623L305.668,91.425L305.218,91.229L304.768,91.034L304.316,90.841L303.865,90.649L303.412,90.458L302.959,90.268L302.505,90.081L302.05,89.894L301.595,89.708L301.139,89.524L300.682,89.342L300.225,89.16L299.767,88.981L299.309,88.802L298.849,88.625L298.389,88.449L297.928,88.275L297.467,88.102L297.005,87.93L296.543,87.76L296.079,87.591L295.615,87.423L295.151,87.257L294.686,87.092L294.22,86.929L293.753,86.767L293.287,86.606L292.819,86.447L292.35,86.289L291.881,86.133L291.412,85.977L290.941,85.824L290.471,85.672L289.999,85.521L289.527,85.371L289.054,85.223L288.581,85.077L288.107,84.932L287.632,84.788L287.157,84.646L286.681,84.505L286.205,84.365L285.727,84.227L285.25,84.091L284.771,83.956L284.293,83.822L283.813,83.69L283.333,83.559L282.853,83.429L282.371,83.301L281.889,83.175L281.407,83.05L280.924,82.926L280.44,82.804L279.956,82.683L279.471,82.564L278.986,82.446L278.5,82.33L278.014,82.215L277.526,82.102L277.039,81.99L276.55,81.88L276.062,81.771L275.572,81.663L275.082,81.557L274.592,81.453L274.1,81.35L273.609,81.248L273.117,81.148L272.624,81.05L272.13,80.953L271.636,80.857L271.142,80.763L270.647,80.67L270.151,80.579L269.655,80.49L269.158,80.402L268.661,80.315L268.163,80.23L267.665,80.147L267.166,80.065L266.666,79.984L266.166,79.906L265.666,79.828L265.165,79.752L264.663,79.678L264.161,79.605L263.658,79.534L263.155,79.464L262.651,79.396L262.147,79.329L261.642,79.264L261.136,79.201L260.63,79.139L260.124,79.078L259.617,79.02L259.109,78.962L258.601,78.907L258.093,78.852L257.583,78.8L257.074,78.749L256.564,78.699L256.053,78.652L255.542,78.605L255.03,78.561L254.518,78.518L254.005,78.476L253.491,78.436L252.978,78.398L252.463,78.361L251.948,78.326L251.433,78.292L250.917,78.26L250.401,78.23L249.884,78.201L249.366,78.174L248.848,78.149L248.33,78.125L247.811,78.103L247.292,78.082L246.772,78.063L246.251,78.046L245.73,78.03L245.209,78.016L244.687,78.004L244.164,77.993L243.641,77.984L243.118,77.976L242.594,77.971L242.069,77.966L241.544,77.964L241.019,77.963L240.493,77.964Z"/>
        </g>
        <path id="svg_29" d="M63.321,356.627C208.444,452.673 288.223,331.316 199.339,261.666C110.455,192.017 215.49,66.529 337.367,178.906" style="fill:none;stroke:black;stroke-width:50px;"/>
    </g>
</svg>
