<?xml version="1.0" encoding="UTF-8"?>
<svg width="500px" height="501px" viewBox="0 0 500 501" version="1.1" xmlns="http://www.w3.org/2000/svg" xmlns:xlink="http://www.w3.org/1999/xlink">
    <!-- Generator: Sketch 51.3 (57544) - http://www.bohemiancoding.com/sketch -->
    <title>Slice 1</title>
    <desc>Created with Sketch.</desc>
    <defs></defs>
    <g id="Page-1" stroke="none" stroke-width="1" fill="none" fill-rule="evenodd">
        <g id="stretchly-monochrome">
            <g id="svg_28" transform="translate(0.558133, 0.941756)" fill="#000000">
                <path d="M250.248169,1.13407547 L251.051728,1.13760475 L251.855287,1.14466331 L252.658847,1.1528983 L253.46123,1.16466256 L254.262436,1.17877969 L255.063642,1.19524966 L255.864849,1.21407249 L256.664879,1.23524817 L257.463732,1.25995314 L258.262585,1.28701095 L259.060262,1.3152452 L259.857939,1.34700872 L260.65444,1.3811251 L261.45094,1.41759433 L262.246264,1.45759285 L263.041587,1.49876778 L263.835735,1.54229558 L264.628706,1.58935265 L265.421676,1.63876258 L266.213471,1.68934893 L267.005265,1.74346457 L267.795883,1.79993305 L268.5865,1.8587544 L269.375942,1.92110502 L270.164206,1.98463207 L270.952471,2.05051197 L271.740736,2.11992115 L272.526648,2.19050676 L273.312559,2.26462165 L274.098471,2.3410894 L274.883206,2.41873357 L275.666765,2.49990702 L276.450323,2.58343332 L277.232706,2.66931248 L278.013911,2.75754449 L278.795117,2.84812936 L279.575146,2.94106708 L280.355175,3.03635765 L281.132851,3.13400108 L281.911704,3.23517379 L282.688203,3.33752292 L283.464703,3.44222491 L284.241203,3.55045618 L285.015349,3.65986388 L285.790672,3.77162442 L286.563642,3.88691425 L287.336612,4.00338051 L288.108406,4.12219962 L288.879023,4.24454801 L289.64964,4.36807283 L290.41908,4.49512693 L291.188521,4.62335745 L291.955608,4.75511726 L292.722696,4.88805349 L293.489783,5.024519 L294.255694,5.16216094 L295.020429,5.30215573 L295.783987,5.44567981 L296.547545,5.59038031 L297.308749,5.73861009 L298.071131,5.8880163 L298.831159,6.03977536 L299.591188,6.19388727 L300.35004,6.35152847 L301.108891,6.51034609 L301.86539,6.67151657 L302.621889,6.8350399 L303.377211,7.00091608 L304.132534,7.16914512 L304.88668,7.33972701 L305.639649,7.51266175 L306.391442,7.68677292 L307.143234,7.86441337 L307.893851,8.04440668 L308.64329,8.22557641 L309.391554,8.41027542 L310.13864,8.59615086 L310.885727,8.78555558 L311.631637,8.97613673 L312.377547,9.16907073 L313.121105,9.36435759 L313.864662,9.56199729 L314.607042,9.76198985 L315.348247,9.96433527 L316.089451,10.1678571 L316.828302,10.3749082 L317.567153,10.5831358 L318.304828,10.7948926 L319.041326,11.0078259 L319.777824,11.223112 L320.511969,11.4407509 L321.246114,11.6607428 L321.979082,11.881911 L322.712051,12.1066085 L323.442667,12.3324825 L324.173282,12.5618857 L324.902721,12.7924654 L325.630984,13.0253979 L326.35807,13.2595068 L327.083979,13.497145 L327.809888,13.7371361 L328.533445,13.9783036 L329.257001,14.221824 L329.979381,14.4676972 L330.700585,14.7159232 L331.421788,14.9665022 L332.140638,15.2182575 L332.859489,15.4723657 L333.575986,15.7300032 L334.292483,15.9888171 L335.007804,16.2488074 L335.721949,16.512327 L336.436093,16.7770231 L337.147884,17.0440719 L337.859676,17.3134737 L338.569114,17.5852283 L339.278552,17.8581593 L339.986814,18.1346196 L340.693899,18.4122564 L341.399808,18.6922459 L342.10454,18.973412 L342.808096,19.2581072 L343.511651,19.543979 L344.212854,19.8322035 L344.914057,20.122781 L345.612906,20.4145348 L346.311756,20.7086415 L347.009429,21.0051011 L347.705926,21.3039135 L348.401246,21.6050788 L349.095389,21.9074205 L349.788356,22.212115 L350.480147,22.5191624 L351.170761,22.8273863 L351.861375,23.1379629 L352.549636,23.4508925 L353.23672,23.7661749 L353.923805,24.0826337 L354.608536,24.4014454 L355.293268,24.7226099 L355.975646,25.0449508 L356.658025,25.3708211 L357.339226,25.6966913 L358.018075,26.0260908 L358.696924,26.3566668 L359.374597,26.6895955 L360.049916,27.0248772 L360.725235,27.3613353 L361.399378,27.7001462 L362.072344,28.04131 L362.742958,28.3848266 L363.413571,28.7295197 L364.083008,29.0765656 L364.751268,29.4247879 L365.417175,29.7753631 L366.083082,30.1282912 L366.747813,30.4823957 L367.411367,30.838853 L368.072568,31.1976632 L368.73377,31.5576498 L369.393794,31.9199892 L370.051466,32.2846816 L370.709138,32.6505503 L371.364456,33.0187719 L372.019775,33.3893464 L372.67274,33.7610972 L373.325706,34.135201 L373.976318,34.5104811 L374.625754,34.8892906 L375.27519,35.2681 L375.922273,35.6504387 L376.56818,36.0327774 L377.21291,36.4186454 L377.856463,36.8056899 L378.49884,37.1950872 L379.140041,37.5856609 L379.778888,37.9785874 L380.417735,38.3738668 L381.055406,38.7703227 L381.690724,39.167955 L382.326042,39.5691165 L382.959007,39.9702781 L383.590795,40.3749689 L384.221407,40.7808361 L384.850842,41.1878798 L385.479101,41.5984528 L386.106183,42.0090258 L386.732089,42.4219516 L387.355641,42.8372302 L387.979194,43.2548618 L388.600394,43.6724933 L389.220417,44.0936541 L389.839264,44.5159913 L390.456934,44.939505 L391.073427,45.3653715 L391.687568,45.7935909 L392.301709,46.2229867 L392.913496,46.6547353 L393.525284,47.0876604 L394.134718,47.5229383 L394.7418,47.9593927 L395.348881,48.3970235 L395.954786,48.8381835 L396.558338,49.2793436 L397.160714,49.7240329 L397.761912,50.1687223 L398.361935,50.6169409 L398.960781,51.0651595 L399.557274,51.5169074 L400.153766,51.9686553 L400.747906,52.4227561 L401.34087,52.8792097 L401.932656,53.3368397 L402.52209,53.7968226 L403.110347,54.2579819 L403.698605,54.7203177 L404.283332,55.1850063 L404.86806,55.6520477 L405.451611,56.1202656 L406.03281,56.5896599 L406.612831,57.0614071 L407.191676,57.5343307 L407.768168,58.0096071 L408.344661,58.48606 L408.9188,58.9648657 L409.491762,59.4448478 L410.062372,59.9260064 L410.632981,60.4095178 L411.201238,60.8942057 L411.768318,61.3812464 L412.333045,61.8694635 L412.897772,62.3600335 L413.460146,62.8517799 L414.021343,63.3447028 L414.580188,63.8399785 L415.139032,64.3364306 L415.695523,64.8352356 L416.250838,65.335217 L416.8038,65.8363748 L417.355585,66.3398855 L417.906194,66.8445726 L418.455626,67.3516126 L419.002706,67.8586525 L419.548608,68.3692218 L420.093335,68.879791 L420.635708,69.3927131 L421.176904,69.9079881 L421.716925,70.4244395 L422.255768,70.9420673 L422.792259,71.4608715 L423.327573,71.9820286 L423.860534,72.5043621 L424.392319,73.0290485 L424.922927,73.5549113 L425.452358,74.0819505 L425.979437,74.6101661 L426.505339,75.1407346 L427.028888,75.6724796 L427.552437,76.2065773 L428.072456,76.7418516 L428.592476,77.2783022 L429.110142,77.8159292 L429.626632,78.3559092 L430.140769,78.8970655 L430.653729,79.4405747 L431.165513,79.9852603 L431.674944,80.5311224 L432.183198,81.0781609 L432.690276,81.6263758 L433.195,82.1769435 L433.698549,82.7298641 L434.199744,83.2827847 L434.699762,83.8380582 L435.197428,84.3945081 L435.695094,84.9521344 L436.18923,85.5121136 L436.683366,86.0732692 L437.175149,86.6356012 L437.664579,87.1991097 L438.154009,87.764971 L438.63991,88.3320087 L439.12581,88.9002229 L439.608181,89.4696134 L440.090552,90.0413569 L440.57057,90.6142768 L441.049411,91.1883731 L441.5259,91.7636458 L442.000035,92.3412713 L442.47417,92.9200733 L442.944776,93.5000518 L443.415382,94.0812066 L443.883635,94.6635379 L444.349535,95.2482221 L444.814258,95.8340826 L445.277804,96.4211196 L445.738998,97.0105094 L446.197839,97.5998993 L446.65668,98.191642 L447.111991,98.7845611 L447.566125,99.3786567 L448.019083,99.9739286 L448.469688,100.571553 L448.919117,101.169178 L449.366192,101.769156 L449.812091,102.37031 L450.255637,102.973817 L450.698007,103.577324 L451.138023,104.182007 L451.576863,104.789044 L452.01335,105.397256 L452.44866,106.006645 L452.881618,106.617211 L453.312222,107.230129 L453.742826,107.843048 L454.169901,108.458319 L454.5958,109.074767 L455.020521,109.691214 L455.44289,110.310015 L455.862906,110.931168 L456.281745,111.552322 L456.698231,112.174651 L457.113541,112.799334 L457.526497,113.425193 L457.938277,114.051052 L458.347704,114.679264 L458.755955,115.308652 L459.161852,115.939217 L459.565397,116.572135 L459.967765,117.205052 L460.36778,117.839147 L460.766618,118.475593 L461.163104,119.11204 L461.558412,119.75084 L461.950192,120.390816 L462.341971,121.031969 L462.731397,121.674298 L463.118471,122.317803 L463.503191,122.962485 L463.886735,123.608344 L464.267925,124.255378 L464.64794,124.90359 L465.025601,125.554154 L465.402085,126.204718 L465.77504,126.856458 L466.147996,127.510551 L466.517421,128.164645 L466.88567,128.821091 L467.251566,129.477537 L467.616286,130.136336 L467.978652,130.796312 L468.339842,131.456287 L468.697503,132.118615 L469.053986,132.78212 L469.409294,133.445625 L469.762248,134.111482 L470.11285,134.778516 L470.461098,135.446727 L470.80817,136.114937 L471.152888,136.785501 L471.495254,137.45724 L471.836443,138.130157 L472.17528,138.804249 L472.512939,139.478342 L472.847069,140.154787 L473.180023,140.832409 L473.5118,141.510031 L473.840048,142.190006 L474.167119,142.871157 L474.491837,143.552308 L474.815378,144.235812 L475.136567,144.919316 L475.455402,145.605173 L475.771884,146.291029 L476.08719,146.979239 L476.398967,147.667449 L476.710743,148.356835 L477.01899,149.048574 L477.32606,149.740313 L477.630777,150.433228 L477.933142,151.12732 L478.233153,151.822588 L478.531987,152.519033 L478.828469,153.215478 L479.122598,153.914275 L479.41555,154.614249 L479.706149,155.314223 L479.994395,156.01655 L480.280288,156.718877 L480.563828,157.423557 L480.846192,158.128236 L481.126202,158.834092 L481.403859,159.541125 L481.679164,160.249334 L481.953292,160.957543 L482.22389,161.668105 L482.493312,162.379843 L482.760381,163.091581 L483.026273,163.804496 L483.288636,164.518587 L483.549822,165.233854 L483.808655,165.950298 L484.065135,166.667919 L484.319262,167.386715 L484.572213,168.105512 L484.822811,168.825485 L485.069879,169.547811 L485.31577,170.270138 L485.560485,170.992464 L485.801671,171.717143 L486.040503,172.442998 L486.278159,173.168853 L486.513462,173.895885 L486.746412,174.624093 L486.977009,175.353478 L487.205253,176.082863 L487.43232,176.8146 L487.655858,177.546338 L487.878219,178.279251 L488.098227,179.013342 L488.315882,179.748609 L488.531184,180.483875 L488.744134,181.221495 L488.95473,181.959115 L489.164149,182.696734 L489.370039,183.436707 L489.574753,184.177856 L489.777113,184.919004 L489.977121,185.66133 L490.174775,186.403655 L490.370077,187.148333 L490.563025,187.893012 L490.75362,188.638866 L490.941863,189.385897 L491.128928,190.134105 L491.312465,190.882312 L491.494824,191.631696 L491.673655,192.382256 L491.851308,193.133993 L492.026609,193.88573 L492.199557,194.638643 L492.370151,195.392733 L492.538393,196.146822 L492.704281,196.902088 L492.867817,197.658531 L493.028999,198.41615 L493.187829,199.173768 L493.344305,199.93374 L493.499605,200.692535 L493.651376,201.453684 L493.800793,202.214832 L493.947857,202.977156 L494.093745,203.740657 L494.236103,204.504158 L494.377285,205.268836 L494.514937,206.03469 L494.650236,206.800544 L494.784359,207.567574 L494.914952,208.335781 L495.044369,209.103987 L495.170256,209.874547 L495.294966,210.64393 L495.416147,211.415666 L495.536152,212.187402 L495.652627,212.960314 L495.766749,213.733227 L495.879694,214.507316 L495.98911,215.282581 L496.096173,216.057846 L496.202059,216.834288 L496.304416,217.611906 L496.40442,218.389524 L496.50207,219.168319 L496.598544,219.94829 L496.691489,220.728261 L496.782081,221.509408 L496.870319,222.290556 L496.956205,223.07288 L497.038561,223.85638 L497.11974,224.63988 L497.198567,225.424557 L497.27504,226.209233 L497.347984,226.995087 L497.419752,227.782116 L497.487989,228.569146 L497.555051,229.357352 L497.618583,230.146734 L497.679761,230.936116 L497.738587,231.725499 L497.79506,232.516058 L497.849179,233.307793 L497.900946,234.100705 L497.95036,234.89244 L497.996244,235.686528 L498.040951,236.480616 L498.082129,237.274704 L498.120954,238.071145 L498.157426,238.86641 L498.191545,239.664027 L498.223311,240.460468 L498.252724,241.259262 L498.279784,242.058056 L498.303314,242.85685 L498.324491,243.65682 L498.344492,244.45679 L498.360963,245.257937 L498.375081,246.06026 L498.38567,246.862583 L498.395082,247.664906 L498.400965,248.468406 L498.405671,249.273081 L498.406847,250.077757 L498.405671,250.882433 L498.400965,251.687109 L498.395082,252.490609 L498.38567,253.292932 L498.375081,254.095255 L498.360963,254.897578 L498.344492,255.698725 L498.324491,256.498695 L498.303314,257.298665 L498.279784,258.098636 L498.252724,258.897429 L498.223311,259.695047 L498.191545,260.492664 L498.157426,261.289105 L498.120954,262.085546 L498.082129,262.880811 L498.040951,263.674899 L497.996244,264.468987 L497.95036,265.263075 L497.900946,266.055987 L497.849179,266.847722 L497.79506,267.639457 L497.738587,268.430016 L497.679761,269.220575 L497.618583,270.009957 L497.555051,270.798163 L497.487989,271.586369 L497.419752,272.373399 L497.347984,273.160428 L497.27504,273.946281 L497.198567,274.730958 L497.11974,275.515635 L497.038561,276.299135 L496.956205,277.082635 L496.870319,277.864959 L496.782081,278.647283 L496.691489,279.427254 L496.598544,280.208401 L496.50207,280.987196 L496.40442,281.765991 L496.304416,282.543609 L496.202059,283.321227 L496.096173,284.097669 L495.98911,284.872934 L495.879694,285.648199 L495.766749,286.422288 L495.652627,287.196377 L495.536152,287.968113 L495.416147,288.739849 L495.294966,289.511585 L495.170256,290.282144 L495.044369,291.051528 L494.914952,291.819734 L494.784359,292.587941 L494.650236,293.354971 L494.514937,294.120825 L494.377285,294.886679 L494.236103,295.651357 L494.093745,296.414858 L493.947857,297.178359 L493.800793,297.940683 L493.651376,298.701831 L493.499605,299.462979 L493.344305,300.222951 L493.187829,300.981746 L493.028999,301.739365 L492.867817,302.496984 L492.704281,303.253427 L492.538393,304.008693 L492.370151,304.763959 L492.199557,305.516872 L492.026609,306.269785 L491.851308,307.022698 L491.673655,307.773259 L491.494824,308.523819 L491.312465,309.273203 L491.128928,310.02141 L490.941863,310.769618 L490.75362,311.516649 L490.563025,312.262503 L490.370077,313.007182 L490.174775,313.75186 L489.977121,314.494185 L489.777113,315.23651 L489.574753,315.978836 L489.370039,316.718808 L489.164149,317.458781 L488.95473,318.197577 L488.744134,318.935196 L488.531184,319.67164 L488.315882,320.406906 L488.098227,321.142173 L487.878219,321.876263 L487.655858,322.609177 L487.43232,323.340915 L487.205253,324.072652 L486.977009,324.802037 L486.746412,325.531422 L486.513462,326.25963 L486.278159,326.986662 L486.040503,327.713693 L485.801671,328.438372 L485.560485,329.163051 L485.31577,329.886554 L485.069879,330.60888 L484.822811,331.330029 L484.572213,332.050003 L484.319262,332.769976 L484.065135,333.487596 L483.808655,334.205217 L483.549822,334.921661 L483.288636,335.636928 L483.026273,336.351019 L482.760381,337.063934 L482.493312,337.776849 L482.22389,338.48741 L481.953292,339.197972 L481.679164,339.906181 L481.403859,340.61439 L481.126202,341.321423 L480.846192,342.027279 L480.563828,342.733135 L480.280288,343.436638 L479.994395,344.138965 L479.706149,344.841292 L479.41555,345.541266 L479.122598,346.24124 L478.828469,346.940037 L478.531987,347.636482 L478.233153,348.332926 L477.933142,349.028195 L477.630777,349.722287 L477.32606,350.415202 L477.01899,351.108117 L476.710743,351.79868 L476.398967,352.488066 L476.08719,353.177452 L475.771884,353.864485 L475.455402,354.550342 L475.136567,355.236199 L474.815378,355.919703 L474.491837,356.603207 L474.167119,357.285535 L473.840048,357.965509 L473.5118,358.645484 L473.180023,359.323106 L472.847069,360.000728 L472.512939,360.677173 L472.17528,361.352442 L471.836443,362.025358 L471.495254,362.698275 L471.152888,363.370014 L470.80817,364.040578 L470.461098,364.708788 L470.11285,365.376998 L469.762248,366.044032 L469.409294,366.70989 L469.053986,367.373395 L468.697503,368.036899 L468.339842,368.699228 L467.978652,369.36038 L467.616286,370.019179 L467.251566,370.677978 L466.88567,371.334424 L466.517421,371.99087 L466.147996,372.644963 L465.77504,373.299057 L465.402085,373.950797 L465.025601,374.602538 L464.64794,375.251925 L464.267925,375.900136 L463.886735,376.547171 L463.503191,377.19303 L463.118471,377.837711 L462.731397,378.481217 L462.341971,379.123546 L461.950192,379.764699 L461.558412,380.404675 L461.163104,381.043475 L460.766618,381.679921 L460.36778,382.316368 L459.967765,382.950462 L459.565397,383.58338 L459.161852,384.216298 L458.755955,384.846863 L458.347704,385.476251 L457.938277,386.104463 L457.526497,386.731498 L457.113541,387.356181 L456.698231,387.980864 L456.281745,388.603193 L455.862906,389.224347 L455.44289,389.8455 L455.020521,390.464301 L454.5958,391.081925 L454.169901,391.697196 L453.742826,392.312467 L453.312222,392.926562 L452.881618,393.538304 L452.44866,394.148869 L452.01335,394.758259 L451.576863,395.366471 L451.138023,395.973507 L450.698007,396.578191 L450.255637,397.182874 L449.812091,397.785205 L449.366192,398.386359 L448.919117,398.986337 L448.469688,399.583961 L448.019083,400.181586 L447.566125,400.776858 L447.111991,401.370954 L446.65668,401.963873 L446.197839,402.555616 L445.738998,403.146182 L445.277804,403.734395 L444.814258,404.321432 L444.349535,404.907293 L443.883635,405.491977 L443.415382,406.074308 L442.944776,406.655463 L442.47417,407.236618 L442.000035,407.814244 L441.5259,408.391869 L441.049411,408.967142 L440.57057,409.541238 L440.090552,410.114158 L439.608181,410.685901 L439.12581,411.255292 L438.63991,411.823506 L438.154009,412.390544 L437.664579,412.956405 L437.175149,413.519914 L436.683366,414.083422 L436.18923,414.643401 L435.695094,415.20338 L435.197428,415.761007 L434.699762,416.317457 L434.199744,416.87273 L433.698549,417.426827 L433.195,417.978571 L432.690276,418.529139 L432.183198,419.077354 L431.674944,419.625569 L431.165513,420.171431 L430.653729,420.71494 L430.140769,421.258449 L429.626632,421.799606 L429.110142,422.339586 L428.592476,422.877213 L428.072456,423.413663 L427.552437,423.948938 L427.028888,424.483035 L426.505339,425.01478 L425.979437,425.545349 L425.452358,426.073564 L424.922927,426.60178 L424.392319,427.126466 L423.860534,427.651153 L423.327573,428.173486 L422.792259,428.694643 L422.255768,429.213448 L421.716925,429.732252 L421.176904,430.247527 L420.635708,430.762802 L420.093335,431.275724 L419.548608,431.786293 L419.002706,432.296862 L418.455626,432.805079 L417.906194,433.310942 L417.355585,433.815629 L416.8038,434.31914 L416.250838,434.820298 L415.695523,435.320279 L415.139032,435.819084 L414.580188,436.315536 L414.021343,436.810812 L413.460146,437.303735 L412.897772,437.795481 L412.333045,438.286051 L411.768318,438.774268 L411.201238,439.261309 L410.632981,439.745997 L410.062372,440.229508 L409.491762,440.710667 L408.9188,441.190649 L408.344661,441.669455 L407.768168,442.145908 L407.191676,442.621184 L406.612831,443.094108 L406.03281,443.565855 L405.451611,444.035249 L404.86806,444.503467 L404.283332,444.970509 L403.698605,445.435197 L403.110347,445.897533 L402.52209,446.358692 L401.932656,446.818675 L401.34087,447.276305 L400.747906,447.732759 L400.153766,448.18686 L399.557274,448.639784 L398.960781,449.090355 L398.361935,449.53975 L397.761912,449.986793 L397.160714,450.432658 L396.558338,450.876171 L395.954786,451.317331 L395.348881,451.758491 L394.7418,452.196122 L394.134718,452.633753 L393.525284,453.067855 L392.913496,453.50078 L392.301709,453.932528 L391.687568,454.361924 L391.073427,454.790143 L390.456934,455.21601 L389.839264,455.639524 L389.220417,456.061861 L388.600394,456.483022 L387.979194,456.90183 L387.355641,457.318285 L386.732089,457.733563 L386.106183,458.146489 L385.479101,458.558239 L384.850842,458.967635 L384.221407,459.374679 L383.590795,459.780546 L382.959007,460.185237 L382.326042,460.587575 L381.690724,460.98756 L381.055406,461.386369 L380.417735,461.782824 L379.778888,462.176927 L379.140041,462.569854 L378.49884,462.960428 L377.856463,463.349825 L377.21291,463.736869 L376.56818,464.122737 L375.922273,464.506253 L375.27519,464.887415 L374.625754,465.267401 L373.976318,465.645034 L373.325706,466.020314 L372.67274,466.394418 L372.019775,466.766169 L371.364456,467.136743 L370.709138,467.504965 L370.051466,467.870833 L369.393794,468.235526 L368.73377,468.597865 L368.072568,468.957852 L367.411367,469.316662 L366.747813,469.673119 L366.083082,470.027224 L365.417175,470.380152 L364.751268,470.730727 L364.083008,471.080126 L363.413571,471.425995 L362.742958,471.771865 L362.072344,472.114205 L361.399378,472.455369 L360.725235,472.79418 L360.049916,473.130638 L359.374597,473.465919 L358.696924,473.798848 L358.018075,474.129424 L357.339226,474.458824 L356.658025,474.78587 L355.975646,475.110564 L355.293268,475.432905 L354.608536,475.75407 L353.923805,476.072881 L353.23672,476.38934 L352.549636,476.704622 L351.861375,477.017552 L351.170761,477.328129 L350.480147,477.637529 L349.788356,477.9434 L349.095389,478.248094 L348.401246,478.551613 L347.705926,478.851601 L347.009429,479.150414 L346.311756,479.446873 L345.612906,479.74098 L344.914057,480.032734 L344.212854,480.323311 L343.511651,480.611536 L342.808096,480.897408 L342.10454,481.182103 L341.399808,481.463269 L340.693899,481.743259 L339.986814,482.020895 L339.278552,482.297356 L338.569114,482.570287 L337.859676,482.842041 L337.147884,483.111443 L336.436093,483.378492 L335.721949,483.643188 L335.007804,483.906707 L334.292483,484.167874 L333.575986,484.426688 L332.859489,484.683149 L332.140638,484.937257 L331.421788,485.190189 L330.700585,485.439592 L329.979381,485.687818 L329.257001,485.933691 L328.533445,486.177211 L327.809888,486.419555 L327.083979,486.65837 L326.35807,486.896008 L325.630984,487.131293 L324.902721,487.36305 L324.173282,487.594806 L323.442667,487.823032 L322.712051,488.048906 L321.979082,488.273604 L321.246114,488.495949 L320.511969,488.714764 L319.777824,488.932403 L319.041326,489.147689 L318.304828,489.361799 L317.567153,489.572379 L316.828302,489.780607 L316.089451,489.987658 L315.348247,490.19118 L314.607042,490.393525 L313.864662,490.593518 L313.121105,490.791157 L312.377547,490.986444 L311.631637,491.179378 L310.885727,491.371136 L310.13864,491.559364 L309.391554,491.745239 L308.64329,491.929938 L307.893851,492.111108 L307.143234,492.291102 L306.391442,492.468742 L305.639649,492.642853 L304.88668,492.815788 L304.132534,492.98637 L303.377211,493.154599 L302.621889,493.320475 L301.86539,493.483998 L301.108891,493.645169 L300.35004,493.805163 L299.591188,493.961628 L298.831159,494.11574 L298.071131,494.267499 L297.308749,494.418081 L296.547545,494.565135 L295.783987,494.709835 L295.020429,494.853359 L294.255694,494.993354 L293.489783,495.132172 L292.722696,495.267461 L291.955608,495.400398 L291.188521,495.532157 L290.41908,495.660388 L289.64964,495.787442 L288.879023,495.910967 L288.108406,496.033315 L287.336612,496.152134 L286.563642,496.269777 L285.790672,496.38389 L285.015349,496.495651 L284.241203,496.606235 L283.464703,496.71329 L282.688203,496.817992 L281.911704,496.921518 L281.132851,497.021514 L280.355175,497.119157 L279.575146,497.214448 L278.795117,497.307386 L278.013911,497.39797 L277.232706,497.486202 L276.450323,497.572082 L275.666765,497.655608 L274.883206,497.736781 L274.098471,497.815602 L273.312559,497.890893 L272.526648,497.965008 L271.740736,498.035594 L270.952471,498.105003 L270.164206,498.170883 L269.375942,498.23441 L268.5865,498.296761 L267.795883,498.355582 L267.005265,498.41205 L266.213471,498.466166 L265.421676,498.516752 L264.628706,498.566162 L263.835735,498.613219 L263.041587,498.656747 L262.246264,498.699098 L261.45094,498.737921 L260.65444,498.77439 L259.857939,498.808506 L259.060262,498.84027 L258.262585,498.86968 L257.463732,498.895562 L256.664879,498.920267 L255.864849,498.941442 L255.063642,498.960265 L254.262436,498.976735 L253.46123,498.990852 L252.658847,499.002617 L251.855287,499.010852 L251.051728,499.01791 L250.248169,499.021439 L249.443433,499.022616 L248.63752,499.021439 L247.833961,499.01791 L247.030401,499.010852 L246.226842,499.002617 L245.424459,498.990852 L244.623253,498.976735 L243.822046,498.960265 L243.02084,498.941442 L242.22081,498.920267 L241.421957,498.895562 L240.623103,498.86968 L239.825426,498.84027 L239.02775,498.808506 L238.231249,498.77439 L237.434749,498.737921 L236.639425,498.699098 L235.844101,498.656747 L235.049954,498.613219 L234.256983,498.566162 L233.464012,498.516752 L232.672218,498.466166 L231.880424,498.41205 L231.089806,498.355582 L230.299188,498.296761 L229.509747,498.23441 L228.721482,498.170883 L227.933218,498.105003 L227.144953,498.035594 L226.359041,497.965008 L225.573129,497.890893 L224.787218,497.815602 L224.002483,497.736781 L223.218924,497.655608 L222.436542,497.572082 L221.652983,497.486202 L220.871777,497.39797 L220.090572,497.307386 L219.310543,497.214448 L218.53169,497.119157 L217.752837,497.021514 L216.973985,496.921518 L216.197485,496.817992 L215.420986,496.71329 L214.644486,496.606235 L213.87034,496.495651 L213.095016,496.38389 L212.322046,496.269777 L211.549076,496.152134 L210.777283,496.033315 L210.006666,495.910967 L209.236049,495.787442 L208.466608,495.660388 L207.697168,495.532157 L206.93008,495.400398 L206.162993,495.267461 L205.395905,495.132172 L204.631171,494.993354 L203.86526,494.853359 L203.101702,494.709835 L202.339321,494.565135 L201.576939,494.418081 L200.814558,494.267499 L200.054529,494.11574 L199.294501,493.961628 L198.535649,493.805163 L197.776797,493.645169 L197.020299,493.483998 L196.2638,493.320475 L195.508477,493.154599 L194.753155,492.98637 L193.999009,492.815788 L193.24604,492.642853 L192.494247,492.468742 L191.742454,492.291102 L190.993015,492.111108 L190.242398,491.929938 L189.494135,491.745239 L188.747048,491.559364 L187.999962,491.371136 L187.254051,491.179378 L186.508141,490.986444 L185.764584,490.791157 L185.021027,490.593518 L184.278646,490.393525 L183.537442,490.19118 L182.797414,489.987658 L182.057387,489.780607 L181.318536,489.572379 L180.580861,489.361799 L179.844363,489.147689 L179.107865,488.932403 L178.37372,488.714764 L177.639575,488.495949 L176.906606,488.273604 L176.173638,488.048906 L175.443022,487.823032 L174.712407,487.594806 L173.982968,487.36305 L173.254705,487.131293 L172.527619,486.896008 L171.80171,486.65837 L171.0758,486.419555 L170.352244,486.177211 L169.628687,485.933691 L168.906307,485.687818 L168.185104,485.439592 L167.465077,485.190189 L166.74505,484.937257 L166.0262,484.683149 L165.309703,484.426688 L164.593205,484.167874 L163.877884,483.906707 L163.16374,483.643188 L162.449596,483.378492 L161.737804,483.111443 L161.02719,482.842041 L160.316575,482.570287 L159.607137,482.297356 L158.898875,482.020895 L158.19179,481.743259 L157.485881,481.463269 L156.781149,481.182103 L156.077593,480.897408 L155.374037,480.611536 L154.672835,480.323311 L153.971632,480.032734 L153.272782,479.74098 L152.573933,479.446873 L151.87626,479.150414 L151.179763,478.851601 L150.484443,478.551613 L149.7903,478.248094 L149.097332,477.9434 L148.405542,477.637529 L147.714928,477.328129 L147.024314,477.017552 L146.336053,476.704622 L145.648968,476.38934 L144.961884,476.072881 L144.277152,475.75407 L143.592421,475.432905 L142.910043,475.110564 L142.227664,474.78587 L141.546462,474.458824 L140.867613,474.129424 L140.188764,473.798848 L139.511092,473.465919 L138.835773,473.130638 L138.160453,472.79418 L137.486311,472.455369 L136.813344,472.114205 L136.142731,471.771865 L135.472118,471.425995 L134.802681,471.080126 L134.134421,470.730727 L133.468514,470.380152 L132.802606,470.027224 L132.137876,469.673119 L131.474321,469.316662 L130.81312,468.957852 L130.151919,468.597865 L129.491894,468.235526 L128.834223,467.870833 L128.176551,467.504965 L127.521233,467.136743 L126.865914,466.766169 L126.212948,466.394418 L125.559983,466.020314 L124.90937,465.645034 L124.259934,465.267401 L123.610498,464.887415 L122.963415,464.506253 L122.317509,464.122737 L121.672779,463.736869 L121.029225,463.349825 L120.386849,462.960428 L119.745648,462.569854 L119.106801,462.176927 L118.467953,461.782824 L117.830282,461.386369 L117.194965,460.98756 L116.559647,460.587575 L115.926682,460.185237 L115.294894,459.780546 L114.664282,459.374679 L114.034847,458.967635 L113.406588,458.558239 L112.779506,458.146489 L112.1536,457.733563 L111.530047,457.318285 L110.906495,456.90183 L110.285295,456.483022 L109.665272,456.061861 L109.046425,455.639524 L108.428755,455.21601 L107.812261,454.790143 L107.198121,454.361924 L106.58398,453.932528 L105.972193,453.50078 L105.361582,453.067855 L104.752147,452.633753 L104.143889,452.196122 L103.536808,451.758491 L102.930903,451.317331 L102.327351,450.876171 L101.724975,450.432658 L101.123776,449.986793 L100.523754,449.53975 L99.924908,449.090355 L99.3284151,448.639784 L98.7319222,448.18686 L98.1377824,447.732759 L97.5448191,447.276305 L96.9542088,446.818675 L96.3635985,446.358692 L95.7753412,445.897533 L95.1882605,445.435197 L94.6023563,444.970509 L94.0176285,444.503467 L93.4340773,444.035249 L92.8528792,443.565855 L92.2728575,443.094108 L91.6940124,442.621184 L91.1175202,442.145908 L90.5410281,441.669455 L89.966889,441.190649 L89.3939265,440.710667 L88.8233169,440.229508 L88.2527074,439.745997 L87.6844509,439.261309 L87.1173709,438.774268 L86.5526439,438.286051 L85.9879169,437.795481 L85.425543,437.303735 L84.8643456,436.810812 L84.3055012,436.315536 L83.7466568,435.819084 L83.1901654,435.320279 L82.6360271,434.820298 L82.0818887,434.31914 L81.5301034,433.815629 L80.9794946,433.310942 L80.4300623,432.805079 L79.8829831,432.296862 L79.3370803,431.786293 L78.7923541,431.275724 L78.2499809,430.762802 L77.7087842,430.247527 L77.1687641,429.732252 L76.6299204,429.213448 L76.0934298,428.694643 L75.5581157,428.173486 L75.0251546,427.651153 L74.49337,427.126466 L73.962762,426.60178 L73.4333305,426.073564 L72.906252,425.545349 L72.38035,425.01478 L71.856801,424.483035 L71.333252,423.948938 L70.8132326,423.413663 L70.2932132,422.877213 L69.7755468,422.339586 L69.2590569,421.799606 L68.7449201,421.258449 L68.2319598,420.71494 L67.7201759,420.171431 L67.2107451,419.625569 L66.7024909,419.077354 L66.1954131,418.529139 L65.6906884,417.978571 L65.1883167,417.426827 L64.685945,416.87273 L64.1859263,416.317457 L63.6882607,415.761007 L63.190595,415.20338 L62.6964589,414.643401 L62.2023228,414.083422 L61.7105398,413.519914 L61.2211097,412.956405 L60.7328562,412.390544 L60.2457792,411.823506 L59.7598787,411.255292 L59.2775077,410.685901 L58.7951368,410.114158 L58.3151188,409.541238 L57.8374539,408.967142 L57.359789,408.391869 L56.8856537,407.814244 L56.4115183,407.236618 L55.9409125,406.655463 L55.4703067,406.074308 L55.0020539,405.491977 L54.5361542,404.907293 L54.071431,404.321432 L53.6078842,403.734395 L53.1466905,403.146182 L52.6878499,402.555616 L52.2290092,401.963873 L51.7736981,401.370954 L51.3195635,400.776858 L50.8666054,400.181586 L50.4160003,399.583961 L49.9665718,398.986337 L49.5194963,398.386359 L49.0735973,397.785205 L48.6300513,397.182874 L48.1876818,396.578191 L47.7476654,395.973507 L47.3088255,395.366471 L46.8723386,394.758259 L46.4370282,394.148869 L46.0040709,393.538304 L45.5734666,392.926562 L45.1428622,392.312467 L44.7157875,391.697196 L44.2898892,391.081925 L43.8651675,390.464301 L43.4427988,389.8455 L43.0227831,389.224347 L42.6039439,388.603193 L42.1874578,387.980864 L41.7721481,387.356181 L41.3591915,386.731498 L40.9474115,386.104463 L40.5379844,385.476251 L40.1297339,384.846863 L39.7238363,384.216298 L39.3202919,383.58338 L38.9179239,382.950462 L38.517909,382.316368 L38.1190705,381.679921 L37.7225851,381.043475 L37.3284528,380.404675 L36.9354969,379.764699 L36.5437176,379.123546 L36.1554678,378.481217 L35.767218,377.837711 L35.3824978,377.19303 L34.998954,376.547171 L34.6177633,375.900136 L34.2377491,375.251925 L33.860088,374.602538 L33.4836033,373.950797 L33.1106482,373.299057 L32.7376931,372.644963 L32.3682676,371.99087 L32.0000185,371.334424 L31.6341225,370.677978 L31.269403,370.019179 L30.9070365,369.36038 L30.5458466,368.699228 L30.1881861,368.036899 L29.8317022,367.373395 L29.4763949,366.70989 L29.1234405,366.044032 L28.7728392,365.376998 L28.4245909,364.708788 L28.0775191,364.040578 L27.7328003,363.370014 L27.3904346,362.698275 L27.0492454,362.025358 L26.7104092,361.352442 L26.3727495,360.677173 L26.0386194,360.000728 L25.7056658,359.323106 L25.3750652,358.645484 L25.0456412,357.965509 L24.7185701,357.285535 L24.3938521,356.603207 L24.0703106,355.919703 L23.7502987,355.236199 L23.4302867,354.550342 L23.1138043,353.864485 L22.7996749,353.177452 L22.4867221,352.488066 L22.1749457,351.79868 L21.8666989,351.108117 L21.5596286,350.415202 L21.2549114,349.722287 L20.9525471,349.028195 L20.6525359,348.332926 L20.3537012,347.636482 L20.0572196,346.940037 L19.763091,346.24124 L19.4701388,345.541266 L19.1795398,344.841292 L18.8912937,344.138965 L18.6054007,343.436638 L18.3218607,342.733135 L18.0394972,342.027279 L17.7594867,341.321423 L17.4818293,340.61439 L17.2065249,339.906181 L16.932397,339.197972 L16.6617987,338.48741 L16.3923768,337.776849 L16.125308,337.063934 L15.8594158,336.351019 L15.597053,335.636928 L15.3358668,334.921661 L15.0770336,334.205217 L14.8205534,333.487596 L14.5664263,332.769976 L14.3134757,332.050003 L14.0628781,331.330029 L13.81581,330.60888 L13.5699185,329.886554 L13.3252035,329.163051 L13.084018,328.438372 L12.8451856,327.713693 L12.6075296,326.986662 L12.3722267,326.25963 L12.1392768,325.531422 L11.90868,324.802037 L11.6804362,324.072652 L11.4533689,323.340915 L11.2298311,322.609177 L11.0074699,321.876263 L10.7874617,321.142173 L10.5698065,320.406906 L10.3545043,319.67164 L10.1415552,318.935196 L9.93095909,318.197577 L9.7215395,317.458781 L9.51564946,316.718808 L9.31093593,315.978836 L9.10857544,315.23651 L8.90856797,314.494185 L8.71209004,313.75186 L8.51561212,313.007182 L8.32266373,312.262503 L8.13206838,311.516649 L7.94382606,310.769618 L7.75676025,310.02141 L7.57322398,309.273203 L7.39086423,308.523819 L7.21203402,307.773259 L7.03438033,307.022698 L6.85907967,306.269785 L6.68613203,305.516872 L6.51553743,304.763959 L6.34729585,304.008693 L6.1814073,303.253427 L6.01787178,302.496984 L5.85668929,301.739365 L5.69785983,300.981746 L5.5413834,300.222951 L5.38726,299.462979 L5.23431311,298.701831 L5.08489577,297.940683 L4.93783145,297.178359 L4.79194365,296.414858 L4.64958539,295.651357 L4.50840365,294.886679 L4.37075145,294.120825 L4.23545228,293.354971 L4.10132963,292.587941 L3.97073651,291.819734 L3.84131992,291.051528 L3.71543286,290.282144 L3.59072232,289.511585 L3.46954133,288.739849 L3.35071336,287.968113 L3.23306191,287.196377 L3.11894,286.422288 L3.00599461,285.648199 L2.89657876,284.872934 L2.78951593,284.097669 L2.68362963,283.321227 L2.58127286,282.543609 L2.48126913,281.765991 L2.38361842,280.987196 L2.28832075,280.208401 L2.19419959,279.427254 L2.10360797,278.647283 L2.01536938,277.864959 L1.92948382,277.082635 L1.8471278,276.299135 L1.7659483,275.515635 L1.68712183,274.730958 L1.61064838,273.946281 L1.53770448,273.160428 L1.4659371,272.373399 L1.39769925,271.586369 L1.33063793,270.798163 L1.26710614,270.009957 L1.20592739,269.220575 L1.14710166,268.430016 L1.09062896,267.639457 L1.03650929,266.847722 L0.984742656,266.055987 L0.935329046,265.263075 L0.889444979,264.468987 L0.844737427,263.674899 L0.803559419,262.880811 L0.76473444,262.085546 L0.72826249,261.289105 L0.694143568,260.492664 L0.662377676,259.695047 L0.632964813,258.897429 L0.605904979,258.098636 L0.582374689,257.298665 L0.561197427,256.498695 L0.54119668,255.698725 L0.524725477,254.897578 L0.510607303,254.095255 L0.500018672,253.292932 L0.490606556,252.490609 L0.484723983,251.687109 L0.480017925,250.882433 L0.478841411,250.077757 L0.480017925,249.273081 L0.484723983,248.468406 L0.490606556,247.664906 L0.500018672,246.862583 L0.510607303,246.06026 L0.524725477,245.257937 L0.54119668,244.45679 L0.561197427,243.65682 L0.582374689,242.85685 L0.605904979,242.058056 L0.632964813,241.259262 L0.662377676,240.460468 L0.694143568,239.664027 L0.72826249,238.86641 L0.76473444,238.071145 L0.803559419,237.274704 L0.844737427,236.480616 L0.889444979,235.686528 L0.935329046,234.89244 L0.984742656,234.100705 L1.03650929,233.307793 L1.09062896,232.516058 L1.14710166,231.725499 L1.20592739,230.936116 L1.26710614,230.146734 L1.33063793,229.357352 L1.39769925,228.569146 L1.4659371,227.782116 L1.53770448,226.995087 L1.61064838,226.209233 L1.68712183,225.424557 L1.7659483,224.63988 L1.8471278,223.85638 L1.92948382,223.07288 L2.01536938,222.290556 L2.10360797,221.509408 L2.19419959,220.728261 L2.28832075,219.94829 L2.38361842,219.168319 L2.48126913,218.389524 L2.58127286,217.611906 L2.68362963,216.834288 L2.78951593,216.057846 L2.89657876,215.282581 L3.00599461,214.507316 L3.11894,213.733227 L3.23306191,212.960314 L3.35071336,212.187402 L3.46954133,211.415666 L3.59072232,210.64393 L3.71543286,209.874547 L3.84131992,209.103987 L3.97073651,208.335781 L4.10132963,207.567574 L4.23545228,206.800544 L4.37075145,206.03469 L4.50840365,205.268836 L4.64958539,204.504158 L4.79194365,203.740657 L4.93783145,202.977156 L5.08489577,202.214832 L5.23431311,201.453684 L5.38726,200.692535 L5.5413834,199.93374 L5.69785983,199.173768 L5.85668929,198.41615 L6.01787178,197.658531 L6.1814073,196.902088 L6.34729585,196.146822 L6.51553743,195.392733 L6.68613203,194.638643 L6.85907967,193.88573 L7.03438033,193.133993 L7.21203402,192.382256 L7.39086423,191.631696 L7.57322398,190.882312 L7.75676025,190.134105 L7.94382606,189.385897 L8.13206838,188.638866 L8.32266373,187.893012 L8.51561212,187.148333 L8.71209004,186.403655 L8.90856797,185.66133 L9.10857544,184.919004 L9.31093593,184.177856 L9.51564946,183.436707 L9.7215395,182.696734 L9.93095909,181.959115 L10.1415552,181.221495 L10.3545043,180.483875 L10.5698065,179.748609 L10.7874617,179.013342 L11.0074699,178.279251 L11.2298311,177.546338 L11.4533689,176.8146 L11.6804362,176.082863 L11.90868,175.353478 L12.1392768,174.624093 L12.3722267,173.895885 L12.6075296,173.168853 L12.8451856,172.442998 L13.084018,171.717143 L13.3252035,170.992464 L13.5699185,170.270138 L13.81581,169.547811 L14.0628781,168.825485 L14.3134757,168.105512 L14.5664263,167.386715 L14.8205534,166.667919 L15.0770336,165.950298 L15.3358668,165.233854 L15.597053,164.518587 L15.8594158,163.804496 L16.125308,163.091581 L16.3923768,162.379843 L16.6617987,161.668105 L16.932397,160.957543 L17.2065249,160.249334 L17.4818293,159.541125 L17.7594867,158.834092 L18.0394972,158.128236 L18.3218607,157.423557 L18.6054007,156.718877 L18.8912937,156.01655 L19.1795398,155.314223 L19.4701388,154.614249 L19.763091,153.914275 L20.0572196,153.215478 L20.3537012,152.519033 L20.6525359,151.822588 L20.9525471,151.12732 L21.2549114,150.433228 L21.5596286,149.740313 L21.8666989,149.048574 L22.1749457,148.356835 L22.4867221,147.667449 L22.7996749,146.979239 L23.1138043,146.291029 L23.4302867,145.605173 L23.7502987,144.919316 L24.0703106,144.235812 L24.3938521,143.552308 L24.7185701,142.871157 L25.0456412,142.190006 L25.3750652,141.510031 L25.7056658,140.832409 L26.0386194,140.154787 L26.3727495,139.478342 L26.7104092,138.804249 L27.0492454,138.130157 L27.3904346,137.45724 L27.7328003,136.785501 L28.0775191,136.114937 L28.4245909,135.446727 L28.7728392,134.778516 L29.1234405,134.111482 L29.4763949,133.445625 L29.8317022,132.78212 L30.1881861,132.118615 L30.5458466,131.456287 L30.9070365,130.796312 L31.269403,130.136336 L31.6341225,129.477537 L32.0000185,128.821091 L32.3682676,128.164645 L32.7376931,127.510551 L33.1106482,126.856458 L33.4836033,126.204718 L33.860088,125.554154 L34.2377491,124.90359 L34.6177633,124.255378 L34.998954,123.608344 L35.3824978,122.962485 L35.767218,122.317803 L36.1554678,121.674298 L36.5437176,121.031969 L36.9354969,120.390816 L37.3284528,119.75084 L37.7225851,119.11204 L38.1190705,118.475593 L38.517909,117.839147 L38.9179239,117.205052 L39.3202919,116.572135 L39.7238363,115.939217 L40.1297339,115.308652 L40.5379844,114.679264 L40.9474115,114.051052 L41.3591915,113.425193 L41.7721481,112.799334 L42.1874578,112.174651 L42.6039439,111.552322 L43.0227831,110.931168 L43.4427988,110.310015 L43.8651675,109.691214 L44.2898892,109.074767 L44.7157875,108.458319 L45.1428622,107.843048 L45.5734666,107.230129 L46.0040709,106.617211 L46.4370282,106.006645 L46.8723386,105.397256 L47.3088255,104.789044 L47.7476654,104.182007 L48.1876818,103.577324 L48.6300513,102.973817 L49.0735973,102.37031 L49.5194963,101.769156 L49.9665718,101.169178 L50.4160003,100.571553 L50.8666054,99.9739286 L51.3195635,99.3786567 L51.7736981,98.7845611 L52.2290092,98.191642 L52.6878499,97.5998993 L53.1466905,97.0105094 L53.6078842,96.4211196 L54.071431,95.8340826 L54.5361542,95.2482221 L55.0020539,94.6635379 L55.4703067,94.0812066 L55.9409125,93.5000518 L56.4115183,92.9200733 L56.8856537,92.3412713 L57.359789,91.7636458 L57.8374539,91.1883731 L58.3151188,90.6142768 L58.7951368,90.0413569 L59.2775077,89.4696134 L59.7598787,88.9002229 L60.2457792,88.3320087 L60.7328562,87.764971 L61.2211097,87.1991097 L61.7105398,86.6356012 L62.2023228,86.0732692 L62.6964589,85.5121136 L63.190595,84.9521344 L63.6882607,84.3945081 L64.1859263,83.8380582 L64.685945,83.2827847 L65.1883167,82.7298641 L65.6906884,82.1769435 L66.1954131,81.6263758 L66.7024909,81.0781609 L67.2107451,80.5311224 L67.7201759,79.9852603 L68.2319598,79.4405747 L68.7449201,78.8970655 L69.2590569,78.3559092 L69.7755468,77.8159292 L70.2932132,77.2783022 L70.8132326,76.7418516 L71.333252,76.2065773 L71.856801,75.6724796 L72.38035,75.1407346 L72.906252,74.6101661 L73.4333305,74.0819505 L73.962762,73.5549113 L74.49337,73.0290485 L75.0251546,72.5043621 L75.5581157,71.9820286 L76.0934298,71.4608715 L76.6299204,70.9420673 L77.1687641,70.4244395 L77.7087842,69.9079881 L78.2499809,69.3927131 L78.7923541,68.879791 L79.3370803,68.3692218 L79.8829831,67.8586525 L80.4300623,67.3516126 L80.9794946,66.8445726 L81.5301034,66.3398855 L82.0818887,65.8363748 L82.6360271,65.335217 L83.1901654,64.8352356 L83.7466568,64.3364306 L84.3055012,63.8399785 L84.8643456,63.3447028 L85.425543,62.8517799 L85.9879169,62.3600335 L86.5526439,61.8694635 L87.1173709,61.3812464 L87.6844509,60.8942057 L88.2527074,60.4095178 L88.8233169,59.9260064 L89.3939265,59.4448478 L89.966889,58.9648657 L90.5410281,58.48606 L91.1175202,58.0096071 L91.6940124,57.5343307 L92.2728575,57.0614071 L92.8528792,56.5896599 L93.4340773,56.1202656 L94.0176285,55.6520477 L94.6023563,55.1850063 L95.1882605,54.7203177 L95.7753412,54.2579819 L96.3635985,53.7968226 L96.9542088,53.3368397 L97.5448191,52.8792097 L98.1377824,52.4227561 L98.7319222,51.9686553 L99.3284151,51.5169074 L99.924908,51.0651595 L100.523754,50.6169409 L101.123776,50.1687223 L101.724975,49.7240329 L102.327351,49.2793436 L102.930903,48.8381835 L103.536808,48.3970235 L104.143889,47.9593927 L104.752147,47.5229383 L105.361582,47.0876604 L105.972193,46.6547353 L106.58398,46.2229867 L107.198121,45.7935909 L107.812261,45.3653715 L108.428755,44.939505 L109.046425,44.5159913 L109.665272,44.0936541 L110.285295,43.6724933 L110.906495,43.2548618 L111.530047,42.8372302 L112.1536,42.4219516 L112.779506,42.0090258 L113.406588,41.5984528 L114.034847,41.1878798 L114.664282,40.7808361 L115.294894,40.3749689 L115.926682,39.9702781 L116.559647,39.5691165 L117.194965,39.167955 L117.830282,38.7703227 L118.467953,38.3738668 L119.106801,37.9785874 L119.745648,37.5856609 L120.386849,37.1950872 L121.029225,36.8056899 L121.672779,36.4186454 L122.317509,36.0327774 L122.963415,35.6504387 L123.610498,35.2681 L124.259934,34.8892906 L124.90937,34.5104811 L125.559983,34.135201 L126.212948,33.7610972 L126.865914,33.3893464 L127.521233,33.0187719 L128.176551,32.6505503 L128.834223,32.2846816 L129.491894,31.9199892 L130.151919,31.5576498 L130.81312,31.1976632 L131.474321,30.838853 L132.137876,30.4823957 L132.802606,30.1282912 L133.468514,29.7753631 L134.134421,29.4247879 L134.802681,29.0765656 L135.472118,28.7295197 L136.142731,28.3848266 L136.813344,28.04131 L137.486311,27.7001462 L138.160453,27.3613353 L138.835773,27.0248772 L139.511092,26.6895955 L140.188764,26.3566668 L140.867613,26.0260908 L141.546462,25.6966913 L142.227664,25.3708211 L142.910043,25.0449508 L143.592421,24.7226099 L144.277152,24.4014454 L144.961884,24.0826337 L145.648968,23.7661749 L146.336053,23.4508925 L147.024314,23.1379629 L147.714928,22.8273863 L148.405542,22.5191624 L149.097332,22.212115 L149.7903,21.9074205 L150.484443,21.6050788 L151.179763,21.3039135 L151.87626,21.0051011 L152.573933,20.7086415 L153.272782,20.4145348 L153.971632,20.122781 L154.672835,19.8322035 L155.374037,19.543979 L156.077593,19.2581072 L156.781149,18.973412 L157.485881,18.6922459 L158.19179,18.4122564 L158.898875,18.1346196 L159.607137,17.8581593 L160.316575,17.5852283 L161.02719,17.3134737 L161.737804,17.0440719 L162.449596,16.7770231 L163.16374,16.512327 L163.877884,16.2488074 L164.593205,15.9888171 L165.309703,15.7300032 L166.0262,15.4723657 L166.74505,15.2182575 L167.465077,14.9665022 L168.185104,14.7159232 L168.906307,14.4676972 L169.628687,14.221824 L170.352244,13.9783036 L171.0758,13.7371361 L171.80171,13.497145 L172.527619,13.2595068 L173.254705,13.0253979 L173.982968,12.7924654 L174.712407,12.5618857 L175.443022,12.3324825 L176.173638,12.1066085 L176.906606,11.881911 L177.639575,11.6607428 L178.37372,11.4407509 L179.107865,11.223112 L179.844363,11.0078259 L180.580861,10.7948926 L181.318536,10.5831358 L182.057387,10.3749082 L182.797414,10.1678571 L183.537442,9.96433527 L184.278646,9.76198985 L185.021027,9.56199729 L185.764584,9.36435759 L186.508141,9.16907073 L187.254051,8.97613673 L187.999962,8.78555558 L188.747048,8.59615086 L189.494135,8.41027542 L190.242398,8.22557641 L190.993015,8.04440668 L191.742454,7.86441337 L192.494247,7.68677292 L193.24604,7.51266175 L193.999009,7.33972701 L194.753155,7.16914512 L195.508477,7.00091608 L196.2638,6.8350399 L197.020299,6.67151657 L197.776797,6.51034609 L198.535649,6.35152847 L199.294501,6.19388727 L200.054529,6.03977536 L200.814558,5.8880163 L201.576939,5.73861009 L202.339321,5.59038031 L203.101702,5.44567981 L203.86526,5.30215573 L204.631171,5.16216094 L205.395905,5.024519 L206.162993,4.88805349 L206.93008,4.75511726 L207.697168,4.62335745 L208.466608,4.49512693 L209.236049,4.36807283 L210.006666,4.24454801 L210.777283,4.12219962 L211.549076,4.00338051 L212.322046,3.88691425 L213.095016,3.77162442 L213.87034,3.65986388 L214.644486,3.55045618 L215.420986,3.44222491 L216.197485,3.33752292 L216.973985,3.23517379 L217.752837,3.13400108 L218.53169,3.03635765 L219.310543,2.94106708 L220.090572,2.84812936 L220.871777,2.75754449 L221.652983,2.66931248 L222.436542,2.58343332 L223.218924,2.49990702 L224.002483,2.41873357 L224.787218,2.3410894 L225.573129,2.26462165 L226.359041,2.19050676 L227.144953,2.11992115 L227.933218,2.05051197 L228.721482,1.98463207 L229.509747,1.92110502 L230.299188,1.8587544 L231.089806,1.79993305 L231.880424,1.74346457 L232.672218,1.68934893 L233.464012,1.63876258 L234.256983,1.58935265 L235.049954,1.54229558 L235.844101,1.49876778 L236.639425,1.45759285 L237.434749,1.41759433 L238.231249,1.3811251 L239.02775,1.34700872 L239.825426,1.3152452 L240.623103,1.28701095 L241.421957,1.25995314 L242.22081,1.23524817 L243.02084,1.21407249 L243.822046,1.19524966 L244.623253,1.17877969 L245.424459,1.16466256 L246.226842,1.1528983 L247.030401,1.14466331 L247.833961,1.13760475 L248.63752,1.13407547 L249.443433,1.13289904 L250.248169,1.13407547 Z M248.824586,59.9554171 L248.206916,59.9577699 L247.590422,59.9636521 L246.972752,59.9695342 L246.357435,59.9789456 L245.742118,59.9895335 L245.126801,60.0024742 L244.51266,60.0165913 L243.899696,60.0330613 L243.286732,60.0518841 L242.674945,60.0718833 L242.063157,60.0942354 L241.451369,60.1189404 L240.840758,60.1448218 L240.231324,60.173056 L239.621889,60.2024667 L239.012455,60.2342302 L238.404197,60.2683466 L237.797115,60.3036394 L237.190034,60.3412851 L236.584129,60.3812836 L235.978224,60.4224585 L235.372319,60.4659863 L234.768767,60.5106905 L234.164039,60.5577476 L233.560487,60.6071575 L232.958111,60.6577439 L232.355736,60.7095067 L231.754537,60.7647987 L231.153338,60.8200908 L230.553315,60.8789121 L229.95447,60.9389099 L229.355624,61.0000841 L228.756778,61.0647876 L228.159108,61.1294911 L227.561439,61.1977238 L226.964946,61.2659566 L226.36963,61.3377186 L225.774313,61.4106571 L225.178997,61.484772 L224.584857,61.5612397 L223.991894,61.6400603 L223.398931,61.7200573 L222.807144,61.8024072 L222.215357,61.8859335 L221.624747,61.9718127 L221.034136,62.0588683 L220.444703,62.1482767 L219.856445,62.240038 L219.268188,62.3317993 L218.679931,62.4270899 L218.09285,62.5235569 L217.506946,62.6212003 L216.921042,62.7211966 L216.336314,62.8235457 L215.751586,62.9270713 L215.168035,63.0317732 L214.584484,63.1388281 L214.002109,63.2482358 L213.420911,63.3588199 L212.839713,63.4717569 L212.258515,63.5858703 L211.678493,63.7011601 L211.099648,63.8188028 L210.521979,63.9387983 L209.943134,64.0599703 L209.366642,64.1823187 L208.79015,64.3070199 L208.213658,64.434074 L207.639519,64.5623046 L207.064203,64.6917115 L206.49124,64.8234713 L205.918278,64.9564075 L205.345315,65.0916966 L204.773529,65.2281621 L204.20292,65.3669805 L203.63231,65.5069753 L203.062877,65.6493229 L202.493444,65.792847 L201.925188,65.938724 L201.358108,66.0857773 L200.791028,66.2340071 L200.225124,66.3845897 L199.659221,66.5375252 L199.094494,66.6916371 L198.529767,66.8469255 L197.966216,67.0045667 L197.403842,67.1633843 L196.842645,67.3233783 L196.281447,67.4857252 L195.72025,67.650425 L195.160229,67.8163012 L194.601385,67.9833538 L194.04254,68.1527592 L193.484872,68.3233411 L192.928381,68.4950995 L192.37189,68.6692106 L191.816575,68.8456747 L191.262436,69.0233151 L190.708298,69.202132 L190.15416,69.3821253 L189.602374,69.5644714 L189.050589,69.7491705 L188.498804,69.9350459 L187.949372,70.1220978 L187.399939,70.3115025 L186.850507,70.5020836 L186.302251,70.6938412 L185.755172,70.8879516 L185.209269,71.0832385 L184.663366,71.2808782 L184.11864,71.4785179 L183.573914,71.6796869 L183.030364,71.8820323 L182.487991,72.0855541 L181.945618,72.2902524 L181.404421,72.4973035 L180.864401,72.7055311 L180.324381,72.9161115 L179.785537,73.1278683 L179.24787,73.3408016 L178.710203,73.5549113 L178.173712,73.7713738 L177.638398,73.9901892 L177.103084,74.210181 L176.568947,74.4313493 L176.035985,74.6536939 L175.503024,74.8783914 L174.97124,75.1042654 L174.440632,75.3313158 L173.9112,75.560719 L173.381769,75.7912987 L172.853514,76.0242312 L172.325259,76.2571637 L171.799357,76.4924491 L171.272278,76.7300873 L170.747553,76.9689019 L170.224004,77.208893 L169.700455,77.4500605 L169.178082,77.6935809 L168.65571,77.9382776 L168.134514,78.1841508 L167.614495,78.4323769 L167.095652,78.6817794 L166.576809,78.9323583 L166.059142,79.1852901 L165.542652,79.4393983 L165.027339,79.6946829 L164.512026,79.9511439 L163.997889,80.2099579 L163.483752,80.4699482 L162.971968,80.7311149 L162.460184,80.9946346 L161.949577,81.2593306 L161.440146,81.5252031 L160.931892,81.7934284 L160.423638,82.0628301 L159.91656,82.3334083 L159.409482,82.6051629 L158.904758,82.8780939 L158.400033,83.1533778 L157.896485,83.4310145 L157.394113,83.7086513 L156.892918,83.9886408 L156.391722,84.2698069 L155.891704,84.5521493 L155.392862,84.8356682 L154.895196,85.1215399 L154.39753,85.408588 L153.901041,85.6968126 L153.405729,85.9862136 L152.911593,86.2779675 L152.418633,86.5708977 L151.925673,86.8650044 L151.43389,87.161464 L150.943284,87.4579236 L150.453854,87.756736 L149.9656,88.0567248 L149.477347,88.3578901 L148.99027,88.6614082 L148.504369,88.9661028 L148.019645,89.2719737 L147.536098,89.5790211 L147.05255,89.887245 L146.571356,90.1978217 L146.090161,90.5095748 L145.610143,90.8225043 L145.131302,91.1366103 L144.652461,91.4530691 L144.175972,91.7695279 L143.699484,92.0883396 L143.224172,92.4083277 L142.750037,92.7294922 L142.277078,93.0530096 L141.805295,93.376527 L141.333513,93.7023972 L140.864084,94.0294439 L140.394655,94.3576669 L139.926402,94.6882429 L139.459325,95.0188188 L138.993426,95.3517476 L138.528702,95.6858528 L138.065156,96.0211345 L137.601609,96.3575926 L137.139239,96.6952271 L136.679222,97.0352144 L136.219204,97.3752018 L135.760364,97.717542 L135.3027,98.0610586 L134.846212,98.4057517 L134.389724,98.7516212 L133.93559,99.0998435 L133.481455,99.4480658 L133.029674,99.798641 L132.577892,100.150393 L132.127287,100.503321 L131.679035,100.857425 L131.230783,101.212706 L130.783707,101.569163 L130.337808,101.927974 L129.891909,102.286784 L129.448363,102.647947 L129.005994,103.010286 L128.563624,103.373802 L128.123608,103.738494 L127.684768,104.104363 L127.245928,104.471408 L126.808265,104.83963 L126.372954,105.210204 L125.937644,105.580779 L125.50351,105.953706 L125.070553,106.32781 L124.638772,106.70309 L124.209344,107.07837 L123.77874,107.456003 L123.351665,107.834813 L122.923414,108.215975 L122.497516,108.597137 L122.072794,108.979476 L121.649249,109.362991 L121.22688,109.748859 L120.805688,110.134727 L120.385672,110.522948 L119.966833,110.911169 L119.54917,111.301743 L119.131508,111.693493 L118.716198,112.086419 L118.302065,112.479346 L117.889108,112.874625 L117.476152,113.271081 L117.065548,113.668713 L116.656121,114.067522 L116.24787,114.467507 L115.840796,114.868669 L115.434899,115.271007 L115.030178,115.674521 L114.626633,116.079212 L114.224265,116.485079 L113.821898,116.893299 L113.421883,117.301519 L113.023044,117.710916 L112.626559,118.121489 L112.230073,118.533238 L111.834764,118.947341 L111.440632,119.361443 L111.047676,119.776722 L110.655897,120.193177 L110.266471,120.610808 L109.877044,121.029616 L109.489971,121.4496 L109.102898,121.871938 L108.718178,122.294275 L108.334634,122.717789 L107.95109,123.142479 L107.569899,123.568345 L107.189885,123.995388 L106.811047,124.423607 L106.433386,124.853003 L106.056902,125.283576 L105.681594,125.715324 L105.307462,126.148249 L104.935683,126.581174 L104.563905,127.016452 L104.194479,127.452907 L103.82623,127.889361 L103.457981,128.328168 L103.092085,128.768152 L102.727366,129.208135 L102.363823,129.649295 L102.001456,130.092808 L101.641443,130.536321 L101.281429,130.981011 L100.923769,131.426876 L100.566108,131.873919 L100.210801,132.322137 L99.8566701,132.771532 L99.5037158,133.222104 L99.1519379,133.673852 L98.8025131,134.1256 L98.4530883,134.5797 L98.1060165,135.033801 L97.7601212,135.489078 L97.414226,135.945532 L97.0718602,136.403162 L96.7294945,136.863145 L96.3883053,137.321951 L96.0494691,137.783111 L95.7106329,138.245446 L95.3741498,138.707782 L95.0388432,139.172471 L94.704713,139.637159 L94.3717594,140.103024 L94.0411588,140.570066 L93.7117348,141.038284 L93.3834872,141.506502 L93.0564162,141.977072 L92.7305217,142.447643 L92.4058037,142.920567 L92.0834387,143.39349 L91.7622502,143.86759 L91.4410617,144.342867 L91.1234028,144.818143 L90.8057439,145.295772 L90.490438,145.773402 L90.1751321,146.252207 L89.8621793,146.73219 L89.5504029,147.213348 L89.2409796,147.695683 L88.9315563,148.178018 L88.624486,148.662706 L88.3185922,149.147394 L88.0138749,149.633258 L87.7115107,150.120299 L87.410323,150.607339 L87.1091353,151.096733 L86.8114771,151.586127 L86.5138189,152.076697 L86.2185138,152.568443 L85.9232086,153.060189 L85.631433,153.554289 L85.3396574,154.048388 L85.0490583,154.543664 L84.7608123,155.040116 L84.4737427,155.536568 L84.1890262,156.035373 L83.9043097,156.534178 L83.6219462,157.032983 L83.3407593,157.534141 L83.0607488,158.036475 L82.7830914,158.538809 L82.5066105,159.04232 L82.2313061,159.547007 L81.9571782,160.051694 L81.6854033,160.557558 L81.414805,161.064598 L81.1453832,161.572814 L80.8783144,162.082207 L80.6124221,162.5916 L80.3465298,163.102169 L80.0841671,163.613915 L79.8229808,164.12566 L79.5617946,164.638582 L79.3041379,165.152681 L79.0464812,165.667956 L78.7911776,166.184407 L78.5370505,166.700859 L78.2852763,167.218486 L78.0335022,167.736114 L77.7840812,168.256095 L77.5370131,168.776075 L77.2899451,169.297233 L77.04523,169.81839 L76.802868,170.340723 L76.5605061,170.864233 L76.3204971,171.388919 L76.0816646,171.913606 L75.8451852,172.439469 L75.6098823,172.966508 L75.3757559,173.493547 L75.1439826,174.021763 L74.9122092,174.551155 L74.6839654,175.081723 L74.4557216,175.612292 L74.2298308,176.144037 L74.0051165,176.676958 L73.7827553,177.209879 L73.5615705,177.743977 L73.3415623,178.278075 L73.1239071,178.814526 L72.9074285,179.350976 L72.6921263,179.887427 L72.4791772,180.425054 L72.2674046,180.965034 L72.0568085,181.503837 L71.8485654,182.043817 L71.6414988,182.58615 L71.4367853,183.127306 L71.2332483,183.669639 L71.0308878,184.214325 L70.8308803,184.757834 L70.6320494,185.30252 L70.4343949,185.848382 L70.2390935,186.39542 L70.0449686,186.942459 L69.8531968,187.490674 L69.6626014,188.038888 L69.4731826,188.58828 L69.2861168,189.138848 L69.1002275,189.690592 L68.9166912,190.241159 L68.7343315,190.79408 L68.5531482,191.347001 L68.374318,191.901098 L68.1966643,192.456371 L68.0213637,193.011645 L67.8472395,193.568095 L67.6742919,194.124544 L67.5036973,194.682171 L67.3342792,195.240974 L67.1672141,195.799776 L67.0013256,196.359755 L66.83779,196.919735 L66.675431,197.48089 L66.5142485,198.043222 L66.3554191,198.605554 L66.1977661,199.169063 L66.0424662,199.732571 L65.8883428,200.297256 L65.7365724,200.863117 L65.5859786,201.428979 L65.4365612,201.996016 L65.2894969,202.564231 L65.1447856,203.132445 L65.0012509,203.700659 L64.8588926,204.270049 L64.7188874,204.840616 L64.5800587,205.41236 L64.443583,205.984103 L64.3082838,206.555847 L64.1741612,207.128767 L64.043568,207.702863 L63.9129749,208.276959 L63.7847349,208.852232 L63.6588478,209.427505 L63.5341373,210.00513 L63.4106032,210.581579 L63.2894222,211.159205 L63.1705943,211.738007 L63.0529428,212.316809 L62.9364679,212.896787 L62.822346,213.476766 L62.7094006,214.057921 L62.5988082,214.640252 L62.4905689,215.222583 L62.3835061,215.804915 L62.2776198,216.389599 L62.1740865,216.973106 L62.0729062,217.558967 L61.9729025,218.143651 L61.8740753,218.730688 L61.7776011,219.317725 L61.6834799,219.904762 L61.5905353,220.492975 L61.4999437,221.082365 L61.4105285,221.671755 L61.32229,222.262321 L61.2375809,222.852888 L61.1528719,223.44463 L61.0716924,224.036373 L60.9916894,224.629292 L60.9128629,225.222211 L60.8363895,225.816307 L60.7610925,226.410402 L60.6881486,227.005674 L60.6175578,227.602123 L60.5481434,228.198571 L60.4810821,228.79502 L60.4151973,229.392644 L60.3516655,229.991446 L60.2893102,230.590247 L60.229308,231.190225 L60.1716588,231.790202 L60.1151861,232.391356 L60.0610664,232.992511 L60.0081232,233.594841 L59.9575331,234.197172 L59.9081195,234.800679 L59.8622354,235.404186 L59.8163514,236.008869 L59.7728203,236.613552 L59.7316423,237.219412 L59.6928173,237.826448 L59.6551689,238.432308 L59.6198734,239.040521 L59.5857545,239.648734 L59.5539886,240.256946 L59.5233993,240.866335 L59.4951629,241.476901 L59.4692796,242.087466 L59.4457493,242.698032 L59.4233955,243.309774 L59.4022183,243.922692 L59.3845705,244.535611 L59.3680993,245.148529 L59.3528046,245.762624 L59.339863,246.377895 L59.3292744,246.993166 L59.3210388,247.608438 L59.3139797,248.224885 L59.3092736,248.842509 L59.3057441,249.460133 L59.3045676,250.077757 L59.3057441,250.696558 L59.3092736,251.314182 L59.3139797,251.93063 L59.3210388,252.547077 L59.3292744,253.163525 L59.339863,253.778796 L59.3528046,254.392891 L59.3680993,255.006986 L59.3845705,255.621081 L59.4022183,256.233999 L59.4233955,256.845741 L59.4457493,257.457483 L59.4692796,258.069225 L59.4951629,258.67979 L59.5233993,259.28918 L59.5539886,259.898569 L59.5857545,260.506781 L59.6198734,261.114994 L59.6551689,261.723207 L59.6928173,262.330243 L59.7316423,262.936103 L59.7728203,263.541963 L59.8163514,264.146646 L59.8610589,264.751329 L59.9081195,265.354836 L59.9575331,265.958343 L60.0081232,266.560674 L60.0610664,267.163004 L60.1151861,267.764158 L60.1716588,268.365313 L60.229308,268.96529 L60.2893102,269.565268 L60.3516655,270.164069 L60.4151973,270.76287 L60.4810821,271.360495 L60.5481434,271.956944 L60.6175578,272.553392 L60.6881486,273.14984 L60.7610925,273.745112 L60.8363895,274.339208 L60.9128629,274.933304 L60.9916894,275.526223 L61.0716924,276.119142 L61.1528719,276.712061 L61.2375809,277.302627 L61.32229,277.89437 L61.4105285,278.48376 L61.4999437,279.07315 L61.5905353,279.662539 L61.6834799,280.250753 L61.7776011,280.83779 L61.8740753,281.424827 L61.9729025,282.011864 L62.0729062,282.597724 L62.1740865,283.182409 L62.2776198,283.765916 L62.3835061,284.3506 L62.4905689,284.934108 L62.5988082,285.515263 L62.7094006,286.097594 L62.822346,286.678749 L62.9364679,287.258727 L63.0529428,287.838706 L63.1705943,288.417508 L63.2894222,288.99631 L63.4106032,289.573935 L63.5341373,290.151561 L63.6588478,290.72801 L63.7847349,291.303283 L63.9129749,291.878556 L64.043568,292.452652 L64.1741612,293.026748 L64.3082838,293.599668 L64.443583,294.172588 L64.5800587,294.743155 L64.7188874,295.314898 L64.8588926,295.885465 L65.0012509,296.454856 L65.1447856,297.02307 L65.2894969,297.591284 L65.4365612,298.159499 L65.5859786,298.726536 L65.7365724,299.292398 L65.8883428,299.858259 L66.0424662,300.422944 L66.1977661,300.986452 L66.3554191,301.549961 L66.5142485,302.112293 L66.675431,302.674625 L66.83779,303.23578 L67.0013256,303.796936 L67.1672141,304.356915 L67.3342792,304.915718 L67.5036973,305.473344 L67.6742919,306.03097 L67.8472395,306.588597 L68.0213637,307.14387 L68.1966643,307.699144 L68.374318,308.254417 L68.5531482,308.808514 L68.7343315,309.361435 L68.9166912,309.914355 L69.1002275,310.4661 L69.2861168,311.016667 L69.4731826,311.567235 L69.6626014,312.116626 L69.8531968,312.664841 L70.0449686,313.213056 L70.2390935,313.760095 L70.4343949,314.307133 L70.6320494,314.852995 L70.8308803,315.397681 L71.0308878,315.942367 L71.2332483,316.485876 L71.4367853,317.028208 L71.6414988,317.569365 L71.8485654,318.110521 L72.057985,318.651678 L72.2674046,319.191657 L72.4791772,319.729284 L72.6921263,320.268088 L72.9074285,320.805715 L73.1239071,321.342166 L73.3415623,321.87744 L73.5615705,322.411538 L73.7827553,322.945635 L74.0051165,323.479733 L74.2298308,324.011478 L74.4557216,324.543223 L74.6839654,325.073792 L74.9122092,325.60436 L75.1439826,326.133752 L75.3757559,326.661968 L75.6098823,327.189007 L75.8451852,327.716046 L76.0816646,328.241909 L76.3204971,328.766595 L76.5605061,329.291282 L76.8016915,329.814792 L77.04523,330.337125 L77.2899451,330.859459 L77.5370131,331.379439 L77.7840812,331.900596 L78.0335022,332.419401 L78.2840998,332.937029 L78.5370505,333.454656 L78.7911776,333.972284 L79.0464812,334.487559 L79.3041379,335.002834 L79.5629711,335.516933 L79.8229808,336.029855 L80.0841671,336.542777 L80.3465298,337.053346 L80.6112456,337.563915 L80.8783144,338.074485 L81.1453832,338.582701 L81.414805,339.090917 L81.6854033,339.597957 L81.9571782,340.103821 L82.2313061,340.608508 L82.5066105,341.114371 L82.7830914,341.616706 L83.0607488,342.120216 L83.3407593,342.621374 L83.6219462,343.122532 L83.9043097,343.622513 L84.1890262,344.121318 L84.4737427,344.618947 L84.7608123,345.116576 L85.0490583,345.611851 L85.3396574,346.107127 L85.631433,346.602403 L85.9243851,347.095325 L86.2185138,347.587072 L86.5138189,348.079995 L86.8114771,348.569388 L87.1091353,349.058782 L87.4091465,349.548175 L87.7115107,350.036393 L88.0138749,350.522257 L88.3185922,351.008121 L88.624486,351.493985 L88.9315563,351.977497 L89.2409796,352.459832 L89.5504029,352.942167 L89.8621793,353.423325 L90.1751321,353.903308 L90.490438,354.382113 L90.8057439,354.859743 L91.1222263,355.337372 L91.4410617,355.813825 L91.7610737,356.287925 L92.0834387,356.763201 L92.4058037,357.234948 L92.7305217,357.706695 L93.0564162,358.178443 L93.3834872,358.649013 L93.7117348,359.118408 L94.0411588,359.585449 L94.3729359,360.052491 L94.704713,360.519532 L95.0388432,360.983044 L95.3741498,361.447733 L95.7106329,361.911245 L96.0494691,362.372404 L96.3883053,362.833564 L96.7294945,363.293547 L97.0718602,363.752353 L97.414226,364.208807 L97.7589447,364.666437 L98.1060165,365.12289 L98.4530883,365.576991 L98.8025131,366.029915 L99.1519379,366.48284 L99.5037158,366.933411 L99.8566701,367.383983 L100.210801,367.833378 L100.566108,368.281596 L100.923769,368.728638 L101.281429,369.174504 L101.641443,369.619194 L102.002633,370.063883 L102.363823,370.506219 L102.727366,370.947379 L103.092085,371.38854 L103.457981,371.827347 L103.82623,372.266154 L104.194479,372.703785 L104.563905,373.137886 L104.935683,373.574341 L105.308638,374.008442 L105.681594,374.440191 L106.056902,374.871939 L106.433386,375.302512 L106.811047,375.731907 L107.189885,376.160127 L107.569899,376.58717 L107.95109,377.013036 L108.334634,377.437726 L108.718178,377.86124 L109.102898,378.284754 L109.489971,378.705914 L109.877044,379.125899 L110.266471,379.544707 L110.655897,379.962338 L111.047676,380.378793 L111.440632,380.794072 L111.834764,381.209351 L112.228897,381.622277 L112.626559,382.034026 L113.024221,382.445775 L113.421883,382.853995 L113.821898,383.263392 L114.223089,383.670436 L114.626633,384.076303 L115.030178,384.480994 L115.433722,384.884508 L115.83962,385.286846 L116.24787,385.688008 L116.656121,386.087993 L117.065548,386.486802 L117.476152,386.884434 L117.887932,387.28089 L118.302065,387.676169 L118.716198,388.070272 L119.131508,388.462022 L119.54917,388.853772 L119.966833,389.244346 L120.385672,389.632567 L120.805688,390.020788 L121.22688,390.406656 L121.649249,390.792524 L122.072794,391.176039 L122.497516,391.558378 L122.92459,391.940716 L123.351665,392.320702 L123.77874,392.699512 L124.208168,393.075968 L124.638772,393.453601 L125.070553,393.827705 L125.50351,394.201809 L125.937644,394.574736 L126.372954,394.946487 L126.809441,395.315885 L127.245928,395.684106 L127.683592,396.051152 L128.122432,396.41702 L128.564801,396.781713 L129.005994,397.146405 L129.448363,397.507568 L129.893086,397.868731 L130.337808,398.228718 L130.782531,398.586351 L131.230783,398.942809 L131.679035,399.29809 L132.127287,399.652194 L132.579069,400.006299 L133.029674,400.356874 L133.481455,400.707449 L133.93559,401.056848 L134.389724,401.403894 L134.845036,401.749763 L135.3027,402.094456 L135.760364,402.437973 L136.219204,402.780313 L136.679222,403.121477 L137.139239,403.460288 L137.601609,403.799099 L138.065156,404.135557 L138.528702,404.469662 L138.993426,404.804944 L139.459325,405.136696 L139.926402,405.468448 L140.394655,405.797848 L140.864084,406.126071 L141.333513,406.453118 L141.805295,406.778988 L142.277078,407.102505 L142.750037,407.426023 L143.224172,407.747187 L143.699484,408.067175 L144.175972,408.385987 L144.653637,408.703622 L145.131302,409.018905 L145.608967,409.333011 L146.090161,409.64594 L146.571356,409.95887 L147.05255,410.26827 L147.534921,410.576494 L148.020822,410.884718 L148.505546,411.190589 L148.99027,411.494107 L149.477347,411.796448 L149.9656,412.09879 L150.45503,412.398779 L150.94446,412.697591 L151.43389,412.994051 L151.925673,413.29051 L152.418633,413.584617 L152.910416,413.877547 L153.405729,414.169301 L153.902218,414.459879 L154.39753,414.748103 L154.89402,415.033975 L155.392862,415.319847 L155.891704,415.603366 L156.392899,415.886884 L156.892918,416.16805 L157.394113,416.446864 L157.896485,416.725677 L158.400033,417.000961 L158.904758,417.277421 L159.410659,417.550352 L159.91656,417.823283 L160.423638,418.093861 L160.930716,418.362087 L161.440146,418.630312 L161.950754,418.896184 L162.460184,419.16088 L162.971968,419.4244 L163.484929,419.685567 L163.996712,419.945557 L164.512026,420.204371 L165.027339,420.460832 L165.542652,420.716117 L166.060319,420.971401 L166.577985,421.223157 L167.095652,421.473736 L167.614495,421.723138 L168.133337,421.971364 L168.65571,422.218414 L169.178082,422.46311 L169.700455,422.705454 L170.224004,422.946622 L170.747553,423.187789 L171.272278,423.425428 L171.79818,423.663066 L172.326435,423.898351 L172.852337,424.131284 L173.381769,424.364216 L173.9112,424.594796 L174.440632,424.824199 L174.97124,425.051249 L175.504201,425.2783 L176.035985,425.501821 L176.568947,425.724166 L177.103084,425.94651 L177.638398,426.166502 L178.173712,426.384141 L178.710203,426.600604 L179.24787,426.81589 L179.785537,427.028823 L180.324381,427.24058 L180.863225,427.449984 L181.403245,427.658211 L181.945618,427.865262 L182.486815,428.071137 L183.029188,428.273483 L183.573914,428.477004 L184.11864,428.676997 L184.66219,428.875813 L185.208093,429.072276 L185.755172,429.267563 L186.302251,429.461674 L186.850507,429.654608 L187.399939,429.845189 L187.948195,430.033417 L188.49998,430.221645 L189.050589,430.406344 L189.601198,430.591043 L190.155336,430.77339 L190.708298,430.953383 L191.26126,431.1322 L191.816575,431.30984 L192.373066,431.486304 L192.928381,431.660415 L193.484872,431.832174 L194.043717,432.002756 L194.601385,432.172161 L195.160229,432.339214 L195.72025,432.50509 L196.281447,432.66979 L196.842645,432.832137 L197.403842,432.992131 L197.967393,433.152125 L198.529767,433.308589 L199.094494,433.465054 L199.659221,433.61799 L200.225124,433.770925 L200.791028,433.921508 L201.358108,434.069738 L201.925188,434.216791 L202.493444,434.362668 L203.062877,434.506192 L203.63231,434.64854 L204.20292,434.788534 L204.774706,434.927353 L205.345315,435.063818 L205.917101,435.199107 L206.49124,435.332044 L207.064203,435.463803 L207.638342,435.59321 L208.213658,435.721441 L208.79015,435.848495 L209.366642,435.973196 L209.943134,436.095545 L210.521979,436.216717 L211.099648,436.336712 L211.678493,436.454355 L212.258515,436.570821 L212.838536,436.683758 L213.420911,436.796695 L214.002109,436.907279 L214.584484,437.016687 L215.168035,437.123742 L215.751586,437.228444 L216.336314,437.331969 L216.921042,437.434318 L217.505769,437.534315 L218.09285,437.631958 L218.679931,437.728425 L219.267012,437.823716 L219.856445,437.916653 L220.444703,438.007238 L221.034136,438.096647 L221.625923,438.183702 L222.215357,438.269581 L222.807144,438.353108 L223.398931,438.435458 L223.991894,438.515455 L224.586034,438.594275 L225.180174,438.670743 L225.774313,438.744858 L226.36963,438.817796 L226.964946,438.889558 L227.561439,438.957791 L228.159108,439.026024 L228.756778,439.091904 L229.354447,439.155431 L229.95447,439.216605 L230.554492,439.276603 L231.153338,439.335424 L231.754537,439.391893 L232.356912,439.446008 L232.958111,439.498947 L233.560487,439.549534 L234.164039,439.597767 L234.768767,439.644824 L235.372319,439.689529 L235.978224,439.733056 L236.584129,439.774231 L237.190034,439.81423 L237.797115,439.851875 L238.404197,439.887168 L239.013631,439.921285 L239.621889,439.953048 L240.230147,439.982459 L240.840758,440.010693 L241.452546,440.036574 L242.06198,440.061279 L242.673768,440.083632 L243.286732,440.103631 L243.899696,440.122454 L244.513837,440.138924 L245.127977,440.153041 L245.742118,440.165981 L246.357435,440.176569 L246.973929,440.185981 L247.590422,440.193039 L248.206916,440.197745 L248.824586,440.200098 L249.443433,440.201274 L250.061103,440.200098 L250.678773,440.197745 L251.295266,440.193039 L251.91176,440.185981 L252.52943,440.176569 L253.144747,440.165981 L253.757711,440.153041 L254.371852,440.138924 L254.985993,440.122454 L255.598957,440.103631 L256.211921,440.083632 L256.823708,440.061279 L257.434319,440.036574 L258.04493,440.010693 L258.655541,439.982459 L259.263799,439.953048 L259.872057,439.921285 L260.481492,439.887168 L261.088573,439.851875 L261.695655,439.81423 L262.302736,439.774231 L262.908641,439.733056 L263.51337,439.689529 L264.116922,439.644824 L264.72165,439.597767 L265.325202,439.549534 L265.927578,439.498947 L266.528777,439.446008 L267.131152,439.391893 L267.732351,439.335424 L268.331197,439.276603 L268.931219,439.216605 L269.531242,439.155431 L270.128911,439.091904 L270.72658,439.026024 L271.32425,438.957791 L271.921919,438.889558 L272.516059,438.817796 L273.111375,438.744858 L273.705515,438.670743 L274.299655,438.594275 L274.893795,438.515455 L275.486758,438.435458 L276.078545,438.353108 L276.670332,438.269581 L277.259765,438.183702 L277.851552,438.096647 L278.440986,438.007238 L279.029243,437.916653 L279.618677,437.823716 L280.205758,437.728425 L280.792839,437.631958 L281.379919,437.534315 L281.964647,437.434318 L282.549375,437.331969 L283.134102,437.228444 L283.717654,437.123742 L284.301205,437.016687 L284.88358,436.907279 L285.464778,436.796695 L286.047152,436.683758 L286.627174,436.570821 L287.207196,436.454355 L287.786041,436.336712 L288.36371,436.216717 L288.942555,436.095545 L289.519047,435.973196 L290.095539,435.848495 L290.672031,435.721441 L291.247347,435.59321 L291.821486,435.463803 L292.394448,435.332044 L292.968587,435.199107 L293.540373,435.063818 L294.110983,434.927353 L294.682769,434.788534 L295.254555,434.64854 L295.822812,434.506192 L296.392245,434.362668 L296.960501,434.216791 L297.527581,434.069738 L298.094661,433.921508 L298.661741,433.770925 L299.226468,433.61799 L299.791195,433.465054 L300.355922,433.308589 L300.918296,433.152125 L301.481846,432.992131 L302.043044,432.832137 L302.604241,432.66979 L303.165439,432.50509 L303.72546,432.339214 L304.284304,432.172161 L304.841972,432.003932 L305.400816,431.832174 L305.957308,431.660415 L306.512623,431.486304 L307.069114,431.30984 L307.624429,431.1322 L308.177391,430.953383 L308.730352,430.77339 L309.284491,430.591043 L309.8351,430.406344 L310.385708,430.221645 L310.937494,430.033417 L311.485749,429.845189 L312.034005,429.654608 L312.583438,429.461674 L313.130517,429.267563 L313.677596,429.072276 L314.223499,428.875813 L314.767048,428.676997 L315.311775,428.475828 L315.856501,428.273483 L316.397698,428.071137 L316.938894,427.865262 L317.481267,427.658211 L318.022464,427.449984 L318.561308,427.239403 L319.098975,427.028823 L319.637819,426.81589 L320.175486,426.600604 L320.711976,426.384141 L321.24729,426.165326 L321.782605,425.94651 L322.316742,425.724166 L322.85088,425.501821 L323.382664,425.2783 L323.913272,425.051249 L324.445057,424.824199 L324.974488,424.594796 L325.50392,424.364216 L326.033352,424.13246 L326.559254,423.898351 L327.087509,423.663066 L327.613411,423.425428 L328.138136,423.187789 L328.662861,422.946622 L329.185234,422.705454 L329.707606,422.46311 L330.229979,422.217237 L330.751175,421.971364 L331.272371,421.723138 L331.791214,421.473736 L332.307703,421.224333 L332.82537,420.971401 L333.344213,420.716117 L333.85835,420.462008 L334.373663,420.204371 L334.888976,419.945557 L335.40076,419.685567 L335.91372,419.4244 L336.425504,419.16088 L336.934935,418.897361 L337.445542,418.630312 L337.954973,418.362087 L338.462051,418.093861 L338.969129,417.823283 L339.47503,417.551528 L339.980931,417.277421 L340.486832,417.000961 L340.989204,416.725677 L341.491576,416.446864 L341.992771,416.16805 L342.493966,415.886884 L342.995161,415.603366 L343.494004,415.319847 L343.991669,415.033975 L344.488158,414.746927 L344.983471,414.459879 L345.47996,414.169301 L345.975273,413.877547 L346.467056,413.584617 L346.960015,413.29051 L347.452975,412.994051 L347.942405,412.697591 L348.430659,412.399955 L348.920089,412.09879 L349.409519,411.796448 L349.895419,411.494107 L350.380143,411.190589 L350.866044,410.883541 L351.350768,410.576494 L351.833139,410.26827 L352.314333,409.95887 L352.795527,409.64594 L353.276722,409.333011 L353.754387,409.018905 L354.232052,408.703622 L354.709717,408.385987 L355.186205,408.067175 L355.661517,407.747187 L356.135652,407.426023 L356.608611,407.102505 L357.080393,406.778988 L357.552176,406.453118 L358.021605,406.126071 L358.491034,405.797848 L358.959287,405.468448 L359.426363,405.136696 L359.892263,404.803767 L360.356986,404.470838 L360.820533,404.135557 L361.28408,403.797922 L361.74645,403.460288 L362.206467,403.121477 L362.666484,402.780313 L363.125325,402.437973 L363.582989,402.094456 L364.040653,401.749763 L364.495964,401.402717 L364.950099,401.056848 L365.404234,400.707449 L365.856015,400.356874 L366.30662,400.006299 L366.758402,399.652194 L367.206654,399.29809 L367.654906,398.942809 L368.103158,398.586351 L368.54788,398.228718 L368.992603,397.868731 L369.437325,397.507568 L369.879695,397.146405 L370.322064,396.781713 L370.763257,396.41702 L371.202097,396.051152 L371.63976,395.684106 L372.077424,395.315885 L372.512734,394.946487 L372.948045,394.574736 L373.382179,394.201809 L373.815136,393.828881 L374.246917,393.453601 L374.677521,393.075968 L375.106949,392.699512 L375.534024,392.320702 L375.961098,391.940716 L376.388173,391.558378 L376.812895,391.176039 L377.23644,390.792524 L377.658809,390.406656 L378.080001,390.020788 L378.500017,389.632567 L378.920032,389.24317 L379.336519,388.853772 L379.754181,388.462022 L380.169491,388.070272 L380.583624,387.676169 L380.99658,387.28089 L381.409537,386.884434 L381.820141,386.486802 L382.229568,386.089169 L382.637818,385.688008 L383.046069,385.286846 L383.451966,384.884508 L383.855511,384.480994 L384.259055,384.076303 L384.661423,383.670436 L385.063791,383.263392 L385.463806,382.853995 L385.861468,382.445775 L386.25913,382.035202 L386.655615,381.622277 L387.052101,381.208174 L387.445057,380.794072 L387.838012,380.378793 L388.229792,379.962338 L388.619218,379.544707 L389.008644,379.125899 L389.396894,378.704738 L389.781614,378.284754 L390.167511,377.86124 L390.551055,377.437726 L390.934599,377.014213 L391.316966,376.58717 L391.69698,376.160127 L392.074641,375.731907 L392.452302,375.303688 L392.828787,374.871939 L393.204095,374.440191 L393.57705,374.008442 L393.950005,373.574341 L394.32296,373.137886 L394.69121,372.702608 L395.060635,372.266154 L395.427708,371.827347 L395.792427,371.389716 L396.158323,370.947379 L396.521866,370.505043 L396.883056,370.063883 L397.244246,369.619194 L397.60426,369.174504 L397.96192,368.728638 L398.31958,368.281596 L398.674888,367.833378 L399.029019,367.383983 L399.381973,366.933411 L399.733751,366.48284 L400.083176,366.029915 L400.4326,365.575815 L400.779672,365.12289 L401.125567,364.666437 L401.471463,364.209983 L401.815005,363.752353 L402.157371,363.29237 L402.497383,362.833564 L402.83622,362.373581 L403.175056,361.911245 L403.511539,361.447733 L403.846846,360.984221 L404.180976,360.518356 L404.512753,360.052491 L404.84453,359.585449 L405.173954,359.117231 L405.502201,358.649013 L405.829273,358.179619 L406.155167,357.707872 L406.479885,357.236125 L406.80225,356.763201 L407.124615,356.287925 L407.444627,355.813825 L407.763462,355.337372 L408.081121,354.859743 L408.396427,354.382113 L408.70938,353.904484 L409.023509,353.423325 L409.335286,352.94099 L409.644709,352.461008 L409.952956,351.977497 L410.261203,351.492809 L410.567097,351.008121 L410.870637,350.523433 L411.174178,350.036393 L411.476542,349.546999 L411.776553,349.058782 L412.075388,348.569388 L412.37187,348.079995 L412.668351,347.587072 L412.96248,347.095325 L413.254256,346.602403 L413.546031,346.107127 L413.83663,345.610675 L414.124876,345.116576 L414.411946,344.618947 L414.696662,344.121318 L414.981379,343.622513 L415.263742,343.121356 L415.544929,342.621374 L415.82494,342.120216 L416.102597,341.616706 L416.379078,341.114371 L416.654383,340.609684 L416.928511,340.103821 L417.200285,339.597957 L417.470884,339.090917 L417.740306,338.582701 L418.007374,338.074485 L418.274443,337.563915 L418.537982,337.053346 L418.801522,336.542777 L419.063884,336.029855 L419.322718,335.516933 L419.581551,335.002834 L419.839207,334.487559 L420.094511,333.972284 L420.348638,333.454656 L420.601589,332.937029 L420.852186,332.419401 L421.100431,331.900596 L421.348676,331.380616 L421.595744,330.858282 L421.840459,330.335949 L422.083997,329.814792 L422.325183,329.291282 L422.565192,328.766595 L422.804024,328.243085 L423.040503,327.716046 L423.276983,327.189007 L423.509933,326.661968 L423.741706,326.133752 L423.97348,325.60436 L424.201723,325.073792 L424.429967,324.543223 L424.655858,324.011478 L424.879396,323.479733 L425.102933,322.946812 L425.324118,322.411538 L425.544126,321.87744 L425.761782,321.342166 L425.97826,320.805715 L426.193562,320.266912 L426.406512,319.729284 L426.618284,319.191657 L426.827704,318.651678 L427.037123,318.111698 L427.24419,317.569365 L427.448903,317.028208 L427.65244,316.485876 L427.854801,315.942367 L428.054808,315.397681 L428.253639,314.852995 L428.450117,314.30831 L428.646595,313.760095 L428.84072,313.213056 L429.032492,312.664841 L429.223087,312.116626 L429.41133,311.567235 L429.599572,311.015491 L429.785461,310.4661 L429.968998,309.914355 L430.151357,309.361435 L430.33254,308.808514 L430.511371,308.255594 L430.689024,307.70032 L430.864325,307.14387 L431.038449,306.588597 L431.211397,306.03097 L431.381991,305.473344 L431.55141,304.915718 L431.718475,304.356915 L431.884363,303.796936 L432.047899,303.23578 L432.210258,302.674625 L432.37144,302.113469 L432.53027,301.549961 L432.687923,300.987629 L432.843222,300.422944 L432.997346,299.858259 L433.149116,299.292398 L433.29971,298.726536 L433.449127,298.159499 L433.596192,297.592461 L433.740903,297.024247 L433.884438,296.454856 L434.026796,295.885465 L434.167978,295.313722 L434.30563,294.743155 L434.442106,294.172588 L434.577405,293.600845 L434.711528,293.026748 L434.843297,292.452652 L434.972714,291.879732 L435.100954,291.303283 L435.226841,290.726834 L435.351551,290.150385 L435.475085,289.573935 L435.596266,288.99631 L435.715094,288.417508 L435.832746,287.838706 L435.949221,287.258727 L436.063343,286.678749 L436.176288,286.097594 L436.28688,285.515263 L436.39512,284.932932 L436.502183,284.349424 L436.608069,283.765916 L436.711602,283.182409 L436.812782,282.596548 L436.912786,282.011864 L437.011613,281.424827 L437.108088,280.83779 L437.202209,280.251929 L437.295153,279.661363 L437.385745,279.07315 L437.47516,278.484936 L437.563399,277.893193 L437.648108,277.302627 L437.732817,276.712061 L437.813996,276.120318 L437.893999,275.527399 L437.972826,274.932127 L438.049299,274.339208 L438.124596,273.745112 L438.19754,273.14984 L438.268131,272.554569 L438.337545,271.95812 L438.404607,271.359319 L438.470491,270.761694 L438.534023,270.164069 L438.596379,269.565268 L438.656381,268.96529 L438.71403,268.365313 L438.770503,267.765335 L438.824622,267.163004 L438.877565,266.56185 L438.928156,265.958343 L438.977569,265.354836 L439.02463,264.751329 L439.069337,264.146646 L439.112868,263.541963 L439.154046,262.936103 L439.192871,262.329066 L439.23052,261.723207 L439.265815,261.11617 L439.299934,260.506781 L439.3317,259.898569 L439.362289,259.28918 L439.390526,258.678614 L439.416409,258.068048 L439.439939,257.457483 L439.462293,256.846917 L439.48347,256.233999 L439.501118,255.621081 L439.518766,255.006986 L439.532884,254.391715 L439.545826,253.778796 L439.556414,253.163525 L439.56465,252.545901 L439.571709,251.93063 L439.576415,251.314182 L439.579945,250.696558 L439.581121,250.077757 L439.579945,249.458957 L439.576415,248.841333 L439.571709,248.224885 L439.56465,247.609614 L439.556414,246.99199 L439.545826,246.376719 L439.532884,245.7638 L439.518766,245.148529 L439.501118,244.535611 L439.48347,243.922692 L439.462293,243.308597 L439.439939,242.698032 L439.416409,242.087466 L439.390526,241.476901 L439.362289,240.866335 L439.3317,240.256946 L439.299934,239.64991 L439.265815,239.040521 L439.23052,238.432308 L439.192871,237.826448 L439.154046,237.219412 L439.112868,236.613552 L439.069337,236.008869 L439.02463,235.404186 L438.977569,234.800679 L438.928156,234.197172 L438.877565,233.594841 L438.824622,232.992511 L438.770503,232.391356 L438.71403,231.790202 L438.656381,231.191401 L438.596379,230.590247 L438.534023,229.991446 L438.470491,229.393821 L438.404607,228.796196 L438.337545,228.198571 L438.268131,227.600946 L438.19754,227.005674 L438.124596,226.410402 L438.049299,225.816307 L437.972826,225.223388 L437.893999,224.628116 L437.813996,224.035197 L437.732817,223.443454 L437.648108,222.852888 L437.563399,222.262321 L437.47516,221.671755 L437.385745,221.082365 L437.295153,220.494152 L437.202209,219.903586 L437.108088,219.317725 L437.011613,218.730688 L436.912786,218.143651 L436.812782,217.558967 L436.711602,216.973106 L436.608069,216.389599 L436.502183,215.806091 L436.39512,215.222583 L436.28688,214.640252 L436.176288,214.057921 L436.063343,213.476766 L435.949221,212.896787 L435.832746,212.316809 L435.715094,211.738007 L435.596266,211.159205 L435.475085,210.581579 L435.351551,210.00513 L435.226841,209.428681 L435.100954,208.852232 L434.972714,208.276959 L434.843297,207.702863 L434.711528,207.128767 L434.577405,206.555847 L434.442106,205.982927 L434.30563,205.41236 L434.167978,204.841793 L434.026796,204.270049 L433.884438,203.700659 L433.740903,203.131268 L433.596192,202.563054 L433.449127,201.996016 L433.29971,201.430155 L433.149116,200.863117 L432.997346,200.297256 L432.843222,199.732571 L432.687923,199.167886 L432.53027,198.605554 L432.37144,198.043222 L432.210258,197.48089 L432.047899,196.919735 L431.884363,196.359755 L431.718475,195.799776 L431.55141,195.239797 L431.381991,194.682171 L431.211397,194.124544 L431.038449,193.566918 L430.864325,193.011645 L430.689024,192.456371 L430.511371,191.901098 L430.33254,191.347001 L430.151357,190.79408 L429.968998,190.241159 L429.785461,189.690592 L429.599572,189.140024 L429.412506,188.58828 L429.223087,188.038888 L429.032492,187.490674 L428.84072,186.942459 L428.646595,186.39542 L428.450117,185.847205 L428.253639,185.30252 L428.054808,184.757834 L427.854801,184.214325 L427.65244,183.669639 L427.448903,183.127306 L427.24419,182.58615 L427.037123,182.043817 L426.827704,181.503837 L426.618284,180.965034 L426.406512,180.42623 L426.193562,179.888603 L425.97826,179.3498 L425.761782,178.813349 L425.544126,178.279251 L425.324118,177.743977 L425.102933,177.208703 L424.880572,176.675782 L424.655858,176.144037 L424.429967,175.612292 L424.201723,175.081723 L423.97348,174.552331 L423.741706,174.021763 L423.509933,173.493547 L423.276983,172.966508 L423.040503,172.439469 L422.802848,171.912429 L422.565192,171.388919 L422.325183,170.864233 L422.083997,170.340723 L421.840459,169.819566 L421.595744,169.297233 L421.348676,168.774899 L421.101608,168.254918 L420.852186,167.736114 L420.601589,167.218486 L420.348638,166.700859 L420.094511,166.183231 L419.839207,165.667956 L419.581551,165.152681 L419.322718,164.638582 L419.063884,164.126837 L418.801522,163.613915 L418.537982,163.102169 L418.274443,162.5916 L418.007374,162.08103 L417.740306,161.572814 L417.470884,161.065774 L417.200285,160.558734 L416.928511,160.051694 L416.654383,159.545831 L416.379078,159.041143 L416.102597,158.538809 L415.82494,158.036475 L415.544929,157.534141 L415.263742,157.034159 L414.981379,156.533001 L414.696662,156.034196 L414.411946,155.536568 L414.124876,155.040116 L413.83663,154.54484 L413.546031,154.048388 L413.254256,153.553112 L412.96248,153.061366 L412.668351,152.568443 L412.37187,152.07552 L412.075388,151.586127 L411.776553,151.096733 L411.476542,150.607339 L411.174178,150.119122 L410.870637,149.632082 L410.567097,149.14857 L410.261203,148.662706 L409.952956,148.178018 L409.644709,147.694507 L409.335286,147.214525 L409.023509,146.733366 L408.70938,146.252207 L408.396427,145.773402 L408.079945,145.295772 L407.763462,144.818143 L407.444627,144.342867 L407.124615,143.86759 L406.80225,143.39349 L406.479885,142.920567 L406.155167,142.447643 L405.829273,141.977072 L405.502201,141.506502 L405.17513,141.038284 L404.84453,140.570066 L404.513929,140.103024 L404.180976,139.637159 L403.846846,139.171294 L403.511539,138.708959 L403.175056,138.245446 L402.83622,137.783111 L402.497383,137.321951 L402.157371,136.863145 L401.815005,136.404338 L401.470286,135.945532 L401.125567,135.489078 L400.779672,135.033801 L400.4326,134.5797 L400.083176,134.1256 L399.733751,133.673852 L399.381973,133.222104 L399.029019,132.771532 L398.674888,132.322137 L398.31958,131.873919 L397.96192,131.426876 L397.60426,130.982187 L397.245423,130.536321 L396.883056,130.092808 L396.521866,129.650472 L396.158323,129.208135 L395.792427,128.766975 L395.426531,128.328168 L395.060635,127.889361 L394.692386,127.452907 L394.321784,127.017629 L393.950005,126.581174 L393.57705,126.147073 L393.204095,125.715324 L392.828787,125.283576 L392.452302,124.853003 L392.074641,124.423607 L391.695804,123.995388 L391.315789,123.568345 L390.934599,123.142479 L390.552231,122.717789 L390.167511,122.294275 L389.782791,121.870761 L389.396894,121.450777 L389.008644,121.029616 L388.619218,120.610808 L388.229792,120.193177 L387.838012,119.776722 L387.445057,119.361443 L387.052101,118.947341 L386.655615,118.533238 L386.25913,118.121489 L385.862645,117.710916 L385.463806,117.301519 L385.063791,116.893299 L384.661423,116.485079 L384.259055,116.079212 L383.856687,115.674521 L383.45079,115.271007 L383.044892,114.868669 L382.637818,114.467507 L382.229568,114.067522 L381.820141,113.668713 L381.409537,113.271081 L380.99658,112.874625 L380.583624,112.479346 L380.169491,112.085243 L379.754181,111.693493 L379.337695,111.301743 L378.920032,110.912345 L378.500017,110.522948 L378.080001,110.134727 L377.658809,109.748859 L377.23644,109.362991 L376.812895,108.979476 L376.388173,108.597137 L375.961098,108.214799 L375.534024,107.834813 L375.106949,107.45718 L374.677521,107.07837 L374.246917,106.70309 L373.815136,106.32781 L373.382179,105.953706 L372.948045,105.580779 L372.512734,105.209028 L372.077424,104.840806 L371.63976,104.471408 L371.200921,104.104363 L370.762081,103.738494 L370.322064,103.373802 L369.879695,103.010286 L369.437325,102.647947 L368.993779,102.286784 L368.54788,101.927974 L368.101981,101.569163 L367.654906,101.212706 L367.206654,100.857425 L366.758402,100.503321 L366.307797,100.150393 L365.856015,99.798641 L365.404234,99.4480658 L364.950099,99.0998435 L364.495964,98.7527976 L364.039477,98.4057517 L363.582989,98.0610586 L363.125325,97.717542 L362.666484,97.3752018 L362.206467,97.034038 L361.74645,96.6952271 L361.28408,96.3575926 L360.820533,96.0211345 L360.356986,95.6846764 L359.892263,95.3517476 L359.426363,95.0188188 L358.959287,94.6882429 L358.491034,94.3576669 L358.021605,94.0294439 L357.552176,93.7023972 L357.080393,93.376527 L356.608611,93.0530096 L356.135652,92.7306686 L355.661517,92.4083277 L355.186205,92.0883396 L354.709717,91.7695279 L354.232052,91.4518927 L353.755563,91.1366103 L353.275545,90.8225043 L352.795527,90.5095748 L352.314333,90.1978217 L351.833139,89.887245 L351.349591,89.5790211 L350.866044,89.2719737 L350.38132,88.9661028 L349.895419,88.6614082 L349.408342,88.3590665 L348.920089,88.0567248 L348.431835,87.756736 L347.942405,87.4579236 L347.451798,87.161464 L346.960015,86.8650044 L346.467056,86.5708977 L345.974096,86.2779675 L345.478784,85.9862136 L344.984647,85.6968126 L344.488158,85.408588 L343.990493,85.1215399 L343.492827,84.8356682 L342.993985,84.5521493 L342.493966,84.2698069 L341.992771,83.9886408 L341.491576,83.7086513 L340.989204,83.4310145 L340.485656,83.1545542 L339.980931,82.8780939 L339.47503,82.6051629 L338.970305,82.3334083 L338.462051,82.0628301 L337.954973,81.7934284 L337.445542,81.5252031 L336.934935,81.2593306 L336.425504,80.9946346 L335.91372,80.7322914 L335.401937,80.4699482 L334.8878,80.2099579 L334.373663,79.9511439 L333.85835,79.6946829 L333.343036,79.4393983 L332.826546,79.1852901 L332.30888,78.9323583 L331.791214,78.6817794 L331.271194,78.4323769 L330.751175,78.1841508 L330.229979,77.9382776 L329.708783,77.6935809 L329.185234,77.4500605 L328.662861,77.208893 L328.138136,76.9689019 L327.612234,76.7300873 L327.087509,76.4924491 L326.56043,76.2571637 L326.032175,76.0242312 L325.50392,75.7912987 L324.974488,75.560719 L324.445057,75.3313158 L323.913272,75.1042654 L323.382664,74.8783914 L322.849703,74.6536939 L322.316742,74.4301728 L321.782605,74.210181 L321.24729,73.9901892 L320.711976,73.7713738 L320.175486,73.5549113 L319.637819,73.3408016 L319.100151,73.1266919 L318.561308,72.9161115 L318.022464,72.7055311 L317.481267,72.4973035 L316.940071,72.2902524 L316.397698,72.0855541 L315.855324,71.8820323 L315.311775,71.6796869 L314.768225,71.4796943 L314.222322,71.2808782 L313.67642,71.0832385 L313.130517,70.8879516 L312.583438,70.6938412 L312.035182,70.5020836 L311.485749,70.3115025 L310.937494,70.1220978 L310.386885,69.9350459 L309.8351,69.7491705 L309.283314,69.5656479 L308.731529,69.3821253 L308.177391,69.202132 L307.624429,69.0233151 L307.069114,68.8456747 L306.513799,68.6692106 L305.957308,68.4950995 L305.400816,68.3233411 L304.843148,68.1527592 L304.284304,67.9833538 L303.72546,67.8163012 L303.165439,67.650425 L302.605418,67.4857252 L302.043044,67.3233783 L301.481846,67.1633843 L300.918296,67.0045667 L300.355922,66.8469255 L299.791195,66.6916371 L299.226468,66.5375252 L298.661741,66.3845897 L298.094661,66.2340071 L297.527581,66.0857773 L296.960501,65.938724 L296.392245,65.792847 L295.822812,65.6493229 L295.253379,65.5069753 L294.682769,65.3669805 L294.11216,65.2281621 L293.540373,65.0916966 L292.968587,64.9564075 L292.394448,64.8234713 L291.821486,64.6917115 L291.24617,64.5623046 L290.672031,64.434074 L290.095539,64.3070199 L289.519047,64.1823187 L288.942555,64.0599703 L288.36371,63.9387983 L287.786041,63.8188028 L287.207196,63.7011601 L286.627174,63.5858703 L286.045976,63.4717569 L285.464778,63.3588199 L284.88358,63.2482358 L284.301205,63.1388281 L283.717654,63.0317732 L283.134102,62.9270713 L282.549375,62.8235457 L281.964647,62.7211966 L281.378743,62.6212003 L280.792839,62.5235569 L280.205758,62.4270899 L279.617501,62.3317993 L279.029243,62.240038 L278.440986,62.1482767 L277.851552,62.0588683 L277.260942,61.9718127 L276.670332,61.8859335 L276.078545,61.8024072 L275.486758,61.7200573 L274.893795,61.6400603 L274.300831,61.5612397 L273.706692,61.484772 L273.111375,61.4106571 L272.516059,61.3377186 L271.920743,61.2659566 L271.32425,61.1977238 L270.72658,61.1294911 L270.128911,61.0647876 L269.531242,61.0000841 L268.931219,60.9389099 L268.332373,60.8789121 L267.732351,60.8200908 L267.131152,60.7647987 L266.529953,60.7095067 L265.927578,60.6577439 L265.325202,60.6071575 L264.72165,60.5577476 L264.116922,60.5106905 L263.51337,60.4659863 L262.907465,60.4224585 L262.30156,60.3812836 L261.695655,60.3412851 L261.088573,60.3036394 L260.481492,60.2683466 L259.873234,60.2342302 L259.263799,60.2024667 L258.654365,60.173056 L258.04493,60.1448218 L257.434319,60.1189404 L256.823708,60.0942354 L256.211921,60.0718833 L255.598957,60.0518841 L254.985993,60.0330613 L254.373028,60.0165913 L253.758888,60.0024742 L253.143571,59.9895335 L252.528254,59.9789456 L251.912937,59.9695342 L251.296443,59.9636521 L250.678773,59.9577699 L250.061103,59.9554171 L249.443433,59.9542407 L248.824586,59.9554171 Z" id="Shape"></path>
            </g>
            <path d="M66.723029,371.991981 C217.26556,471.617335 300.023859,345.737714 207.820539,273.492062 C115.61722,201.247447 224.574689,71.0828758 351.003112,187.647839" id="svg_29" stroke="#000000" stroke-width="51.8672199"></path>
        </g>
    </g>
</svg>