<?xml version="1.0" encoding="UTF-8"?>
<!DOCTYPE svg PUBLIC "-//W3C//DTD SVG 1.1//EN" "http://www.w3.org/Graphics/SVG/1.1/DTD/svg11.dtd">
<svg version="1.1" xmlns="http://www.w3.org/2000/svg" xmlns:xlink="http://www.w3.org/1999/xlink" x="0" y="0" width="40" height="40" viewBox="0, 0, 40, 40">
  <g id="Layer_1">
    <g>
      <path d="M20,0 C31.046,0 40,8.954 40,20 C40,31.046 31.046,40 20,40 C8.954,40 0,31.046 0,20 C0,8.954 8.954,0 20,0" fill="#FFDA44"/>
      <path d="M15.652,17.391 L39.83,17.391 C38.552,7.578 30.161,0 20,0 C18.506,0 17.052,0.165 15.652,0.475 z" fill="#0052B4"/>
      <path d="M10.435,17.391 L10.435,2.432 C4.943,5.428 1.012,10.924 0.17,17.391 z" fill="#0052B4"/>
      <path d="M10.435,22.609 L0.17,22.609 C1.012,29.076 4.943,34.572 10.435,37.568 z" fill="#0052B4"/>
      <path d="M15.652,22.609 L15.652,39.525 C17.052,39.835 18.506,40 20,40 C30.161,40 38.552,32.422 39.83,22.609 z" fill="#0052B4"/>
    </g>
  </g>
</svg>
