<?xml version="1.0" encoding="UTF-8"?>
<!DOCTYPE svg PUBLIC "-//W3C//DTD SVG 1.1//EN" "http://www.w3.org/Graphics/SVG/1.1/DTD/svg11.dtd">
<svg version="1.1" xmlns="http://www.w3.org/2000/svg" xmlns:xlink="http://www.w3.org/1999/xlink" x="0" y="0" width="40" height="40" viewBox="0, 0, 40, 40">
  <defs>
    <clipPath id="Clip_1">
      <path d="M0,0 L40,0 L40,40 L0,40 z"/>
    </clipPath>
  </defs>
  <g id="Layer_1">
    <g clip-path="url(#Clip_1)">
      <path d="M0,20 C0,28.599 5.428,35.93 13.043,38.756 L14.783,20 L13.043,1.244 C5.428,4.07 0,11.401 0,20" fill="#6DA544"/>
      <path d="M40,20 C40,8.955 31.045,0 20,0 C17.554,0 15.21,0.44 13.043,1.244 L13.043,38.756 C15.21,39.56 17.554,40 20,40 C31.045,40 40,31.045 40,20" fill="#D80027"/>
      <path d="M13.043,13.043 C16.885,13.043 20,16.159 20,20 C20,23.841 16.885,26.956 13.043,26.956 C9.201,26.956 6.087,23.841 6.087,20 C6.087,16.159 9.201,13.043 13.043,13.043" fill="#FFDA44"/>
      <path d="M9.13,16.521 L9.13,20.869 C9.13,23.031 10.882,24.782 13.043,24.782 C15.204,24.782 16.956,23.031 16.956,20.869 L16.956,16.521 z" fill="#D80027"/>
      <path d="M13.043,22.174 C12.325,22.174 11.74,21.589 11.74,20.87 L11.74,19.131 L14.347,19.131 L14.347,20.87 C14.347,21.589 13.762,22.174 13.043,22.174" fill="#F0F0F0"/>
    </g>
  </g>
</svg>
