<?xml version="1.0" encoding="UTF-8"?>
<!DOCTYPE svg PUBLIC "-//W3C//DTD SVG 1.1//EN" "http://www.w3.org/Graphics/SVG/1.1/DTD/svg11.dtd">
<svg version="1.1" xmlns="http://www.w3.org/2000/svg" xmlns:xlink="http://www.w3.org/1999/xlink" x="0" y="0" width="40" height="40" viewBox="0, 0, 40, 40">
  <defs>
    <clipPath id="Clip_1">
      <path d="M0,0 L40,0 L40,40 L0,40 z"/>
    </clipPath>
  </defs>
  <g id="Layer_1">
    <g clip-path="url(#Clip_1)">
      <path d="M20,0 C31.046,0 40,8.954 40,20 C40,31.046 31.046,40 20,40 C8.954,40 0,31.046 0,20 C0,8.954 8.954,0 20,0" fill="#F0F0F0"/>
      <path d="M20,40 C31.045,40 40,31.045 40,20 C40,17.554 39.56,15.21 38.756,13.043 L1.244,13.043 C0.44,15.21 0,17.554 0,20 C0,31.045 8.955,40 20,40" fill="#0052B4"/>
      <path d="M20,40 C28.599,40 35.93,34.572 38.756,26.957 L1.244,26.957 C4.07,34.572 11.401,40 20,40" fill="#D80027"/>
      <path d="M5.172,11.304 L5.172,21.281 C5.172,26.956 12.586,28.696 12.586,28.696 C12.586,28.696 20,26.956 20,21.281 L20,11.304 z" fill="#F0F0F0"/>
      <path d="M6.911,11.304 L6.911,21.281 C6.911,21.948 7.059,22.576 7.352,23.167 L17.82,23.167 C18.113,22.577 18.261,21.948 18.261,21.281 L18.261,11.304 z" fill="#D80027"/>
      <path d="M16.064,18.261 L13.456,18.261 L13.456,16.522 L15.195,16.522 L15.195,14.783 L13.456,14.783 L13.456,13.044 L11.716,13.044 L11.716,14.783 L9.977,14.783 L9.977,16.522 L11.716,16.522 L11.716,18.261 L9.107,18.261 L9.107,20 L11.716,20 L11.716,21.74 L13.456,21.74 L13.456,20 L16.064,20 z" fill="#F0F0F0"/>
      <path d="M9.724,25.595 C10.845,26.299 11.996,26.708 12.586,26.89 C13.175,26.708 14.327,26.299 15.447,25.595 C16.578,24.885 17.37,24.072 17.82,23.167 C17.324,22.816 16.718,22.609 16.064,22.609 C15.826,22.609 15.595,22.637 15.372,22.689 C14.901,21.618 13.831,20.87 12.586,20.87 C11.341,20.87 10.271,21.618 9.8,22.689 C9.577,22.637 9.346,22.609 9.108,22.609 C8.453,22.609 7.848,22.816 7.352,23.167 C7.802,24.072 8.594,24.885 9.724,25.595" fill="#0052B4"/>
    </g>
  </g>
</svg>
