<?xml version="1.0" encoding="UTF-8"?>
<!DOCTYPE svg PUBLIC "-//W3C//DTD SVG 1.1//EN" "http://www.w3.org/Graphics/SVG/1.1/DTD/svg11.dtd">
<svg version="1.1" xmlns="http://www.w3.org/2000/svg" xmlns:xlink="http://www.w3.org/1999/xlink" x="0" y="0" width="40" height="40" viewBox="0, 0, 40, 40">
  <g id="Layer_1">
    <g>
      <path d="M20,0 C31.046,0 40,8.954 40,20 C40,31.046 31.046,40 20,40 C8.954,40 0,31.046 0,20 C0,8.954 8.954,0 20,0" fill="#D80027"/>
      <path d="M10.945,12.172 L12.672,17.484 L18.257,17.484 L13.742,20.774 L15.468,26.086 L10.945,22.805 L6.422,26.086 L8.156,20.774 L3.633,17.484 L9.218,17.484 z" fill="#FFDA44"/>
      <path d="M23.711,30.977 L22.391,29.352 L20.438,30.11 L21.57,28.352 L20.25,26.719 L22.274,27.258 L23.414,25.5 L23.524,27.594 L25.555,28.133 L23.594,28.883 z" fill="#FFDA44"/>
      <path d="M26.336,26.211 L26.961,24.211 L25.25,23 L27.344,22.969 L27.961,20.969 L28.641,22.953 L30.734,22.93 L29.055,24.18 L29.727,26.164 L28.016,24.953 z" fill="#FFDA44"/>
      <path d="M29.875,14.68 L28.953,16.563 L30.453,18.024 L28.383,17.727 L27.461,19.602 L27.102,17.539 L25.023,17.243 L26.883,16.266 L26.523,14.196 L28.023,15.657 z" fill="#FFDA44"/>
      <path d="M23.766,8.977 L23.61,11.063 L25.555,11.852 L23.516,12.352 L23.368,14.446 L22.266,12.665 L20.227,13.164 L21.578,11.563 L20.469,9.789 L22.414,10.579 z" fill="#FFDA44"/>
    </g>
  </g>
</svg>
