<?xml version="1.0" encoding="UTF-8"?>
<!DOCTYPE svg PUBLIC "-//W3C//DTD SVG 1.1//EN" "http://www.w3.org/Graphics/SVG/1.1/DTD/svg11.dtd">
<svg version="1.1" xmlns="http://www.w3.org/2000/svg" xmlns:xlink="http://www.w3.org/1999/xlink" x="0" y="0" width="40" height="40" viewBox="0, 0, 40, 40">
  <defs>
    <clipPath id="Clip_1">
      <path d="M0,0 L40,0 L40,40 L0,40 z"/>
    </clipPath>
  </defs>
  <g id="Layer_1">
    <g clip-path="url(#Clip_1)">
      <path d="M20,0 C31.046,0 40,8.954 40,20 C40,31.046 31.046,40 20,40 C8.954,40 0,31.046 0,20 C0,8.954 8.954,0 20,0" fill="#F0F0F0"/>
      <path d="M4.134,7.824 C2.563,9.868 1.379,12.224 0.689,14.783 L11.093,14.783 z" fill="#0052B4"/>
      <path d="M39.311,14.783 C38.621,12.224 37.436,9.868 35.866,7.824 L28.907,14.783 z" fill="#0052B4"/>
      <path d="M0.689,25.217 C1.379,27.777 2.564,30.133 4.134,32.176 L11.093,25.217 z" fill="#0052B4"/>
      <path d="M32.176,4.134 C30.132,2.563 27.777,1.379 25.217,0.689 L25.217,11.093 z" fill="#0052B4"/>
      <path d="M7.824,35.866 C9.868,37.437 12.224,38.621 14.783,39.311 L14.783,28.907 z" fill="#0052B4"/>
      <path d="M14.783,0.689 C12.223,1.379 9.868,2.564 7.824,4.134 L14.783,11.093 z" fill="#0052B4"/>
      <path d="M25.217,39.311 C27.777,38.621 30.132,37.436 32.176,35.866 L25.217,28.907 z" fill="#0052B4"/>
      <path d="M28.907,25.217 L35.866,32.176 C37.437,30.133 38.621,27.777 39.311,25.217 z" fill="#0052B4"/>
      <path d="M39.831,17.391 L22.609,17.391 L22.609,0.169 C21.755,0.058 20.885,0 20,0 C19.116,0 18.246,0.058 17.392,0.169 L17.392,17.391 L0.17,17.391 C0.059,18.245 -0,19.116 -0,20 C-0,20.884 0.059,21.755 0.17,22.609 L17.392,22.609 L17.392,39.83 C18.246,39.942 19.116,40 20,40 C20.885,40 21.755,39.942 22.609,39.83 L22.609,22.609 L39.831,22.609 C39.942,21.755 40,20.884 40,20 C40,19.116 39.942,18.245 39.831,17.391" fill="#D80027"/>
      <path d="M25.217,25.217 L25.217,25.217 L34.142,34.142 C34.552,33.732 34.944,33.302 35.318,32.858 L27.676,25.217 z" fill="#D80027"/>
      <path d="M14.783,25.217 L14.783,25.217 L5.858,34.142 C6.268,34.552 6.698,34.944 7.142,35.318 L14.783,27.676 z" fill="#D80027"/>
      <path d="M14.783,14.783 L14.783,14.783 L5.858,5.858 C5.448,6.268 5.056,6.698 4.682,7.142 L12.324,14.783 z" fill="#D80027"/>
      <path d="M25.217,14.783 L25.217,14.783 L34.142,5.858 C33.732,5.448 33.302,5.056 32.858,4.682 L25.217,12.324 z" fill="#D80027"/>
    </g>
  </g>
</svg>
