<?xml version="1.0" encoding="UTF-8"?>
<!DOCTYPE svg PUBLIC "-//W3C//DTD SVG 1.1//EN" "http://www.w3.org/Graphics/SVG/1.1/DTD/svg11.dtd">
<svg version="1.1" xmlns="http://www.w3.org/2000/svg" xmlns:xlink="http://www.w3.org/1999/xlink" x="0" y="0" width="40" height="40" viewBox="0, 0, 40, 40">
  <g id="Layer_1">
    <g>
      <path d="M20,0 C31.046,0 40,8.954 40,20 C40,31.046 31.046,40 20,40 C8.954,40 0,31.046 0,20 C0,8.954 8.954,0 20,0" fill="#6DA544"/>
      <path d="M20,7.826 L36.521,20 L20,32.174 L3.479,20 z" fill="#FFDA44"/>
      <path d="M20,13.043 C23.842,13.043 26.957,16.159 26.957,20 C26.957,23.841 23.842,26.956 20,26.956 C16.158,26.956 13.043,23.841 13.043,20 C13.043,16.159 16.158,13.043 20,13.043" fill="#F0F0F0"/>
      <path d="M16.521,19.565 C15.312,19.565 14.144,19.749 13.045,20.09 C13.094,23.89 16.188,26.956 20,26.956 C22.356,26.956 24.438,25.783 25.696,23.99 C23.543,21.295 20.231,19.565 16.521,19.565" fill="#0052B4"/>
      <path d="M26.828,21.333 C26.911,20.901 26.957,20.456 26.957,20 C26.957,16.158 23.842,13.043 20,13.043 C17.134,13.043 14.673,14.778 13.608,17.254 C14.549,17.059 15.524,16.957 16.522,16.957 C20.563,16.957 24.218,18.636 26.828,21.333" fill="#0052B4"/>
    </g>
  </g>
</svg>
