<?xml version="1.0" encoding="UTF-8"?>
<!DOCTYPE svg PUBLIC "-//W3C//DTD SVG 1.1//EN" "http://www.w3.org/Graphics/SVG/1.1/DTD/svg11.dtd">
<svg version="1.1" xmlns="http://www.w3.org/2000/svg" xmlns:xlink="http://www.w3.org/1999/xlink" x="0" y="0" width="40" height="40" viewBox="0, 0, 40, 40">
  <defs>
    <clipPath id="Clip_1">
      <path d="M0,0 L40,0 L40,40 L0,40 z"/>
    </clipPath>
  </defs>
  <g id="Layer_1">
    <g clip-path="url(#Clip_1)">
      <path d="M40,20 C40,31.045 31.045,40 20,40 C8.955,40 0,31.045 0,20 L20,0 C31.045,0 40,8.955 40,20" fill="#D80027"/>
      <path d="M20,20 L20,0 C8.955,0 0,8.955 0,20 z" fill="#0052B4"/>
      <path d="M17.391,11.705 L14.949,12.854 L16.249,15.22 L13.597,14.712 L13.261,17.392 L11.413,15.421 L9.566,17.392 L9.23,14.712 L6.578,15.22 L7.878,12.854 L5.436,11.705 L7.878,10.557 L6.578,8.191 L9.23,8.698 L9.566,6.019 L11.413,7.989 L13.261,6.019 L13.597,8.698 L16.249,8.191 L14.949,10.557 z" fill="#F0F0F0"/>
      <path d="M11.414,7.981 C13.47,7.981 15.137,9.648 15.137,11.704 C15.137,13.76 13.47,15.427 11.414,15.427 C9.358,15.427 7.691,13.76 7.691,11.704 C7.691,9.648 9.358,7.981 11.414,7.981" fill="#0052B4"/>
      <path d="M11.414,13.689 C10.32,13.689 9.43,12.799 9.43,11.705 C9.43,10.611 10.32,9.722 11.414,9.722 C12.508,9.722 13.398,10.611 13.398,11.705 C13.398,12.799 12.508,13.689 11.414,13.689" fill="#F0F0F0"/>
    </g>
  </g>
</svg>
