<?xml version="1.0" encoding="UTF-8"?>
<!DOCTYPE svg PUBLIC "-//W3C//DTD SVG 1.1//EN" "http://www.w3.org/Graphics/SVG/1.1/DTD/svg11.dtd">
<svg version="1.1" xmlns="http://www.w3.org/2000/svg" xmlns:xlink="http://www.w3.org/1999/xlink" x="0" y="0" width="40" height="40" viewBox="0, 0, 40, 40">
  <defs>
    <clipPath id="Clip_1">
      <path d="M0,0 L40,0 L40,40 L0,40 z"/>
    </clipPath>
  </defs>
<g id="surface1">
<path d="M 40 20 C 40 31.046875 31.046875 40 20 40 C 8.953125 40 0 31.046875 0 20 C 0 8.953125 8.953125 0 20 0 C 31.046875 0 40 8.953125 40 20 Z M 40 20 " style=" stroke:none;fill-rule:nonzero;fill:rgb(93.333333%,93.333333%,93.333333%);fill-opacity:1;"/>
<path d="M 39.882812 22.171875 L 17.945312 0.101562 C 16.96875 0.203125 16.003906 0.375 15.054688 0.617188 C 6.390625 2.820312 0.078125 20 0.078125 20 C 0.078125 20 28 38.734375 31.195312 36.578125 C 31.835938 36.148438 32.445312 35.671875 33.03125 35.171875 L 20.03125 22.171875 Z M 39.882812 22.171875 " style=" stroke:none;fill-rule:nonzero;fill:rgb(0%,32.156863%,70.588235%);fill-opacity:1;"/>
<path d="M 34.78125 20 L 15.328125 0.546875 C 7.535156 2.425781 1.613281 8.773438 0.289062 16.679688 C -1.039062 24.585938 2.480469 32.519531 9.234375 36.839844 C 15.988281 41.160156 24.667969 41.027344 31.289062 36.507812 L 14.78125 20 Z M 34.78125 20 " style=" stroke:none;fill-rule:nonzero;fill:rgb(84.705882%,0%,15.294118%);fill-opacity:1;"/>
<path d="M 19.023438 29.53125 L 16.578125 28.382812 L 17.890625 26.015625 L 15.234375 26.523438 L 14.898438 23.84375 L 13.054688 25.8125 L 11.203125 23.84375 L 10.867188 26.523438 L 8.210938 26.015625 L 9.515625 28.382812 L 7.0625 29.53125 L 9.507812 30.679688 L 8.210938 33.046875 L 10.867188 32.539062 L 11.195312 35.21875 L 13.046875 33.25 L 14.890625 35.21875 L 15.226562 32.539062 L 17.882812 33.046875 L 16.578125 30.679688 Z M 11.703125 6.953125 L 11.453125 8.90625 L 9.523438 8.539062 L 10.46875 10.257812 L 8.695312 11.09375 L 7.828125 11.09375 C 7.9375 13.894531 10.238281 16.109375 13.042969 16.109375 C 15.847656 16.109375 18.148438 13.894531 18.257812 11.09375 L 17.390625 11.09375 L 15.625 10.257812 L 16.5625 8.539062 L 14.640625 8.90625 L 14.398438 6.953125 L 13.054688 8.390625 Z M 11.703125 6.953125 " style=" stroke:none;fill-rule:nonzero;fill:rgb(93.333333%,93.333333%,93.333333%);fill-opacity:1;"/>
</g>
</svg>