<?xml version="1.0" encoding="UTF-8"?>
<!DOCTYPE svg PUBLIC "-//W3C//DTD SVG 1.1//EN" "http://www.w3.org/Graphics/SVG/1.1/DTD/svg11.dtd">
<svg version="1.1" xmlns="http://www.w3.org/2000/svg" xmlns:xlink="http://www.w3.org/1999/xlink" x="0" y="0" width="40" height="40" viewBox="0, 0, 40, 40">
  <defs>
    <clipPath id="Clip_1">
      <path d="M0,0 L40,0 L40,40 L0,40 z"/>
    </clipPath>
  </defs>
  <g id="Layer_1">
    <g clip-path="url(#Clip_1)">
      <path d="M20,0 C31.046,0 40,8.954 40,20 C40,31.046 31.046,40 20,40 C8.954,40 0,31.046 0,20 C0,8.954 8.954,0 20,0" fill="#F0F0F0"/>
      <path d="M20,0 C12.071,0 5.22,4.614 1.984,11.304 L38.016,11.304 C34.78,4.614 27.929,0 20,0" fill="#FF9811"/>
      <path d="M20,40 C27.929,40 34.78,35.386 38.016,28.696 L1.984,28.696 C5.22,35.386 12.071,40 20,40" fill="#6DA544"/>
      <path d="M20,13.043 C23.842,13.043 26.957,16.159 26.957,20 C26.957,23.841 23.842,26.956 20,26.956 C16.158,26.956 13.043,23.841 13.043,20 C13.043,16.159 16.158,13.043 20,13.043" fill="#0052B4"/>
      <path d="M20,15.652 C22.401,15.652 24.348,17.598 24.348,20 C24.348,22.401 22.401,24.347 20,24.347 C17.599,24.347 15.652,22.401 15.652,20 C15.652,17.598 17.599,15.652 20,15.652" fill="#F0F0F0"/>
      <path d="M20,14.635 L21.341,17.677 L24.646,17.318 L22.683,20 L24.646,22.683 L21.341,22.323 L20,25.365 L18.659,22.323 L15.354,22.683 L17.317,20 L15.354,17.318 L18.659,17.677 z" fill="#0052B4"/>
    </g>
  </g>
</svg>
