<?xml version="1.0" encoding="UTF-8"?>
<!DOCTYPE svg PUBLIC "-//W3C//DTD SVG 1.1//EN" "http://www.w3.org/Graphics/SVG/1.1/DTD/svg11.dtd">
<svg version="1.1" xmlns="http://www.w3.org/2000/svg" xmlns:xlink="http://www.w3.org/1999/xlink" x="0" y="0" width="40" height="40" viewBox="0, 0, 40, 40">
  <g id="Layer_1">
    <g>
      <path d="M20,0 C31.046,0 40,8.954 40,20 C40,31.046 31.046,40 20,40 C8.954,40 0,31.046 0,20 C0,8.954 8.954,0 20,0" fill="#F0F0F0"/>
      <path d="M26.956,20 C26.956,21.739 23.841,26.087 20,26.087 C16.159,26.087 13.043,21.739 13.043,20 C13.043,16.158 16.159,13.043 20,13.043 C23.841,13.043 26.956,16.158 26.956,20" fill="#D80027"/>
      <path d="M26.956,20 C26.956,23.842 23.841,26.957 20,26.957 C16.159,26.957 13.043,23.842 13.043,20" fill="#0052B4"/>
      <path d="M27.378,26.149 L29.222,24.304 L30.452,25.534 L28.607,27.378 z" fill="#000000"/>
      <path d="M24.304,29.223 L26.148,27.379 L27.378,28.608 L25.533,30.453 z" fill="#000000"/>
      <path d="M31.068,29.837 L32.913,27.992 L34.142,29.222 L32.298,31.066 z" fill="#000000"/>
      <path d="M27.993,32.913 L29.838,31.068 L31.067,32.298 L29.223,34.142 z" fill="#000000"/>
      <path d="M29.223,27.993 L31.067,26.148 L32.297,27.378 L30.452,29.223 z" fill="#000000"/>
      <path d="M26.149,31.068 L27.994,29.223 L29.224,30.453 L27.379,32.297 z" fill="#000000"/>
      <path d="M31.068,13.851 L26.149,8.932 L27.379,7.703 L32.298,12.622 z" fill="#000000"/>
      <path d="M26.149,12.622 L24.304,10.778 L25.534,9.548 L27.379,11.393 z" fill="#000000"/>
      <path d="M29.224,15.696 L27.379,13.851 L28.609,12.622 L30.453,14.467 z" fill="#000000"/>
      <path d="M29.837,8.933 L27.993,7.088 L29.222,5.858 L31.067,7.703 z" fill="#000000"/>
      <path d="M32.913,12.007 L31.069,10.162 L32.298,8.933 L34.143,10.778 z" fill="#000000"/>
      <path d="M7.088,27.994 L12.007,32.913 L10.777,34.142 L5.858,29.223 z" fill="#000000"/>
      <path d="M12.006,29.223 L13.851,31.068 L12.621,32.297 L10.776,30.453 z" fill="#000000"/>
      <path d="M8.932,26.149 L10.777,27.993 L9.547,29.223 L7.702,27.378 z" fill="#000000"/>
      <path d="M10.777,24.304 L15.696,29.223 L14.466,30.452 L9.547,25.533 z" fill="#000000"/>
      <path d="M12.006,7.087 L7.087,12.006 L5.858,10.776 L10.777,5.858 z" fill="#000000"/>
      <path d="M13.851,8.932 L8.932,13.851 L7.702,12.621 L12.621,7.703 z" fill="#000000"/>
      <path d="M15.696,10.777 L10.777,15.695 L9.548,14.466 L14.467,9.547 z" fill="#000000"/>
    </g>
  </g>
</svg>
