<?xml version="1.0" encoding="UTF-8"?>
<!DOCTYPE svg PUBLIC "-//W3C//DTD SVG 1.1//EN" "http://www.w3.org/Graphics/SVG/1.1/DTD/svg11.dtd">
<svg version="1.1" xmlns="http://www.w3.org/2000/svg" xmlns:xlink="http://www.w3.org/1999/xlink" x="0" y="0" width="40" height="40" viewBox="0, 0, 40, 40">
  <defs>
    <clipPath id="Clip_1">
      <path d="M0,0 L40,0 L40,40 L0,40 z"/>
    </clipPath>
  </defs>
  <g id="Layer_1">
    <g clip-path="url(#Clip_1)">
      <path d="M38.756,26.956 C39.56,24.789 40,22.447 40,20 C40,17.553 39.56,15.21 38.756,13.043 L20,11.304 L1.244,13.043 C0.44,15.21 -0,17.553 -0,20 C-0,22.447 0.44,24.789 1.244,26.956 L20,28.695 z" fill="#6DA544"/>
      <path d="M38.756,13.043 C35.93,5.428 28.599,0.001 20,0.001 C11.401,0.001 4.07,5.428 1.244,13.043 z" fill="#FFDA44"/>
      <path d="M20,40 C28.599,40 35.93,34.572 38.756,26.957 L1.244,26.957 C4.07,34.572 11.401,40 20,40" fill="#D80027"/>
    </g>
  </g>
</svg>
