<?xml version="1.0" encoding="UTF-8"?>
<!DOCTYPE svg PUBLIC "-//W3C//DTD SVG 1.1//EN" "http://www.w3.org/Graphics/SVG/1.1/DTD/svg11.dtd">
<svg version="1.1" xmlns="http://www.w3.org/2000/svg" xmlns:xlink="http://www.w3.org/1999/xlink" x="0" y="0" width="40" height="40" viewBox="0, 0, 40, 40">
  <defs>
    <clipPath id="Clip_1">
      <path d="M0,0 L40,0 L40,40 L0,40 z"/>
    </clipPath>
  </defs>
  <g id="Layer_1">
    <g clip-path="url(#Clip_1)">
      <path d="M20,0 C31.046,0 40,8.954 40,20 C40,31.046 31.046,40 20,40 C8.954,40 0,31.046 0,20 C0,8.954 8.954,0 20,0" fill="#CD2A3E"/>
      <path d="M38.756,26.957 C39.56,24.79 40,22.447 40,20 C40,17.554 39.56,15.21 38.756,13.044 L1.244,13.044 C0.44,15.21 -0,17.554 -0,20 C-0,22.447 0.44,24.79 1.244,26.957 L20,28.696 z" fill="#FFF"/>
      <path d="M20,40 C28.599,40 35.93,34.572 38.756,26.957 L1.244,26.957 C4.07,34.572 11.401,40 20,40" fill="#436F4D"/>
    </g>
  </g>
</svg>
