<?xml version="1.0" encoding="UTF-8"?>
<!DOCTYPE svg PUBLIC "-//W3C//DTD SVG 1.1//EN" "http://www.w3.org/Graphics/SVG/1.1/DTD/svg11.dtd">
<svg version="1.1" xmlns="http://www.w3.org/2000/svg" xmlns:xlink="http://www.w3.org/1999/xlink" x="0" y="0" width="40" height="40" viewBox="0, 0, 40, 40">
  <g id="Layer_1">
    <g>
      <path d="M20,0 C31.046,0 40,8.954 40,20 C40,31.046 31.046,40 20,40 C8.954,40 0,31.046 0,20 C0,8.954 8.954,0 20,0" fill="#D80027"/>
      <path d="M19.181,16.343 L20.822,18.604 L23.479,17.742 L21.836,20.002 L23.477,22.263 L20.82,21.398 L19.177,23.657 L19.178,20.864 L16.521,19.999 L19.179,19.137 z" fill="#F0F0F0"/>
      <path d="M14.703,25.652 C11.581,25.652 9.051,23.121 9.051,20 C9.051,16.878 11.581,14.347 14.703,14.347 C15.676,14.347 16.592,14.593 17.391,15.027 C16.137,13.8 14.422,13.043 12.529,13.043 C8.687,13.043 5.573,16.158 5.573,20 C5.573,23.841 8.687,26.956 12.529,26.956 C14.422,26.956 16.138,26.199 17.391,24.972 C16.592,25.406 15.676,25.652 14.703,25.652" fill="#F0F0F0"/>
    </g>
  </g>
</svg>
