<svg xmlns="http://www.w3.org/2000/svg" viewBox="0 0 512 512"><circle cx="256" cy="256" r="256" fill="#eee"/><path fill="#d80027" d="M339.1 189.2h-33.4c.2 3.7.4 7.4.4 11.1 0 24.8-6.2 48.8-17 65.9-3.3 5.3-9 12.7-16.4 17.7v-94.7h-33.4V284c-7.5-5-13-12.4-16.4-17.7-10.8-17-17-41-17-65.9 0-3.7.2-7.4.4-11H173a189.9 189.9 0 0 0-.4 11c0 68.7 36.7 122.5 83.5 122.5s83.5-53.8 83.5-122.5c0-3.7-.1-7.4-.4-11z"/><path fill="#6da544" d="M105.7 122.4h33.4v22.3h33.4v-22.3H206v22.3h33.4v-22.3h33.4v22.3H306v-22.3h33.4v22.3h33.4v-22.3h33.4v22.3h80.3a256 256 0 0 0-461.2 0h80.3v-22.3z"/><path fill="#d80027" d="M406.3 367.3v22.3h-33.4v-22.3h-33.4v22.3H306v-22.3h-33.4v22.3h-33.4v-22.3H206v22.3h-33.4v-22.3h-33.4v22.3h-33.4v-22.3H25.4a256 256 0 0 0 461.2 0h-80.3z"/></svg>