<svg id="svg" version="1.1" xmlns="http://www.w3.org/2000/svg" xmlns:xlink="http://www.w3.org/1999/xlink" width="400" height="400" viewBox="0, 0, 400,400"><g id="svgg"><path id="path0" d="M153.436 5.100 C 153.221 5.768,152.838 6.000,151.949 6.000 C 151.254 6.000,150.856 5.833,151.000 5.600 C 151.136 5.380,151.069 5.200,150.851 5.200 C 150.632 5.200,150.340 5.560,150.200 6.000 C 149.915 6.898,148.198 7.118,147.860 6.300 C 147.737 6.002,147.539 6.179,147.371 6.737 C 147.138 7.505,146.874 7.643,145.907 7.501 C 145.156 7.391,144.651 7.523,144.520 7.864 C 144.407 8.159,143.873 8.400,143.334 8.400 C 142.782 8.400,142.461 8.225,142.600 8.000 C 142.736 7.780,142.657 7.600,142.424 7.600 C 142.191 7.600,142.000 7.960,142.000 8.400 C 142.000 9.048,141.733 9.200,140.600 9.200 C 139.830 9.200,139.200 9.380,139.200 9.600 C 139.200 9.820,138.660 10.000,138.000 10.000 C 137.340 10.000,136.800 10.200,136.800 10.445 C 136.800 10.736,136.319 10.799,135.406 10.628 C 134.252 10.411,134.053 10.472,134.249 10.983 C 134.416 11.419,134.238 11.600,133.643 11.600 C 133.179 11.600,132.800 11.409,132.800 11.176 C 132.800 10.943,132.628 10.859,132.417 10.989 C 132.207 11.119,132.136 11.490,132.260 11.813 C 132.516 12.479,131.398 12.644,131.000 12.000 C 130.864 11.780,130.973 11.600,131.243 11.600 C 131.513 11.600,131.618 11.484,131.476 11.343 C 131.133 10.999,129.953 12.001,130.211 12.418 C 130.496 12.878,129.691 13.303,129.157 12.974 C 128.848 12.782,128.878 12.585,129.257 12.320 C 129.697 12.011,129.686 11.969,129.200 12.095 C 128.870 12.181,128.421 12.648,128.203 13.131 C 127.983 13.619,127.568 13.920,127.273 13.807 C 126.980 13.694,126.487 13.856,126.177 14.166 C 125.868 14.475,125.267 14.638,124.844 14.527 C 124.323 14.391,124.029 14.555,123.936 15.034 C 123.806 15.709,123.767 15.710,123.100 15.043 C 122.433 14.376,122.400 14.389,122.400 15.316 C 122.400 16.138,122.245 16.259,121.400 16.098 C 120.816 15.986,120.400 16.093,120.400 16.353 C 120.400 16.599,120.040 16.800,119.600 16.800 C 119.160 16.800,118.800 17.001,118.800 17.247 C 118.800 17.496,118.447 17.601,118.000 17.484 C 117.480 17.348,117.200 17.472,117.200 17.837 C 117.200 18.534,115.752 18.585,115.437 17.900 C 115.311 17.625,115.308 17.805,115.431 18.300 C 115.608 19.015,115.484 19.200,114.827 19.200 C 114.372 19.200,114.000 19.401,114.000 19.647 C 114.000 19.903,113.589 20.015,113.037 19.909 C 112.305 19.769,112.128 19.869,112.302 20.322 C 112.479 20.782,112.295 20.873,111.502 20.722 C 110.753 20.578,110.529 20.671,110.679 21.062 C 110.812 21.408,110.584 21.600,110.043 21.600 C 109.579 21.600,109.200 21.780,109.200 22.000 C 109.200 22.220,108.840 22.400,108.400 22.400 C 107.960 22.400,107.600 22.580,107.600 22.800 C 107.600 23.020,107.240 23.200,106.800 23.200 C 106.360 23.200,106.000 23.380,106.000 23.600 C 106.000 23.820,105.730 24.000,105.400 24.000 C 104.869 24.000,104.800 32.622,104.800 99.200 L 104.800 174.400 52.948 174.400 L 1.097 174.400 1.376 177.602 C 1.611 180.294,1.557 180.842,1.037 181.041 C 0.381 181.293,0.388 181.078,0.387 200.400 C 0.387 218.871,0.399 219.257,1.027 219.884 C 1.504 220.361,1.571 221.084,1.358 223.441 L 1.090 226.400 52.945 226.400 L 104.800 226.400 104.800 301.600 C 104.800 368.178,104.869 376.800,105.400 376.800 C 105.730 376.800,106.000 376.980,106.000 377.200 C 106.000 377.420,106.360 377.600,106.800 377.600 C 107.240 377.600,107.600 377.780,107.600 378.000 C 107.600 378.220,107.960 378.400,108.400 378.400 C 108.840 378.400,109.200 378.580,109.200 378.800 C 109.200 379.020,109.560 379.200,110.000 379.200 C 110.440 379.200,110.800 379.380,110.800 379.600 C 110.800 379.820,111.179 380.000,111.643 380.000 C 112.184 380.000,112.412 380.192,112.279 380.538 C 112.132 380.923,112.346 381.023,113.037 380.891 C 113.589 380.785,114.000 380.897,114.000 381.153 C 114.000 381.399,114.372 381.600,114.827 381.600 C 115.484 381.600,115.608 381.785,115.431 382.500 C 115.308 382.995,115.311 383.175,115.437 382.900 C 115.752 382.215,117.200 382.266,117.200 382.963 C 117.200 383.328,117.480 383.452,118.000 383.316 C 118.447 383.199,118.800 383.304,118.800 383.553 C 118.800 383.799,119.160 384.000,119.600 384.000 C 120.040 384.000,120.400 384.180,120.400 384.400 C 120.400 384.620,120.850 384.800,121.400 384.800 C 122.145 384.800,122.400 385.011,122.400 385.629 C 122.400 386.418,122.433 386.424,123.100 385.757 C 123.767 385.090,123.806 385.091,123.936 385.766 C 124.029 386.245,124.323 386.409,124.844 386.273 C 125.267 386.162,125.868 386.325,126.177 386.634 C 126.487 386.944,127.024 387.089,127.370 386.956 C 127.769 386.803,128.000 386.932,128.000 387.308 C 128.000 387.635,128.280 388.135,128.623 388.419 C 129.131 388.841,129.223 388.841,129.123 388.418 C 128.885 387.416,130.000 387.548,130.388 388.567 C 130.791 389.628,131.279 389.993,131.100 389.100 C 131.045 388.825,131.270 388.600,131.600 388.600 C 131.930 388.600,132.208 388.870,132.218 389.200 C 132.237 389.828,132.497 389.855,133.769 389.360 C 134.356 389.132,134.484 389.203,134.309 389.659 C 134.178 390.001,134.399 390.457,134.825 390.723 C 135.438 391.105,135.530 391.082,135.342 390.594 C 135.183 390.179,135.381 390.000,136.000 390.000 C 136.600 390.000,136.815 390.183,136.668 390.567 C 136.548 390.879,136.709 391.233,137.025 391.354 C 137.341 391.476,137.600 391.401,137.600 391.187 C 137.600 390.974,137.960 390.800,138.400 390.800 C 138.840 390.800,139.200 390.980,139.200 391.200 C 139.200 391.420,139.830 391.600,140.600 391.600 C 141.733 391.600,142.000 391.752,142.000 392.400 C 142.000 392.840,142.191 393.200,142.424 393.200 C 142.657 393.200,142.736 393.020,142.600 392.800 C 142.460 392.573,142.796 392.400,143.376 392.400 C 143.939 392.400,144.400 392.580,144.400 392.800 C 144.400 393.020,145.009 393.200,145.753 393.200 C 146.809 393.200,147.167 393.398,147.380 394.100 C 147.546 394.645,147.735 394.803,147.860 394.500 C 148.105 393.908,150.000 393.820,150.000 394.400 C 150.000 394.620,150.720 394.800,151.600 394.800 C 152.480 394.800,153.200 394.980,153.200 395.200 C 153.200 395.420,154.010 395.600,154.999 395.600 L 156.798 395.600 156.899 311.100 L 157.000 226.600 278.314 226.499 L 399.627 226.399 399.648 223.099 C 399.676 218.812,399.676 181.993,399.648 177.700 L 399.627 174.400 278.214 174.400 L 156.800 174.400 156.800 89.800 L 156.800 5.200 155.433 5.200 C 154.682 5.200,153.990 4.975,153.896 4.700 C 153.800 4.418,153.599 4.592,153.436 5.100 " stroke="none" fill="#0454b4" fill-rule="evenodd"></path><path id="path1" d="M175.800 0.800 C 175.664 1.020,174.404 1.200,173.000 1.200 C 171.596 1.200,170.336 1.380,170.200 1.600 C 170.064 1.820,168.984 2.000,167.800 2.000 C 166.616 2.000,165.536 2.180,165.400 2.400 C 165.264 2.620,164.364 2.800,163.400 2.800 C 162.436 2.800,161.536 2.980,161.400 3.200 C 161.264 3.420,160.373 3.600,159.419 3.600 C 158.207 3.600,157.613 3.790,157.443 4.233 C 157.309 4.581,157.200 42.921,157.200 89.433 L 157.200 174.000 278.400 174.000 L 399.600 174.000 399.600 172.224 C 399.600 171.247,399.420 170.336,399.200 170.200 C 398.980 170.064,398.800 168.984,398.800 167.800 C 398.800 166.616,398.620 165.536,398.400 165.400 C 398.180 165.264,398.000 164.263,398.000 163.176 C 398.000 162.089,397.820 161.200,397.600 161.200 C 397.380 161.200,397.200 160.491,397.200 159.624 C 397.200 158.757,397.020 157.936,396.800 157.800 C 396.580 157.664,396.400 156.764,396.400 155.800 C 396.400 154.836,396.220 153.936,396.000 153.800 C 395.780 153.664,395.600 152.944,395.600 152.200 C 395.600 151.456,395.420 150.736,395.200 150.600 C 394.980 150.464,394.800 149.958,394.800 149.476 L 394.800 148.600 288.900 148.600 L 183.000 148.600 182.899 74.500 L 182.798 0.400 179.423 0.400 C 177.566 0.400,175.936 0.580,175.800 0.800 M102.700 24.703 C 102.315 24.789,102.000 25.025,102.000 25.229 C 102.000 25.433,101.640 25.600,101.200 25.600 C 100.760 25.600,100.400 25.780,100.400 26.000 C 100.400 26.220,100.040 26.400,99.600 26.400 C 99.160 26.400,98.800 26.568,98.800 26.773 C 98.800 26.978,98.395 27.273,97.900 27.428 C 97.405 27.583,96.248 28.225,95.328 28.855 C 94.408 29.485,93.463 30.000,93.228 30.000 C 92.993 30.000,92.800 30.158,92.800 30.351 C 92.800 30.545,92.260 30.927,91.600 31.200 C 90.940 31.473,90.400 31.855,90.400 32.049 C 90.400 32.242,90.164 32.400,89.875 32.400 C 89.587 32.400,88.964 32.760,88.492 33.200 C 88.020 33.640,87.491 34.000,87.317 34.001 C 87.143 34.001,86.370 34.541,85.600 35.200 C 84.830 35.859,84.015 36.399,83.788 36.399 C 83.562 36.400,83.117 36.760,82.800 37.200 C 82.483 37.640,81.993 38.000,81.712 38.000 C 81.430 38.000,81.200 38.180,81.200 38.400 C 81.200 38.620,80.970 38.800,80.688 38.800 C 80.407 38.800,79.917 39.160,79.600 39.600 C 79.283 40.040,78.793 40.400,78.512 40.400 C 78.230 40.400,78.000 40.580,78.000 40.800 C 78.000 41.020,78.271 41.200,78.601 41.200 C 79.134 41.200,79.191 47.331,79.101 94.900 L 79.000 148.600 42.500 148.600 L 6.000 148.600 6.000 149.476 C 6.000 149.958,5.820 150.464,5.600 150.600 C 5.380 150.736,5.200 151.456,5.200 152.200 C 5.200 152.944,5.020 153.664,4.800 153.800 C 4.580 153.936,4.400 154.847,4.400 155.824 C 4.400 156.801,4.220 157.600,4.000 157.600 C 3.780 157.600,3.600 158.399,3.600 159.376 C 3.600 160.353,3.420 161.264,3.200 161.400 C 2.980 161.536,2.800 162.436,2.800 163.400 C 2.800 164.364,2.620 165.264,2.400 165.400 C 2.180 165.536,2.000 166.616,2.000 167.800 C 2.000 168.984,1.820 170.064,1.600 170.200 C 1.380 170.336,1.200 171.247,1.200 172.224 L 1.200 174.000 52.800 174.000 L 104.400 174.000 104.400 99.443 C 104.400 40.154,104.298 24.851,103.900 24.717 C 103.625 24.624,103.085 24.618,102.700 24.703 M1.200 228.576 C 1.200 229.553,1.380 230.464,1.600 230.600 C 1.820 230.736,2.000 231.791,2.000 232.944 C 2.000 234.097,2.170 235.211,2.378 235.420 C 2.585 235.629,2.799 236.655,2.852 237.700 C 2.906 238.745,3.096 239.600,3.275 239.600 C 3.454 239.600,3.600 240.410,3.600 241.400 C 3.600 242.390,3.780 243.200,4.000 243.200 C 4.220 243.200,4.400 243.999,4.400 244.976 C 4.400 245.953,4.580 246.864,4.800 247.000 C 5.020 247.136,5.200 247.856,5.200 248.600 C 5.200 249.344,5.380 250.064,5.600 250.200 C 5.820 250.336,6.000 250.842,6.000 251.324 L 6.000 252.200 42.500 252.200 L 79.000 252.200 79.101 305.900 C 79.197 356.381,79.162 359.600,78.517 359.600 C 78.051 359.600,78.396 360.110,79.600 361.200 C 80.572 362.080,81.560 362.800,81.796 362.800 C 82.031 362.800,82.483 363.160,82.800 363.600 C 83.117 364.040,83.562 364.400,83.788 364.401 C 84.015 364.401,84.830 364.941,85.600 365.600 C 86.370 366.259,87.143 366.799,87.317 366.799 C 87.491 366.800,88.020 367.160,88.492 367.600 C 88.964 368.040,89.587 368.400,89.875 368.400 C 90.164 368.400,90.400 368.558,90.400 368.751 C 90.400 368.945,90.940 369.327,91.600 369.600 C 92.260 369.873,92.800 370.255,92.800 370.449 C 92.800 370.642,93.036 370.800,93.325 370.800 C 93.613 370.800,94.198 371.115,94.625 371.500 C 95.051 371.885,95.940 372.470,96.600 372.799 C 97.260 373.129,97.890 373.509,98.000 373.644 C 98.375 374.102,100.758 375.200,101.380 375.200 C 101.721 375.200,102.000 375.359,102.000 375.553 C 102.000 375.984,103.212 376.333,103.900 376.102 C 104.298 375.968,104.400 360.664,104.400 301.367 L 104.400 226.800 52.800 226.800 L 1.200 226.800 1.200 228.576 M157.200 311.367 C 157.200 357.879,157.309 396.219,157.443 396.567 C 157.613 397.011,158.209 397.200,159.443 397.200 C 160.409 397.200,161.200 397.380,161.200 397.600 C 161.200 397.820,162.089 398.000,163.176 398.000 C 164.263 398.000,165.264 398.180,165.400 398.400 C 165.536 398.620,166.591 398.800,167.744 398.800 C 168.897 398.800,170.011 398.970,170.220 399.177 C 170.429 399.384,173.345 399.681,176.699 399.836 L 182.798 400.119 182.899 326.159 L 183.000 252.200 288.900 252.200 L 394.800 252.200 394.800 251.324 C 394.800 250.842,394.980 250.336,395.200 250.200 C 395.420 250.064,395.600 249.344,395.600 248.600 C 395.600 247.856,395.780 247.136,396.000 247.000 C 396.220 246.864,396.400 245.953,396.400 244.976 C 396.400 243.999,396.580 243.200,396.800 243.200 C 397.020 243.200,397.200 242.390,397.200 241.400 C 397.200 240.410,397.380 239.600,397.600 239.600 C 397.820 239.600,398.000 238.711,398.000 237.624 C 398.000 236.537,398.180 235.536,398.400 235.400 C 398.620 235.264,398.800 234.184,398.800 233.000 C 398.800 231.816,398.980 230.736,399.200 230.600 C 399.420 230.464,399.600 229.553,399.600 228.576 L 399.600 226.800 278.400 226.800 L 157.200 226.800 157.200 311.367 " stroke="none" fill="#f3f3f3" fill-rule="evenodd"></path><path id="path2" d="M192.400 0.431 C 191.630 0.643,189.245 0.708,187.100 0.576 L 183.200 0.336 183.200 74.368 L 183.200 148.400 288.500 148.394 C 385.261 148.388,396.778 148.282,394.053 147.417 C 393.401 147.210,393.200 146.823,393.200 145.773 C 393.200 145.018,393.020 144.400,392.800 144.400 C 392.580 144.400,392.400 143.871,392.400 143.224 C 392.400 142.577,392.220 141.936,392.000 141.800 C 391.780 141.664,391.600 141.023,391.600 140.376 C 391.600 139.729,391.420 139.200,391.200 139.200 C 390.980 139.200,390.800 138.840,390.800 138.400 C 390.800 137.960,390.974 137.600,391.187 137.600 C 391.401 137.600,391.476 137.341,391.354 137.025 C 391.233 136.709,390.879 136.548,390.567 136.668 C 390.188 136.813,390.000 136.606,390.000 136.043 C 390.000 135.123,390.612 134.899,390.935 135.700 C 391.081 136.061,391.146 136.067,391.168 135.724 C 391.186 135.462,391.020 135.136,390.800 135.000 C 390.580 134.864,390.379 134.358,390.354 133.876 C 390.318 133.200,390.266 133.159,390.124 133.700 C 390.024 134.085,389.775 134.400,389.571 134.400 C 389.099 134.400,389.103 134.128,389.590 133.218 C 389.902 132.636,389.813 132.444,389.148 132.271 C 388.262 132.039,388.330 130.912,389.218 131.123 C 389.636 131.222,389.639 131.129,389.229 130.635 C 388.951 130.300,388.516 130.065,388.262 130.113 C 388.008 130.161,387.800 129.930,387.800 129.600 C 387.800 129.270,388.055 129.055,388.368 129.123 C 388.837 129.224,388.846 129.137,388.419 128.623 C 388.135 128.280,387.671 128.000,387.388 128.000 C 387.072 128.000,386.955 127.693,387.084 127.200 C 387.201 126.753,387.096 126.400,386.847 126.400 C 386.601 126.400,386.400 125.860,386.400 125.200 C 386.400 124.540,386.220 124.000,386.000 124.000 C 385.780 124.000,385.600 123.640,385.600 123.200 C 385.600 122.760,385.420 122.400,385.200 122.400 C 384.980 122.400,384.800 121.950,384.800 121.400 C 384.800 120.850,384.620 120.400,384.400 120.400 C 384.180 120.400,384.000 119.939,384.000 119.376 C 384.000 118.796,383.827 118.460,383.600 118.600 C 383.380 118.736,383.200 118.582,383.200 118.257 C 383.200 117.932,383.425 117.574,383.700 117.460 C 384.003 117.335,383.845 117.146,383.300 116.980 C 382.324 116.683,382.096 115.806,382.900 115.437 C 383.175 115.311,382.995 115.308,382.500 115.431 C 381.499 115.679,381.147 114.275,382.100 113.837 C 382.375 113.711,382.170 113.716,381.645 113.848 C 380.797 114.062,380.711 113.976,380.882 113.081 C 381.022 112.351,380.927 112.130,380.538 112.279 C 380.192 112.412,380.000 112.184,380.000 111.643 C 380.000 111.179,379.820 110.800,379.600 110.800 C 379.380 110.800,379.200 110.440,379.200 110.000 C 379.200 109.560,379.020 109.200,378.800 109.200 C 378.580 109.200,378.400 108.840,378.400 108.400 C 378.400 107.960,378.220 107.600,378.000 107.600 C 377.780 107.600,377.600 107.240,377.600 106.800 C 377.600 106.360,377.420 106.000,377.200 106.000 C 376.980 106.000,376.800 105.640,376.800 105.200 C 376.800 104.760,376.599 104.400,376.353 104.400 C 376.104 104.400,375.999 104.047,376.116 103.600 C 376.252 103.080,376.128 102.800,375.763 102.800 C 375.453 102.800,375.200 102.530,375.200 102.200 C 375.200 101.870,375.006 101.600,374.768 101.600 C 374.500 101.600,374.433 101.161,374.592 100.438 C 374.732 99.799,374.673 99.169,374.461 99.038 C 374.239 98.901,374.164 99.141,374.284 99.599 C 374.401 100.047,374.296 100.400,374.047 100.400 C 373.801 100.400,373.600 100.130,373.600 99.800 C 373.600 99.470,373.399 99.200,373.153 99.200 C 372.904 99.200,372.799 98.847,372.916 98.400 C 373.046 97.903,372.928 97.600,372.605 97.600 C 372.094 97.600,371.409 96.498,371.540 95.889 C 371.577 95.718,371.330 95.471,370.992 95.341 C 370.602 95.192,370.464 94.829,370.615 94.353 C 370.753 93.917,370.662 93.600,370.398 93.600 C 369.609 93.600,368.848 92.569,369.208 91.988 C 369.436 91.619,369.265 91.307,368.675 91.013 C 368.198 90.775,367.739 90.226,367.656 89.794 C 367.573 89.362,367.166 88.771,366.752 88.482 C 365.993 87.950,365.658 86.541,366.400 87.000 C 366.620 87.136,366.800 87.069,366.800 86.851 C 366.800 86.634,366.413 86.398,365.941 86.328 C 365.468 86.258,364.883 85.845,364.641 85.412 C 364.398 84.979,363.705 84.142,363.100 83.552 C 362.495 82.962,362.000 82.263,362.000 82.000 C 362.000 81.737,361.439 80.997,360.754 80.357 C 359.899 79.558,359.574 78.943,359.717 78.396 C 359.832 77.958,359.764 77.699,359.566 77.821 C 359.172 78.064,357.200 76.264,357.200 75.662 C 357.200 75.456,356.308 74.390,355.217 73.293 C 354.126 72.197,353.349 71.185,353.489 71.044 C 353.630 70.903,352.610 69.756,351.223 68.494 C 349.836 67.232,348.150 65.390,347.477 64.400 C 346.804 63.410,346.083 62.485,345.875 62.345 C 345.667 62.204,345.638 61.862,345.811 61.583 C 346.012 61.257,345.962 61.176,345.672 61.355 C 344.963 61.794,339.161 55.792,339.445 54.914 C 339.639 54.313,339.606 54.295,339.238 54.800 C 338.962 55.178,338.689 55.252,338.500 54.999 C 338.335 54.778,337.176 53.820,335.925 52.869 C 332.948 50.608,330.660 47.943,331.316 47.502 C 331.585 47.320,331.318 47.288,330.713 47.428 C 329.782 47.644,329.341 47.387,327.639 45.640 C 326.546 44.518,325.442 43.600,325.186 43.600 C 324.930 43.600,324.217 43.060,323.600 42.400 C 322.983 41.740,322.263 41.200,322.000 41.200 C 321.737 41.200,321.017 40.660,320.400 40.000 C 319.783 39.340,319.126 38.800,318.940 38.800 C 318.431 38.799,316.363 36.935,316.434 36.542 C 316.581 35.720,316.356 35.448,315.986 36.000 C 315.639 36.517,315.487 36.485,314.881 35.766 C 314.494 35.307,313.688 34.808,313.089 34.658 C 312.490 34.508,312.000 34.141,312.000 33.842 C 312.000 33.544,311.460 33.192,310.800 33.060 C 310.051 32.910,309.600 32.573,309.600 32.163 C 309.600 31.731,309.357 31.570,308.888 31.693 C 308.088 31.902,307.200 31.138,307.200 30.240 C 307.200 29.914,306.992 29.519,306.738 29.362 C 306.463 29.191,306.385 29.251,306.545 29.511 C 307.051 30.329,306.030 30.430,305.239 29.639 C 304.715 29.115,304.609 28.794,304.925 28.687 C 305.186 28.597,304.905 28.600,304.300 28.694 C 303.367 28.838,303.199 28.722,303.194 27.932 C 303.190 27.319,303.079 27.171,302.871 27.499 C 302.535 28.029,300.410 27.341,300.403 26.700 C 300.401 26.535,300.130 26.400,299.800 26.400 C 299.470 26.400,299.200 26.220,299.200 26.000 C 299.200 25.780,298.930 25.600,298.600 25.600 C 298.270 25.600,298.000 25.420,298.000 25.200 C 298.000 24.980,297.640 24.800,297.200 24.800 C 296.760 24.800,296.400 24.620,296.400 24.400 C 296.400 24.180,296.040 24.000,295.600 24.000 C 295.160 24.000,294.800 23.820,294.800 23.600 C 294.800 23.380,294.440 23.200,294.000 23.200 C 293.560 23.200,293.200 23.020,293.200 22.800 C 293.200 22.580,292.840 22.400,292.400 22.400 C 291.960 22.400,291.600 22.220,291.600 22.000 C 291.600 21.780,291.221 21.600,290.757 21.600 C 290.203 21.600,289.987 21.410,290.127 21.045 C 290.277 20.656,290.110 20.551,289.570 20.692 C 289.147 20.803,288.800 20.692,288.800 20.447 C 288.800 20.201,288.440 20.000,288.000 20.000 C 287.560 20.000,287.200 19.820,287.200 19.600 C 287.200 19.380,286.840 19.200,286.400 19.200 C 285.960 19.200,285.600 19.020,285.600 18.800 C 285.600 18.580,285.261 18.400,284.847 18.400 C 284.405 18.400,283.991 18.027,283.847 17.500 C 283.640 16.745,283.534 16.697,283.193 17.200 C 282.835 17.727,282.738 17.719,282.394 17.137 C 282.152 16.728,281.695 16.555,281.201 16.684 C 280.753 16.801,280.400 16.697,280.400 16.447 C 280.400 16.201,279.950 16.000,279.400 16.000 C 278.667 16.000,278.400 15.787,278.400 15.200 C 278.400 14.760,278.209 14.400,277.976 14.400 C 277.743 14.400,277.652 14.561,277.774 14.758 C 277.896 14.955,277.726 15.219,277.398 15.346 C 277.035 15.485,276.800 15.344,276.800 14.987 C 276.800 14.628,276.413 14.400,275.800 14.400 C 275.250 14.400,274.800 14.200,274.800 13.957 C 274.800 13.683,274.416 13.610,273.800 13.764 C 273.040 13.955,272.800 13.859,272.800 13.364 C 272.800 12.861,272.561 12.773,271.749 12.977 C 270.953 13.177,270.750 13.108,270.909 12.692 C 271.126 12.127,269.702 10.964,269.294 11.372 C 269.169 11.498,269.287 11.600,269.557 11.600 C 269.827 11.600,269.936 11.780,269.800 12.000 C 269.391 12.663,268.907 12.454,268.660 11.507 C 268.475 10.799,268.324 10.716,267.933 11.107 C 267.354 11.686,266.400 11.762,266.400 11.229 C 266.400 11.025,266.715 10.761,267.100 10.643 C 267.485 10.524,267.035 10.513,266.100 10.618 C 265.094 10.731,264.400 10.644,264.400 10.405 C 264.400 10.182,263.860 10.000,263.200 10.000 C 262.540 10.000,262.000 9.820,262.000 9.600 C 262.000 9.380,261.398 9.200,260.661 9.200 C 259.668 9.200,259.210 8.968,258.888 8.300 C 258.649 7.805,258.442 7.625,258.427 7.900 C 258.395 8.489,256.400 8.587,256.400 8.000 C 256.400 7.780,255.934 7.600,255.364 7.600 C 254.779 7.600,254.002 7.208,253.577 6.700 C 253.164 6.205,252.821 6.025,252.813 6.300 C 252.791 7.147,250.882 6.889,250.600 6.000 C 250.460 5.560,250.168 5.200,249.949 5.200 C 249.731 5.200,249.664 5.380,249.800 5.600 C 250.279 6.375,248.170 5.991,247.600 5.200 C 247.024 4.400,246.133 4.044,246.600 4.800 C 246.743 5.032,246.352 5.200,245.666 5.200 C 245.006 5.200,244.388 4.945,244.264 4.622 C 244.103 4.202,243.651 4.107,242.614 4.275 C 241.475 4.460,241.037 4.335,240.446 3.653 C 239.697 2.790,238.945 2.464,239.400 3.200 C 239.547 3.438,239.071 3.600,238.224 3.600 C 237.441 3.600,236.800 3.420,236.800 3.200 C 236.800 2.978,235.733 2.800,234.400 2.800 C 233.067 2.800,232.000 2.622,232.000 2.400 C 232.000 2.174,230.867 2.000,229.400 2.000 C 227.933 2.000,226.800 1.826,226.800 1.600 C 226.800 1.380,226.440 1.200,226.000 1.200 C 225.560 1.200,225.197 0.975,225.194 0.700 C 225.189 0.316,225.111 0.321,224.858 0.720 C 224.385 1.465,220.077 1.569,219.630 0.847 C 219.381 0.445,218.589 0.329,216.743 0.424 C 215.345 0.496,213.120 0.527,211.800 0.495 C 210.480 0.462,205.890 0.347,201.600 0.240 C 197.165 0.130,193.196 0.212,192.400 0.431 M77.200 42.400 C 76.650 43.047,75.995 43.581,75.743 43.588 C 75.492 43.595,74.382 44.500,73.276 45.600 C 72.171 46.700,71.066 47.600,70.822 47.600 C 70.577 47.600,69.437 48.611,68.289 49.847 C 67.140 51.083,65.390 52.647,64.400 53.321 C 63.410 53.995,62.485 54.717,62.345 54.925 C 62.204 55.133,61.862 55.162,61.583 54.989 C 61.257 54.788,61.176 54.838,61.355 55.128 C 61.726 55.727,55.727 61.726,55.128 61.355 C 54.838 61.176,54.788 61.257,54.989 61.583 C 55.162 61.862,55.133 62.204,54.925 62.345 C 54.717 62.485,53.995 63.410,53.321 64.400 C 52.647 65.390,51.083 67.140,49.847 68.289 C 48.611 69.437,47.600 70.577,47.600 70.822 C 47.600 71.066,46.700 72.171,45.600 73.276 C 44.500 74.382,43.600 75.465,43.600 75.683 C 43.600 75.901,43.060 76.583,42.400 77.200 C 41.740 77.817,41.200 78.537,41.200 78.800 C 41.200 79.063,40.660 79.783,40.000 80.400 C 39.340 81.017,38.800 81.737,38.800 82.000 C 38.800 82.263,38.294 82.956,37.675 83.540 C 37.057 84.123,36.426 84.932,36.273 85.338 C 36.121 85.744,35.639 86.169,35.202 86.283 C 34.766 86.398,34.509 86.652,34.630 86.849 C 34.978 87.411,34.403 88.800,33.823 88.800 C 33.535 88.800,33.192 89.340,33.060 90.000 C 32.891 90.845,32.587 91.200,32.034 91.200 C 31.601 91.200,31.119 91.408,30.962 91.662 C 30.793 91.935,30.851 92.016,31.104 91.859 C 31.339 91.714,31.607 91.820,31.698 92.094 C 31.888 92.663,31.082 93.600,30.402 93.600 C 30.138 93.600,30.047 93.917,30.185 94.353 C 30.336 94.829,30.198 95.192,29.808 95.341 C 29.470 95.471,29.223 95.718,29.260 95.889 C 29.391 96.498,28.706 97.600,28.195 97.600 C 27.872 97.600,27.754 97.903,27.884 98.400 C 28.001 98.847,27.896 99.200,27.647 99.200 C 27.401 99.200,27.200 99.470,27.200 99.800 C 27.200 100.130,27.020 100.400,26.800 100.400 C 26.580 100.400,26.400 100.670,26.400 101.000 C 26.400 101.330,26.220 101.600,26.000 101.600 C 25.780 101.600,25.600 101.870,25.600 102.200 C 25.600 102.530,25.347 102.800,25.037 102.800 C 24.672 102.800,24.548 103.080,24.684 103.600 C 24.801 104.047,24.696 104.400,24.447 104.400 C 24.201 104.400,24.000 104.760,24.000 105.200 C 24.000 105.640,23.820 106.000,23.600 106.000 C 23.380 106.000,23.200 106.360,23.200 106.800 C 23.200 107.240,23.020 107.600,22.800 107.600 C 22.580 107.600,22.400 107.960,22.400 108.400 C 22.400 108.840,22.220 109.200,22.000 109.200 C 21.780 109.200,21.600 109.560,21.600 110.000 C 21.600 110.440,21.420 110.800,21.200 110.800 C 20.980 110.800,20.800 111.179,20.800 111.643 C 20.800 112.184,20.608 112.412,20.262 112.279 C 19.871 112.129,19.778 112.353,19.922 113.102 C 20.073 113.895,19.982 114.079,19.522 113.902 C 19.062 113.725,18.970 113.909,19.122 114.702 C 19.279 115.526,19.190 115.682,18.672 115.483 C 18.316 115.347,17.902 115.435,17.751 115.679 C 17.577 115.961,17.660 116.010,17.977 115.814 C 18.322 115.601,18.432 115.737,18.333 116.253 C 18.254 116.664,17.982 117.000,17.728 117.000 C 17.474 117.000,17.132 117.135,16.967 117.300 C 16.802 117.465,16.877 117.600,17.133 117.600 C 17.390 117.600,17.600 117.881,17.600 118.224 C 17.600 118.567,17.420 118.736,17.200 118.600 C 16.973 118.460,16.800 118.796,16.800 119.376 C 16.800 119.939,16.620 120.400,16.400 120.400 C 16.180 120.400,16.000 120.850,16.000 121.400 C 16.000 121.950,15.799 122.400,15.553 122.400 C 15.304 122.400,15.199 122.753,15.316 123.200 C 15.452 123.720,15.328 124.000,14.963 124.000 C 14.604 124.000,14.400 124.436,14.400 125.200 C 14.400 125.860,14.208 126.400,13.973 126.400 C 13.728 126.400,13.654 126.741,13.800 127.200 C 13.974 127.748,13.872 128.000,13.476 128.000 C 13.158 128.000,12.665 128.280,12.381 128.623 C 11.954 129.137,11.963 129.224,12.432 129.123 C 12.745 129.055,13.000 129.270,13.000 129.600 C 13.000 129.930,12.820 130.203,12.600 130.206 C 11.944 130.216,11.200 130.813,11.206 131.324 C 11.210 131.642,11.326 131.620,11.556 131.257 C 11.796 130.879,11.983 130.849,12.174 131.157 C 12.510 131.701,12.074 132.493,11.600 132.200 C 11.410 132.083,11.150 132.157,11.021 132.366 C 10.892 132.574,10.970 132.858,11.193 132.996 C 11.718 133.320,11.723 134.400,11.200 134.400 C 10.980 134.400,10.782 134.085,10.760 133.700 C 10.735 133.253,10.617 133.362,10.434 134.000 C 10.277 134.550,10.295 135.060,10.474 135.133 C 10.943 135.325,10.877 136.800,10.400 136.800 C 10.180 136.800,10.000 137.340,10.000 138.000 C 10.000 138.660,9.820 139.200,9.600 139.200 C 9.380 139.200,9.200 139.757,9.200 140.437 C 9.200 141.338,8.983 141.732,8.400 141.884 C 7.960 141.999,7.600 142.263,7.600 142.470 C 7.600 142.678,7.780 142.736,8.000 142.600 C 8.224 142.461,8.400 142.775,8.400 143.315 C 8.400 143.918,8.064 144.440,7.500 144.712 C 7.005 144.951,6.825 145.158,7.100 145.173 C 7.989 145.221,7.681 147.121,6.735 147.421 C 4.109 148.254,9.942 148.396,42.868 148.302 L 78.600 148.200 78.701 94.700 C 78.757 65.275,78.667 41.205,78.501 41.212 C 78.336 41.219,77.750 41.753,77.200 42.400 M6.400 252.805 C 5.899 253.135,5.949 253.241,6.700 253.447 C 7.675 253.714,8.017 255.577,7.100 255.627 C 6.825 255.642,7.005 255.849,7.500 256.088 C 8.466 256.554,8.779 258.381,7.900 258.425 C 7.625 258.439,7.805 258.613,8.300 258.812 C 8.956 259.076,9.200 259.503,9.200 260.387 C 9.200 261.054,9.380 261.600,9.600 261.600 C 9.820 261.600,10.000 262.129,10.000 262.776 C 10.000 263.423,10.180 264.064,10.401 264.201 C 10.621 264.337,10.717 265.202,10.614 266.124 C 10.511 267.046,10.524 267.485,10.643 267.100 C 10.761 266.715,11.025 266.400,11.229 266.400 C 11.730 266.400,11.702 267.490,11.193 267.804 C 10.970 267.942,10.892 268.226,11.021 268.434 C 11.150 268.643,11.410 268.717,11.600 268.600 C 12.074 268.307,12.510 269.099,12.174 269.643 C 11.983 269.951,11.796 269.921,11.556 269.543 C 11.326 269.180,11.210 269.158,11.206 269.476 C 11.200 269.983,11.936 270.578,12.600 270.602 C 12.820 270.611,12.948 271.108,12.885 271.709 C 12.802 272.492,12.951 272.800,13.412 272.800 C 13.872 272.800,13.982 273.027,13.800 273.600 C 13.654 274.059,13.728 274.400,13.973 274.400 C 14.208 274.400,14.400 274.940,14.400 275.600 C 14.400 276.364,14.604 276.800,14.963 276.800 C 15.328 276.800,15.452 277.080,15.316 277.600 C 15.199 278.047,15.304 278.400,15.553 278.400 C 15.799 278.400,16.000 278.850,16.000 279.400 C 16.000 279.950,16.180 280.400,16.400 280.400 C 16.620 280.400,16.800 280.835,16.800 281.367 C 16.800 281.898,17.025 282.425,17.300 282.536 C 17.676 282.689,17.652 282.844,17.200 283.163 C 16.614 283.578,16.674 283.647,17.700 283.750 C 17.975 283.778,18.258 284.205,18.328 284.700 C 18.398 285.195,18.623 285.600,18.828 285.600 C 19.271 285.600,19.330 286.661,18.900 286.901 C 18.735 286.993,18.842 287.008,19.137 286.933 C 19.432 286.858,19.768 287.157,19.884 287.598 C 19.999 288.039,20.252 288.400,20.447 288.400 C 20.641 288.400,20.800 288.760,20.800 289.200 C 20.800 289.640,20.980 290.000,21.200 290.000 C 21.420 290.000,21.600 290.360,21.600 290.800 C 21.600 291.240,21.780 291.600,22.000 291.600 C 22.220 291.600,22.400 291.960,22.400 292.400 C 22.400 292.840,22.580 293.200,22.800 293.200 C 23.020 293.200,23.200 293.560,23.200 294.000 C 23.200 294.440,23.380 294.800,23.600 294.800 C 23.820 294.800,24.000 295.160,24.000 295.600 C 24.000 296.040,24.180 296.400,24.400 296.400 C 24.620 296.400,24.800 296.760,24.800 297.200 C 24.800 297.640,24.980 298.000,25.200 298.000 C 25.420 298.000,25.600 298.270,25.600 298.600 C 25.600 298.930,25.780 299.200,26.000 299.200 C 26.220 299.200,26.400 299.470,26.400 299.800 C 26.400 300.130,26.535 300.401,26.700 300.403 C 27.132 300.408,28.018 302.448,27.765 302.856 C 27.648 303.045,27.814 303.200,28.134 303.200 C 28.693 303.200,29.398 304.271,29.260 304.911 C 29.223 305.082,29.470 305.329,29.808 305.459 C 30.198 305.608,30.336 305.971,30.185 306.447 C 30.049 306.876,30.137 307.200,30.390 307.200 C 31.156 307.200,31.887 308.146,31.693 308.888 C 31.570 309.357,31.731 309.600,32.163 309.600 C 32.573 309.600,32.910 310.051,33.060 310.800 C 33.192 311.460,33.535 312.000,33.823 312.000 C 34.589 312.000,35.003 313.626,34.343 314.044 C 33.937 314.301,34.007 314.389,34.620 314.394 C 35.071 314.397,35.656 314.616,35.920 314.880 C 36.537 315.497,36.552 316.541,35.938 316.162 C 35.650 315.984,35.585 316.052,35.766 316.345 C 35.925 316.602,36.233 316.703,36.449 316.570 C 36.843 316.326,38.799 318.298,38.800 318.940 C 38.800 319.126,39.340 319.783,40.000 320.400 C 40.660 321.017,41.200 321.737,41.200 322.000 C 41.200 322.263,41.740 322.983,42.400 323.600 C 43.060 324.217,43.600 324.901,43.600 325.120 C 43.600 325.339,44.500 326.438,45.600 327.561 C 46.700 328.685,47.600 329.799,47.600 330.038 C 47.600 330.276,48.609 331.400,49.843 332.536 C 51.077 333.671,52.646 335.410,53.330 336.400 C 54.014 337.390,56.164 339.777,58.107 341.705 C 60.209 343.789,61.527 345.395,61.359 345.667 C 61.176 345.962,61.255 346.013,61.583 345.811 C 61.862 345.638,62.204 345.667,62.345 345.875 C 62.485 346.083,63.418 346.809,64.417 347.489 C 65.417 348.169,67.211 349.808,68.405 351.132 C 69.598 352.456,70.718 353.451,70.893 353.342 C 71.068 353.234,72.128 354.058,73.249 355.173 C 74.370 356.288,75.465 357.200,75.683 357.200 C 75.901 357.200,76.583 357.740,77.200 358.400 C 77.817 359.060,78.429 359.600,78.562 359.600 C 78.694 359.600,78.757 335.525,78.701 306.100 L 78.600 252.600 42.800 252.505 C 19.736 252.444,6.787 252.550,6.400 252.805 M183.200 326.248 L 183.200 400.096 204.871 399.935 C 221.422 399.812,226.580 399.659,226.704 399.287 C 226.809 398.972,227.772 398.800,229.433 398.800 C 230.878 398.800,232.000 398.625,232.000 398.400 C 232.000 398.178,233.067 398.000,234.400 398.000 C 235.733 398.000,236.800 397.822,236.800 397.600 C 236.800 397.380,237.430 397.200,238.200 397.200 C 238.991 397.200,239.600 397.401,239.600 397.661 C 239.600 397.915,239.936 397.735,240.347 397.261 C 241.151 396.334,243.191 396.077,243.213 396.900 C 243.221 397.175,243.564 396.995,243.977 396.500 C 244.532 395.836,245.157 395.600,246.364 395.600 C 247.264 395.600,248.000 395.420,248.000 395.200 C 248.000 394.980,248.461 394.800,249.024 394.800 C 249.604 394.800,249.940 394.973,249.800 395.200 C 249.664 395.420,249.731 395.600,249.949 395.600 C 250.168 395.600,250.460 395.240,250.600 394.800 C 250.882 393.911,252.791 393.653,252.813 394.500 C 252.821 394.775,253.164 394.595,253.577 394.100 C 254.002 393.592,254.779 393.200,255.364 393.200 C 255.934 393.200,256.400 393.020,256.400 392.800 C 256.400 392.213,258.395 392.311,258.427 392.900 C 258.442 393.175,258.649 392.995,258.888 392.500 C 259.210 391.832,259.668 391.600,260.661 391.600 C 261.398 391.600,262.000 391.425,262.000 391.210 C 262.000 390.990,262.523 390.925,263.200 391.060 C 264.139 391.248,264.400 391.159,264.400 390.650 C 264.400 389.948,265.011 389.771,265.379 390.366 C 265.503 390.567,265.379 390.823,265.102 390.934 C 264.743 391.079,264.735 391.146,265.076 391.168 C 265.338 391.186,265.664 391.020,265.800 390.800 C 265.936 390.580,266.442 390.379,266.924 390.354 C 267.608 390.317,267.645 390.267,267.095 390.123 C 266.707 390.022,266.493 389.773,266.619 389.569 C 266.757 389.347,267.172 389.371,267.654 389.629 C 268.329 389.990,268.495 389.923,268.681 389.214 C 268.914 388.322,269.889 388.326,269.677 389.218 C 269.577 389.641,269.669 389.641,270.177 389.219 C 270.520 388.935,270.800 388.451,270.800 388.143 C 270.800 387.747,271.091 387.658,271.800 387.836 C 272.416 387.990,272.800 387.917,272.800 387.643 C 272.800 387.400,273.250 387.200,273.800 387.200 C 274.350 387.200,274.800 387.020,274.800 386.800 C 274.800 386.580,275.250 386.400,275.800 386.400 C 276.350 386.400,276.800 386.220,276.800 386.000 C 276.800 385.780,277.081 385.600,277.424 385.600 C 277.767 385.600,277.936 385.780,277.800 386.000 C 277.664 386.220,277.743 386.400,277.976 386.400 C 278.209 386.400,278.400 386.040,278.400 385.600 C 278.400 385.013,278.667 384.800,279.400 384.800 C 279.950 384.800,280.400 384.599,280.400 384.353 C 280.400 384.103,280.753 383.999,281.201 384.116 C 281.695 384.245,282.152 384.072,282.394 383.663 C 282.738 383.081,282.835 383.073,283.193 383.600 C 283.534 384.103,283.640 384.055,283.847 383.300 C 283.991 382.773,284.405 382.400,284.847 382.400 C 285.261 382.400,285.600 382.220,285.600 382.000 C 285.600 381.780,285.960 381.600,286.400 381.600 C 286.840 381.600,287.200 381.420,287.200 381.200 C 287.200 380.624,288.296 380.706,288.535 381.300 C 288.646 381.575,288.751 381.395,288.768 380.900 C 288.787 380.381,289.054 380.000,289.400 380.000 C 289.730 380.000,290.000 379.820,290.000 379.600 C 290.000 379.380,290.360 379.200,290.800 379.200 C 291.240 379.200,291.600 379.020,291.600 378.800 C 291.600 378.580,291.960 378.400,292.400 378.400 C 292.840 378.400,293.200 378.220,293.200 378.000 C 293.200 377.780,293.560 377.600,294.000 377.600 C 294.440 377.600,294.800 377.420,294.800 377.200 C 294.800 376.980,295.160 376.800,295.600 376.800 C 296.040 376.800,296.400 376.620,296.400 376.400 C 296.400 376.180,296.760 376.000,297.200 376.000 C 297.640 376.000,298.001 375.865,298.003 375.700 C 298.008 375.248,299.903 374.460,300.700 374.580 C 301.085 374.638,301.175 374.608,300.900 374.513 C 300.184 374.267,300.284 373.734,301.100 373.446 C 301.485 373.311,302.054 373.085,302.364 372.945 C 302.769 372.762,302.855 372.881,302.668 373.366 C 302.515 373.765,302.571 373.942,302.805 373.797 C 303.022 373.663,303.200 373.311,303.200 373.016 C 303.200 372.721,303.785 372.134,304.500 371.712 C 305.820 370.933,306.681 370.756,306.500 371.300 C 306.214 372.159,306.848 371.420,307.406 370.244 C 307.890 369.223,308.241 368.938,308.825 369.091 C 309.353 369.229,309.600 369.090,309.600 368.654 C 309.600 368.290,310.073 367.898,310.700 367.743 C 311.305 367.593,312.035 367.140,312.323 366.735 C 312.610 366.331,313.121 366.000,313.459 366.000 C 313.796 366.000,314.412 365.595,314.828 365.100 C 315.475 364.329,315.641 364.286,315.986 364.800 C 316.356 365.352,316.581 365.080,316.434 364.258 C 316.271 363.354,319.282 361.550,319.701 362.300 C 319.793 362.465,319.810 362.365,319.738 362.078 C 319.530 361.244,321.531 359.489,322.423 359.722 C 322.851 359.834,323.101 359.764,322.979 359.566 C 322.720 359.147,324.554 357.200,325.208 357.200 C 325.452 357.200,326.498 356.331,327.533 355.269 C 328.567 354.207,329.598 353.399,329.824 353.475 C 330.049 353.550,331.386 352.349,332.795 350.806 C 334.204 349.263,335.499 348.000,335.674 348.000 C 335.985 348.000,337.113 347.150,338.281 346.035 C 338.791 345.549,338.928 345.549,339.274 346.035 C 339.590 346.480,339.627 346.449,339.445 345.886 C 339.118 344.874,344.874 339.118,345.886 339.445 C 346.487 339.639,346.505 339.606,346.000 339.238 C 345.604 338.949,345.543 338.698,345.819 338.500 C 346.050 338.335,346.661 337.570,347.178 336.800 C 347.694 336.030,349.389 334.194,350.944 332.719 C 352.499 331.245,353.658 329.925,353.520 329.787 C 353.381 329.648,354.153 328.631,355.234 327.527 C 356.315 326.422,357.200 325.349,357.200 325.141 C 357.200 324.536,359.171 322.735,359.566 322.979 C 359.764 323.101,359.834 322.851,359.722 322.423 C 359.489 321.531,361.244 319.530,362.078 319.738 C 362.365 319.810,362.465 319.793,362.300 319.701 C 361.752 319.395,361.989 318.613,362.979 317.463 C 363.517 316.838,364.134 316.436,364.351 316.570 C 364.567 316.703,364.875 316.602,365.034 316.345 C 365.215 316.052,365.150 315.984,364.862 316.162 C 364.589 316.331,364.400 316.194,364.400 315.827 C 364.400 315.486,364.760 314.982,365.200 314.707 C 365.640 314.432,366.000 313.901,366.000 313.526 C 366.000 313.152,366.331 312.610,366.735 312.323 C 367.140 312.035,367.593 311.305,367.743 310.700 C 367.898 310.073,368.290 309.600,368.654 309.600 C 369.085 309.600,369.229 309.352,369.095 308.842 C 368.960 308.327,369.204 307.919,369.853 307.572 C 370.482 307.235,370.735 306.826,370.593 306.377 C 370.464 305.970,370.633 305.596,371.013 305.450 C 371.364 305.316,371.548 305.039,371.422 304.835 C 371.296 304.631,371.599 304.135,372.096 303.732 C 372.593 303.329,373.020 302.820,373.043 302.600 C 373.229 300.895,374.150 299.827,374.509 300.900 C 374.601 301.175,374.600 300.905,374.506 300.300 C 374.410 299.674,374.523 299.200,374.768 299.200 C 375.006 299.200,375.200 298.930,375.200 298.600 C 375.200 298.270,375.380 298.000,375.600 298.000 C 375.820 298.000,376.000 297.640,376.000 297.200 C 376.000 296.760,376.180 296.400,376.400 296.400 C 376.620 296.400,376.800 296.040,376.800 295.600 C 376.800 295.160,376.980 294.800,377.200 294.800 C 377.420 294.800,377.600 294.440,377.600 294.000 C 377.600 293.560,377.780 293.200,378.000 293.200 C 378.220 293.200,378.400 292.840,378.400 292.400 C 378.400 291.960,378.580 291.600,378.800 291.600 C 379.020 291.600,379.200 291.240,379.200 290.800 C 379.200 290.360,379.380 290.000,379.600 290.000 C 379.820 290.000,380.000 289.640,380.000 289.200 C 380.000 288.760,380.159 288.400,380.353 288.400 C 380.548 288.400,380.801 288.039,380.916 287.598 C 381.032 287.157,381.368 286.858,381.663 286.933 C 381.958 287.008,382.065 286.993,381.900 286.901 C 381.455 286.652,381.536 285.600,382.000 285.600 C 382.220 285.600,382.400 285.261,382.400 284.847 C 382.400 284.405,382.773 283.991,383.300 283.847 C 384.062 283.638,384.108 283.534,383.600 283.170 C 383.148 282.845,383.124 282.689,383.500 282.536 C 383.775 282.425,384.000 281.898,384.000 281.367 C 384.000 280.835,384.180 280.400,384.400 280.400 C 384.620 280.400,384.800 279.950,384.800 279.400 C 384.800 278.850,385.001 278.400,385.247 278.400 C 385.496 278.400,385.601 278.047,385.484 277.600 C 385.348 277.080,385.472 276.800,385.837 276.800 C 386.198 276.800,386.400 276.361,386.400 275.576 C 386.400 274.759,386.552 274.447,386.858 274.636 C 387.174 274.831,387.253 274.591,387.113 273.859 C 386.972 273.122,387.081 272.800,387.471 272.800 C 387.842 272.800,387.991 272.432,387.915 271.709 C 387.847 271.062,388.004 270.593,388.300 270.559 C 389.260 270.446,389.295 270.396,388.815 269.818 C 388.255 269.143,388.581 268.400,389.438 268.400 C 389.898 268.400,389.937 268.229,389.614 267.626 C 389.103 266.672,389.094 266.400,389.571 266.400 C 389.775 266.400,390.024 266.715,390.124 267.100 C 390.266 267.641,390.318 267.600,390.354 266.924 C 390.379 266.442,390.580 265.936,390.800 265.800 C 391.020 265.664,391.197 265.338,391.194 265.076 C 391.190 264.786,391.043 264.829,390.816 265.188 C 390.611 265.512,390.321 265.655,390.172 265.506 C 389.787 265.121,390.320 263.903,390.755 264.172 C 390.954 264.295,391.219 264.126,391.346 263.798 C 391.472 263.469,391.401 263.200,391.187 263.200 C 390.974 263.200,390.800 262.840,390.800 262.400 C 390.800 261.960,390.980 261.600,391.200 261.600 C 391.420 261.600,391.600 261.071,391.600 260.424 C 391.600 259.777,391.780 259.136,392.000 259.000 C 392.220 258.864,392.400 258.223,392.400 257.576 C 392.400 256.929,392.580 256.400,392.800 256.400 C 393.020 256.400,393.200 255.791,393.200 255.047 C 393.200 253.983,393.393 253.641,394.100 253.447 C 397.534 252.506,388.027 252.412,288.500 252.406 L 183.200 252.400 183.200 326.248 " stroke="none" fill="#dc0424" fill-rule="evenodd"></path><path id="path3" d="M182.985 0.500 C 182.880 0.775,182.841 34.210,182.897 74.800 L 183.000 148.600 288.334 148.701 C 346.268 148.756,393.910 148.666,394.206 148.501 C 394.501 148.335,347.146 148.246,288.972 148.302 L 183.200 148.404 183.200 74.370 L 183.200 0.336 187.100 0.576 C 189.245 0.708,191.630 0.651,192.400 0.449 C 193.463 0.170,192.521 0.072,188.487 0.041 C 184.574 0.011,183.125 0.132,182.985 0.500 M209.289 0.488 C 210.516 0.744,212.336 0.747,214.489 0.497 L 217.800 0.111 212.600 0.103 C 208.189 0.096,207.687 0.154,209.289 0.488 M219.600 0.753 C 219.600 1.318,221.207 1.584,223.075 1.328 C 225.681 0.971,225.143 0.400,222.200 0.400 C 220.770 0.400,219.600 0.559,219.600 0.753 M226.800 1.600 C 226.800 1.820,227.700 2.000,228.800 2.000 C 229.900 2.000,230.800 1.820,230.800 1.600 C 230.800 1.380,229.900 1.200,228.800 1.200 C 227.700 1.200,226.800 1.380,226.800 1.600 M232.000 2.400 C 232.000 2.620,232.810 2.800,233.800 2.800 C 234.790 2.800,235.600 2.620,235.600 2.400 C 235.600 2.180,234.790 2.000,233.800 2.000 C 232.810 2.000,232.000 2.180,232.000 2.400 M236.800 3.200 C 236.800 3.420,237.441 3.600,238.224 3.600 C 239.071 3.600,239.547 3.438,239.400 3.200 C 239.264 2.980,238.623 2.800,237.976 2.800 C 237.329 2.800,236.800 2.980,236.800 3.200 M240.800 4.000 C 240.800 4.220,241.340 4.400,242.000 4.400 C 242.660 4.400,243.200 4.220,243.200 4.000 C 243.200 3.780,242.660 3.600,242.000 3.600 C 241.340 3.600,240.800 3.780,240.800 4.000 M244.400 4.800 C 244.400 5.020,244.951 5.200,245.624 5.200 C 246.337 5.200,246.744 5.033,246.600 4.800 C 246.464 4.580,245.913 4.400,245.376 4.400 C 244.839 4.400,244.400 4.580,244.400 4.800 M248.000 5.600 C 248.000 5.820,248.461 6.000,249.024 6.000 C 249.604 6.000,249.940 5.827,249.800 5.600 C 249.664 5.380,249.203 5.200,248.776 5.200 C 248.349 5.200,248.000 5.380,248.000 5.600 M250.800 6.400 C 250.800 6.620,251.250 6.800,251.800 6.800 C 252.350 6.800,252.800 6.620,252.800 6.400 C 252.800 6.180,252.350 6.000,251.800 6.000 C 251.250 6.000,250.800 6.180,250.800 6.400 M254.000 7.200 C 254.000 7.420,254.461 7.600,255.024 7.600 C 255.604 7.600,255.940 7.427,255.800 7.200 C 255.664 6.980,255.203 6.800,254.776 6.800 C 254.349 6.800,254.000 6.980,254.000 7.200 M256.400 8.000 C 256.400 8.220,256.850 8.400,257.400 8.400 C 257.950 8.400,258.400 8.220,258.400 8.000 C 258.400 7.780,257.950 7.600,257.400 7.600 C 256.850 7.600,256.400 7.780,256.400 8.000 M259.200 8.800 C 259.200 9.020,259.661 9.200,260.224 9.200 C 260.804 9.200,261.140 9.027,261.000 8.800 C 260.864 8.580,260.403 8.400,259.976 8.400 C 259.549 8.400,259.200 8.580,259.200 8.800 M262.000 9.600 C 262.000 9.820,262.371 10.000,262.824 10.000 C 263.277 10.000,263.536 9.820,263.400 9.600 C 263.264 9.380,262.893 9.200,262.576 9.200 C 262.259 9.200,262.000 9.380,262.000 9.600 M264.400 10.400 C 264.400 10.620,264.659 10.800,264.976 10.800 C 265.293 10.800,265.664 10.620,265.800 10.400 C 265.936 10.180,265.677 10.000,265.224 10.000 C 264.771 10.000,264.400 10.180,264.400 10.400 M266.400 11.200 C 266.400 11.420,266.659 11.600,266.976 11.600 C 267.293 11.600,267.664 11.420,267.800 11.200 C 267.936 10.980,267.677 10.800,267.224 10.800 C 266.771 10.800,266.400 10.980,266.400 11.200 M268.800 11.813 C 268.800 12.460,269.425 12.607,269.774 12.042 C 269.896 11.845,269.726 11.581,269.398 11.454 C 269.035 11.315,268.800 11.456,268.800 11.813 M270.973 12.444 C 270.588 13.067,271.058 13.319,271.814 12.896 C 272.416 12.559,272.420 12.493,271.857 12.277 C 271.510 12.144,271.112 12.219,270.973 12.444 M272.800 13.400 C 272.800 14.073,273.145 14.149,273.934 13.650 C 274.359 13.380,274.332 13.260,273.801 13.056 C 272.870 12.699,272.800 12.723,272.800 13.400 M274.800 14.000 C 274.800 14.220,275.070 14.400,275.400 14.400 C 275.730 14.400,276.000 14.220,276.000 14.000 C 276.000 13.780,275.730 13.600,275.400 13.600 C 275.070 13.600,274.800 13.780,274.800 14.000 M276.800 14.987 C 276.800 15.344,277.035 15.485,277.398 15.346 C 277.726 15.219,277.896 14.955,277.774 14.758 C 277.425 14.193,276.800 14.340,276.800 14.987 M278.400 15.600 C 278.400 15.820,278.771 16.000,279.224 16.000 C 279.677 16.000,279.936 15.820,279.800 15.600 C 279.664 15.380,279.293 15.200,278.976 15.200 C 278.659 15.200,278.400 15.380,278.400 15.600 M280.400 16.400 C 280.400 16.620,280.670 16.800,281.000 16.800 C 281.330 16.800,281.600 16.620,281.600 16.400 C 281.600 16.180,281.330 16.000,281.000 16.000 C 280.670 16.000,280.400 16.180,280.400 16.400 M284.000 18.000 C 284.000 18.220,284.360 18.400,284.800 18.400 C 285.240 18.400,285.600 18.580,285.600 18.800 C 285.600 19.020,285.960 19.200,286.400 19.200 C 286.840 19.200,287.200 19.380,287.200 19.600 C 287.200 19.820,287.560 20.000,288.000 20.000 C 288.440 20.000,288.800 20.180,288.800 20.400 C 288.800 20.620,289.070 20.800,289.400 20.800 C 289.730 20.800,290.000 20.980,290.000 21.200 C 290.000 21.420,290.360 21.600,290.800 21.600 C 291.240 21.600,291.600 21.780,291.600 22.000 C 291.600 22.220,291.960 22.400,292.400 22.400 C 292.840 22.400,293.200 22.580,293.200 22.800 C 293.200 23.020,293.560 23.200,294.000 23.200 C 294.440 23.200,294.800 23.380,294.800 23.600 C 294.800 23.820,295.160 24.000,295.600 24.000 C 296.040 24.000,296.400 24.180,296.400 24.400 C 296.400 24.620,296.760 24.800,297.200 24.800 C 297.640 24.800,298.000 24.980,298.000 25.200 C 298.000 25.420,298.180 25.600,298.400 25.600 C 299.344 25.600,298.663 24.856,296.900 23.963 C 295.855 23.433,294.940 22.865,294.867 22.700 C 294.793 22.535,294.388 22.400,293.967 22.400 C 293.545 22.400,293.200 22.220,293.200 22.000 C 293.200 21.780,292.840 21.600,292.400 21.600 C 291.960 21.600,291.600 21.420,291.600 21.200 C 291.600 20.980,291.255 20.800,290.833 20.800 C 290.412 20.800,290.007 20.665,289.933 20.500 C 289.564 19.669,284.000 17.324,284.000 18.000 M299.200 26.000 C 299.200 26.220,299.470 26.400,299.800 26.400 C 300.130 26.400,300.401 26.535,300.403 26.700 C 300.407 27.067,302.472 28.061,302.718 27.815 C 303.020 27.513,301.691 26.400,301.029 26.400 C 300.683 26.400,300.400 26.220,300.400 26.000 C 300.400 25.780,300.130 25.600,299.800 25.600 C 299.470 25.600,299.200 25.780,299.200 26.000 M303.200 28.213 C 303.200 28.536,303.470 28.800,303.800 28.800 C 304.130 28.800,304.767 29.167,305.215 29.615 C 305.663 30.063,306.211 30.317,306.434 30.179 C 307.020 29.817,306.073 28.800,305.151 28.800 C 304.738 28.800,304.400 28.639,304.400 28.443 C 304.400 28.246,304.130 27.982,303.800 27.855 C 303.435 27.715,303.200 27.855,303.200 28.213 M307.200 30.417 C 307.200 31.160,308.158 31.884,308.888 31.693 C 309.357 31.570,309.600 31.731,309.600 32.163 C 309.600 32.573,310.051 32.910,310.800 33.060 C 311.460 33.192,312.000 33.544,312.000 33.842 C 312.000 34.141,312.490 34.508,313.089 34.658 C 313.688 34.808,314.483 35.307,314.855 35.766 C 315.227 36.225,315.665 36.466,315.830 36.303 C 316.118 36.016,314.565 34.400,314.001 34.400 C 313.849 34.400,313.201 33.950,312.562 33.400 C 311.923 32.851,311.190 32.401,310.933 32.400 C 310.677 32.400,310.407 32.265,310.333 32.100 C 309.931 31.195,307.200 29.728,307.200 30.417 M316.400 36.653 C 316.400 37.005,318.523 38.799,318.940 38.800 C 319.126 38.800,319.783 39.340,320.400 40.000 C 321.017 40.660,321.737 41.200,322.000 41.200 C 322.263 41.200,322.983 41.740,323.600 42.400 C 324.217 43.060,324.930 43.600,325.186 43.600 C 325.442 43.600,326.529 44.500,327.600 45.600 C 328.671 46.700,329.801 47.600,330.111 47.600 C 330.421 47.600,331.333 48.389,332.139 49.353 C 332.945 50.317,334.633 51.892,335.890 52.853 C 338.895 55.149,345.930 62.173,347.479 64.423 C 348.151 65.401,349.836 67.232,351.223 68.494 C 352.610 69.756,353.630 70.903,353.489 71.044 C 353.349 71.185,354.126 72.197,355.217 73.293 C 356.308 74.390,357.200 75.465,357.200 75.683 C 357.200 75.901,357.740 76.583,358.400 77.200 C 359.060 77.817,359.600 78.537,359.600 78.800 C 359.600 79.063,360.140 79.783,360.800 80.400 C 361.460 81.017,362.000 81.737,362.000 82.000 C 362.000 82.263,362.540 82.983,363.200 83.600 C 363.860 84.217,364.400 84.897,364.400 85.112 C 364.400 85.636,365.560 86.574,365.850 86.283 C 365.977 86.157,365.702 85.647,365.240 85.151 C 364.778 84.655,364.400 84.053,364.400 83.813 C 364.400 83.573,364.040 83.117,363.600 82.800 C 363.160 82.483,362.800 81.993,362.800 81.712 C 362.800 81.430,362.620 81.200,362.400 81.200 C 362.180 81.200,362.000 80.970,362.000 80.688 C 362.000 80.407,361.640 79.917,361.200 79.600 C 360.760 79.283,360.400 78.875,360.400 78.694 C 360.400 78.512,359.975 77.939,359.456 77.420 C 358.937 76.900,358.090 75.784,357.573 74.938 C 357.057 74.092,356.162 72.950,355.584 72.400 C 355.006 71.850,354.312 70.986,354.042 70.480 C 352.933 68.404,334.960 50.417,330.881 47.302 C 330.376 46.916,329.476 46.184,328.881 45.676 C 328.286 45.167,326.720 43.924,325.400 42.913 C 324.080 41.902,322.940 40.923,322.867 40.737 C 322.793 40.552,322.567 40.400,322.363 40.400 C 322.159 40.400,321.428 39.860,320.737 39.200 C 320.046 38.540,319.278 38.000,319.029 38.000 C 318.780 38.000,318.317 37.640,318.000 37.200 C 317.460 36.451,316.400 36.089,316.400 36.653 M76.800 41.905 C 76.470 42.287,75.584 42.943,74.832 43.363 C 74.079 43.782,72.909 44.695,72.232 45.391 C 71.554 46.086,70.467 47.003,69.816 47.428 C 66.883 49.342,49.342 66.883,47.428 69.816 C 47.003 70.467,46.086 71.554,45.391 72.232 C 44.695 72.909,43.782 74.078,43.363 74.829 C 42.943 75.580,42.105 76.673,41.500 77.258 C 40.895 77.842,40.400 78.439,40.400 78.582 C 40.400 78.726,39.861 79.419,39.202 80.122 C 38.543 80.825,38.003 81.585,38.002 81.812 C 38.001 82.038,37.640 82.483,37.200 82.800 C 36.760 83.117,36.400 83.573,36.400 83.813 C 36.400 84.053,36.022 84.655,35.560 85.151 C 35.098 85.647,34.823 86.157,34.950 86.283 C 35.240 86.574,36.400 85.636,36.400 85.112 C 36.400 84.897,36.940 84.217,37.600 83.600 C 38.260 82.983,38.800 82.263,38.800 82.000 C 38.800 81.737,39.340 81.017,40.000 80.400 C 40.660 79.783,41.200 79.063,41.200 78.800 C 41.200 78.537,41.765 77.793,42.455 77.149 C 43.145 76.504,43.610 75.877,43.488 75.755 C 43.367 75.633,44.242 74.582,45.434 73.419 C 46.625 72.255,47.600 71.095,47.600 70.841 C 47.600 70.586,48.611 69.437,49.847 68.289 C 51.083 67.140,52.646 65.401,53.319 64.423 C 54.902 62.128,62.128 54.902,64.423 53.319 C 65.401 52.646,67.140 51.083,68.289 49.847 C 69.437 48.611,70.586 47.600,70.841 47.600 C 71.095 47.600,72.255 46.625,73.419 45.434 C 74.582 44.242,75.628 43.361,75.743 43.476 C 75.954 43.687,78.000 41.822,78.000 41.418 C 78.000 40.979,77.384 41.229,76.800 41.905 M78.799 94.600 L 78.600 148.200 42.338 148.200 C 22.394 148.200,6.284 148.332,6.538 148.494 C 7.414 149.051,78.802 148.860,79.015 148.300 C 79.120 148.025,79.159 123.770,79.102 94.400 L 78.999 41.000 78.799 94.600 M34.000 87.217 C 34.000 87.446,33.640 88.020,33.200 88.492 C 32.760 88.964,32.400 89.587,32.400 89.875 C 32.400 90.164,32.220 90.400,32.000 90.400 C 31.780 90.400,31.600 90.580,31.600 90.800 C 31.600 91.779,32.840 91.099,33.060 90.000 C 33.192 89.340,33.528 88.800,33.807 88.800 C 34.086 88.800,34.424 88.515,34.557 88.167 C 34.908 87.252,34.856 86.800,34.400 86.800 C 34.180 86.800,34.000 86.988,34.000 87.217 M366.000 87.297 C 366.000 87.680,366.360 88.218,366.800 88.493 C 367.240 88.768,367.600 89.287,367.600 89.647 C 367.600 90.379,368.688 91.446,369.057 91.076 C 369.188 90.945,369.004 90.547,368.648 90.190 C 368.291 89.834,368.000 89.404,368.000 89.234 C 368.000 89.064,367.550 88.401,367.000 87.762 C 366.228 86.864,366.001 86.758,366.000 87.297 M30.682 92.413 C 29.890 93.337,29.834 93.600,30.429 93.600 C 31.127 93.600,31.950 92.567,31.645 92.073 C 31.452 91.761,31.148 91.868,30.682 92.413 M369.111 92.067 C 368.917 92.648,369.700 93.600,370.371 93.600 C 370.988 93.600,370.903 93.277,370.043 92.354 C 369.489 91.760,369.239 91.683,369.111 92.067 M29.152 94.857 C 28.865 95.376,28.668 95.935,28.715 96.100 C 28.762 96.265,28.648 96.400,28.463 96.400 C 28.277 96.400,27.692 97.255,27.163 98.300 C 26.633 99.345,26.065 100.260,25.900 100.333 C 25.453 100.532,25.537 101.600,26.000 101.600 C 26.220 101.600,26.400 101.330,26.400 101.000 C 26.400 100.670,26.580 100.400,26.800 100.400 C 27.020 100.400,27.200 100.130,27.200 99.800 C 27.200 99.470,27.401 99.200,27.647 99.200 C 27.896 99.200,28.001 98.847,27.884 98.400 C 27.754 97.903,27.872 97.600,28.195 97.600 C 28.663 97.600,29.276 96.703,29.365 95.885 C 29.384 95.712,29.668 95.405,29.997 95.202 C 30.446 94.924,30.480 94.720,30.134 94.374 C 29.788 94.028,29.545 94.147,29.152 94.857 M370.591 94.415 C 370.430 94.676,370.546 95.043,370.849 95.230 C 371.152 95.418,371.416 95.712,371.435 95.885 C 371.524 96.703,372.137 97.600,372.605 97.600 C 372.928 97.600,373.046 97.903,372.916 98.400 C 372.799 98.847,372.904 99.200,373.153 99.200 C 373.399 99.200,373.600 99.470,373.600 99.800 C 373.600 100.130,373.780 100.400,374.000 100.400 C 374.220 100.400,374.400 100.670,374.400 101.000 C 374.400 101.330,374.580 101.600,374.800 101.600 C 375.263 101.600,375.347 100.532,374.900 100.333 C 374.735 100.260,374.060 99.124,373.400 97.808 C 371.922 94.862,371.002 93.750,370.591 94.415 M24.000 103.800 C 24.000 104.130,23.820 104.400,23.600 104.400 C 23.380 104.400,23.200 104.760,23.200 105.200 C 23.200 105.640,23.020 106.000,22.800 106.000 C 22.580 106.000,22.400 106.360,22.400 106.800 C 22.400 107.240,22.220 107.600,22.000 107.600 C 21.780 107.600,21.600 107.960,21.600 108.400 C 21.600 108.840,21.465 109.201,21.300 109.203 C 20.941 109.207,20.000 111.144,20.000 111.880 C 20.000 112.166,19.820 112.400,19.600 112.400 C 19.380 112.400,19.200 112.760,19.200 113.200 C 19.200 113.640,19.020 114.000,18.800 114.000 C 18.580 114.000,18.400 114.324,18.400 114.720 C 18.400 115.116,18.200 115.640,17.955 115.885 C 17.710 116.130,17.608 116.571,17.728 116.865 C 17.873 117.222,18.037 117.100,18.220 116.500 C 18.370 116.005,18.652 115.600,18.847 115.600 C 19.041 115.600,19.200 115.240,19.200 114.800 C 19.200 114.360,19.380 114.000,19.600 114.000 C 19.820 114.000,20.000 113.640,20.000 113.200 C 20.000 112.760,20.180 112.400,20.400 112.400 C 20.620 112.400,20.800 112.040,20.800 111.600 C 20.800 111.160,20.980 110.800,21.200 110.800 C 21.420 110.800,21.600 110.440,21.600 110.000 C 21.600 109.560,21.780 109.200,22.000 109.200 C 22.220 109.200,22.400 108.840,22.400 108.400 C 22.400 107.960,22.580 107.600,22.800 107.600 C 23.020 107.600,23.200 107.240,23.200 106.800 C 23.200 106.360,23.380 106.000,23.600 106.000 C 23.820 106.000,24.000 105.640,24.000 105.200 C 24.000 104.760,24.180 104.400,24.400 104.400 C 24.620 104.400,24.800 104.130,24.800 103.800 C 24.800 103.470,24.620 103.200,24.400 103.200 C 24.180 103.200,24.000 103.470,24.000 103.800 M376.000 103.800 C 376.000 104.130,376.180 104.400,376.400 104.400 C 376.620 104.400,376.800 104.760,376.800 105.200 C 376.800 105.640,376.980 106.000,377.200 106.000 C 377.420 106.000,377.600 106.360,377.600 106.800 C 377.600 107.240,377.780 107.600,378.000 107.600 C 378.220 107.600,378.400 107.960,378.400 108.400 C 378.400 108.840,378.580 109.200,378.800 109.200 C 379.020 109.200,379.200 109.560,379.200 110.000 C 379.200 110.440,379.380 110.800,379.600 110.800 C 379.820 110.800,380.000 111.160,380.000 111.600 C 380.000 112.040,380.180 112.400,380.400 112.400 C 380.620 112.400,380.800 112.760,380.800 113.200 C 380.800 113.640,380.980 114.000,381.200 114.000 C 381.420 114.000,381.600 114.360,381.600 114.800 C 381.600 115.240,381.780 115.600,382.000 115.600 C 382.220 115.600,382.400 115.870,382.400 116.200 C 382.400 116.530,382.580 116.800,382.800 116.800 C 383.020 116.800,383.200 116.530,383.200 116.200 C 383.200 115.870,383.020 115.600,382.800 115.600 C 382.580 115.600,382.400 115.240,382.400 114.800 C 382.400 114.360,382.220 114.000,382.000 114.000 C 381.780 114.000,381.600 113.640,381.600 113.200 C 381.600 112.760,381.420 112.400,381.200 112.400 C 380.980 112.400,380.800 112.166,380.800 111.880 C 380.800 111.144,379.859 109.207,379.500 109.203 C 379.335 109.201,379.200 108.840,379.200 108.400 C 379.200 107.960,379.020 107.600,378.800 107.600 C 378.580 107.600,378.400 107.240,378.400 106.800 C 378.400 106.360,378.220 106.000,378.000 106.000 C 377.780 106.000,377.600 105.640,377.600 105.200 C 377.600 104.760,377.420 104.400,377.200 104.400 C 376.980 104.400,376.800 104.130,376.800 103.800 C 376.800 103.470,376.620 103.200,376.400 103.200 C 376.180 103.200,376.000 103.470,376.000 103.800 M16.000 119.800 C 16.000 120.130,16.180 120.400,16.400 120.400 C 16.620 120.400,16.800 120.130,16.800 119.800 C 16.800 119.470,16.620 119.200,16.400 119.200 C 16.180 119.200,16.000 119.470,16.000 119.800 M384.000 119.800 C 384.000 120.130,384.180 120.400,384.400 120.400 C 384.620 120.400,384.800 120.130,384.800 119.800 C 384.800 119.470,384.620 119.200,384.400 119.200 C 384.180 119.200,384.000 119.470,384.000 119.800 M15.088 121.961 C 14.247 123.626,14.229 124.000,14.987 124.000 C 15.362 124.000,15.486 123.768,15.329 123.360 C 15.194 123.007,15.307 122.581,15.581 122.412 C 15.855 122.243,16.010 121.766,15.927 121.352 C 15.806 120.751,15.637 120.873,15.088 121.961 M384.800 121.600 C 384.800 122.040,384.980 122.400,385.200 122.400 C 385.420 122.400,385.600 122.760,385.600 123.200 C 385.600 123.640,385.780 124.000,386.000 124.000 C 386.220 124.000,386.400 123.741,386.400 123.424 C 386.400 123.107,386.220 122.736,386.000 122.600 C 385.780 122.464,385.600 122.003,385.600 121.576 C 385.600 121.149,385.420 120.800,385.200 120.800 C 384.980 120.800,384.800 121.160,384.800 121.600 M13.600 125.576 C 13.600 126.003,13.420 126.464,13.200 126.600 C 12.570 126.990,12.734 128.000,13.427 128.000 C 13.872 128.000,13.980 127.768,13.800 127.200 C 13.654 126.741,13.728 126.400,13.973 126.400 C 14.208 126.400,14.400 126.040,14.400 125.600 C 14.400 125.160,14.220 124.800,14.000 124.800 C 13.780 124.800,13.600 125.149,13.600 125.576 M386.400 125.600 C 386.400 126.040,386.601 126.400,386.847 126.400 C 387.096 126.400,387.201 126.753,387.084 127.200 C 386.948 127.720,387.072 128.000,387.437 128.000 C 388.081 128.000,388.201 126.971,387.600 126.600 C 387.380 126.464,387.200 126.003,387.200 125.576 C 387.200 125.149,387.020 124.800,386.800 124.800 C 386.580 124.800,386.400 125.160,386.400 125.600 M12.200 129.200 C 12.040 129.458,12.090 129.850,12.310 130.070 C 12.576 130.336,12.806 130.313,13.000 130.000 C 13.160 129.742,13.110 129.350,12.890 129.130 C 12.624 128.864,12.394 128.887,12.200 129.200 M387.800 129.200 C 387.640 129.458,387.690 129.850,387.910 130.070 C 388.176 130.336,388.406 130.313,388.600 130.000 C 388.760 129.742,388.710 129.350,388.490 129.130 C 388.224 128.864,387.994 128.887,387.800 129.200 M11.471 131.360 C 11.341 131.698,11.395 132.073,11.590 132.194 C 12.113 132.517,12.556 131.596,12.098 131.138 C 11.842 130.882,11.624 130.959,11.471 131.360 M388.604 131.193 C 388.309 131.671,388.683 132.400,389.224 132.400 C 389.710 132.400,389.713 131.317,389.228 131.017 C 389.023 130.891,388.742 130.970,388.604 131.193 M10.800 133.576 C 10.800 134.029,10.980 134.400,11.200 134.400 C 11.420 134.400,11.600 134.141,11.600 133.824 C 11.600 133.507,11.420 133.136,11.200 133.000 C 10.980 132.864,10.800 133.123,10.800 133.576 M389.479 133.357 C 389.315 133.774,389.275 134.209,389.391 134.324 C 389.755 134.689,390.076 134.091,389.924 133.331 C 389.783 132.635,389.762 132.636,389.479 133.357 M10.000 136.000 C 10.000 136.440,10.180 136.800,10.400 136.800 C 10.620 136.800,10.800 136.440,10.800 136.000 C 10.800 135.560,10.620 135.200,10.400 135.200 C 10.180 135.200,10.000 135.560,10.000 136.000 M390.000 136.000 C 390.000 136.780,390.424 137.042,390.906 136.561 C 391.226 136.240,390.807 135.200,390.357 135.200 C 390.161 135.200,390.000 135.560,390.000 136.000 M9.200 138.200 C 9.200 138.750,9.380 139.200,9.600 139.200 C 9.820 139.200,10.000 138.750,10.000 138.200 C 10.000 137.650,9.820 137.200,9.600 137.200 C 9.380 137.200,9.200 137.650,9.200 138.200 M390.800 138.400 C 390.800 138.840,390.980 139.200,391.200 139.200 C 391.420 139.200,391.600 138.840,391.600 138.400 C 391.600 137.960,391.420 137.600,391.200 137.600 C 390.980 137.600,390.800 137.960,390.800 138.400 M8.400 140.824 C 8.400 141.537,8.567 141.944,8.800 141.800 C 9.020 141.664,9.200 141.113,9.200 140.576 C 9.200 140.039,9.020 139.600,8.800 139.600 C 8.580 139.600,8.400 140.151,8.400 140.824 M391.600 140.576 C 391.600 141.113,391.780 141.664,392.000 141.800 C 392.220 141.936,392.400 142.577,392.400 143.224 C 392.400 143.871,392.580 144.400,392.800 144.400 C 393.020 144.400,393.200 143.961,393.200 143.424 C 393.200 142.887,393.020 142.336,392.800 142.200 C 392.580 142.064,392.400 141.423,392.400 140.776 C 392.400 140.129,392.220 139.600,392.000 139.600 C 391.780 139.600,391.600 140.039,391.600 140.576 M7.867 142.667 C 7.452 143.082,7.553 144.400,8.000 144.400 C 8.220 144.400,8.400 143.950,8.400 143.400 C 8.400 142.353,8.308 142.226,7.867 142.667 M393.200 145.976 C 393.200 146.649,393.380 147.200,393.600 147.200 C 393.820 147.200,394.000 146.761,394.000 146.224 C 394.000 145.687,393.820 145.136,393.600 145.000 C 393.367 144.856,393.200 145.263,393.200 145.976 M6.800 146.200 C 6.800 146.750,6.980 147.200,7.200 147.200 C 7.420 147.200,7.600 146.750,7.600 146.200 C 7.600 145.650,7.420 145.200,7.200 145.200 C 6.980 145.200,6.800 145.650,6.800 146.200 M6.538 252.305 C 6.284 252.467,22.394 252.600,42.338 252.600 L 78.600 252.600 78.803 306.200 L 79.006 359.800 79.003 306.000 L 79.000 252.200 43.000 252.105 C 23.200 252.053,6.792 252.143,6.538 252.305 M182.985 252.500 C 182.880 252.775,182.841 286.120,182.898 326.600 L 183.002 400.200 183.101 326.298 L 183.200 252.396 288.962 252.498 C 347.131 252.554,394.516 252.468,394.262 252.306 C 393.383 251.747,183.198 251.940,182.985 252.500 M6.800 254.600 C 6.800 255.150,6.980 255.600,7.200 255.600 C 7.420 255.600,7.600 255.150,7.600 254.600 C 7.600 254.050,7.420 253.600,7.200 253.600 C 6.980 253.600,6.800 254.050,6.800 254.600 M393.200 254.824 C 393.200 255.537,393.367 255.944,393.600 255.800 C 393.820 255.664,394.000 255.113,394.000 254.576 C 394.000 254.039,393.820 253.600,393.600 253.600 C 393.380 253.600,393.200 254.151,393.200 254.824 M7.600 257.400 C 7.600 257.950,7.780 258.400,8.000 258.400 C 8.220 258.400,8.400 257.950,8.400 257.400 C 8.400 256.850,8.220 256.400,8.000 256.400 C 7.780 256.400,7.600 256.850,7.600 257.400 M392.400 257.576 C 392.400 258.223,392.220 258.864,392.000 259.000 C 391.780 259.136,391.600 259.687,391.600 260.224 C 391.600 260.761,391.780 261.200,392.000 261.200 C 392.220 261.200,392.400 260.671,392.400 260.024 C 392.400 259.377,392.580 258.736,392.800 258.600 C 393.020 258.464,393.200 257.913,393.200 257.376 C 393.200 256.839,393.020 256.400,392.800 256.400 C 392.580 256.400,392.400 256.929,392.400 257.576 M8.400 259.976 C 8.400 260.649,8.580 261.200,8.800 261.200 C 9.020 261.200,9.200 260.761,9.200 260.224 C 9.200 259.687,9.020 259.136,8.800 259.000 C 8.567 258.856,8.400 259.263,8.400 259.976 M9.200 262.600 C 9.200 263.150,9.380 263.600,9.600 263.600 C 9.820 263.600,10.000 263.150,10.000 262.600 C 10.000 262.050,9.820 261.600,9.600 261.600 C 9.380 261.600,9.200 262.050,9.200 262.600 M390.800 262.400 C 390.800 262.840,390.980 263.200,391.200 263.200 C 391.420 263.200,391.600 262.840,391.600 262.400 C 391.600 261.960,391.420 261.600,391.200 261.600 C 390.980 261.600,390.800 261.960,390.800 262.400 M10.000 265.000 C 10.000 265.596,10.172 265.941,10.400 265.800 C 10.620 265.664,10.800 265.304,10.800 265.000 C 10.800 264.696,10.620 264.336,10.400 264.200 C 10.172 264.059,10.000 264.404,10.000 265.000 M390.256 264.278 C 389.875 264.659,389.947 265.600,390.357 265.600 C 390.848 265.600,391.242 264.473,390.838 264.224 C 390.659 264.113,390.396 264.137,390.256 264.278 M10.800 267.224 C 10.800 267.677,10.980 267.936,11.200 267.800 C 11.420 267.664,11.600 267.293,11.600 266.976 C 11.600 266.659,11.420 266.400,11.200 266.400 C 10.980 266.400,10.800 266.771,10.800 267.224 M389.206 266.700 C 389.224 267.577,389.988 268.159,389.994 267.300 C 389.997 266.805,389.820 266.400,389.600 266.400 C 389.380 266.400,389.203 266.535,389.206 266.700 M11.472 268.684 C 11.351 268.879,11.398 269.274,11.576 269.562 C 11.822 269.960,11.971 269.971,12.195 269.608 C 12.357 269.345,12.310 268.950,12.090 268.730 C 11.867 268.507,11.594 268.486,11.472 268.684 M388.600 268.800 C 388.308 269.272,388.687 270.000,389.224 270.000 C 389.431 270.000,389.600 269.640,389.600 269.200 C 389.600 268.356,389.018 268.124,388.600 268.800 M12.223 270.762 C 12.077 270.999,12.120 271.485,12.319 271.841 C 12.646 272.425,12.707 272.419,12.954 271.777 C 13.266 270.962,12.639 270.090,12.223 270.762 M387.823 270.762 C 387.677 270.999,387.734 271.510,387.951 271.897 C 388.326 272.564,388.361 272.562,388.626 271.873 C 388.949 271.036,388.251 270.070,387.823 270.762 M13.009 273.500 C 13.170 273.885,13.391 274.605,13.498 275.100 C 13.740 276.215,14.400 276.288,14.400 275.200 C 14.400 274.760,14.208 274.400,13.973 274.400 C 13.728 274.400,13.654 274.059,13.800 273.600 C 13.985 273.017,13.872 272.800,13.384 272.800 C 12.901 272.800,12.796 272.995,13.009 273.500 M387.093 273.634 C 387.259 274.268,387.392 274.340,387.649 273.934 C 388.142 273.156,388.075 272.800,387.437 272.800 C 387.064 272.800,386.948 273.081,387.093 273.634 M386.400 275.176 C 386.400 275.629,386.580 276.000,386.800 276.000 C 387.020 276.000,387.200 275.741,387.200 275.424 C 387.200 275.107,387.020 274.736,386.800 274.600 C 386.580 274.464,386.400 274.723,386.400 275.176 M14.400 277.139 C 14.400 278.087,15.780 280.175,15.927 279.448 C 16.010 279.034,15.855 278.557,15.581 278.388 C 15.307 278.219,15.194 277.793,15.329 277.440 C 15.486 277.032,15.362 276.800,14.987 276.800 C 14.664 276.800,14.400 276.952,14.400 277.139 M385.484 277.600 C 385.601 278.047,385.496 278.400,385.247 278.400 C 385.001 278.400,384.800 278.760,384.800 279.200 C 384.800 279.640,384.980 280.000,385.200 280.000 C 385.420 280.000,385.600 279.651,385.600 279.224 C 385.600 278.797,385.780 278.336,386.000 278.200 C 386.601 277.829,386.481 276.800,385.837 276.800 C 385.472 276.800,385.348 277.080,385.484 277.600 M16.000 281.000 C 16.000 281.330,16.180 281.600,16.400 281.600 C 16.620 281.600,16.800 281.330,16.800 281.000 C 16.800 280.670,16.620 280.400,16.400 280.400 C 16.180 280.400,16.000 280.670,16.000 281.000 M384.000 281.000 C 384.000 281.330,384.180 281.600,384.400 281.600 C 384.620 281.600,384.800 281.330,384.800 281.000 C 384.800 280.670,384.620 280.400,384.400 280.400 C 384.180 280.400,384.000 280.670,384.000 281.000 M17.600 284.097 C 17.600 284.851,18.535 286.793,18.900 286.797 C 19.065 286.799,19.200 287.053,19.200 287.362 C 19.200 288.028,20.868 291.341,21.300 291.533 C 21.465 291.607,21.600 292.012,21.600 292.433 C 21.600 292.855,21.780 293.200,22.000 293.200 C 22.220 293.200,22.400 293.560,22.400 294.000 C 22.400 294.440,22.580 294.800,22.800 294.800 C 23.020 294.800,23.200 295.160,23.200 295.600 C 23.200 296.040,23.336 296.400,23.502 296.400 C 23.669 296.400,24.044 296.940,24.336 297.600 C 24.847 298.754,25.600 299.231,25.600 298.400 C 25.600 298.180,25.420 298.000,25.200 298.000 C 24.980 298.000,24.800 297.640,24.800 297.200 C 24.800 296.760,24.620 296.400,24.400 296.400 C 24.180 296.400,24.000 296.040,24.000 295.600 C 24.000 295.160,23.820 294.800,23.600 294.800 C 23.380 294.800,23.200 294.440,23.200 294.000 C 23.200 293.560,23.020 293.200,22.800 293.200 C 22.580 293.200,22.400 292.840,22.400 292.400 C 22.400 291.960,22.220 291.600,22.000 291.600 C 21.780 291.600,21.600 291.240,21.600 290.800 C 21.600 290.360,21.420 290.000,21.200 290.000 C 20.980 290.000,20.800 289.640,20.800 289.200 C 20.800 288.760,20.654 288.400,20.475 288.400 C 20.296 288.400,19.902 287.770,19.600 287.000 C 19.298 286.230,18.904 285.600,18.725 285.600 C 18.546 285.600,18.400 285.251,18.400 284.824 C 18.400 284.397,18.220 283.936,18.000 283.800 C 17.780 283.664,17.600 283.798,17.600 284.097 M382.400 284.800 C 382.400 285.240,382.254 285.600,382.075 285.600 C 381.896 285.600,381.502 286.230,381.200 287.000 C 380.898 287.770,380.504 288.400,380.325 288.400 C 380.146 288.400,380.000 288.760,380.000 289.200 C 380.000 289.640,379.820 290.000,379.600 290.000 C 379.380 290.000,379.200 290.360,379.200 290.800 C 379.200 291.240,379.020 291.600,378.800 291.600 C 378.580 291.600,378.400 291.960,378.400 292.400 C 378.400 292.840,378.220 293.200,378.000 293.200 C 377.780 293.200,377.600 293.560,377.600 294.000 C 377.600 294.440,377.420 294.800,377.200 294.800 C 376.980 294.800,376.800 295.160,376.800 295.600 C 376.800 296.040,376.620 296.400,376.400 296.400 C 376.180 296.400,376.000 296.760,376.000 297.200 C 376.000 297.640,375.820 298.000,375.600 298.000 C 375.380 298.000,375.200 298.180,375.200 298.400 C 375.200 299.231,375.953 298.754,376.464 297.600 C 376.756 296.940,377.131 296.400,377.298 296.400 C 377.464 296.400,377.600 296.040,377.600 295.600 C 377.600 295.160,377.780 294.800,378.000 294.800 C 378.220 294.800,378.400 294.440,378.400 294.000 C 378.400 293.560,378.580 293.200,378.800 293.200 C 379.020 293.200,379.200 292.855,379.200 292.433 C 379.200 292.012,379.335 291.607,379.500 291.533 C 379.932 291.341,381.600 288.028,381.600 287.362 C 381.600 287.053,381.735 286.799,381.900 286.797 C 382.206 286.794,383.200 284.900,383.200 284.320 C 383.200 284.144,383.020 284.000,382.800 284.000 C 382.580 284.000,382.400 284.360,382.400 284.800 M25.600 299.800 C 25.600 300.130,25.780 300.400,26.000 300.400 C 26.220 300.400,26.400 300.760,26.400 301.200 C 26.400 301.640,26.580 302.000,26.800 302.000 C 27.020 302.000,27.200 302.236,27.200 302.525 C 27.200 302.813,27.560 303.436,28.000 303.908 C 28.440 304.380,28.800 305.022,28.800 305.334 C 28.800 306.186,29.854 306.960,30.216 306.375 C 30.373 306.119,30.254 305.757,29.951 305.570 C 29.648 305.382,29.384 305.088,29.365 304.915 C 29.272 304.062,28.653 303.200,28.134 303.200 C 27.814 303.200,27.648 303.045,27.765 302.856 C 28.018 302.448,27.132 300.408,26.700 300.403 C 26.535 300.401,26.400 300.130,26.400 299.800 C 26.400 299.470,26.220 299.200,26.000 299.200 C 25.780 299.200,25.600 299.470,25.600 299.800 M374.400 299.800 C 374.400 300.130,374.241 300.400,374.047 300.400 C 373.720 300.400,373.146 301.661,373.043 302.600 C 373.020 302.820,372.593 303.329,372.096 303.732 C 371.599 304.135,371.288 304.619,371.405 304.807 C 371.521 304.996,371.318 305.318,370.952 305.523 C 370.571 305.736,370.414 306.099,370.584 306.373 C 370.918 306.915,372.400 305.820,372.400 305.031 C 372.400 304.786,372.850 303.923,373.400 303.114 C 373.950 302.305,374.400 301.363,374.400 301.021 C 374.400 300.680,374.580 300.400,374.800 300.400 C 375.020 300.400,375.200 300.130,375.200 299.800 C 375.200 299.470,375.020 299.200,374.800 299.200 C 374.580 299.200,374.400 299.470,374.400 299.800 M30.000 307.416 C 30.000 307.623,31.583 309.983,32.001 310.400 C 32.111 310.510,32.456 311.095,32.768 311.700 C 33.080 312.305,33.485 312.800,33.668 312.800 C 33.850 312.800,34.000 313.070,34.000 313.400 C 34.000 313.730,34.180 314.000,34.400 314.000 C 34.856 314.000,34.908 313.548,34.557 312.633 C 34.424 312.285,34.086 312.000,33.807 312.000 C 33.528 312.000,33.192 311.460,33.060 310.800 C 32.910 310.051,32.573 309.600,32.163 309.600 C 31.731 309.600,31.570 309.357,31.693 308.888 C 31.795 308.497,31.644 307.957,31.356 307.688 C 30.823 307.190,30.000 307.025,30.000 307.416 M369.585 307.713 C 369.247 307.981,369.036 308.515,369.115 308.900 C 369.203 309.328,369.017 309.600,368.637 309.600 C 368.291 309.600,367.894 310.089,367.743 310.700 C 367.593 311.305,367.140 312.035,366.735 312.323 C 366.331 312.610,366.000 313.152,366.000 313.526 C 366.000 313.901,365.640 314.432,365.200 314.707 C 364.760 314.982,364.400 315.387,364.400 315.607 C 364.400 315.827,363.860 316.572,363.200 317.263 C 362.540 317.954,362.000 318.690,362.000 318.899 C 362.000 319.108,361.460 319.783,360.800 320.400 C 360.140 321.017,359.600 321.737,359.600 322.000 C 359.600 322.263,359.060 322.983,358.400 323.600 C 357.740 324.217,357.200 324.901,357.200 325.120 C 357.200 325.339,356.315 326.422,355.234 327.527 C 354.153 328.631,353.381 329.648,353.520 329.787 C 353.658 329.925,352.499 331.245,350.944 332.719 C 349.389 334.194,347.688 336.030,347.165 336.800 C 345.651 339.026,336.443 348.000,335.674 348.000 C 335.499 348.000,334.204 349.263,332.795 350.806 C 331.386 352.349,330.049 353.550,329.824 353.475 C 329.598 353.399,328.567 354.207,327.533 355.269 C 326.498 356.331,325.442 357.200,325.186 357.200 C 324.930 357.200,324.217 357.740,323.600 358.400 C 322.983 359.060,322.263 359.600,322.000 359.600 C 321.737 359.600,321.017 360.140,320.400 360.800 C 319.783 361.460,319.126 362.000,318.940 362.000 C 318.523 362.001,316.400 363.795,316.400 364.147 C 316.400 364.711,317.460 364.349,318.000 363.600 C 318.317 363.160,318.807 362.800,319.088 362.800 C 319.370 362.800,319.600 362.620,319.600 362.400 C 319.600 362.180,319.830 362.000,320.112 362.000 C 320.393 362.000,320.883 361.640,321.200 361.200 C 321.517 360.760,321.924 360.400,322.105 360.400 C 322.286 360.400,322.831 360.021,323.317 359.557 C 323.803 359.093,324.830 358.306,325.600 357.807 C 326.370 357.308,327.558 356.361,328.241 355.703 C 328.924 355.044,329.824 354.316,330.241 354.083 C 332.554 352.795,352.836 332.494,354.102 330.200 C 354.345 329.760,355.021 328.950,355.605 328.400 C 356.189 327.850,357.127 326.680,357.690 325.800 C 358.253 324.920,359.093 323.803,359.557 323.317 C 360.021 322.831,360.400 322.286,360.400 322.105 C 360.400 321.924,360.760 321.517,361.200 321.200 C 361.640 320.883,362.000 320.393,362.000 320.112 C 362.000 319.830,362.180 319.600,362.400 319.600 C 362.620 319.600,362.800 319.370,362.800 319.088 C 362.800 318.807,363.160 318.317,363.600 318.000 C 364.040 317.683,364.400 317.238,364.400 317.012 C 364.401 316.785,364.851 316.077,365.400 315.438 C 365.950 314.799,366.400 314.152,366.400 314.000 C 366.400 313.848,366.850 313.201,367.400 312.562 C 367.949 311.923,368.399 311.190,368.400 310.933 C 368.400 310.677,368.535 310.407,368.700 310.333 C 369.044 310.180,370.800 307.742,370.800 307.416 C 370.800 307.058,370.238 307.195,369.585 307.713 M34.800 314.767 C 34.800 315.005,34.950 315.200,35.132 315.200 C 35.315 315.200,35.719 315.695,36.030 316.300 C 36.340 316.905,36.911 317.691,37.297 318.047 C 37.684 318.403,38.000 318.871,38.000 319.088 C 38.000 319.304,38.540 320.046,39.200 320.737 C 39.860 321.428,40.400 322.092,40.400 322.214 C 40.400 322.335,40.858 322.922,41.418 323.517 C 41.978 324.113,42.803 325.184,43.250 325.898 C 43.697 326.612,44.634 327.807,45.331 328.554 C 46.029 329.300,46.916 330.336,47.302 330.856 C 50.204 334.760,68.333 352.895,70.480 354.042 C 70.986 354.312,71.850 355.006,72.400 355.584 C 72.950 356.162,74.080 357.049,74.911 357.556 C 75.741 358.063,76.695 358.752,77.030 359.087 C 77.364 359.421,77.739 359.595,77.861 359.472 C 78.131 359.202,76.192 357.200,75.662 357.200 C 75.456 357.200,74.370 356.288,73.249 355.173 C 72.128 354.058,71.068 353.234,70.893 353.342 C 70.718 353.451,69.598 352.456,68.405 351.132 C 67.211 349.808,65.428 348.169,64.441 347.491 C 62.141 345.908,54.916 338.691,53.315 336.377 C 52.639 335.399,51.077 333.671,49.843 332.536 C 48.609 331.400,47.600 330.268,47.600 330.018 C 47.600 329.769,46.625 328.598,45.433 327.416 C 44.242 326.234,43.367 325.167,43.488 325.045 C 43.610 324.923,43.145 324.296,42.455 323.651 C 41.765 323.007,41.200 322.263,41.200 322.000 C 41.200 321.737,40.660 321.017,40.000 320.400 C 39.340 319.783,38.800 319.108,38.800 318.899 C 38.800 318.690,38.305 317.983,37.700 317.328 C 37.095 316.674,36.407 315.803,36.171 315.393 C 35.675 314.531,34.800 314.131,34.800 314.767 M314.707 365.200 C 314.432 365.640,313.901 366.000,313.526 366.000 C 313.152 366.000,312.610 366.331,312.323 366.735 C 312.035 367.140,311.305 367.593,310.700 367.743 C 310.073 367.898,309.600 368.290,309.600 368.654 C 309.600 369.078,309.352 369.228,308.863 369.100 C 308.411 368.982,307.935 369.212,307.635 369.693 C 307.007 370.698,307.372 371.085,308.183 370.274 C 308.525 369.932,309.164 369.538,309.602 369.399 C 310.041 369.260,310.400 368.978,310.400 368.773 C 310.400 368.568,310.636 368.400,310.925 368.400 C 311.213 368.400,311.836 368.040,312.308 367.600 C 312.780 367.160,313.309 366.800,313.483 366.800 C 313.883 366.799,316.000 364.994,316.000 364.653 C 316.000 364.099,315.178 364.446,314.707 365.200 M304.800 371.485 C 304.030 372.014,303.339 372.621,303.264 372.832 C 303.079 373.354,305.222 372.418,306.140 371.576 C 307.321 370.494,306.337 370.427,304.800 371.485 M301.422 373.324 C 299.765 374.338,298.985 375.200,299.725 375.200 C 300.096 375.200,300.400 375.020,300.400 374.800 C 300.400 374.580,300.724 374.400,301.120 374.400 C 301.862 374.400,302.800 373.685,302.800 373.120 C 302.800 372.687,302.354 372.753,301.422 373.324 M298.000 375.600 C 298.000 375.820,297.640 376.000,297.200 376.000 C 296.760 376.000,296.400 376.180,296.400 376.400 C 296.400 376.620,296.040 376.800,295.600 376.800 C 295.160 376.800,294.800 376.980,294.800 377.200 C 294.800 377.420,294.440 377.600,294.000 377.600 C 293.560 377.600,293.200 377.780,293.200 378.000 C 293.200 378.220,292.840 378.400,292.400 378.400 C 291.960 378.400,291.600 378.580,291.600 378.800 C 291.600 379.020,291.240 379.200,290.800 379.200 C 290.360 379.200,290.000 379.380,290.000 379.600 C 290.000 379.820,289.730 380.000,289.400 380.000 C 289.070 380.000,288.800 380.180,288.800 380.400 C 288.800 380.620,288.944 380.800,289.120 380.800 C 289.700 380.800,291.594 379.806,291.597 379.500 C 291.599 379.335,291.960 379.200,292.400 379.200 C 292.840 379.200,293.200 379.020,293.200 378.800 C 293.200 378.580,293.560 378.400,294.000 378.400 C 294.440 378.400,294.803 378.265,294.806 378.100 C 294.810 377.935,295.710 377.360,296.806 376.821 C 298.652 375.915,299.355 375.200,298.400 375.200 C 298.180 375.200,298.000 375.380,298.000 375.600 M287.200 381.200 C 287.200 381.420,286.840 381.600,286.400 381.600 C 285.960 381.600,285.600 381.780,285.600 382.000 C 285.600 382.220,285.240 382.400,284.800 382.400 C 284.360 382.400,284.000 382.599,284.000 382.843 C 284.000 383.315,284.079 383.295,286.700 382.152 C 288.415 381.405,288.907 380.800,287.800 380.800 C 287.470 380.800,287.200 380.980,287.200 381.200 M280.400 384.400 C 280.400 384.620,280.670 384.800,281.000 384.800 C 281.330 384.800,281.600 384.620,281.600 384.400 C 281.600 384.180,281.330 384.000,281.000 384.000 C 280.670 384.000,280.400 384.180,280.400 384.400 M278.400 385.200 C 278.400 385.420,278.760 385.600,279.200 385.600 C 279.640 385.600,280.000 385.420,280.000 385.200 C 280.000 384.980,279.640 384.800,279.200 384.800 C 278.760 384.800,278.400 384.980,278.400 385.200 M274.800 386.800 C 274.800 387.020,275.070 387.200,275.400 387.200 C 275.730 387.200,276.000 387.020,276.000 386.800 C 276.000 386.580,275.730 386.400,275.400 386.400 C 275.070 386.400,274.800 386.580,274.800 386.800 M272.800 387.600 C 272.800 388.101,273.224 388.101,274.000 387.600 C 274.485 387.286,274.428 387.211,273.700 387.206 C 273.205 387.203,272.800 387.380,272.800 387.600 M270.800 388.200 C 270.800 388.530,271.059 388.800,271.376 388.800 C 272.223 388.800,272.497 388.123,271.765 387.842 C 270.873 387.500,270.800 387.527,270.800 388.200 M268.800 389.000 C 268.800 389.367,268.993 389.602,269.230 389.523 C 269.466 389.445,269.660 389.209,269.660 389.000 C 269.660 388.791,269.466 388.555,269.230 388.477 C 268.993 388.398,268.800 388.633,268.800 389.000 M264.400 390.587 C 264.400 390.944,264.635 391.085,264.998 390.946 C 265.326 390.819,265.496 390.555,265.374 390.358 C 265.025 389.793,264.400 389.940,264.400 390.587 M262.000 391.200 C 262.000 391.420,262.405 391.597,262.900 391.594 C 263.628 391.589,263.685 391.514,263.200 391.200 C 262.424 390.699,262.000 390.699,262.000 391.200 M259.200 392.000 C 259.200 392.220,259.549 392.400,259.976 392.400 C 260.403 392.400,260.864 392.220,261.000 392.000 C 261.140 391.773,260.804 391.600,260.224 391.600 C 259.661 391.600,259.200 391.780,259.200 392.000 M256.400 392.800 C 256.400 393.020,256.850 393.200,257.400 393.200 C 257.950 393.200,258.400 393.020,258.400 392.800 C 258.400 392.580,257.950 392.400,257.400 392.400 C 256.850 392.400,256.400 392.580,256.400 392.800 M254.000 393.600 C 254.000 393.820,254.349 394.000,254.776 394.000 C 255.203 394.000,255.664 393.820,255.800 393.600 C 255.940 393.373,255.604 393.200,255.024 393.200 C 254.461 393.200,254.000 393.380,254.000 393.600 M250.800 394.400 C 250.800 394.620,251.250 394.800,251.800 394.800 C 252.350 394.800,252.800 394.620,252.800 394.400 C 252.800 394.180,252.350 394.000,251.800 394.000 C 251.250 394.000,250.800 394.180,250.800 394.400 M248.000 395.200 C 248.000 395.420,248.349 395.600,248.776 395.600 C 249.203 395.600,249.664 395.420,249.800 395.200 C 249.940 394.973,249.604 394.800,249.024 394.800 C 248.461 394.800,248.000 394.980,248.000 395.200 M244.400 396.000 C 244.400 396.509,246.012 396.509,246.800 396.000 C 247.246 395.712,247.016 395.611,245.900 395.606 C 245.075 395.603,244.400 395.780,244.400 396.000 M240.800 396.800 C 240.800 397.020,241.340 397.200,242.000 397.200 C 242.660 397.200,243.200 397.020,243.200 396.800 C 243.200 396.580,242.660 396.400,242.000 396.400 C 241.340 396.400,240.800 396.580,240.800 396.800 M236.800 397.600 C 236.800 397.820,237.430 398.000,238.200 398.000 C 238.970 398.000,239.600 397.820,239.600 397.600 C 239.600 397.380,238.970 397.200,238.200 397.200 C 237.430 397.200,236.800 397.380,236.800 397.600 M232.000 398.400 C 232.000 398.620,232.810 398.800,233.800 398.800 C 234.790 398.800,235.600 398.620,235.600 398.400 C 235.600 398.180,234.790 398.000,233.800 398.000 C 232.810 398.000,232.000 398.180,232.000 398.400 M226.800 399.200 C 226.800 399.420,227.700 399.600,228.800 399.600 C 229.900 399.600,230.800 399.420,230.800 399.200 C 230.800 398.980,229.900 398.800,228.800 398.800 C 227.700 398.800,226.800 398.980,226.800 399.200 M220.900 399.891 C 221.725 399.978,223.075 399.978,223.900 399.891 C 224.725 399.805,224.050 399.734,222.400 399.734 C 220.750 399.734,220.075 399.805,220.900 399.891 " stroke="none" fill="#e4647c" fill-rule="evenodd"></path><path id="path4" d="M154.000 4.800 C 154.000 5.020,154.630 5.200,155.400 5.200 L 156.800 5.200 156.800 89.800 L 156.800 174.400 278.300 174.301 L 399.800 174.201 278.500 174.100 L 157.200 173.999 157.200 89.199 L 157.200 4.400 155.600 4.400 C 154.720 4.400,154.000 4.580,154.000 4.800 M151.000 5.600 C 150.856 5.833,151.263 6.000,151.976 6.000 C 152.649 6.000,153.200 5.820,153.200 5.600 C 153.200 5.380,152.761 5.200,152.224 5.200 C 151.687 5.200,151.136 5.380,151.000 5.600 M148.000 6.400 C 148.000 6.620,148.450 6.800,149.000 6.800 C 149.550 6.800,150.000 6.620,150.000 6.400 C 150.000 6.180,149.550 6.000,149.000 6.000 C 148.450 6.000,148.000 6.180,148.000 6.400 M145.000 7.200 C 145.136 7.420,145.687 7.600,146.224 7.600 C 146.761 7.600,147.200 7.420,147.200 7.200 C 147.200 6.980,146.649 6.800,145.976 6.800 C 145.263 6.800,144.856 6.967,145.000 7.200 M142.600 8.000 C 142.460 8.227,142.796 8.400,143.376 8.400 C 143.939 8.400,144.400 8.220,144.400 8.000 C 144.400 7.780,144.051 7.600,143.624 7.600 C 143.197 7.600,142.736 7.780,142.600 8.000 M139.800 8.800 C 139.656 9.033,140.063 9.200,140.776 9.200 C 141.449 9.200,142.000 9.020,142.000 8.800 C 142.000 8.580,141.561 8.400,141.024 8.400 C 140.487 8.400,139.936 8.580,139.800 8.800 M137.400 9.600 C 137.260 9.827,137.596 10.000,138.176 10.000 C 138.739 10.000,139.200 9.820,139.200 9.600 C 139.200 9.380,138.851 9.200,138.424 9.200 C 137.997 9.200,137.536 9.380,137.400 9.600 M135.000 10.400 C 135.136 10.620,135.597 10.800,136.024 10.800 C 136.451 10.800,136.800 10.620,136.800 10.400 C 136.800 10.180,136.339 10.000,135.776 10.000 C 135.196 10.000,134.860 10.173,135.000 10.400 M133.300 10.687 C 132.511 10.970,132.718 11.600,133.600 11.600 C 134.040 11.600,134.400 11.431,134.400 11.224 C 134.400 10.712,133.905 10.470,133.300 10.687 M131.208 11.595 C 130.711 11.902,130.730 11.998,131.328 12.228 C 132.163 12.548,132.708 12.148,132.170 11.610 C 131.943 11.383,131.561 11.377,131.208 11.595 M129.238 12.376 C 128.840 12.622,128.829 12.771,129.192 12.995 C 129.455 13.157,129.850 13.110,130.070 12.890 C 130.591 12.369,129.921 11.955,129.238 12.376 M125.892 13.468 C 125.283 13.789,124.884 14.212,125.005 14.408 C 125.276 14.846,126.400 14.461,126.400 13.930 C 126.400 13.719,126.760 13.660,127.200 13.800 C 127.768 13.980,128.000 13.872,128.000 13.427 C 128.000 12.673,127.379 12.685,125.892 13.468 M122.800 14.757 C 122.800 14.954,123.070 15.218,123.400 15.345 C 123.765 15.485,124.000 15.345,124.000 14.987 C 124.000 14.664,123.730 14.400,123.400 14.400 C 123.070 14.400,122.800 14.561,122.800 14.757 M120.800 15.553 C 120.800 15.748,121.160 16.001,121.600 16.116 C 122.120 16.252,122.400 16.128,122.400 15.763 C 122.400 15.453,122.040 15.200,121.600 15.200 C 121.160 15.200,120.800 15.359,120.800 15.553 M119.200 16.400 C 119.200 16.620,119.470 16.800,119.800 16.800 C 120.130 16.800,120.400 16.620,120.400 16.400 C 120.400 16.180,120.130 16.000,119.800 16.000 C 119.470 16.000,119.200 16.180,119.200 16.400 M116.500 17.344 C 116.005 17.589,115.600 17.927,115.600 18.095 C 115.600 18.263,115.366 18.400,115.080 18.400 C 114.344 18.400,112.407 19.341,112.403 19.700 C 112.401 19.865,112.040 20.000,111.600 20.000 C 111.160 20.000,110.800 20.180,110.800 20.400 C 110.800 20.620,110.440 20.800,110.000 20.800 C 109.560 20.800,109.200 20.980,109.200 21.200 C 109.200 21.420,108.855 21.600,108.433 21.600 C 108.012 21.600,107.607 21.735,107.533 21.900 C 107.460 22.065,106.545 22.633,105.500 23.163 C 103.737 24.056,103.056 24.800,104.000 24.800 C 104.265 24.800,104.400 49.933,104.400 99.398 L 104.400 173.997 52.700 174.100 L 1.000 174.203 52.900 174.302 L 104.800 174.400 104.800 99.200 C 104.800 32.622,104.869 24.000,105.400 24.000 C 105.730 24.000,106.000 23.820,106.000 23.600 C 106.000 23.380,106.360 23.200,106.800 23.200 C 107.240 23.200,107.600 23.020,107.600 22.800 C 107.600 22.580,107.960 22.400,108.400 22.400 C 108.840 22.400,109.200 22.220,109.200 22.000 C 109.200 21.780,109.560 21.600,110.000 21.600 C 110.440 21.600,110.800 21.420,110.800 21.200 C 110.800 20.980,111.160 20.800,111.600 20.800 C 112.040 20.800,112.400 20.620,112.400 20.400 C 112.400 20.180,112.760 20.000,113.200 20.000 C 113.640 20.000,114.000 19.820,114.000 19.600 C 114.000 19.380,114.360 19.200,114.800 19.200 C 115.240 19.200,115.600 19.020,115.600 18.800 C 115.600 18.580,115.960 18.400,116.400 18.400 C 116.840 18.400,117.200 18.147,117.200 17.837 C 117.200 17.472,117.480 17.348,118.000 17.484 C 118.447 17.601,118.800 17.496,118.800 17.247 C 118.800 16.699,117.709 16.745,116.500 17.344 M0.700 175.830 C 0.236 176.299,0.339 181.200,0.813 181.200 C 1.039 181.200,1.330 180.928,1.457 180.595 C 1.769 179.782,1.080 175.445,0.700 175.830 M399.456 177.766 C 399.315 178.958,399.369 180.353,399.575 180.866 C 399.858 181.572,399.955 181.041,399.975 178.700 C 400.004 175.071,399.813 174.726,399.456 177.766 M0.096 188.200 C 0.086 191.546,0.209 193.397,0.400 192.800 C 0.805 191.537,0.813 187.664,0.417 184.800 C 0.185 183.122,0.109 183.928,0.096 188.200 M0.096 212.600 C 0.109 216.872,0.185 217.678,0.417 216.000 C 0.813 213.136,0.805 209.263,0.400 208.000 C 0.209 207.403,0.086 209.254,0.096 212.600 M399.436 220.300 C 399.312 220.905,399.366 222.300,399.558 223.400 C 399.904 225.387,399.906 225.380,399.953 222.300 C 400.002 219.085,399.827 218.408,399.436 220.300 M0.400 222.176 C 0.400 223.593,0.560 224.851,0.754 224.972 C 1.197 225.245,1.732 221.209,1.376 220.281 C 0.830 218.859,0.400 219.695,0.400 222.176 M52.700 226.700 L 104.400 226.803 104.400 301.402 C 104.400 350.867,104.265 376.000,104.000 376.000 C 103.169 376.000,103.646 376.753,104.800 377.264 C 105.460 377.556,106.000 377.931,106.000 378.098 C 106.000 378.264,106.360 378.400,106.800 378.400 C 107.240 378.400,107.600 378.580,107.600 378.800 C 107.600 379.020,107.960 379.200,108.400 379.200 C 108.840 379.200,109.201 379.335,109.203 379.500 C 109.207 379.859,111.144 380.800,111.880 380.800 C 112.166 380.800,112.401 380.935,112.403 381.100 C 112.407 381.459,114.344 382.400,115.080 382.400 C 115.366 382.400,115.601 382.535,115.603 382.700 C 115.607 383.059,117.544 384.000,118.280 384.000 C 118.566 384.000,118.800 383.799,118.800 383.553 C 118.800 383.304,118.447 383.199,118.000 383.316 C 117.480 383.452,117.200 383.328,117.200 382.963 C 117.200 382.653,116.840 382.400,116.400 382.400 C 115.960 382.400,115.600 382.220,115.600 382.000 C 115.600 381.780,115.240 381.600,114.800 381.600 C 114.360 381.600,114.000 381.420,114.000 381.200 C 114.000 380.980,113.640 380.800,113.200 380.800 C 112.760 380.800,112.400 380.620,112.400 380.400 C 112.400 380.180,112.040 380.000,111.600 380.000 C 111.160 380.000,110.800 379.820,110.800 379.600 C 110.800 379.380,110.440 379.200,110.000 379.200 C 109.560 379.200,109.200 379.020,109.200 378.800 C 109.200 378.580,108.840 378.400,108.400 378.400 C 107.960 378.400,107.600 378.220,107.600 378.000 C 107.600 377.780,107.240 377.600,106.800 377.600 C 106.360 377.600,106.000 377.420,106.000 377.200 C 106.000 376.980,105.730 376.800,105.400 376.800 C 104.869 376.800,104.800 368.178,104.800 301.600 L 104.800 226.400 52.900 226.498 L 1.000 226.597 52.700 226.700 M157.067 226.667 C 156.920 226.813,156.800 264.883,156.800 311.267 L 156.800 395.600 155.176 395.600 C 154.196 395.600,153.651 395.758,153.800 396.000 C 153.936 396.220,154.757 396.400,155.624 396.400 L 157.200 396.400 157.200 311.601 L 157.200 226.801 278.500 226.700 L 399.800 226.599 278.567 226.499 C 211.888 226.445,157.213 226.520,157.067 226.667 M119.200 384.400 C 119.200 384.620,119.470 384.800,119.800 384.800 C 120.130 384.800,120.400 384.620,120.400 384.400 C 120.400 384.180,120.130 384.000,119.800 384.000 C 119.470 384.000,119.200 384.180,119.200 384.400 M121.000 385.200 C 121.136 385.420,121.507 385.600,121.824 385.600 C 122.141 385.600,122.400 385.420,122.400 385.200 C 122.400 384.980,122.029 384.800,121.576 384.800 C 121.123 384.800,120.864 384.980,121.000 385.200 M123.300 385.465 C 122.604 385.746,122.673 386.400,123.400 386.400 C 123.730 386.400,124.000 386.130,124.000 385.800 C 124.000 385.470,123.955 385.214,123.900 385.232 C 123.845 385.249,123.575 385.354,123.300 385.465 M125.039 386.294 C 124.562 386.771,124.817 387.200,125.576 387.200 C 126.003 387.200,126.464 387.380,126.600 387.600 C 126.990 388.230,128.000 388.066,128.000 387.373 C 128.000 386.928,127.768 386.820,127.200 387.000 C 126.760 387.140,126.400 387.081,126.400 386.870 C 126.400 386.400,125.370 385.964,125.039 386.294 M128.998 388.003 C 128.861 388.224,129.038 388.517,129.392 388.652 C 130.158 388.946,130.585 388.622,130.216 388.027 C 129.884 387.489,129.322 387.478,128.998 388.003 M131.017 388.772 C 130.721 389.251,131.474 389.725,132.007 389.396 C 132.454 389.119,132.160 388.400,131.600 388.400 C 131.406 388.400,131.144 388.568,131.017 388.772 M133.266 389.550 C 132.832 389.826,132.843 389.931,133.327 390.117 C 133.946 390.354,134.400 390.107,134.400 389.533 C 134.400 389.110,133.950 389.117,133.266 389.550 M135.300 390.500 C 135.392 390.775,135.707 391.000,136.000 391.000 C 136.293 391.000,136.608 390.775,136.700 390.500 C 136.799 390.203,136.516 390.000,136.000 390.000 C 135.484 390.000,135.201 390.203,135.300 390.500 M137.600 391.200 C 137.600 391.420,137.960 391.600,138.400 391.600 C 138.840 391.600,139.200 391.420,139.200 391.200 C 139.200 390.980,138.840 390.800,138.400 390.800 C 137.960 390.800,137.600 390.980,137.600 391.200 M139.800 392.000 C 139.936 392.220,140.487 392.400,141.024 392.400 C 141.561 392.400,142.000 392.220,142.000 392.000 C 142.000 391.780,141.449 391.600,140.776 391.600 C 140.063 391.600,139.656 391.767,139.800 392.000 M142.600 392.800 C 142.736 393.020,143.197 393.200,143.624 393.200 C 144.051 393.200,144.400 393.020,144.400 392.800 C 144.400 392.580,143.939 392.400,143.376 392.400 C 142.796 392.400,142.460 392.573,142.600 392.800 M144.800 393.600 C 144.800 393.820,145.340 394.000,146.000 394.000 C 146.660 394.000,147.200 393.820,147.200 393.600 C 147.200 393.380,146.660 393.200,146.000 393.200 C 145.340 393.200,144.800 393.380,144.800 393.600 M148.000 394.400 C 148.000 394.620,148.450 394.800,149.000 394.800 C 149.550 394.800,150.000 394.620,150.000 394.400 C 150.000 394.180,149.550 394.000,149.000 394.000 C 148.450 394.000,148.000 394.180,148.000 394.400 M150.800 395.200 C 151.588 395.709,153.200 395.709,153.200 395.200 C 153.200 394.980,152.525 394.803,151.700 394.806 C 150.584 394.811,150.354 394.912,150.800 395.200 " stroke="none" fill="#588ccc" fill-rule="evenodd"></path></g></svg>