<?xml version="1.0" encoding="UTF-8" standalone="no"?>
<!DOCTYPE svg PUBLIC "-//W3C//DTD SVG 1.1//EN" "http://www.w3.org/Graphics/SVG/1.1/DTD/svg11.dtd">
<svg width="100%" height="100%" viewBox="0 0 22 16" version="1.1" xmlns="http://www.w3.org/2000/svg" xmlns:xlink="http://www.w3.org/1999/xlink" xml:space="preserve" xmlns:serif="http://www.serif.com/" style="fill-rule:evenodd;clip-rule:evenodd;">
    <g id="svg_32" transform="matrix(0.0333333,0,0,0.0333333,3,1.18424e-16)">
        <g id="svg_28" transform="matrix(1.13416,0,0,1.13416,-33.3526,-31.7144)">
            <path d="M243.752,27.98L246.477,28.032L249.193,28.118L251.901,28.239L254.6,28.393L257.29,28.58L259.971,28.802L262.642,29.056L265.303,29.344L267.954,29.664L270.596,30.018L273.227,30.403L275.847,30.821L278.457,31.271L281.056,31.752L283.643,32.265L286.219,32.81L288.784,33.386L291.337,33.992L293.877,34.63L296.406,35.298L298.922,35.996L301.425,36.725L303.916,37.483L306.394,38.271L308.858,39.089L311.309,39.936L313.746,40.812L316.17,41.717L318.579,42.651L320.974,43.613L323.354,44.603L325.72,45.622L328.071,46.668L330.406,47.742L332.727,48.843L335.031,49.972L337.32,51.128L339.593,52.31L341.85,53.519L344.091,54.754L346.315,56.016L348.522,57.304L350.712,58.617L352.885,59.956L355.04,61.32L357.178,62.709L359.298,64.123L361.4,65.562L363.484,67.026L365.549,68.514L367.595,70.026L369.623,71.561L371.631,73.121L373.621,74.704L375.59,76.31L377.54,77.939L379.47,79.591L381.38,81.266L383.27,82.963L385.139,84.682L386.987,86.424L388.815,88.187L390.621,89.972L392.406,91.778L394.169,93.605L395.91,95.454L397.63,97.323L399.327,99.212L401.001,101.122L402.653,103.052L404.283,105.002L405.889,106.972L407.472,108.961L409.031,110.97L410.567,112.997L412.079,115.044L413.567,117.109L415.03,119.193L416.469,121.295L417.883,123.415L419.273,125.552L420.637,127.708L421.976,129.881L423.289,132.071L424.577,134.278L425.838,136.502L427.074,138.742L428.283,140.999L429.465,143.272L430.621,145.561L431.749,147.866L432.851,150.186L433.924,152.522L434.971,154.873L435.989,157.238L436.98,159.619L437.942,162.014L438.875,164.423L439.78,166.846L440.656,169.284L441.503,171.735L442.321,174.199L443.109,176.676L443.868,179.167L444.596,181.671L445.295,184.187L445.963,186.715L446.6,189.256L447.207,191.809L447.783,194.373L448.327,196.95L448.84,199.537L449.322,202.136L449.772,204.745L450.19,207.366L450.575,209.997L450.928,212.638L451.249,215.29L451.536,217.951L451.791,220.622L452.012,223.303L452.2,225.993L452.354,228.691L452.474,231.399L452.56,234.116L452.612,236.841L452.63,239.574L452.612,242.307L452.56,245.032L452.474,247.749L452.354,250.457L452.2,253.156L452.012,255.846L451.791,258.526L451.536,261.197L451.249,263.859L450.928,266.51L450.575,269.151L450.19,271.782L449.772,274.403L449.322,277.012L448.84,279.611L448.327,282.199L447.783,284.775L447.207,287.339L446.6,289.892L445.963,292.433L445.295,294.961L444.596,297.478L443.868,299.981L443.109,302.472L442.321,304.949L441.503,307.414L440.656,309.865L439.78,312.302L438.875,314.725L437.942,317.134L436.98,319.529L435.989,321.91L434.971,324.275L433.924,326.626L432.851,328.962L431.749,331.282L430.621,333.587L429.465,335.876L428.283,338.149L427.074,340.406L425.838,342.646L424.577,344.87L423.289,347.077L421.976,349.267L420.637,351.44L419.273,353.596L417.883,355.734L416.469,357.853L415.03,359.955L413.567,362.039L412.079,364.104L410.567,366.151L409.031,368.178L407.472,370.187L405.889,372.176L404.283,374.146L402.653,376.096L401.001,378.026L399.327,379.936L397.63,381.826L395.91,383.695L394.169,385.543L392.406,387.37L390.621,389.176L388.815,390.961L386.987,392.724L385.139,394.466L383.27,396.185L381.38,397.882L379.47,399.557L377.54,401.209L375.59,402.838L373.621,404.444L371.631,406.027L369.623,407.587L367.595,409.123L365.549,410.634L363.484,412.122L361.4,413.586L359.298,415.025L357.178,416.439L355.04,417.828L352.885,419.193L350.712,420.531L348.522,421.845L346.315,423.132L344.091,424.394L341.85,425.629L339.593,426.838L337.32,428.021L335.031,429.176L332.727,430.305L330.406,431.406L328.071,432.48L325.72,433.526L323.354,434.545L320.974,435.535L318.579,436.497L316.17,437.431L313.746,438.336L311.309,439.212L308.858,440.059L306.394,440.877L303.916,441.665L301.425,442.423L298.922,443.152L296.406,443.85L293.877,444.518L291.337,445.156L288.784,445.762L286.219,446.338L283.643,446.883L281.056,447.396L278.457,447.878L275.847,448.327L273.227,448.745L270.596,449.131L267.954,449.484L265.303,449.804L262.642,450.092L259.971,450.346L257.29,450.568L254.6,450.755L251.901,450.91L249.193,451.03L246.477,451.116L243.752,451.168L241.019,451.185L238.285,451.168L235.56,451.116L232.844,451.03L230.136,450.91L227.437,450.755L224.747,450.568L222.066,450.346L219.395,450.092L216.734,449.804L214.083,449.484L211.441,449.131L208.81,448.745L206.19,448.327L203.58,447.878L200.982,447.396L198.394,446.883L195.818,446.338L193.253,445.762L190.7,445.156L188.16,444.518L185.631,443.85L183.115,443.152L180.612,442.423L178.121,441.665L175.643,440.877L173.179,440.059L170.728,439.212L168.291,438.336L165.868,437.431L163.458,436.497L161.063,435.535L158.683,434.545L156.317,433.526L153.966,432.48L151.631,431.406L149.31,430.305L147.006,429.176L144.717,428.021L142.444,426.838L140.187,425.629L137.946,424.394L135.722,423.132L133.515,421.845L131.325,420.531L129.152,419.193L126.997,417.828L124.859,416.439L122.739,415.025L120.637,413.586L118.554,412.122L116.488,410.634L114.442,409.123L112.414,407.587L110.406,406.027L108.416,404.444L106.447,402.838L104.497,401.209L102.567,399.557L100.657,397.882L98.767,396.185L96.898,394.466L95.05,392.724L93.222,390.961L91.416,389.176L89.631,387.37L87.868,385.543L86.127,383.695L84.408,381.826L82.71,379.936L81.036,378.026L79.384,376.096L77.754,374.146L76.148,372.176L74.565,370.187L73.006,368.178L71.47,366.151L69.958,364.104L68.47,362.039L67.007,359.955L65.568,357.853L64.154,355.734L62.764,353.596L61.4,351.44L60.061,349.267L58.748,347.077L57.46,344.87L56.199,342.646L54.963,340.406L53.754,338.149L52.572,335.876L51.416,333.587L50.288,331.282L49.187,328.962L48.113,326.626L47.066,324.275L46.048,321.91L45.057,319.529L44.095,317.134L43.162,314.725L42.257,312.302L41.381,309.865L40.534,307.414L39.716,304.949L38.928,302.472L38.169,299.981L37.441,297.478L36.742,294.961L36.074,292.433L35.437,289.892L34.83,287.339L34.254,284.775L33.71,282.199L33.197,279.611L32.715,277.012L32.265,274.403L31.848,271.782L31.462,269.151L31.109,266.51L30.788,263.859L30.501,261.197L30.246,258.526L30.025,255.846L29.837,253.156L29.683,250.457L29.563,247.749L29.477,245.032L29.425,242.307L29.407,239.574L29.425,236.841L29.477,234.116L29.563,231.399L29.683,228.691L29.837,225.993L30.025,223.303L30.246,220.622L30.501,217.951L30.788,215.29L31.109,212.638L31.462,209.997L31.848,207.366L32.265,204.745L32.715,202.136L33.197,199.537L33.71,196.95L34.254,194.373L34.83,191.809L35.437,189.256L36.074,186.715L36.742,184.187L37.441,181.671L38.169,179.167L38.928,176.676L39.716,174.199L40.534,171.735L41.381,169.284L42.257,166.846L43.162,164.423L44.095,162.014L45.057,159.619L46.048,157.238L47.066,154.873L48.113,152.522L49.187,150.186L50.288,147.866L51.416,145.561L52.572,143.272L53.754,140.999L54.963,138.742L56.199,136.502L57.46,134.278L58.748,132.071L60.061,129.881L61.4,127.708L62.764,125.552L64.154,123.415L65.568,121.295L67.007,119.193L68.47,117.109L69.958,115.044L71.47,112.997L73.006,110.97L74.565,108.961L76.148,106.972L77.754,105.002L79.384,103.052L81.036,101.122L82.71,99.212L84.408,97.323L86.127,95.454L87.868,93.605L89.631,91.778L91.416,89.972L93.222,88.187L95.05,86.424L96.898,84.682L98.767,82.963L100.657,81.266L102.567,79.591L104.497,77.939L106.447,76.31L108.416,74.704L110.406,73.121L112.414,71.561L114.442,70.026L116.488,68.514L118.554,67.026L120.637,65.562L122.739,64.123L124.859,62.709L126.997,61.32L129.152,59.956L131.325,58.617L133.515,57.304L135.722,56.016L137.946,54.754L140.187,53.519L142.444,52.31L144.717,51.128L147.006,49.972L149.31,48.843L151.631,47.742L153.966,46.668L156.317,45.622L158.683,44.603L161.063,43.613L163.458,42.651L165.868,41.717L168.291,40.812L170.728,39.936L173.179,39.089L175.643,38.271L178.121,37.483L180.612,36.725L183.115,35.996L185.631,35.298L188.16,34.63L190.7,33.992L193.253,33.386L195.818,32.81L198.394,32.265L200.982,31.752L203.58,31.271L206.19,30.821L208.81,30.403L211.441,30.018L214.083,29.664L216.734,29.344L219.395,29.056L222.066,28.802L224.747,28.58L227.437,28.393L230.136,28.239L232.844,28.118L235.56,28.032L238.285,27.98L241.019,27.963L243.752,27.98ZM238.919,77.977L236.828,78.017L234.745,78.083L232.671,78.175L230.604,78.293L228.545,78.437L226.495,78.606L224.454,78.801L222.42,79.021L220.395,79.265L218.379,79.535L216.371,79.829L214.372,80.148L212.382,80.491L210.401,80.858L208.428,81.249L206.465,81.664L204.511,82.103L202.566,82.565L200.63,83.051L198.704,83.56L196.787,84.092L194.88,84.647L192.983,85.224L191.096,85.825L189.219,86.448L187.351,87.093L185.495,87.76L183.648,88.45L181.812,89.161L179.987,89.895L178.173,90.65L176.369,91.426L174.577,92.224L172.796,93.043L171.026,93.883L169.268,94.744L167.521,95.625L165.787,96.528L164.064,97.45L162.354,98.393L160.656,99.357L158.97,100.34L157.298,101.343L155.638,102.366L153.991,103.408L152.357,104.47L150.737,105.551L149.13,106.651L147.537,107.77L145.958,108.907L144.392,110.064L142.841,111.238L141.305,112.431L139.783,113.642L138.276,114.871L136.784,116.118L135.307,117.382L133.845,118.664L132.399,119.963L130.968,121.279L129.553,122.612L128.155,123.962L126.772,125.328L125.406,126.71L124.056,128.109L122.723,129.524L121.407,130.954L120.109,132.401L118.827,133.862L117.563,135.339L116.316,136.832L115.087,138.339L113.876,139.861L112.683,141.397L111.508,142.948L110.352,144.513L109.214,146.092L108.095,147.685L106.995,149.292L105.914,150.913L104.853,152.546L103.81,154.193L102.787,155.853L101.784,157.526L100.801,159.211L99.838,160.909L98.895,162.62L97.972,164.342L97.07,166.077L96.188,167.823L95.327,169.582L94.487,171.351L93.668,173.132L92.87,174.925L92.094,176.728L91.339,178.543L90.606,180.368L89.894,182.204L89.205,184.05L88.537,185.907L87.892,187.774L87.269,189.651L86.669,191.539L86.091,193.436L85.536,195.343L85.004,197.259L84.495,199.186L84.01,201.121L83.547,203.066L83.109,205.02L82.694,206.984L82.302,208.956L81.935,210.938L81.592,212.928L81.274,214.927L80.979,216.934L80.71,218.951L80.465,220.976L80.245,223.009L80.051,225.051L79.881,227.101L79.738,229.159L79.62,231.226L79.528,233.301L79.462,235.384L79.422,237.475L79.408,239.574L79.422,241.673L79.462,243.764L79.528,245.847L79.62,247.922L79.738,249.989L79.881,252.047L80.051,254.097L80.245,256.139L80.465,258.172L80.71,260.197L80.979,262.214L81.274,264.221L81.592,266.22L81.935,268.211L82.302,270.192L82.694,272.164L83.109,274.128L83.547,276.082L84.01,278.027L84.495,279.963L85.004,281.889L85.536,283.805L86.091,285.712L86.669,287.61L87.269,289.497L87.892,291.374L88.537,293.241L89.205,295.098L89.894,296.945L90.606,298.78L91.339,300.606L92.094,302.42L92.87,304.224L93.668,306.016L94.487,307.797L95.327,309.567L96.188,311.325L97.07,313.071L97.972,314.806L98.895,316.528L99.838,318.239L100.801,319.937L101.784,321.622L102.787,323.295L103.81,324.955L104.853,326.602L105.914,328.236L106.995,329.856L108.095,331.463L109.214,333.056L110.352,334.635L111.508,336.2L112.683,337.751L113.876,339.288L115.087,340.81L116.316,342.317L117.563,343.809L118.827,345.286L120.108,346.747L121.408,348.194L122.724,349.625L124.056,351.039L125.406,352.438L126.772,353.821L128.155,355.187L129.553,356.536L130.968,357.869L132.399,359.185L133.845,360.484L135.307,361.766L136.784,363.03L138.276,364.277L139.783,365.506L141.305,366.717L142.841,367.91L144.392,369.084L145.957,370.241L147.537,371.379L149.13,372.497L150.737,373.597L152.357,374.678L153.991,375.74L155.638,376.782L157.298,377.805L158.97,378.808L160.656,379.792L162.354,380.755L164.064,381.698L165.787,382.621L167.521,383.523L169.268,384.405L171.026,385.265L172.796,386.105L174.577,386.924L176.369,387.722L178.173,388.499L179.987,389.253L181.812,389.987L183.648,390.698L185.495,391.388L187.351,392.055L189.218,392.7L191.096,393.323L192.983,393.924L194.88,394.502L196.787,395.056L198.704,395.588L200.63,396.097L202.566,396.583L204.511,397.045L206.465,397.484L208.428,397.899L210.401,398.29L212.382,398.657L214.372,399L216.371,399.319L218.379,399.613L220.395,399.883L222.42,400.128L224.453,400.347L226.496,400.542L228.546,400.711L230.604,400.855L232.671,400.973L234.745,401.065L236.828,401.131L238.919,401.171L241.019,401.184L243.118,401.171L245.209,401.131L247.292,401.065L249.366,400.973L251.433,400.855L253.491,400.711L255.542,400.542L257.584,400.347L259.617,400.128L261.642,399.883L263.658,399.613L265.666,399.319L267.665,399L269.655,398.657L271.636,398.29L273.609,397.899L275.572,397.484L277.526,397.045L279.471,396.583L281.407,396.097L283.333,395.588L285.25,395.056L287.157,394.502L289.054,393.924L290.941,393.323L292.819,392.7L294.685,392.055L296.542,391.388L298.389,390.698L300.225,389.987L302.05,389.254L303.864,388.499L305.668,387.722L307.46,386.925L309.241,386.105L311.011,385.265L312.769,384.405L314.516,383.523L316.25,382.621L317.973,381.698L319.683,380.755L321.381,379.791L323.067,378.808L324.739,377.805L326.399,376.782L328.046,375.74L329.68,374.678L331.3,373.597L332.907,372.497L334.5,371.378L336.08,370.241L337.645,369.084L339.196,367.91L340.732,366.717L342.254,365.506L343.761,364.277L345.253,363.03L346.73,361.766L348.192,360.484L349.638,359.185L351.069,357.869L352.484,356.536L353.882,355.187L355.265,353.82L356.631,352.438L357.981,351.039L359.314,349.624L360.63,348.194L361.929,346.747L363.21,345.286L364.474,343.809L365.721,342.317L366.95,340.809L368.161,339.288L369.354,337.751L370.529,336.2L371.685,334.635L372.823,333.056L373.942,331.463L375.042,329.856L376.123,328.236L377.184,326.602L378.227,324.955L379.25,323.295L380.253,321.622L381.236,319.937L382.199,318.239L383.142,316.529L384.065,314.806L384.967,313.071L385.849,311.325L386.71,309.567L387.55,307.797L388.369,306.016L389.167,304.224L389.943,302.42L390.698,300.606L391.431,298.781L392.143,296.945L392.832,295.098L393.5,293.241L394.145,291.374L394.768,289.497L395.368,287.609L395.946,285.712L396.501,283.806L397.033,281.889L397.542,279.962L398.027,278.027L398.49,276.082L398.928,274.128L399.344,272.164L399.735,270.192L400.102,268.211L400.445,266.22L400.764,264.221L401.058,262.214L401.327,260.197L401.572,258.172L401.792,256.139L401.986,254.097L402.156,252.047L402.299,249.989L402.417,247.922L402.509,245.848L402.576,243.764L402.615,241.673L402.629,239.574L402.615,237.475L402.576,235.384L402.509,233.301L402.417,231.226L402.299,229.16L402.156,227.101L401.986,225.051L401.792,223.009L401.572,220.976L401.327,218.951L401.058,216.934L400.764,214.927L400.445,212.928L400.102,210.937L399.735,208.956L399.344,206.984L398.928,205.02L398.49,203.066L398.027,201.121L397.542,199.186L397.033,197.259L396.501,195.343L395.946,193.436L395.368,191.539L394.768,189.652L394.145,187.774L393.5,185.907L392.832,184.05L392.143,182.203L391.431,180.368L390.698,178.542L389.943,176.728L389.167,174.925L388.369,173.132L387.55,171.351L386.71,169.581L385.849,167.823L384.967,166.077L384.065,164.342L383.142,162.62L382.199,160.909L381.236,159.211L380.253,157.526L379.25,155.853L378.227,154.193L377.184,152.546L376.123,150.913L375.042,149.292L373.942,147.685L372.823,146.093L371.685,144.513L370.529,142.948L369.354,141.397L368.161,139.86L366.95,138.339L365.721,136.832L364.474,135.339L363.21,133.862L361.928,132.401L360.63,130.954L359.314,129.524L357.981,128.109L356.631,126.71L355.265,125.328L353.882,123.962L352.483,122.612L351.069,121.279L349.638,119.963L348.192,118.664L346.73,117.382L345.253,116.118L343.761,114.871L342.254,113.642L340.732,112.431L339.196,111.239L337.645,110.064L336.079,108.907L334.5,107.77L332.907,106.651L331.3,105.551L329.68,104.47L328.046,103.408L326.399,102.366L324.739,101.343L323.067,100.34L321.381,99.357L319.683,98.393L317.973,97.45L316.25,96.528L314.516,95.625L312.769,94.744L311.011,93.883L309.241,93.043L307.46,92.224L305.668,91.426L303.865,90.65L302.05,89.895L300.225,89.161L298.389,88.45L296.543,87.76L294.686,87.093L292.818,86.448L290.941,85.825L289.054,85.224L287.157,84.647L285.25,84.092L283.333,83.56L281.407,83.051L279.471,82.565L277.526,82.103L275.572,81.664L273.609,81.249L271.636,80.858L269.655,80.491L267.665,80.148L265.666,79.829L263.658,79.535L261.642,79.265L259.617,79.021L257.584,78.801L255.542,78.606L253.492,78.437L251.433,78.293L249.366,78.175L247.292,78.083L245.209,78.017L243.118,77.977L241.019,77.964L238.919,77.977Z"/>
        </g>
        <path id="svg_29" d="M63.321,356.627C208.444,452.673 288.223,331.316 199.339,261.666C110.455,192.017 215.49,66.529 337.367,178.906" style="fill:none;stroke:black;stroke-width:50px;"/>
    </g>
</svg>
